<?xml version="1.0" encoding="UTF-8"?><svg id="Livello_1" xmlns="http://www.w3.org/2000/svg" xmlns:xlink="http://www.w3.org/1999/xlink" viewBox="0 0 71.18 68.96"><defs><style>.cls-1{fill:none;}.cls-2{clip-path:url(#clippath);}.cls-3{fill:#e2715a;}</style><clipPath id="clippath"><rect class="cls-1" x="0" width="71.18" height="68.96"/></clipPath></defs><g class="cls-2"><path class="cls-3" d="M35.64,62.56c4.07,0,7.83-.69,11.28-2.08,3.45-1.39,6.46-3.36,9.01-5.91,2.55-2.55,4.53-5.52,5.96-8.91,1.42-3.39,2.13-7.12,2.13-11.18s-.71-7.8-2.13-11.19c-1.42-3.39-3.41-6.36-5.96-8.91-2.55-2.55-5.55-4.52-9.01-5.91-3.45-1.39-7.22-2.08-11.28-2.08s-7.84,.69-11.33,2.08c-3.49,1.39-6.52,3.36-9.1,5.91-2.58,2.55-4.58,5.52-6,8.91-1.42,3.39-2.13,7.12-2.13,11.19s.71,7.72,2.13,11.14c1.42,3.42,3.42,6.41,6,8.96,2.58,2.55,5.62,4.52,9.1,5.91,3.49,1.39,7.26,2.08,11.33,2.08m0,6.39c-5.1,0-9.83-.86-14.19-2.57-4.36-1.71-8.14-4.13-11.33-7.26-3.2-3.13-5.68-6.78-7.46-10.94-1.78-4.16-2.66-8.73-2.66-13.7s.89-9.54,2.66-13.7c1.78-4.16,4.26-7.81,7.46-10.94,3.2-3.13,6.96-5.55,11.28-7.26C25.73,.86,30.47,0,35.64,0s9.81,.86,14.14,2.57c4.33,1.71,8.09,4.12,11.28,7.22,3.19,3.1,5.68,6.75,7.46,10.94,1.78,4.2,2.66,8.78,2.66,13.75s-.89,9.56-2.66,13.75c-1.78,4.2-4.26,7.85-7.46,10.94-3.2,3.1-6.96,5.5-11.28,7.21-4.33,1.71-9.04,2.57-14.14,2.57"/></g></svg>