<?xml version="1.0" encoding="UTF-8"?><svg id="Livello_1" xmlns="http://www.w3.org/2000/svg" xmlns:xlink="http://www.w3.org/1999/xlink" viewBox="0 0 312.51 99"><defs><style>.cls-1{fill:none;}.cls-2{clip-path:url(#clippath);}.cls-3{fill:#f4991a;}.cls-4{fill:#d32324;}.cls-5{fill:#0e8ece;}.cls-6{fill:#1d1d1b;}.cls-7{clip-path:url(#clippath-1);}.cls-8{clip-path:url(#clippath-4);}.cls-9{clip-path:url(#clippath-3);}.cls-10{clip-path:url(#clippath-2);}</style><clipPath id="clippath"><rect class="cls-1" width="312.51" height="99"/></clipPath><clipPath id="clippath-1"><rect class="cls-1" width="312.51" height="99"/></clipPath><clipPath id="clippath-2"><rect class="cls-1" width="312.51" height="99"/></clipPath><clipPath id="clippath-3"><rect class="cls-1" width="312.51" height="99"/></clipPath><clipPath id="clippath-4"><rect class="cls-1" width="312.51" height="99"/></clipPath></defs><g class="cls-2"><path class="cls-6" d="M13.32,99c-1.88,0-3.62-.31-5.2-.94-1.59-.62-2.96-1.51-4.13-2.65-1.16-1.14-2.08-2.48-2.73-4.01-.66-1.53-.99-3.21-.99-5.05s.33-3.52,.99-5.04c.66-1.53,1.58-2.86,2.75-4.01,1.18-1.14,2.56-2.02,4.15-2.65,1.59-.62,3.32-.94,5.21-.94s3.66,.32,5.27,.97c1.61,.65,2.98,1.6,4.11,2.88l-2.29,2.22c-.94-.99-2-1.72-3.18-2.2-1.18-.48-2.43-.72-3.77-.72s-2.68,.24-3.86,.71c-1.19,.47-2.22,1.13-3.09,1.97-.87,.85-1.55,1.85-2.03,3.02-.48,1.17-.72,2.43-.72,3.79s.24,2.63,.72,3.79c.48,1.16,1.16,2.17,2.03,3.02s1.9,1.51,3.09,1.98c1.19,.47,2.48,.71,3.86,.71s2.6-.24,3.77-.72c1.18-.48,2.23-1.23,3.18-2.24l2.29,2.22c-1.13,1.27-2.5,2.24-4.11,2.89-1.61,.66-3.38,.99-5.31,.99"/><path class="cls-6" d="M27.29,80.02h3.39v18.7h-3.39v-18.7Zm1.7-3.6c-.66,0-1.21-.21-1.64-.64-.43-.42-.65-.94-.65-1.55s.22-1.16,.65-1.59c.44-.42,.98-.64,1.64-.64s1.2,.21,1.64,.62c.43,.41,.65,.92,.65,1.53s-.21,1.17-.64,1.61c-.42,.44-.98,.65-1.66,.65"/><path class="cls-6" d="M43.56,98.93c-1.88,0-3.34-.51-4.38-1.52-1.04-1.01-1.55-2.46-1.55-4.34v-17.15h3.39v17.01c0,1.01,.25,1.79,.76,2.33,.5,.54,1.23,.81,2.17,.81,1.06,0,1.94-.3,2.65-.88l1.06,2.44c-.52,.45-1.14,.78-1.85,.99-.72,.21-1.47,.32-2.24,.32m-9.1-18.91h11.93v2.79h-11.93v-2.79Z"/><path class="cls-6" d="M57.71,98.93c-1.88,0-3.34-.51-4.38-1.52-1.03-1.01-1.55-2.46-1.55-4.34v-17.15h3.39v17.01c0,1.01,.25,1.79,.76,2.33,.51,.54,1.23,.81,2.17,.81,1.06,0,1.94-.3,2.65-.88l1.06,2.44c-.52,.45-1.13,.78-1.85,.99-.72,.21-1.46,.32-2.24,.32m-9.1-18.91h11.93v2.79h-11.93v-2.79Z"/><path class="cls-6" d="M72.42,77.3l-5.93-4.59h4.31l4.8,4.59h-3.18Zm5.08,21.42v-3.95l-.18-.74v-6.74c0-1.43-.42-2.55-1.25-3.33-.83-.79-2.09-1.18-3.76-1.18-1.11,0-2.19,.18-3.25,.55-1.06,.37-1.95,.85-2.68,1.46l-1.41-2.54c.96-.78,2.12-1.37,3.48-1.78,1.35-.41,2.77-.62,4.25-.62,2.56,0,4.54,.62,5.93,1.87s2.08,3.15,2.08,5.72v11.29h-3.21Zm-6.14,.21c-1.39,0-2.61-.23-3.65-.71-1.05-.47-1.85-1.12-2.42-1.96-.56-.84-.85-1.78-.85-2.84s.24-1.93,.72-2.75c.48-.82,1.27-1.48,2.36-1.97,1.09-.49,2.57-.74,4.43-.74h5.93v2.44h-5.79c-1.69,0-2.84,.28-3.42,.85-.59,.56-.88,1.25-.88,2.05,0,.92,.36,1.65,1.09,2.2,.73,.55,1.74,.83,3.03,.83s2.38-.28,3.33-.85c.95-.56,1.64-1.39,2.06-2.47l.67,2.33c-.45,1.11-1.24,1.98-2.36,2.63-1.13,.65-2.55,.97-4.27,.97"/><path class="cls-6" d="M110.88,98.72v-5.05l.21-4.34-.35-4.34v-12.46h3.39v26.18h-3.25Zm-6.39-2.75c1.18,0,2.24-.27,3.19-.81,.95-.54,1.71-1.31,2.26-2.31,.55-1,.83-2.16,.83-3.48s-.28-2.5-.83-3.48c-.55-.98-1.31-1.73-2.26-2.28-.95-.54-2.02-.81-3.19-.81s-2.27,.27-3.21,.81c-.94,.54-1.69,1.3-2.26,2.28-.57,.98-.85,2.13-.85,3.48s.28,2.48,.85,3.48c.56,1,1.32,1.77,2.26,2.31,.94,.54,2.01,.81,3.21,.81m-.28,2.96c-1.81,0-3.43-.4-4.85-1.2-1.42-.8-2.55-1.92-3.37-3.35-.82-1.43-1.24-3.11-1.24-5.01s.41-3.57,1.24-4.99c.82-1.42,1.95-2.53,3.37-3.34,1.42-.8,3.04-1.2,4.85-1.2,1.58,0,3,.35,4.27,1.06,1.27,.71,2.29,1.76,3.05,3.18,.76,1.41,1.15,3.18,1.15,5.29s-.37,3.88-1.11,5.29c-.74,1.41-1.75,2.47-3.02,3.19-1.27,.72-2.72,1.08-4.34,1.08"/><path class="cls-6" d="M128.88,98.93c-2,0-3.76-.41-5.28-1.24-1.52-.82-2.69-1.95-3.53-3.39-.84-1.43-1.25-3.08-1.25-4.94s.41-3.51,1.22-4.94c.81-1.43,1.93-2.56,3.35-3.37,1.42-.81,3.03-1.22,4.82-1.22s3.41,.4,4.8,1.2c1.39,.8,2.48,1.92,3.26,3.37,.79,1.45,1.18,3.14,1.18,5.06,0,.14,0,.31-.02,.49-.01,.19-.03,.37-.05,.53h-15.92v-2.44h14.15l-1.38,.85c.02-1.2-.22-2.27-.74-3.21-.52-.94-1.23-1.68-2.14-2.2-.91-.53-1.96-.79-3.16-.79s-2.22,.26-3.14,.79c-.92,.53-1.63,1.27-2.15,2.22-.52,.95-.78,2.04-.78,3.26v.56c0,1.25,.29,2.36,.86,3.34,.58,.98,1.38,1.74,2.42,2.28,1.03,.54,2.22,.81,3.56,.81,1.11,0,2.11-.19,3.02-.56,.91-.38,1.7-.94,2.38-1.69l1.87,2.19c-.85,.99-1.9,1.74-3.16,2.26-1.26,.52-2.67,.78-4.22,.78"/></g><rect class="cls-6" x="142.15" y="72.53" width="3.39" height="26.18"/><rect class="cls-6" x="151.99" y="72.53" width="3.39" height="26.18"/><g class="cls-7"><path class="cls-6" d="M173.45,98.72v-3.95l-.18-.74v-6.74c0-1.43-.42-2.55-1.25-3.33-.84-.79-2.09-1.18-3.76-1.18-1.1,0-2.19,.18-3.25,.55-1.06,.37-1.95,.85-2.68,1.46l-1.41-2.54c.96-.78,2.12-1.37,3.47-1.78,1.35-.41,2.77-.62,4.25-.62,2.56,0,4.54,.62,5.93,1.87,1.39,1.25,2.08,3.15,2.08,5.72v11.29h-3.21Zm-6.14,.21c-1.39,0-2.61-.23-3.65-.71-1.05-.47-1.85-1.12-2.42-1.96-.56-.84-.85-1.78-.85-2.84s.24-1.93,.72-2.75c.48-.82,1.27-1.48,2.36-1.97,1.09-.49,2.57-.74,4.43-.74h5.93v2.44h-5.79c-1.69,0-2.84,.28-3.42,.85-.59,.56-.88,1.25-.88,2.05,0,.92,.37,1.65,1.1,2.2,.73,.55,1.74,.83,3.04,.83s2.38-.28,3.33-.85c.95-.56,1.64-1.39,2.06-2.47l.67,2.33c-.45,1.11-1.23,1.98-2.36,2.63-1.13,.65-2.55,.97-4.27,.97"/></g><polygon class="cls-6" points="216.29 74.02 206.12 91.37 195.82 74.02 192.93 74.02 192.93 98.72 196.31 98.72 196.31 80.82 205.24 95.72 206.87 95.72 215.8 80.7 215.83 98.72 219.22 98.72 219.18 74.02 216.29 74.02"/><g class="cls-10"><path class="cls-6" d="M234,98.93c-1.6,0-3.01-.29-4.22-.88-1.21-.59-2.15-1.49-2.82-2.7-.67-1.21-1.01-2.73-1.01-4.57v-10.76h3.39v10.37c0,1.84,.44,3.21,1.32,4.13,.88,.92,2.12,1.38,3.72,1.38,1.18,0,2.2-.24,3.07-.72,.87-.48,1.54-1.19,2.01-2.12,.47-.93,.71-2.05,.71-3.37v-9.67h3.39v18.7h-3.21v-5.05l.53,1.34c-.61,1.25-1.53,2.21-2.75,2.89-1.22,.68-2.6,1.02-4.13,1.02"/><path class="cls-6" d="M255.38,98.93c-1.55,0-3.03-.21-4.43-.63-1.4-.42-2.5-.94-3.3-1.55l1.41-2.68c.8,.54,1.79,1,2.96,1.38,1.18,.38,2.38,.57,3.6,.57,1.57,0,2.71-.22,3.4-.67,.69-.45,1.04-1.07,1.04-1.87,0-.59-.21-1.05-.64-1.38-.42-.33-.98-.58-1.68-.74-.69-.16-1.46-.31-2.31-.44-.85-.13-1.69-.29-2.54-.49-.85-.2-1.62-.48-2.33-.85-.71-.36-1.27-.87-1.7-1.52-.42-.65-.63-1.51-.63-2.59s.32-2.12,.95-2.96c.63-.85,1.53-1.5,2.7-1.96,1.17-.46,2.55-.69,4.15-.69,1.22,0,2.46,.15,3.72,.44,1.26,.3,2.29,.71,3.09,1.25l-1.45,2.68c-.85-.56-1.73-.95-2.65-1.16-.92-.21-1.84-.32-2.75-.32-1.48,0-2.59,.24-3.32,.72-.73,.48-1.09,1.1-1.09,1.85,0,.64,.22,1.12,.65,1.46,.43,.34,1,.61,1.69,.79,.69,.19,1.46,.35,2.31,.48,.85,.13,1.69,.29,2.54,.49,.85,.2,1.62,.48,2.31,.83,.69,.35,1.26,.85,1.69,1.48,.43,.64,.65,1.48,.65,2.54,0,1.13-.33,2.11-.99,2.93-.66,.82-1.59,1.46-2.79,1.92-1.2,.46-2.63,.69-4.3,.69"/><path class="cls-6" d="M267.7,80.02h3.39v18.7h-3.39v-18.7Zm1.69-3.6c-.66,0-1.21-.21-1.64-.64-.43-.42-.65-.94-.65-1.55s.22-1.16,.65-1.59,.98-.64,1.64-.64,1.2,.21,1.64,.62c.43,.41,.65,.92,.65,1.53s-.21,1.17-.64,1.61c-.42,.44-.98,.65-1.66,.65"/><path class="cls-6" d="M285.69,98.93c-1.91,0-3.61-.41-5.1-1.24-1.49-.82-2.66-1.95-3.51-3.39-.85-1.43-1.27-3.08-1.27-4.94s.42-3.51,1.27-4.94c.85-1.43,2.02-2.56,3.51-3.37,1.49-.81,3.19-1.22,5.1-1.22,1.69,0,3.2,.34,4.53,1.01,1.33,.67,2.36,1.66,3.09,2.98l-2.58,1.66c-.61-.92-1.36-1.59-2.24-2.03-.88-.43-1.83-.65-2.84-.65-1.22,0-2.32,.27-3.28,.81-.96,.54-1.73,1.3-2.29,2.28-.56,.98-.85,2.13-.85,3.48s.28,2.5,.85,3.49c.57,.99,1.33,1.75,2.29,2.29,.96,.54,2.06,.81,3.28,.81,1.01,0,1.96-.22,2.84-.65,.88-.43,1.63-1.11,2.24-2.03l2.58,1.62c-.73,1.29-1.76,2.29-3.09,2.98-1.33,.69-2.84,1.04-4.53,1.04"/><path class="cls-6" d="M309.3,98.72v-3.95l-.18-.74v-6.74c0-1.43-.42-2.55-1.25-3.33-.84-.79-2.09-1.18-3.76-1.18-1.1,0-2.19,.18-3.25,.55-1.06,.37-1.95,.85-2.68,1.46l-1.41-2.54c.96-.78,2.12-1.37,3.48-1.78,1.35-.41,2.77-.62,4.25-.62,2.56,0,4.54,.62,5.93,1.87,1.39,1.25,2.08,3.15,2.08,5.72v11.29h-3.21Zm-6.14,.21c-1.39,0-2.61-.23-3.65-.71-1.05-.47-1.85-1.12-2.42-1.96-.56-.84-.85-1.78-.85-2.84s.24-1.93,.72-2.75c.48-.82,1.27-1.48,2.36-1.97,1.09-.49,2.57-.74,4.43-.74h5.93v2.44h-5.79c-1.69,0-2.84,.28-3.42,.85-.59,.56-.88,1.25-.88,2.05,0,.92,.37,1.65,1.1,2.2,.73,.55,1.74,.83,3.04,.83s2.38-.28,3.33-.85c.95-.56,1.64-1.39,2.06-2.47l.67,2.33c-.45,1.11-1.23,1.98-2.36,2.63-1.13,.65-2.55,.97-4.27,.97"/></g><polygon class="cls-6" points="41.84 .66 41.84 47.05 4.98 .66 0 .66 0 57.86 6.05 57.86 6.05 11.47 42.82 57.86 47.8 57.86 47.8 .66 41.84 .66"/><g class="cls-9"><path class="cls-6" d="M136.71,37.43l-2.7-2.94h17.89c5.72,0,10.07-1.24,13.04-3.72,2.97-2.48,4.45-5.98,4.45-10.5s-1.49-8.12-4.45-10.62c-2.97-2.51-7.31-3.76-13.04-3.76h-17.89l2.7-2.86V37.43Zm-6.05,20.43V.66h21.41c4.85,0,9.02,.78,12.5,2.33,3.49,1.55,6.17,3.79,8.05,6.7,1.88,2.92,2.82,6.44,2.82,10.58s-.94,7.51-2.82,10.42c-1.88,2.91-4.56,5.16-8.05,6.74-3.49,1.58-7.65,2.37-12.5,2.37h-18.06l2.7-2.86v20.92h-6.05Z"/><path class="cls-4" d="M214.34,52.96c3.43,0,6.6-.58,9.52-1.76,2.91-1.17,5.45-2.83,7.6-4.98,2.15-2.15,3.83-4.66,5.02-7.52,1.2-2.86,1.8-6.01,1.8-9.44s-.6-6.58-1.8-9.44c-1.2-2.86-2.87-5.37-5.02-7.52-2.15-2.15-4.69-3.81-7.6-4.99-2.91-1.17-6.09-1.76-9.52-1.76s-6.62,.59-9.56,1.76c-2.94,1.17-5.5,2.83-7.68,4.99-2.18,2.15-3.87,4.66-5.07,7.52-1.2,2.86-1.8,6.01-1.8,9.44s.6,6.51,1.8,9.4c1.2,2.89,2.89,5.41,5.07,7.56,2.18,2.15,4.74,3.81,7.68,4.98,2.94,1.17,6.13,1.76,9.56,1.76m0,5.39c-4.3,0-8.29-.72-11.97-2.17-3.68-1.44-6.86-3.49-9.56-6.13-2.7-2.64-4.79-5.72-6.29-9.24-1.5-3.51-2.25-7.37-2.25-11.56s.75-8.05,2.25-11.56c1.5-3.51,3.6-6.59,6.29-9.23,2.7-2.64,5.87-4.69,9.52-6.13,3.65-1.44,7.65-2.17,12.01-2.17s8.28,.72,11.93,2.17c3.65,1.44,6.82,3.47,9.52,6.09,2.7,2.61,4.79,5.69,6.29,9.23,1.5,3.54,2.25,7.41,2.25,11.6s-.75,8.06-2.25,11.6c-1.5,3.54-3.6,6.62-6.29,9.23-2.7,2.61-5.87,4.65-9.52,6.09-3.65,1.44-7.63,2.17-11.93,2.17"/></g><polygon class="cls-6" points="257.89 .66 257.89 57.86 295.97 57.86 295.97 52.63 263.94 52.63 263.94 .66 257.89 .66"/><rect class="cls-6" x="306.02" y=".66" width="6.05" height="57.2"/><path class="cls-3" d="M88.73,11.66l19.39,41.35h-38.78L88.73,11.66Zm0-11.66l-27.18,57.97h54.37L88.73,0Z"/><g class="cls-8"><path class="cls-5" d="M215.62,13.16c-6.38,1.22-11.95,5.65-13.71,11.75-1.6,5.77,.38,12.53,5.43,15.9,8.15,5.7,20.2-.41,18.37-10.69-.98-4.24-4.92-8-9.51-7.31-2.22,.27-4.31,1.33-5.48,3.12-1.73,2.64-1.93,6.94,.95,8.85,1.77,1.19,4.56,1.59,6.27,.12,1.82-1.39,2-4.79-.32-5.74-1.36-.6-2.49,.41-2.09,1.85-.69-1.6,.63-2.83,2.24-2.39,3.15,.86,3.34,5.31,1.17,7.31-2.19,2.26-5.79,2.12-8.39,.66-2.76-1.47-4.05-4.92-3.67-7.9,.52-8.4,11.35-12,17.56-6.9,7.88,6.14,6.25,18.15-2.28,22.8-7.84,4.61-18.78,.48-22-7.91-4.69-11.25,3.63-23.16,15.45-23.54"/></g></svg>