<?xml version="1.0" encoding="UTF-8"?><svg id="Livello_1" xmlns="http://www.w3.org/2000/svg" xmlns:xlink="http://www.w3.org/1999/xlink" viewBox="0 0 268.27 269.57"><defs><style>.cls-1{fill:none;}.cls-2{clip-path:url(#clippath);}.cls-3{fill:#fabb6b;}.cls-4{fill:#7faede;}.cls-5{fill:#859eb7;}.cls-6{fill:#de5834;}.cls-7{fill:#e2715a;}</style><clipPath id="clippath"><rect class="cls-1" x="0" y="0" width="268.27" height="269.57"/></clipPath></defs><g class="cls-2"><path class="cls-3" d="M134.13,0l-.36,.77h.72l-.36-.77Zm0,19.03c-3.06,0-6.09,.12-9.09,.35l-16.02,34.15c7.41-3.31,15.24-5.66,23.22-6.9l1.88-4.01,1.66,3.54c2.38-.27,4.76-.43,7.15-.49-2.27,.42-4.5,.91-6.7,1.47l15.25,32.53c.51-.01,1.01-.02,1.52-.02,4.87,0,9.78,.58,14.64,1.8,1.85,.46,3.67,1.01,5.44,1.65l-29.88-63.71c-3-.23-6.03-.35-9.09-.35m-8.19,6.13l8.19-3.84-8.19,3.84Zm5.44,23.34c-9.31,2.86-17.93,6.96-25.65,12.07l-38.08,81.19c1.14,7.51,3.37,15.15,6.81,22.8,.4,.88,.82,1.75,1.26,2.61l23.47-50.05c1.42-4.68,3.47-9,6.05-12.9l26.13-55.72Zm28.04,48.04l33.94,72.38c4.72-10.48,6.4-22.22,3.76-33.37-.2-.9-.43-1.8-.69-2.7l-7.37-15.71c-7.03-10.35-17.54-18.26-29.65-20.6M58.35,161.61l-18.84,40.18c3.8,5.37,8.05,10.4,12.7,15.05,.05,.05,.11,.11,.16,.16l15.9-33.9c-4.23-6.63-7.58-13.86-9.91-21.49m154.78,6.83c-2.37,7.32-5.92,14.21-10.39,20.46l13.18,28.1c.05-.05,.11-.11,.16-.16,4.64-4.65,8.89-9.68,12.7-15.05l-15.64-33.35ZM30.77,220.4l-23.06,49.17h252.84l-23.06-49.17c-2.69,3.25-5.53,6.37-8.51,9.35-1.59,1.6-3.23,3.15-4.9,4.67l8,17.06h-31.54c-19.58,11.17-42.26,17.57-66.4,17.56h-.02c-24.13,0-46.8-6.39-66.38-17.56h-31.55l8-17.06c-1.67-1.51-3.31-3.07-4.9-4.67-2.98-2.98-5.82-6.1-8.51-9.35"/><path class="cls-7" d="M133.77,.77c-36.87,.09-70.32,15.11-94.49,39.29C15.03,64.3,0,97.89,0,134.9c0,32.46,11.56,62.3,30.77,85.5l8.73-18.61c-13.39-18.9-21.24-41.95-21.24-66.89,0-32.03,12.96-60.94,33.94-81.94,18.99-18.98,44.46-31.39,72.85-33.59l.89-1.91L133.77,.77Zm.72,0l8.73,18.61c28.39,2.2,53.86,14.61,72.85,33.59,20.98,21,33.93,49.91,33.94,81.94h18.26c0-37.01-15.03-70.6-39.29-94.85C204.82,15.87,171.36,.86,134.49,.77m133.78,134.13h-18.26c0,24.94-7.86,47.99-21.24,66.89l8.73,18.61c19.21-23.2,30.78-53.04,30.77-85.5M52.36,217l-8.17,17.42c7.18,6.49,15.07,12.22,23.54,17.06H200.53c8.47-4.83,16.36-10.56,23.54-17.06l-8.17-17.42c-20.99,20.89-49.83,33.77-81.77,33.78-31.94,0-60.79-12.89-81.78-33.78"/><path class="cls-6" d="M134.15,.77h-.02c-.12,0-.24,0-.36,0l-7.83,16.7-.89,1.91c3-.23,6.03-.35,9.09-.35s6.09,.12,9.09,.35L134.49,.77c-.11,0-.23,0-.34,0M39.5,201.79l-8.73,18.61c2.69,3.25,5.53,6.37,8.51,9.35,1.6,1.6,3.23,3.15,4.9,4.67l8.17-17.42c-.05-.05-.11-.11-.16-.16-4.64-4.65-8.89-9.68-12.7-15.05m189.26,0c-3.8,5.37-8.05,10.4-12.7,15.05-.05,.05-.11,.11-.16,.16l8.17,17.42c1.68-1.51,3.31-3.07,4.9-4.67,2.98-2.98,5.82-6.1,8.51-9.35l-8.73-18.61Zm-28.23,49.68H67.74c19.58,11.17,42.25,17.56,66.38,17.56h.02c24.13,0,46.82-6.39,66.4-17.56"/><path class="cls-4" d="M135.79,46.16c-1.18,.13-2.36,.29-3.54,.47l-.87,1.86c1.6-.49,3.23-.95,4.87-1.36l-.46-.97Zm-26.76,7.37c-28.99,12.94-51.75,40.48-53.91,72.81-1.39,12.18-.17,24.15,3.22,35.28l9.31-19.85c-4.96-32.81,10.97-63.24,38.08-81.2l3.3-7.04Zm42.47,26.13c-18.63,.47-36.32,9.49-46.25,24.56l-6.05,12.91c-1.06,3.5-1.76,7.2-2.06,11.08-2.01,15.67,4.65,33.78,19.15,41.52,6.29,3.77,13.54,5.61,20.57,5.61,16.83,0,32.49-10.54,31.16-30.47-1.12-7.53-5.92-15.26-13.67-17.02-1.23-.34-2.41-.5-3.54-.5-6.82,0-11.43,5.84-8.33,13.07-1.61-6.25,1.69-10.81,6.9-10.81,1.3,0,2.71,.28,4.2,.89,12.55,5.13,11.59,23.12,1.88,30.77-4.18,3.63-9.57,5.17-15.1,5.17-6.6,0-13.4-2.2-18.59-5.66-15.56-10.23-14.62-33.35-5.31-47.6,6.29-9.69,17.58-15.45,29.49-16.9,2.04-.32,4.05-.47,6.04-.47,2.53,0,5.01,.25,7.43,.71l-7.91-16.87Zm21.6,3.43l15.97,34.05c3.27,4.81,5.79,10.16,7.37,15.71l16.69,35.59c3.75-11.56,4.58-24.18,1.55-37.02-5.37-21.4-20.63-40.79-41.58-48.33m-97.38,84.08l-7.47,15.93c13.67,21.41,36.54,36.59,64.01,38.72,2.37,.23,4.74,.35,7.09,.35,25.5,0,49.16-13.39,63.39-33.26l-9.38-19.99c-5.16,11.45-13.96,21.41-24.75,27.5-9.76,5.69-20.47,8.32-31.16,8.32-25.07,0-49.94-14.45-61.72-37.56"/><path class="cls-5" d="M142.95,45.67c-2.39,.06-4.78,.23-7.15,.49l.46,.97c2.2-.56,4.43-1.05,6.7-1.47m-10.69,.97c-7.99,1.23-15.81,3.59-23.22,6.9l-3.3,7.04c7.72-5.11,16.34-9.21,25.65-12.07l.87-1.86Zm20.77,33.01c-.51,0-1.01,0-1.52,.02l7.91,16.87c12.12,2.35,22.62,10.26,29.65,20.6l-15.97-34.05c-1.78-.64-3.59-1.19-5.44-1.65-4.85-1.21-9.77-1.8-14.64-1.8m-47.77,24.58c-2.58,3.91-4.63,8.22-6.05,12.9l6.05-12.9Zm91.19,28.63c.25,.89,.48,1.79,.69,2.7,2.63,11.15,.96,22.88-3.76,33.37l9.38,19.99c4.47-6.25,8.02-13.15,10.39-20.46l-16.69-35.59Zm-128.78,8.92l-9.31,19.85c2.33,7.62,5.68,14.86,9.91,21.49l7.47-15.93c-.44-.86-.86-1.73-1.26-2.61-3.44-7.64-5.68-15.28-6.81-22.8"/></g></svg>