<?xml version="1.0" encoding="UTF-8"?><svg id="Livello_1" xmlns="http://www.w3.org/2000/svg" xmlns:xlink="http://www.w3.org/1999/xlink" viewBox="0 0 69.84 75.89"><defs><style>.cls-1{fill:none;}.cls-2{clip-path:url(#clippath);}.cls-3{fill:#7faede;}</style><clipPath id="clippath"><rect class="cls-1" x="0" width="69.84" height="75.89"/></clipPath></defs><g class="cls-2"><path class="cls-3" d="M38.16,0C23.65,2.77,10.98,12.84,6.98,26.73c-3.63,13.12,.86,28.51,12.36,36.17,18.53,12.97,45.95-.94,41.79-24.32-2.23-9.65-11.19-18.21-21.64-16.62-5.04,.61-9.81,3.03-12.47,7.1-3.94,6.01-4.39,15.78,2.16,20.13,4.02,2.71,10.38,3.62,14.27,.28,4.14-3.17,4.55-10.9-.74-13.06-3.1-1.37-5.67,.94-4.75,4.21-1.56-3.64,1.42-6.45,5.1-5.43,7.17,1.96,7.6,12.09,2.66,16.64-4.99,5.15-13.18,4.82-19.08,1.51-6.28-3.33-9.2-11.19-8.34-17.98,1.18-19.11,25.81-27.29,39.94-15.69,17.92,13.96,14.21,41.28-5.18,51.87-17.83,10.5-42.72,1.1-50.04-17.99C-7.65,27.95,11.29,.85,38.16,0"/></g></svg>