<?xml version="1.0" encoding="utf-8"?>
<!-- Generator: Adobe Illustrator 25.2.3, SVG Export Plug-In . SVG Version: 6.00 Build 0)  -->
<svg version="1.1" id="logo-karamell" xmlns="http://www.w3.org/2000/svg" xmlns:xlink="http://www.w3.org/1999/xlink" x="0px"
	 y="0px" viewBox="0 0 111.8 19" style="enable-background:new 0 0 111.8 19;" xml:space="preserve">
<style type="text/css">
	.st0{fill:#A52A2A;}
</style>
<path class="st0" d="M8.8,9.6H8.4l0.2-1.2L9,8.5C9.3,6.7,9.6,4.8,10,3C8.5,3.6,6.6,3.7,6.6,5c0,0.7,0.6,0.9,1.3,0.9L7.8,7.1
	c-1.6,0-2.4-0.9-2.4-1.9c0-0.8,0.5-1.6,1.3-1.9c1.1-0.5,2.3-0.9,3.5-1.2c0.1-0.5,0.3-1,0.5-1.5L12,0.8c-0.1,0.6-0.4,1.1-0.8,1.5
	c-0.6,2.3-0.7,4.3-1.1,6.5C12.9,7.3,12.6,0,16.2,0c0.7-0.1,1.4,0.4,1.5,1.1c0,0.1,0,0.1,0,0.2c0,0.1,0,0.1,0,0.2h-1V1.5
	c0-0.4-0.2-0.7-0.6-0.7c-2.1,0-1.8,7.1-5.6,8.6c2.6,2.4,1.8,8.7,4.1,8.7c0.9,0,1.3-0.5,1.6-1.3l1.1,0.4c-0.4,1.1-1.6,1.8-2.8,1.8
	c-3.6,0-3.2-6.9-4.6-9.1c-0.7,3.3-2,6.6-5.8,6.6c-2.1,0.2-4-1.4-4.2-3.5c0-0.2,0-0.3,0-0.5c-0.1-2.4,1.7-4.5,4.1-4.6
	c0,0,0.1,0,0.1,0c1.4,0,2.7,1.1,2.7,2.5c0,0.1,0,0.2,0,0.3c0,0.8-0.2,1.6-0.7,2.3l-1.1-0.6c0.4-0.6,0.6-1.2,0.6-1.9
	c0.1-0.9-0.5-1.7-1.4-1.8c-0.1,0-0.1,0-0.2,0c-1.8,0-3,2-3,3.9c-0.1,1.7,1.1,3.1,2.7,3.2c0.1,0,0.2,0,0.3,0
	C6.8,15.6,8.1,12.7,8.8,9.6z"/>
<path class="st0" d="M16.4,6.6h1c-0.4,1.9-0.7,3.4-0.9,4.8c0,0.1,0,0.2,0,0.4c0,0.2,0,0.3,0.1,0.3s0.7-0.7,1.4-2.4
	c0.1,0,0.4,0.1,0.4,0.2c-0.9,2.2-1.6,3.2-2.2,3.2c-0.4,0-0.7-0.4-0.7-1.4v-0.1c-0.3,0.9-0.8,1.6-1.6,1.6s-1-0.8-1-1.8
	c0-2,1.1-4.9,2.4-4.9c0.5,0,0.8,0.3,0.9,0.9L16.4,6.6z M14.1,11.2c0,0.4,0.1,0.7,0.3,0.7c0.6,0,1.4-2.3,1.4-3.6
	c0-0.5-0.1-0.9-0.4-0.9C14.8,7.4,14.1,9.9,14.1,11.2z"/>
<path class="st0" d="M20,12c0.3,0,0.8-0.7,1.4-2.4c0.1,0,0.4,0.1,0.4,0.2l0,0c-0.6,1.6-1.1,3.2-2.3,3.2c-0.7,0-0.9-0.4-0.9-1
	c0-0.9,0.6-1.9,0.6-2.6c0-0.4-0.1-0.7-0.3-1l-0.6,1.5c0,0-0.4-0.1-0.4-0.2l0,0c0.2-0.7,0.4-1.3,0.6-2c-0.2-0.4-0.3-0.8-0.2-1.2
	c0-0.6,0.1-1.2,0.3-1.7L19.7,5c0,0.8-0.2,1.6-0.4,2.3c0.6,0.5,1,1.1,1.1,1.8c-0.2,0.9-0.4,1.7-0.6,2.6C19.7,11.9,19.8,12,20,12z"/>
<path class="st0" d="M24.6,6.6h1c-0.4,1.9-0.7,3.4-0.9,4.8c0,0.1,0,0.2,0,0.4c0,0.2,0,0.3,0.1,0.3s0.8-0.7,1.4-2.4
	c0.1,0,0.4,0.1,0.4,0.2c-0.9,2.2-1.6,3.2-2.2,3.2c-0.5,0-0.7-0.4-0.7-1.4v-0.1c-0.3,0.9-0.8,1.6-1.6,1.6s-1-0.8-1-1.8
	c0-2,1.1-4.9,2.4-4.9c0.5,0,0.8,0.3,0.9,0.9L24.6,6.6z M22.3,11.2c0,0.4,0.1,0.7,0.3,0.7c0.6,0,1.5-2.3,1.5-3.6
	c0-0.5-0.1-0.9-0.4-0.9C23,7.4,22.3,9.9,22.3,11.2z"/>
<path class="st0" d="M25.5,13c0.1-0.8,0.3-1.6,0.5-2.3c0.3-1.6,0.5-3,0.7-4.1h1.2l-0.2,1c0.4-0.7,0.9-1.2,1.5-1.2s0.8,0.4,0.8,1
	c0,0.1,0,0.2,0,0.3c0.3-0.7,1-1.2,1.8-1.3c0.5,0,0.8,0.3,0.8,1c0,1.3-0.9,3-0.9,4.1c0,0.4,0.1,0.5,0.3,0.5c0.4,0,0.8-0.8,1.4-2.4
	c0.1,0,0.4,0.1,0.4,0.2c-0.7,1.6-1.3,3.2-2.4,3.2c-0.5,0-1-0.4-1-1.2c0-1.5,0.9-3.1,0.9-4.1c0-0.2-0.1-0.3-0.2-0.3
	c-0.4,0-1,0.7-1.5,2.7c-0.2,1.1-0.5,2.3-0.6,2.8h-1.3c0.3-1.5,1-4.5,1-5.1c0-0.2-0.1-0.3-0.2-0.3c-0.5,0-1,1.1-1.4,3.1L26.8,13H25.5
	z"/>
<path class="st0" d="M37.4,9.6c0.1,0,0.4,0.1,0.4,0.2c-0.7,1.8-1.4,3.3-2.8,3.3c-1.2,0-1.7-1.1-1.7-2.4c0-1.9,1-4.2,2.6-4.2
	c0.5-0.1,1,0.3,1.1,0.9c0,0.1,0,0.2,0,0.3c-0.1,1.4-1.1,2.4-2.5,2.6v0.2c0,0.8,0.2,1.5,0.9,1.5C36.2,11.9,36.9,11,37.4,9.6z
	 M34.5,9.6c0.8-0.4,1.4-1.1,1.5-2c0-0.2-0.1-0.3-0.2-0.3C35.2,7.3,34.7,8.5,34.5,9.6L34.5,9.6z"/>
<path class="st0" d="M40.6,9.6c0.1,0,0.3,0.1,0.3,0.2l0,0c-0.8,2.2-1.5,3.3-2.4,3.3s-1.2-0.8-1.2-2.3c0-1.3,0.2-2.7,0.5-4
	c0.6-3.5,1.5-5.1,2.3-5.1s0.9,0.6,0.9,1.3c0,0.8-0.2,1.5-0.4,2.3c-0.4,1.4-1.1,2.8-2.1,3.9c-0.1,0.5-0.1,1.1-0.1,1.6
	c0,0.9,0.2,1.2,0.5,1.2S40,11.2,40.6,9.6z M40.3,2.7c-0.4,0-1.2,3-1.6,5.6c1-1.6,1.6-3.4,1.8-5.3C40.4,2.8,40.4,2.7,40.3,2.7z"/>
<path class="st0" d="M43.7,9.6c0.1,0,0.3,0.1,0.3,0.2l0,0c-0.8,2.2-1.5,3.3-2.4,3.3s-1.2-0.8-1.2-2.3c0-1.3,0.2-2.7,0.5-4
	c0.6-3.5,1.5-5.1,2.3-5.1s0.9,0.6,0.9,1.3c0,0.8-0.2,1.5-0.4,2.3c-0.4,1.4-1.1,2.8-2.1,3.9c-0.1,0.5-0.1,1.1-0.1,1.6
	c0,0.9,0.2,1.2,0.5,1.2S43.1,11.2,43.7,9.6z M43.5,2.7c-0.4,0-1.2,3-1.6,5.6c0.9-1.6,1.5-3.4,1.7-5.3C43.6,2.8,43.5,2.7,43.5,2.7z"
	/>
<path class="st0" d="M58.4,7.9c1.2-3,2.3-6.1,3.8-7.3l1,0.4c-0.9,3.9-1.4,8-1.5,12c0,3,0.6,4.9,2.2,4.9c0.8,0,1.4-0.6,1.6-1.3
	l1.2,0.4c-0.3,1.2-1.4,2-2.6,2c-2.8,0-3.7-2.3-3.7-5.9c0-0.4,0-0.7,0-1.1c0-1.1-0.5-2.1-1.3-2.9c-1.4,3.7-3.3,7.1-7.1,7.1
	c-3.5,0-5.1-2.6-5.1-5.3c0-3,1.9-6,5.6-6c1.6-0.2,3.1,0.8,3.7,2.3C56.8,7.3,57.6,7.5,58.4,7.9z M54.7,7.3c-0.3-1.1-1.4-1.7-2.5-1.7
	c-2.7,0-4.3,2.8-4.3,5.5c0,2.3,1.2,4.5,3.9,4.5c3,0,4.7-3.4,6.2-6.9c-0.6-0.3-1.2-0.4-1.9-0.4c0,0.1,0,0.2,0,0.4
	c0,1.8-1.1,3.3-2.7,3.9L53,11.3c1.2-0.4,2-1.6,1.9-2.8V8.3c-1.6,0.2-3,1.3-3.5,2.9l-1.2-0.4C50.6,8.8,52.6,7.6,54.7,7.3z M61.7,2
	c-1,2.1-1.9,4.2-2.5,6.5c0.5,0.4,0.9,0.9,1.2,1.5C60.7,7.2,61.2,4.6,61.7,2L61.7,2z"/>
<path class="st0" d="M65.3,12c0.3,0,0.8-0.7,1.4-2.4c0.1,0,0.4,0.1,0.4,0.2l0,0C66.5,11.4,66,13,64.9,13c-0.7,0-0.9-0.4-0.9-1
	s0.7-1.9,0.7-2.6c0-0.4-0.1-0.8-0.4-1.2c-0.5,1.7-1,3.7-1.5,4.9l-0.4-0.2c0.4-1,1-3.5,1.5-5.4c-0.2-0.4-0.3-0.8-0.3-1.3
	c0-0.6,0.1-1.1,0.3-1.6l1.1,0.2c-0.1,0.8-0.2,1.5-0.4,2.2c0.4,0.6,1.2,1.1,1.2,2.1c-0.2,0.9-0.4,1.7-0.7,2.6
	C65.1,11.9,65.2,12,65.3,12z"/>
<path class="st0" d="M68.9,3.3c-0.1,1.1-0.2,2.2-0.4,3.3c0.2,0,0.4,0,0.6,0l-0.1,0.7h-0.6c-0.1,0.5-0.3,1.1-0.4,1.7
	c-0.1,0.7-0.2,1.5-0.2,2.2c0,0.6,0.1,0.9,0.3,0.9c0.4,0,0.9-1.3,1.3-2.4c0.1,0,0.4,0.1,0.4,0.2c-0.8,2.2-1.3,3.2-2.2,3.2
	c-0.6,0-0.9-0.8-0.9-1.9c0-1.3,0.2-2.6,0.5-3.8h-0.6l0.1-0.7h0.6c0.2-1,0.4-1.9,0.7-3.3L68.9,3.3z"/>
<path class="st0" d="M80.3,2.9c-0.9,1.6-1.2,4.3-1.5,6.9C80.7,9.5,82,7.3,82,5.2s-1.2-4.1-4.4-4.1C75.2,1.1,73.1,3,73,5.4
	c0,0.1,0,0.1,0,0.2c0,1.6,0.8,3,2.4,3c0.2,0,0.4,0,0.6-0.1l0.2,1.2c-0.3,0.1-0.6,0.1-0.9,0.1c-2.3,0-3.5-1.9-3.5-4
	c0-2.6,1.9-5.5,6-5.5c3.8,0,5.5,2.4,5.5,4.8c0.1,2.7-1.9,5-4.6,5.2c-0.4,3.1-1.2,5.8-3.8,5.8c-1.2,0.2-2.4-0.7-2.5-2
	c0-0.1,0-0.3,0-0.4c0-1.2,0.9-2.3,2.2-2.3c0,0,0,0,0,0v1.1c-0.7,0.1-1.2,0.7-1.2,1.4c0,0.8,0.6,1.4,1.3,1.4c0,0,0.1,0,0.1,0
	c3.6,0,1.8-8.8,4.1-13.1L80.3,2.9z"/>
<path class="st0" d="M87.8,9.8c-0.3,0.8-0.9,1.4-1.6,1.7c-0.3,0.9-1.1,1.6-2.1,1.6c-1,0-1.4-1-1.4-2.3c0-0.8,0.2-1.7,0.4-2.5
	l0.5,0.1c0.2-1.1,0.7-2,1.7-2s1.4,1.1,1.4,2.3c0,0.7-0.1,1.4-0.3,2c0.5-0.3,0.8-0.7,0.9-1.2C87.5,9.6,87.8,9.7,87.8,9.8z M85,11.5
	c-0.6-0.3-1.1-0.8-1.2-1.5c0,0.2,0,0.4,0,0.6c0,0.8,0.2,1.4,0.6,1.4h0.1C84.7,11.9,84.9,11.7,85,11.5z M84.4,9.2
	c0,0.8,0.2,1.5,0.9,1.7c0.3-0.8,0.5-1.6,0.5-2.5c0-0.6-0.2-1.1-0.5-1.1h-0.1C84.7,7.4,84.4,8.3,84.4,9.2L84.4,9.2z"/>
<path class="st0" d="M89.4,12c0.3,0,0.8-0.7,1.4-2.4c0.1,0,0.4,0.1,0.4,0.2l0,0C90.6,11.4,90.1,13,89,13c-0.7,0-0.9-0.4-0.9-1
	c0-0.9,0.7-1.9,0.7-2.6c0-0.4-0.1-0.7-0.3-1l-0.6,1.5c0,0-0.4-0.1-0.4-0.2l0,0c0.2-0.7,0.4-1.3,0.6-2c-0.2-0.4-0.3-0.8-0.2-1.2
	c0-0.6,0.1-1.2,0.3-1.7l1,0.2c0,0.8-0.2,1.6-0.4,2.3c0.6,0.5,1,1.1,1.1,1.8c-0.2,0.9-0.4,1.7-0.6,2.6C89.2,11.9,89.3,12,89.4,12z"/>
<path class="st0" d="M93,3.3c-0.1,1.1-0.2,2.2-0.4,3.3c0.2,0,0.4,0,0.6,0L93,7.2h-0.6c-0.1,0.5-0.3,1.1-0.4,1.7
	c-0.1,0.7-0.2,1.5-0.2,2.2c0,0.6,0.1,0.9,0.3,0.9c0.4,0,0.9-1.3,1.3-2.4c0.1,0,0.4,0.1,0.4,0.2c-0.9,2.2-1.3,3.2-2.2,3.2
	c-0.6,0-0.9-0.8-0.9-1.9c0-1.3,0.2-2.6,0.5-3.8h-0.6l0.1-0.7h0.6c0.2-1,0.4-1.9,0.7-3.3L93,3.3z"/>
<path class="st0" d="M92.8,14.3c0.2-4,1-7.9,2.2-11.6c0.2-0.5,0.6-0.8,1.1-0.9c0.6,0,1,0.5,0.9,1.1c0,0,0,0,0,0.1
	c0,2.9-1.8,5.7-2.6,6.8c-0.1,0.7-0.2,1.4-0.3,2.1c1.1-0.2,2-1.1,2.3-2.2c0.1,0,0.4,0.1,0.4,0.2c-0.3,1.1-1.1,2.1-2.2,2.5
	c0.5,0.5,0.8,1.3,0.8,2c0,1-0.5,1.9-1.3,1.9S92.8,15.9,92.8,14.3z M94.7,14.6c0-0.7-0.2-1.3-0.7-1.8c-0.1,0.6-0.1,1.1-0.1,1.7
	c0,0.7,0.1,1.1,0.3,1.1S94.7,15.1,94.7,14.6z M96.3,2.7c-0.3,0-1,2.7-1.6,5.6c0.9-1.6,1.5-3.4,1.7-5.3C96.4,2.8,96.4,2.7,96.3,2.7z"
	/>
<path class="st0" d="M101.3,9.8c-0.3,0.8-0.9,1.4-1.6,1.7c-0.3,0.9-1.1,1.6-2.1,1.6c-1,0-1.4-1-1.4-2.3c0-0.8,0.2-1.7,0.4-2.5
	l0.5,0.1c0.2-1.1,0.7-2,1.7-2s1.4,1.1,1.4,2.3c0,0.7-0.1,1.4-0.3,2c0.5-0.2,0.8-0.7,1-1.2C101,9.6,101.3,9.7,101.3,9.8z M98.4,11.5
	c-0.6-0.3-1-0.8-1.2-1.5c0,0.2,0,0.4,0,0.6c0,0.8,0.2,1.4,0.6,1.4h0.1C98.2,11.9,98.3,11.7,98.4,11.5z M97.9,9.2
	c0,0.8,0.2,1.5,0.9,1.7c0.3-0.8,0.5-1.6,0.5-2.5c0-0.6-0.2-1.1-0.6-1.1h-0.1C98.2,7.4,97.9,8.3,97.9,9.2z"/>
<path class="st0" d="M104.1,9.6c0.1,0,0.3,0.1,0.3,0.2l0,0c-0.8,2.2-1.5,3.3-2.4,3.3s-1.2-0.8-1.2-2.3c0-1.3,0.2-2.7,0.4-4
	c0.6-3.5,1.5-5.1,2.3-5.1s0.9,0.6,0.9,1.3c0,0.8-0.2,1.5-0.4,2.3c-0.4,1.4-1.1,2.8-2.1,3.9c-0.1,0.5-0.1,1.1-0.1,1.6
	c0,0.9,0.2,1.2,0.5,1.2S103.5,11.2,104.1,9.6z M103.8,2.7c-0.4,0-1.2,3-1.6,5.6c1-1.6,1.6-3.4,1.8-5.3C104,2.8,103.9,2.7,103.8,2.7z
	"/>
<path class="st0" d="M106,6.6c-0.5,1.6-0.8,3.3-0.9,5c0,0.4,0.2,0.5,0.3,0.5c0.4,0,0.8-0.8,1.4-2.4c0.1,0,0.4,0.1,0.4,0.2l0,0
	c-0.6,1.6-1.1,3.2-2.3,3.2c-0.8,0-1-0.7-1-1.7c0.1-1.6,0.4-3.2,0.8-4.8L106,6.6z M105,5c0-0.6,0.4-1.1,1-1.1c0.4,0,0.7,0.3,0.7,0.6
	c0,0,0,0.1,0,0.1c0,0.6-0.4,1.1-1,1.1c-0.4,0-0.7-0.2-0.7-0.6C104.9,5.1,104.9,5.1,105,5L105,5z"/>
<path class="st0" d="M111.8,9.8c-0.3,0.8-0.9,1.4-1.6,1.7c-0.3,0.9-1.1,1.6-2.1,1.6c-1,0-1.4-1-1.4-2.3c0-0.8,0.2-1.7,0.4-2.5
	l0.5,0.1c0.2-1.1,0.7-2,1.7-2s1.4,1.1,1.4,2.3c0,0.7-0.1,1.4-0.3,2c0.5-0.2,0.8-0.7,1-1.2C111.4,9.6,111.8,9.7,111.8,9.8z
	 M108.9,11.5c-0.6-0.3-1-0.8-1.2-1.5c0,0.2,0,0.4,0,0.6c0,0.8,0.2,1.4,0.6,1.4h0.1C108.6,11.9,108.8,11.7,108.9,11.5z M108.3,9.2
	c0,0.8,0.2,1.5,0.9,1.7c0.3-0.8,0.5-1.6,0.5-2.5c0-0.6-0.2-1.1-0.5-1.1H109C108.6,7.4,108.3,8.3,108.3,9.2z"/>
</svg>
