<?xml version="1.0" encoding="utf-8"?>
<!-- Generator: Adobe Illustrator 24.2.3, SVG Export Plug-In . SVG Version: 6.00 Build 0)  -->
<svg version="1.1" id="Livello_2_1_" xmlns="http://www.w3.org/2000/svg" xmlns:xlink="http://www.w3.org/1999/xlink" x="0px"
	 y="0px" viewBox="0 0 261.5 73.6" style="enable-background:new 0 0 261.5 73.6;" xml:space="preserve">
<style type="text/css">
	.st0{fill:#FFFFFF;}
</style>
<path class="st0" d="M68.9,30.3h-7.2V9.6C61.7,4.3,57.4,0,52,0c-2.6,0-5,1-6.8,2.8l-9.6,9.6c-0.7,0.7-1.7,1.1-2.7,1.1H19.2
	c-0.8,0.2-1.4,1-1.2,1.8c0.1,0.6,0.6,1.1,1.2,1.2h13.7c1.8,0,3.6-0.7,4.9-2L47.4,5c1.2-1.3,2.9-2,4.6-2c3.6,0,6.6,3,6.6,6.6v56.3
	c0,2.5-2.1,4.6-4.6,4.7H35.2c-0.8-0.1-1.6,0.4-1.7,1.3c-0.1,0.8,0.4,1.6,1.3,1.7c0.2,0,0.3,0,0.5,0H54c4.2,0,7.7-3.4,7.7-7.7V33.3
	h7.2c0.8-0.2,1.4-1,1.2-1.8C70,30.9,69.5,30.5,68.9,30.3L68.9,30.3z"/>
<path class="st0" d="M37.5,60.1h13.8c0.8,0.1,1.6-0.4,1.7-1.3c0.1-0.8-0.4-1.6-1.3-1.7c-0.2,0-0.3,0-0.5,0H37.5
	c-1.8,0-3.6,0.7-4.9,2L23,68.6c-2.6,2.6-6.8,2.5-9.3-0.1c-1.2-1.2-1.9-2.9-1.9-4.6V7.7c0-2.6,2-4.7,4.6-4.7c0,0,0,0,0,0h18.8
	c0.8-0.1,1.4-0.9,1.3-1.7c-0.1-0.6-0.6-1.1-1.3-1.3H16.4c-4.2,0-7.7,3.4-7.7,7.7v22.6H1.5c-0.8,0.2-1.4,1-1.2,1.8
	c0.1,0.6,0.6,1.1,1.2,1.2h7.2V64c0,5.3,4.3,9.6,9.6,9.6c2.6,0,5-1,6.8-2.8l9.6-9.6C35.5,60.5,36.4,60.1,37.5,60.1z"/>
<path class="st0" d="M19.8,37.7c0.7,0.7,1.8,0.7,2.5,0c0,0,0,0,0,0l3-3l3,3c0.7,0.7,1.8,0.7,2.5,0c0,0,0,0,0,0
	c0.7-0.7,0.7-1.8,0-2.5l-3-3l3-3c0.7-0.7,0.7-1.8,0-2.5c-0.7-0.7-1.8-0.7-2.5,0l-3,3l-3-3c-0.7-0.7-1.8-0.7-2.5,0
	c-0.7,0.7-0.7,1.8,0,2.5l3,3l-3,3C19.1,35.9,19.1,37,19.8,37.7z"/>
<path class="st0" d="M50.1,32.2c0-3.4-2.8-6.1-6.1-6.1s-6.1,2.8-6.1,6.1s2.8,6.1,6.1,6.1c0,0,0,0,0,0C47.4,38.3,50.1,35.6,50.1,32.2
	z M40.9,32.2c0-1.7,1.4-3.1,3.1-3.1c1.7,0,3.1,1.4,3.1,3.1c0,1.7-1.4,3.1-3,3.1C42.3,35.3,40.9,33.9,40.9,32.2
	C40.9,32.2,40.9,32.2,40.9,32.2z"/>
<path class="st0" d="M27.1,42.8c-1-0.6-2.4-0.3-3,0.7c-0.2,0.3-0.3,0.7-0.3,1.1l0,0c0,0.7,0.3,1.4,0.9,1.8c2.9,2.1,6.5,3.2,10.1,3.1
	c3.6,0.1,7.2-1,10.1-3.1c1-0.7,1.2-2.1,0.4-3.1c-0.2-0.2-0.4-0.5-0.7-0.6c-0.7-0.4-1.5-0.4-2.2,0c-2.3,1.4-4.9,2.1-7.6,2
	C32.1,44.9,29.5,44.2,27.1,42.8z"/>
<path class="st0" d="M87.7,16.4c0,4.6-5.3,4.6-5.3,4.6h-2.6v5.3c0,0.7-0.6,1.3-1.3,1.3l0,0l0,0c-0.7,0-1.3-0.6-1.3-1.3c0,0,0,0,0,0
	v-6.3c0-0.9,0.7-1.6,1.7-1.6l0,0h0.9l-2.2-3.5c-0.2-0.3-0.3-0.7-0.3-1.1l0,0c0-1.1,0.9-2.1,2.1-2.1h3.2
	C82.4,11.8,87.7,11.8,87.7,16.4z M85,16.4c0-2-2.7-2-2.7-2h-2.1l2.5,4C83.4,18.3,85,18,85,16.4L85,16.4z"/>
<path class="st0" d="M98.7,27.7l-4.1-6.6H93v5.3c0,0.7-0.6,1.3-1.3,1.3c0,0,0,0,0,0l0,0c-0.7,0-1.3-0.6-1.3-1.3v0v-8h2.5l-2.2-3.5
	c-0.2-0.3-0.3-0.7-0.3-1.1l0,0c0-1.1,0.9-2.1,2.1-2.1h3.2c0,0,5.3,0,5.3,4.6c0.1,2.1-1.4,4-3.5,4.4l4.3,6.9L98.7,27.7z M96,18.4
	c0.7-0.1,2.3-0.4,2.3-2c0-2-2.7-2-2.7-2h-2.1L96,18.4z"/>
<path class="st0" d="M103.9,18.8c-0.7-3.2,1.2-6.4,4.4-7.1c3.2-0.7,6.4,1.2,7.1,4.4c0.7,3.2-1.2,6.4-4.4,7.1c-0.9,0.2-1.8,0.2-2.7,0
	C106.2,22.7,104.4,21,103.9,18.8z M113.6,27.7h-7.9c-0.7,0-1.3-0.6-1.3-1.3l0,0c0-0.7,0.6-1.3,1.3-1.3h7.9c0.7,0,1.3,0.6,1.3,1.3
	l0,0C114.9,27.1,114.3,27.7,113.6,27.7z M106.5,16.8c-0.4,1.8,0.8,3.5,2.6,3.9c1.8,0.4,3.5-0.8,3.9-2.6c0.4-1.8-0.8-3.5-2.6-3.9
	c-0.4-0.1-0.9-0.1-1.3,0C107.7,14.5,106.7,15.5,106.5,16.8z"/>
<path class="st0" d="M132.9,20.6v5.9c0,0.7-0.6,1.2-1.2,1.2l0,0c-0.6,0-1.1-0.5-1.2-1.1v-0.4c-1.2,1.2-2.8,1.8-4.5,1.7
	c-4.3,0-7.6-3-7.6-8.2c-0.1-4.4,3.4-8.1,7.8-8.2c0.1,0,0.1,0,0.2,0c1.6,0,3.1,0.5,4.4,1.3c0.6,0.4,0.8,1.2,0.4,1.9
	c0,0.1-0.1,0.1-0.2,0.2l-0.1,0.1c-0.4,0.4-1.1,0.5-1.5,0.1c-0.9-0.6-1.9-0.9-3-0.9c-2.8-0.1-5.2,2.2-5.3,5c0,0.2,0,0.4,0,0.5
	c0,3.9,2.4,5.5,5.3,5.5c1.5,0,3-0.6,4-1.8v-2.3h-1.4c-0.7,0-1.3-0.6-1.3-1.3l0,0c0-0.7,0.6-1.3,1.3-1.3h2.1
	C132.1,18.7,132.9,19.6,132.9,20.6z"/>
<path class="st0" d="M144.4,27.1l-3.8-6h-1.5v5.3c0,0.7-0.6,1.3-1.3,1.3l0,0l0,0c-0.7,0-1.3-0.6-1.3-1.3c0,0,0,0,0,0v-6.2
	c0-1,0.8-1.8,1.8-1.8h0.8l-2.2-3.5c-0.2-0.3-0.3-0.7-0.3-1.1l0,0c0-1.1,0.9-2.1,2.1-2.1h3.2c0,0,5.3,0,5.3,4.6
	c0.1,2.1-1.4,4-3.5,4.4l3.1,4.9c0.4,0.6,0.2,1.4-0.5,1.8c-0.2,0.1-0.4,0.2-0.7,0.2l0,0C145.1,27.7,144.6,27.5,144.4,27.1z
	 M142.1,18.4c0.7-0.1,2.3-0.4,2.3-2c0-2-2.7-2-2.7-2h-2.1L142.1,18.4z"/>
<path class="st0" d="M158.1,25.6h-6.4l-0.4,1.1c-0.2,0.6-0.8,1-1.4,1l0,0c-0.8,0-1.5-0.7-1.5-1.5c0-0.2,0-0.4,0.1-0.6l5-12.8
	c0.3-0.8,1.3-1.2,2.1-0.9c0.4,0.2,0.8,0.5,0.9,0.9l5,12.8c0.3,0.8-0.1,1.7-0.9,2c-0.2,0.1-0.3,0.1-0.5,0.1l0,0c-0.6,0-1.2-0.4-1.4-1
	L158.1,25.6z M152.7,23h4.4l-2.2-6.3L152.7,23z"/>
<path class="st0" d="M179,27.7L179,27.7c-0.7,0-1.3-0.6-1.3-1.3c0,0,0,0,0,0v-8.5l-4,8.6c-0.3,0.7-1,1.1-1.8,1.1l0,0
	c-0.8,0-1.5-0.4-1.9-1.1l-4.3-8.9v8.7c0,0.7-0.6,1.3-1.3,1.3c0,0,0,0,0,0l0,0c-0.7,0-1.3-0.6-1.3-1.3c0,0,0,0,0,0v-13
	c0-0.9,0.7-1.7,1.6-1.7c0,0,0,0,0,0l0,0c0.6,0,1.2,0.4,1.5,0.9l5.6,11.5l5.4-11.4c0.3-0.6,0.9-0.9,1.5-0.9l0,0
	c0.9,0,1.7,0.7,1.7,1.6c0,0,0,0,0,0v13C180.3,27.1,179.7,27.7,179,27.7z"/>
<path class="st0" d="M199.8,27.7L199.8,27.7c-0.7,0-1.3-0.6-1.3-1.3v0v-8.5l-4,8.6c-0.3,0.7-1,1.1-1.8,1.1l0,0
	c-0.8,0-1.4-0.4-1.8-1.1l-4.3-8.9v8.7c0,0.7-0.6,1.3-1.3,1.3l0,0l0,0c-0.7,0-1.3-0.6-1.3-1.3c0,0,0,0,0,0v-13c0-0.9,0.7-1.6,1.6-1.6
	l0,0c0.6,0,1.2,0.4,1.5,0.9l5.6,11.5l5.3-11.4c0.3-0.6,0.9-0.9,1.5-0.9l0,0c0.9,0,1.7,0.7,1.7,1.6v13
	C201.1,27.1,200.6,27.7,199.8,27.7z"/>
<path class="st0" d="M212.5,25.6h-6.4l-0.4,1.1c-0.2,0.6-0.8,1-1.4,1l0,0c-0.8,0-1.5-0.7-1.5-1.5c0-0.2,0-0.4,0.1-0.6l5-12.9
	c0.3-0.8,1.3-1.2,2.1-0.9c0.4,0.2,0.8,0.5,0.9,0.9l5,12.8c0.3,0.8-0.1,1.7-0.9,2c-0.2,0.1-0.4,0.1-0.6,0.1l0,0c-0.6,0-1.2-0.4-1.4-1
	L212.5,25.6z M207.1,23h4.4l-2.2-6.3L207.1,23z"/>
<path class="st0" d="M224.3,14.2h-2.1v12.2c0,0.7-0.6,1.3-1.3,1.3l0,0l0,0c-0.7,0-1.3-0.6-1.3-1.3c0,0,0,0,0,0V14.2h-2.1
	c-0.7,0-1.2-0.5-1.2-1.2l0,0c0-0.7,0.5-1.2,1.2-1.2l0,0h6.9c0.7,0,1.2,0.5,1.2,1.2c0,0,0,0,0,0l0,0
	C225.5,13.7,224.9,14.2,224.3,14.2z"/>
<path class="st0" d="M227.4,18.8c-0.7-3.2,1.2-6.4,4.4-7.1c3.2-0.7,6.4,1.2,7.1,4.4c0.7,3.2-1.2,6.4-4.4,7.1c-0.9,0.2-1.8,0.2-2.7,0
	C229.6,22.7,227.9,21,227.4,18.8z M237,27.7h-7.9c-0.7,0-1.3-0.6-1.3-1.3l0,0c0-0.7,0.6-1.3,1.3-1.3h7.9c0.7,0,1.3,0.6,1.3,1.3
	c0,0,0,0,0,0l0,0C238.3,27.1,237.7,27.7,237,27.7L237,27.7z M229.9,16.8c-0.4,1.8,0.8,3.5,2.6,3.9c1.8,0.4,3.5-0.8,3.9-2.6
	c0.4-1.8-0.8-3.5-2.6-3.9c-0.4-0.1-0.9-0.1-1.3,0C231.2,14.5,230.2,15.5,229.9,16.8z"/>
<path class="st0" d="M250.2,27.1l-3.8-6h-1.5v5.3c0,0.7-0.6,1.3-1.3,1.3c0,0,0,0,0,0l0,0c-0.7,0-1.3-0.6-1.3-1.3v0v-6.3
	c0-0.9,0.7-1.6,1.6-1.6h0.9l-2.2-3.5c-0.2-0.3-0.3-0.7-0.3-1.1l0,0c0-1.1,0.9-2.1,2.1-2.1h3.2c0,0,5.3,0,5.3,4.6
	c0.1,2.1-1.4,4-3.5,4.4l3.1,4.9c0.4,0.6,0.2,1.4-0.5,1.8c-0.2,0.1-0.4,0.2-0.7,0.2l0,0C250.9,27.7,250.4,27.5,250.2,27.1z
	 M247.9,18.4c0.7-0.1,2.3-0.4,2.3-2c0-2-2.7-2-2.7-2h-2.1L247.9,18.4z"/>
<path class="st0" d="M259.6,14.2v11.1h0.6c0.7,0,1.2,0.5,1.2,1.2c0,0,0,0,0,0l0,0c0,0.7-0.5,1.2-1.2,1.2h-4c-0.7,0-1.2-0.5-1.2-1.2
	c0,0,0,0,0,0l0,0c0-0.7,0.5-1.2,1.2-1.2c0,0,0,0,0,0h0.7V14.2h-0.5c-0.7,0-1.2-0.5-1.2-1.2c0,0,0,0,0,0l0,0c0-0.7,0.5-1.2,1.2-1.2
	c0,0,0,0,0,0h3.8c0.7,0,1.2,0.5,1.2,1.2c0,0,0,0,0,0l0,0c0,0.7-0.5,1.2-1.2,1.2L259.6,14.2z"/>
<path class="st0" d="M96.3,45c0,8.5-9.7,8.5-9.7,8.5h-4.8v9.8c0,1.3-1.1,2.4-2.4,2.4c0,0,0,0,0,0l0,0c-1.3,0-2.4-1.1-2.4-2.4V52.1
	c0-1.9,1.5-3.4,3.4-3.4h1.2l-4-6.4c-0.4-0.6-0.6-1.3-0.6-2l0,0c0-2.1,1.7-3.8,3.8-3.8h5.9C86.7,36.5,96.3,36.4,96.3,45z M91.5,45
	c0-3.6-4.9-3.6-4.9-3.6h-3.9l4.6,7.3C88.5,48.4,91.5,47.8,91.5,45z"/>
<path class="st0" d="M106.1,41.3v7.3h9.7c1.3,0,2.4,1.1,2.4,2.4l0,0c0,1.3-1.1,2.4-2.4,2.4h-9.7v7.3h12.2c1.3,0,2.4,1.1,2.4,2.4
	c0,0,0,0,0,0l0,0c0,1.3-1.1,2.4-2.4,2.4c0,0,0,0,0,0h-13.6c-1.9,0-3.5-1.5-3.5-3.5V39.9c0-1.9,1.5-3.5,3.5-3.5h13.6
	c1.3,0,2.4,1.1,2.4,2.4c0,0,0,0,0,0l0,0c0,1.3-1.1,2.4-2.4,2.4c0,0,0,0,0,0L106.1,41.3z"/>
<path class="st0" d="M140.4,64.5l-6.9-11h-2.8v9.8c0,1.3-1.1,2.4-2.4,2.4l0,0l0,0c-1.3,0-2.4-1.1-2.4-2.4l0,0V51.5
	c0-1.6,1.3-2.9,2.9-2.9h1.7l-4-6.4c-0.4-0.6-0.6-1.3-0.6-2l0,0c0-2.1,1.7-3.8,3.8-3.8h5.9c0,0,9.8,0,9.8,8.5c0,5.2-3.6,7.2-6.4,8
	l5.6,9c0.7,1.1,0.4,2.6-0.8,3.3c-0.4,0.2-0.8,0.4-1.3,0.4l0,0C141.6,65.7,140.8,65.2,140.4,64.5z M136.2,48.6
	c1.3-0.1,4.3-0.8,4.3-3.6c0-3.6-4.9-3.6-4.9-3.6h-3.9L136.2,48.6z"/>
<path class="st0" d="M187.8,59.9L187.8,59.9c0.9,1,0.9,2.5,0,3.5c-0.1,0.1-0.3,0.2-0.4,0.3c-2.4,1.6-5.2,2.4-8,2.4
	c-8.1,0-14.6-5.8-14.6-15c0-8.8,6.1-15,14.6-15c2.8,0,5.6,0.8,8,2.4c1.1,0.7,1.5,2.2,0.7,3.4c-0.1,0.1-0.2,0.3-0.3,0.4l0,0
	c-0.8,0.8-2.1,0.9-3.1,0.3c-1.6-1-3.5-1.6-5.4-1.6c-6,0-9.7,4.3-9.7,10.1c0,6.3,4.3,10.2,9.7,10.2c1.9,0,3.8-0.6,5.4-1.6
	C185.6,59,187,59.1,187.8,59.9z"/>
<path class="st0" d="M208.9,61.8h-11.7l-0.8,2c-0.4,1.1-1.5,1.8-2.6,1.8l0,0c-1.5,0-2.8-1.2-2.8-2.8c0-0.3,0.1-0.7,0.2-1l9.4-24.1
	c0.5-1.4,2.1-2.1,3.5-1.5c0.7,0.3,1.3,0.8,1.5,1.5l9.4,24.1c0.6,1.4-0.2,3.1-1.6,3.6c-0.3,0.1-0.7,0.2-1,0.2l0,0
	c-1.2,0-2.2-0.7-2.6-1.8L208.9,61.8z M199,57h8.1L203,45.4L199,57z"/>
<path class="st0" d="M219.8,57.5L219.8,57.5c1,0,1.9,0.5,2.4,1.4c0.8,1.5,2.3,2.4,4,2.3c2.3,0,4.3-1.5,4.3-3.8c-0.2-2.2-2-4-4.3-4
	c-1.5,0-3-0.4-4.4-1c-3-1.3-4.9-4.2-4.8-7.4c-0.1-4.9,3.8-8.9,8.7-9c0.1,0,0.3,0,0.4,0c3.6-0.2,6.9,1.9,8.4,5.1
	c0.5,1.2-0.1,2.6-1.3,3.1c-0.3,0.1-0.6,0.2-0.9,0.2l0,0c-1,0-1.8-0.5-2.2-1.4c-0.7-1.4-2.3-2.3-3.9-2.1c-2.3,0-4.3,1.3-4.3,4
	c0,2.4,2.1,3.7,4.3,3.7c1.5,0,3,0.4,4.4,1c3,1.4,4.9,4.5,4.8,7.8c0,5.6-4.4,8.6-9.1,8.6c-3.9-0.1-7.2-1.9-8.5-5.3
	c-0.5-1.2,0.1-2.6,1.4-3.1C219.2,57.6,219.5,57.6,219.8,57.5z"/>
<path class="st0" d="M239.9,48.7c-1-5.9,2.9-11.5,8.8-12.6c5.9-1,11.5,2.9,12.6,8.8c1,5.9-2.9,11.5-8.8,12.6c-1.2,0.2-2.5,0.2-3.7,0
	C244.2,56.8,240.7,53.2,239.9,48.7z M257.7,65.6h-14.4c-1.3,0-2.4-1.1-2.4-2.4l0,0c0-1.3,1.1-2.4,2.4-2.4h14.4
	c1.3,0,2.4,1.1,2.4,2.4c0,0,0,0,0,0l0,0C260.1,64.6,259.1,65.6,257.7,65.6L257.7,65.6z M244.6,46.1c-0.4,3.3,1.9,6.3,5.2,6.7
	s6.3-1.9,6.7-5.2c0.4-3.3-1.9-6.3-5.2-6.7c-0.5-0.1-1-0.1-1.5,0C247.1,41.2,245,43.4,244.6,46.1z"/>
</svg>
