<?xml version="1.0" encoding="utf-8"?>
<!-- Generator: Adobe Illustrator 25.2.3, SVG Export Plug-In . SVG Version: 6.00 Build 0)  -->
<svg version="1.1" id="Livello_1" xmlns="http://www.w3.org/2000/svg" xmlns:xlink="http://www.w3.org/1999/xlink" x="0px" y="0px"
	 viewBox="0 0 200 200" style="enable-background:new 0 0 200 200;" xml:space="preserve">
<style type="text/css">
	.st0{fill:#FFFFFF;}
</style>
<path class="st0" d="M174.2,99.5c-5.7-6.5-12.6-11.9-20.1-16.1c-15.1-8.6-32.8-11.5-49.8-8.1c-8.4,1.6-16.4,5.1-23.3,10.2
	c-0.4,0.3-0.9,0.2-1.1-0.1c0,0,0,0,0,0l-0.1-0.2c-1.2-2.4-2.7-4.7-4.6-6.6c-1.9-2-3.9-3.8-6.1-5.5c-4.4-3.3-9.2-6.1-14.2-8.4
	l1.1-1.2c4.5,6.9,6.6,15.1,5.8,23.3c-0.4,4.1-1.5,8.1-3.2,11.8c-1.7,3.7-3.9,7.1-6.6,10.2l-0.8-1.5c2.7-0.4,5.4-0.6,8.1-0.9
	c2.7-0.3,5.3-0.7,7.9-1.3c2.6-0.6,5-1.5,7.3-2.8c2.2-1.3,4-3.1,5.2-5.4c0.2-0.4,0.7-0.6,1.1-0.4c0.1,0.1,0.2,0.1,0.3,0.3
	c1.6,2.1,3.4,4.1,5.4,5.8l-1.3,1l1.5-0.5c0.2,1.3-0.1,2.5-0.9,3.6c-0.9,1-2.1,1.4-3.4,1.3h-0.2c-0.1,0-0.1,0,0,0
	c0.1-0.1,0.1-0.2,0.1-0.3c0,0,0,0,0,0.1c0.2,0.4,0.5,0.7,0.8,0.9c0.7,0.6,1.5,1.2,2.4,1.6c1.7,0.9,3.6,1.4,5.6,1.5
	c1.9,0,3.7-0.7,5.1-2c0.2-0.2,0.5-0.3,0.8-0.1c6,2.8,12.3,4.7,18.8,5.6c6.5,1,13.1,1.1,19.7,0.5c6.6-0.6,13.1-1.9,19.3-3.9
	c6.3-2,12.4-4.8,18-8.2v0.1c-0.6-0.7-1-1.7-1-2.7c0.1-0.5,0.4-0.9,0.9-1.1C173.3,99.6,173.8,99.5,174.2,99.5 M174.3,99.5
	c-0.5,0-1,0.1-1.4,0.3c-0.4,0.2-0.7,0.6-0.8,1.1c0,1,0.4,1.9,1.1,2.6c0,0,0,0.1,0,0.1c0,0,0,0,0,0l0,0c-5.6,3.6-11.6,6.5-17.9,8.7
	c-6.3,2.2-12.8,3.6-19.4,4.4c-6.6,0.7-13.3,0.6-19.9-0.3c-6.6-0.8-13.1-2.7-19.2-5.5l0.8-0.1c-1.6,1.6-3.8,2.5-6.1,2.5
	c-2.2,0-4.3-0.6-6.3-1.6c-1-0.5-1.9-1.1-2.7-1.8c-0.5-0.4-0.9-0.9-1.2-1.4c-0.1-0.2-0.2-0.4-0.2-0.7c0-0.4,0.1-0.7,0.4-1
	c0.4-0.3,0.8-0.4,1.3-0.3c0.8,0.1,1.6-0.2,2.1-0.8c0.5-0.7,0.6-1.5,0.5-2.3l0,0c-0.1-0.4,0.3-0.9,0.7-0.9c0.5,0,0.9,0.3,0.9,0.7
	c0,0.3-0.1,0.7-0.4,0.8c-0.3,0.1-0.6,0.1-0.9-0.1c-2.1-1.8-4.1-3.9-5.7-6.1l1.4-0.1c-1.3,2.6-3.3,4.7-5.8,6.2
	c-2.4,1.4-5,2.4-7.8,3.1c-2.7,0.6-5.4,1.1-8.1,1.4c-2.7,0.3-5.4,0.5-8,0.9c-0.5,0.1-0.9-0.3-1-0.8c0-0.3,0-0.5,0.2-0.7
	c5.1-5.9,8.3-13.3,9.2-21.1c0.7-7.8-1.2-15.6-5.5-22.2l0,0c-0.3-0.4-0.2-0.9,0.2-1.2c0,0,0,0,0,0c0.3-0.2,0.6-0.2,0.8-0.1
	c5.1,2.4,10,5.3,14.5,8.7c2.3,1.7,4.4,3.6,6.3,5.7c2,2.1,3.6,4.5,4.8,7.1l-1.2-0.3c7.1-5.2,15.3-8.7,23.9-10.3
	c8.6-1.6,17.4-1.6,26-0.1c8.6,1.5,16.8,4.6,24.3,9.1C161.8,87.2,168.5,92.9,174.3,99.5"/>
<path class="st0" d="M153.4,87.3c-1.7,1.3-3.3,2.9-4.5,4.7c-1.2,1.7-1.9,3.7-2,5.8c0,2.1,0.4,4.2,1.3,6.1c0.9,2,2,3.9,3.3,5.8
	c-1.8-1.4-3.4-3.1-4.6-5.1c-1.3-2-1.9-4.4-1.9-6.8c0.1-2.4,1.1-4.7,2.7-6.6C149.3,89.4,151.3,88.1,153.4,87.3"/>
<path class="st0" d="M157.9,94.4c0,0.5,0.2,1.1,0.6,1.4c0.4,0.3,0.9,0.5,1.4,0.4c0.7-0.2,1.2-0.8,1.3-1.5c0.1-0.7-0.3-1.5-1-1.8
	c-0.9-0.3-1.8,0.1-2.1,1C157.9,94.1,157.9,94.3,157.9,94.4 M157.9,94.4c0.1-1.2,1.1-2.2,2.3-2.4c0.7-0.1,1.5,0.2,2,0.7
	c0.6,0.5,0.8,1.3,0.8,2.1c-0.1,1.4-1.3,2.5-2.7,2.3C158.8,97.1,157.8,95.9,157.9,94.4L157.9,94.4"/>
<path class="st0" d="M23.1,72.7h0.3c0.7,0,1,2.6,1,7.7v1.9c0,1.9-0.3,6.8-0.9,14.6c0,0.4,0.1,0.8,0.2,1.2c-0.1,5-0.1,9-0.1,12v9.4
	c0.1,0.5,0.2,1,0.3,1.4c-0.1,0.7-0.3,1-0.6,1h-0.6c-0.4,0-0.6-1.3-0.6-3.9c0-16.7,0.3-28.3,0.9-34.6v-4c0-2-0.1-4.1-0.4-6.1
	C22.5,73.1,22.7,73,23.1,72.7"/>
<path class="st0" d="M36.7,69.9h0.2c0.1,0,0.3,0.2,0.6,0.6c0,0.5-0.1,0.7-0.3,0.7l0.2,0.3c0.7,10.5,1,19.4,1,26.6
	c0.3,3.2,0.5,6.5,0.4,9.7v12.6h7.8c0.1,0,0.3,0.2,0.4,0.4v0.4c0,0.4-0.8,0.6-2.5,0.6h-6.6c-0.2,0-0.3-0.2-0.6-0.6v-0.9
	c0-0.7,0-1,0.1-1l-0.1-1.7v-10.6c-0.4-12.7-0.8-23.3-1.2-31.7l-0.4-4.8C35.8,70.2,36.3,69.9,36.7,69.9"/>
<path class="st0" d="M21.8,126.8c3.9-0.2,7.5,2.2,8.7,5.9c0.3,1,0.5,2.1,0.5,3.1c-0.1,6.3-1.1,12.6-3,18.6c-0.9,1.6-2.3,2.8-3.9,3.6
	c-1.1,0.1-1.6,0.2-1.6,0.4v0.1c0,1,0,2,0.1,3c-0.1,0.8-0.1,1.2-0.1,1.4c0.3,5.1,0.4,8.1,0.4,8.8c0.3,0,0.4,0.4,0.4,1.1v0.4
	c-0.3,0.7-0.5,1.1-0.8,1.2h-0.3c-0.1,0-0.3-0.2-0.5-0.6V173c0-0.1,0-0.1,0.1-0.1c-0.2-0.9-0.3-2.1-0.4-3.5c0-0.1,0-0.1,0.1-0.1
	l-0.4-5.7c0.1-0.7,0.1-1.3,0.1-2c-0.1-1.7-0.1-2.7-0.1-3.1c-0.4-0.2-0.5-0.4-0.5-0.7s0.3-0.6,0.5-0.6c-0.2-2.4-0.3-3.9-0.3-4.4
	l0.7-24.8c-0.1,0-0.3-0.1-0.3-0.2c0,0,0,0,0-0.1v-0.4C21.2,127.2,21.4,127,21.8,126.8 M22.9,128.1l-0.7,24.6c0.1,1.9,0.1,3.2,0.1,4
	l0.3,0.1c1.2-0.1,2.4-0.7,3.1-1.6c1.6-1,2.8-6.6,3.8-16.7c0.1-1.7,0.1-2.8,0.1-3.3c0-2.4-1.4-4.5-4.1-6.4
	C24.7,128.6,23.8,128.3,22.9,128.1"/>
<path class="st0" d="M43.2,128.1h0.1c1.3,0.6,2.4,2.2,3.3,4.8c2.5,7.8,4.4,17.8,5.6,29.9c0.7,3.4,1.1,6.9,1.2,10.4
	c-0.1,0.3-0.4,0.4-0.9,0.4c-0.4-0.7-0.9-4.3-1.6-10.8c-0.2-0.7-0.7-3.7-1.4-9l-1-0.1c-4.9,0.4-7.3,0.9-7.3,1.5v5.3L40.2,173
	c0.2,0.3,0.3,0.6,0.3,0.9c0,0.2-0.2,0.4-0.6,0.6c-0.8,0-1.2-0.5-1.2-1.5c0.7-9.6,1.1-15.3,1.1-17.3c-0.1-1.2-0.1-2.5-0.1-3.8
	c0.1-6.9,0.6-13.9,1.6-20.7C41.7,129.1,42.4,128.1,43.2,128.1 M43.3,129.9c-1.3,5.1-2,11.6-2,19.7c-0.2,1.1-0.2,2.2-0.1,3.3v0.4
	c2.7-0.8,5.5-1.2,8.3-1.2V152c0-2.8-1.5-9.3-4.5-19.7C44.2,130.9,43.7,130.1,43.3,129.9"/>
<path class="st0" d="M70.9,128.4h1c1.6,0.3,2.4,0.9,2.4,1.8c0,0.1-0.2,0.3-0.5,0.5h-0.6c-0.4-0.6-1.1-1-1.9-1.1
	c-2.3,0.8-3.4,1.5-3.4,2.2c-1.9,3.5-2.8,8.2-2.8,14.1v2.3c0.1,4.9,0.6,9.8,1.6,14.6c0.7,4.1,1.6,7,2.7,8.4c1,1,2.3,1.7,3.7,1.9
	c1.3,0,2.8-1,4.4-3H78c0.1,0,0.3,0.1,0.4,0.4v0.3c0,0.8-1,1.9-3,3.1c-0.7,0.3-1.5,0.5-2.3,0.5H73c-1.6-0.3-3.1-1-4.2-2.2
	c-1.6-1.3-3-6.4-4.2-15.5c-0.6-3.2-0.8-6.4-0.7-9.7v-0.8c0.2-9.2,1.7-14.8,4.5-17C69.2,128.9,70.1,128.5,70.9,128.4"/>
<path class="st0" d="M92.6,128.4h1c1.6,0.3,2.4,0.9,2.4,1.8c0,0.1-0.2,0.3-0.5,0.5h-0.6c-0.4-0.6-1.1-1-1.9-1.1
	c-2.3,0.8-3.4,1.5-3.4,2.2c-1.8,3.4-2.7,8.2-2.7,14.1v2.3c0.1,4.9,0.6,9.8,1.6,14.6c0.7,4.1,1.6,7,2.7,8.4c1,1,2.3,1.7,3.7,1.9
	c1.3,0,2.8-1,4.4-3h0.4c0.1,0,0.3,0.1,0.4,0.4v0.3c0,0.8-1,1.9-3,3.1c-0.7,0.3-1.5,0.5-2.3,0.5h-0.1c-1.6-0.3-3.1-1-4.2-2.2
	c-1.6-1.3-3-6.4-4.2-15.5c-0.6-3.2-0.8-6.4-0.7-9.7v-0.8c0.2-9.2,1.7-14.8,4.5-17C90.8,128.9,91.7,128.5,92.6,128.4"/>
<path class="st0" d="M116.8,124.2h0.3c0.4,0.2,0.5,0.4,0.5,0.7c0,4.3-0.1,7.6-0.3,9.9l0.3,14.1c0.1,0.2,0.2,0.4,0.3,0.7
	c-0.1,0.3-0.2,0.4-0.3,0.4c0.2,4.3,0.3,11.6,0.4,22.2c-0.1,0.9-0.2,1.8-0.1,2.7l-0.4,0.3h-0.4l-0.6-0.4c0-0.8,0-1.6,0.1-2.3
	c-0.1-12.4-0.2-19.8-0.4-22.3c-2.4,0-4.8,0.1-7.2,0.4c0.2,1.7,0.3,3.3,0.3,5c0,3.6,0,6.8-0.1,9.5c0.1,1.5,0.1,4.5,0.1,9
	c-0.2,0.2-0.5,0.3-0.8,0.3c-0.1,0-0.3-0.2-0.6-0.6v-1.2c0-3.7,0-6.2-0.1-7.5c0.1-2.2,0.1-5,0.1-8.2v-2c-0.3-4.4-0.4-7.5-0.4-9.2
	c0.3-10.1,0.4-16.5,0.4-19.3c-0.1-0.3-0.1-0.7-0.1-1l0.5-0.4h0.3c0.4,0.2,0.7,0.6,0.7,1.1c0,1.7-0.1,8.5-0.4,20.4v2.5l0.1,0.3
	c2.4-0.3,4.8-0.4,7.2-0.4c-0.1-3.3-0.1-5.6-0.1-7.1v-6.3c0-0.2,0-0.4-0.1-0.6l0.1-0.3c0.1-4.4,0.1-7.7,0.1-10.1L116.8,124.2z"/>
<path class="st0" d="M132.9,127.6l0.3,0.1c0.1,0,0.1,0,0.1-0.1c2.9,0.3,4.4,0.6,4.4,1v0.1c-0.2,0.4-0.4,0.7-0.7,0.7L133,129
	c-0.2,0-1.2,0-2.7,0.1l0.1,1.6c0,1.5,0.2,7.5,0.7,18h0.9c0.6,0,1.2,0,1.8-0.1c2,0.2,3.5,0.3,4.5,0.3l0.4,0.6v0.4
	c0,0.3-0.2,0.4-0.5,0.4c-0.8,0-2.1-0.1-3.9-0.3c-1.2,0.1-2.3,0.1-3.1,0.1v0.6c0,6.4,0.3,13.8,0.9,22.2c0.1,0,0.1,0,0.1,0.1
	c0,0,0,0,0,0c3.4-0.2,5.5-0.3,6.1-0.3c0.4,0.1,0.7,0.3,0.8,0.7v0.1c0,0.1-0.2,0.3-0.5,0.5c-3.4,0.1-5.5,0.2-6.3,0.3
	c-1.1,0-1.6-0.6-1.6-1.8c-0.7-8.7-1-15.9-1-21.6v-4.4c-0.5-8-0.7-13.4-0.7-16.2c-0.3-1.4-0.4-2.1-0.4-2.2l0.5-0.4h1.5
	C131.1,127.8,131.8,127.8,132.9,127.6"/>
<path class="st0" d="M147.3,124.3h0.3c0.7,0.5,1.6,0.8,2.4,0.8c1.8,0.8,3.3,2.1,4.2,3.8c1.5,3.8,2.3,6.5,2.3,8.3v1.4
	c0,5.9-1.7,10.2-5.2,12.9c4,1,6.3,5.7,6.9,14.1v5.2c0,0.8,0,1.9,0.1,3.4l-0.4,0.3h-0.4l-0.5-0.4c-0.1-1.8-0.1-3.2-0.1-4.1v-4.9
	c-0.1-3.7-1.2-7.3-3.1-10.5c-1.5-1.3-2.7-2-3.8-2h-0.1c0.1,2,0.1,3.4,0.1,4.4v5.2c0.2,4.5,0.3,7,0.3,7.6v0.2
	c-0.1,0.3-0.5,0.5-0.8,0.5c-0.1,0-0.4-0.2-0.7-0.5l0.1-0.9c-0.2-3.8-0.3-6.4-0.3-7.6v-8.2c-0.4,0-0.7-0.2-0.8-0.6v-0.4
	c0.2-0.4,0.4-0.5,0.7-0.5c-0.5-12.4-1.1-21.5-1.8-27.1L147.3,124.3z M148.4,126.2c0.5,6.6,1,14.8,1.5,24.6c3.5-2.4,5.3-6.3,5.3-11.6
	v-1.9c0-2.4-1-5.4-3-9.1c-1.5-1.4-2.6-2-3.4-2L148.4,126.2z"/>
<path class="st0" d="M173.2,127.8c2.6,0,4.6,6.1,6.1,18.4c0.1,1.2,0.1,2.6,0.1,4.5v0.5c0,0.4-0.1,0.8-0.1,1.2
	c0.1,0.3,0.2,0.6,0.1,0.9v0.1c0,0.3,0,0.7-0.1,0.9c0.1,0.5,0.1,0.8,0.1,0.8c0,9.6-1.3,15.5-3.9,17.7c-0.6,0.3-1.2,0.5-1.9,0.6h-0.9
	c-3.3-0.8-5.3-5-6.1-12.7l-0.4-5.6c0-12.8,1.6-21.6,4.8-26.5C171.5,128.2,172.3,127.9,173.2,127.8 M167.5,154.9
	c-0.1,4.6,0.6,9.1,2,13.5c1.3,2.5,2.4,3.8,3.4,3.8h0.1c1.8,0,3-1.3,3.5-3.8c1-2.4,1.5-7.4,1.5-15.1v-2.7c-0.1-6.2-1.1-12.4-2.9-18.4
	c-0.4-1.2-1.1-2.2-2-3c-1.1,0.4-1.7,0.9-1.9,1.5C168.8,136.1,167.5,144.1,167.5,154.9"/>
<path class="st0" d="M136.4,62.8c2.9-1.5,4.5-4.2,6.5-6.6c0.5-0.6-0.4-0.7-0.9-0.7c-0.9,0-1.7,0.3-2.4,0.9c-1.6,1.9-3,4.6-5.3,5.8
	c-0.3,0.2-1.2,0.8-0.4,1C134.7,63.4,135.6,63.2,136.4,62.8"/>
<path class="st0" d="M174.2,99.5c-5.7-6.5-12.6-11.9-20.1-16.1c-15.1-8.6-32.8-11.5-49.8-8.1c-8.4,1.6-16.4,5.1-23.3,10.2
	c-0.4,0.3-0.9,0.2-1.1-0.1c0,0,0,0,0,0l-0.1-0.2c-1.2-2.4-2.7-4.7-4.6-6.6c-1.9-2-3.9-3.8-6.1-5.5c-4.4-3.3-9.2-6.1-14.2-8.4
	l1.1-1.2c4.5,6.9,6.6,15.1,5.8,23.3c-0.4,4.1-1.5,8.1-3.2,11.8c-1.7,3.7-3.9,7.1-6.6,10.2l-0.8-1.5c2.7-0.4,5.4-0.6,8.1-0.9
	c2.7-0.3,5.3-0.7,7.9-1.3c2.6-0.6,5-1.5,7.3-2.8c2.2-1.3,4-3.1,5.2-5.4c0.2-0.4,0.7-0.6,1.1-0.4c0.1,0.1,0.2,0.1,0.3,0.3
	c1.6,2.1,3.4,4.1,5.4,5.8l-1.1,1.2l0,0l1.4-0.7c0.2,1.3-0.1,2.6-0.9,3.6c-0.9,1-2.1,1.4-3.4,1.3h-0.2c-0.1,0-0.1,0,0,0
	c0.1-0.1,0.1-0.2,0.1-0.3c0,0,0,0,0,0.1c0.2,0.4,0.5,0.7,0.8,0.9c0.7,0.6,1.5,1.2,2.4,1.6c1.7,0.9,3.6,1.4,5.6,1.5
	c1.9,0,3.7-0.7,5.1-2c0.2-0.2,0.5-0.3,0.8-0.1c6,2.8,12.3,4.7,18.8,5.6c6.5,1,13.1,1.1,19.7,0.5c6.6-0.6,13.1-1.9,19.3-3.9
	c6.3-2,12.4-4.8,18-8.2v0.1c-0.6-0.7-1-1.7-1-2.7c0.1-0.5,0.4-0.9,0.9-1.1C173.3,99.6,173.8,99.5,174.2,99.5 M174.3,99.5
	c-0.5,0-1,0.1-1.4,0.3c-0.4,0.2-0.7,0.6-0.8,1.1c0,1,0.4,1.9,1.1,2.6c0,0,0,0.1,0,0.1c0,0,0,0,0,0l0,0c-5.6,3.6-11.6,6.5-17.9,8.7
	c-6.3,2.2-12.8,3.6-19.4,4.4c-6.6,0.7-13.3,0.6-19.9-0.3c-6.6-0.8-13.1-2.7-19.2-5.5l0.8-0.1c-1.6,1.6-3.8,2.5-6.1,2.5
	c-2.2,0-4.3-0.6-6.3-1.6c-1-0.5-1.9-1.1-2.7-1.8c-0.5-0.4-0.9-0.9-1.2-1.4c-0.1-0.2-0.2-0.4-0.2-0.7c0-0.4,0.1-0.7,0.4-1
	c0.4-0.3,0.8-0.4,1.3-0.3c0.8,0.1,1.6-0.2,2.1-0.8c0.5-0.7,0.6-1.5,0.5-2.3l0,0c-0.1-0.4,0.3-0.9,0.7-0.9c0.3,0,0.5,0.1,0.7,0.2l0,0
	c0.3,0.3,0.3,0.9,0,1.2c-0.3,0.3-0.7,0.3-1.1,0c-2.1-1.8-4.1-3.9-5.7-6.1l1.4-0.1c-1.3,2.6-3.3,4.7-5.8,6.2c-2.4,1.4-5,2.4-7.8,3.1
	c-2.7,0.6-5.4,1.1-8.1,1.4c-2.7,0.3-5.4,0.5-8,0.9c-0.5,0.1-0.9-0.3-1-0.8c0-0.3,0-0.5,0.2-0.7c5.1-5.9,8.3-13.3,9.2-21.1
	c0.7-7.8-1.2-15.6-5.5-22.2l0,0c-0.3-0.4-0.2-0.9,0.2-1.2c0,0,0,0,0,0c0.3-0.2,0.6-0.2,0.8-0.1c5.1,2.4,10,5.3,14.5,8.7
	c2.3,1.7,4.4,3.6,6.3,5.7c2,2.1,3.6,4.5,4.8,7.1l-1.2-0.3c7.1-5.2,15.3-8.7,23.9-10.3c8.6-1.6,17.4-1.6,26-0.1
	c8.6,1.5,16.8,4.6,24.3,9.1C161.8,87.2,168.5,92.9,174.3,99.5"/>
<path class="st0" d="M153.4,87.3c-1.7,1.3-3.3,2.9-4.5,4.7c-1.2,1.7-1.9,3.7-2,5.8c0,2.1,0.4,4.2,1.3,6.1c0.9,2,2,3.9,3.3,5.8
	c-1.8-1.4-3.4-3.1-4.6-5.1c-1.3-2-1.9-4.4-1.9-6.8c0.1-2.4,1.1-4.7,2.7-6.6C149.3,89.4,151.3,88.1,153.4,87.3"/>
<path class="st0" d="M157.9,94.4c0,0.5,0.2,1.1,0.6,1.4c0.4,0.3,0.9,0.5,1.4,0.4c0.7-0.2,1.2-0.8,1.3-1.5c0.1-0.7-0.3-1.5-1-1.8
	c-0.9-0.3-1.8,0.1-2.1,1C157.9,94.1,157.9,94.3,157.9,94.4 M157.9,94.4c0.1-1.2,1.1-2.2,2.3-2.4c0.7-0.1,1.5,0.2,2,0.7
	c0.6,0.5,0.8,1.3,0.8,2.1c-0.1,1.4-1.3,2.5-2.7,2.3C158.8,97.1,157.8,95.9,157.9,94.4L157.9,94.4"/>
<path class="st0" d="M23.1,72.7h0.3c0.7,0,1,2.6,1,7.7v1.9c0,1.9-0.3,6.8-0.9,14.6c0,0.4,0.1,0.8,0.2,1.2c-0.1,5-0.1,9-0.1,12v9.4
	c0.1,0.5,0.2,1,0.3,1.4c-0.1,0.7-0.3,1-0.6,1h-0.6c-0.4,0-0.6-1.3-0.6-3.9c0-16.7,0.3-28.3,0.9-34.6v-4c0-2-0.1-4.1-0.4-6.1
	C22.5,73.1,22.7,73,23.1,72.7"/>
<path class="st0" d="M23.1,72.7h0.3c0.7,0,1,2.6,1,7.7v1.9c0,1.9-0.3,6.8-0.9,14.6c0,0.4,0.1,0.8,0.2,1.2c-0.1,5-0.1,9-0.1,12v9.4
	c0.1,0.5,0.2,1,0.3,1.4c-0.1,0.7-0.3,1-0.6,1h-0.6c-0.4,0-0.6-1.3-0.6-3.9c0-16.7,0.3-28.3,0.9-34.6v-4c0-2-0.1-4.1-0.4-6.1
	C22.5,73.1,22.7,72.9,23.1,72.7z"/>
<path class="st0" d="M36.7,69.9h0.2c0.1,0,0.3,0.2,0.6,0.6c0,0.5-0.1,0.7-0.3,0.7l0.2,0.3c0.7,10.5,1,19.4,1,26.6
	c0.3,3.2,0.5,6.5,0.4,9.7v12.6h7.8c0.1,0,0.3,0.2,0.4,0.4v0.4c0,0.4-0.8,0.6-2.5,0.6h-6.6c-0.2,0-0.3-0.2-0.6-0.6v-0.9
	c0-0.7,0-1,0.1-1l-0.1-1.7v-10.6c-0.4-12.7-0.8-23.3-1.2-31.7l-0.4-4.8C35.8,70.2,36.3,69.9,36.7,69.9"/>
<path class="st0" d="M36.7,69.9h0.2c0.1,0,0.3,0.2,0.6,0.6c0,0.5-0.1,0.7-0.3,0.7l0.2,0.3c0.7,10.5,1,19.4,1,26.6
	c0.3,3.2,0.5,6.5,0.4,9.7v12.6h7.8c0.1,0,0.3,0.2,0.4,0.4v0.4c0,0.4-0.8,0.6-2.5,0.6h-6.6c-0.2,0-0.3-0.2-0.6-0.6v-0.9
	c0-0.7,0-1,0.1-1l-0.1-1.7v-10.6c-0.4-12.7-0.8-23.3-1.2-31.7l-0.4-4.8C35.8,70.2,36.3,69.9,36.7,69.9z"/>
<path class="st0" d="M21.8,126.8c3.9-0.2,7.5,2.2,8.7,5.9c0.3,1,0.5,2.1,0.5,3.1c-0.1,6.3-1.1,12.6-3,18.6c-0.9,1.6-2.3,2.8-3.9,3.6
	c-1.1,0.1-1.6,0.2-1.6,0.4v0.1c0,1,0,2,0.1,3c-0.1,0.8-0.1,1.2-0.1,1.4c0.3,5.1,0.4,8.1,0.4,8.8c0.3,0,0.4,0.4,0.4,1.1v0.4
	c-0.3,0.7-0.5,1.1-0.8,1.2h-0.3c-0.1,0-0.3-0.2-0.5-0.6V173c0-0.1,0-0.1,0.1-0.1c-0.2-0.9-0.3-2.1-0.4-3.5c0-0.1,0-0.1,0.1-0.1
	l-0.4-5.7c0.1-0.7,0.1-1.3,0.1-2c-0.1-1.7-0.1-2.7-0.1-3.1c-0.4-0.2-0.5-0.4-0.5-0.7s0.3-0.6,0.5-0.6c-0.2-2.4-0.3-3.9-0.3-4.4
	l0.7-24.8c-0.1,0-0.3-0.1-0.3-0.2c0,0,0,0,0-0.1v-0.4C21.2,127.2,21.4,127,21.8,126.8 M22.9,128.1l-0.7,24.6c0.1,1.9,0.1,3.2,0.1,4
	l0.3,0.1c1.2-0.1,2.4-0.7,3.1-1.6c1.6-1,2.8-6.6,3.8-16.7c0.1-1.7,0.1-2.8,0.1-3.3c0-2.4-1.4-4.5-4.1-6.4
	C24.7,128.6,23.8,128.3,22.9,128.1"/>
<path class="st0" d="M21.8,126.8c3.9-0.2,7.5,2.2,8.7,5.9c0.3,1,0.5,2.1,0.5,3.1c-0.1,6.3-1.1,12.6-3,18.6c-0.9,1.6-2.3,2.8-3.9,3.6
	c-1.1,0.1-1.6,0.2-1.6,0.4v0.1c0,1,0,2,0.1,3c-0.1,0.8-0.1,1.2-0.1,1.4c0.3,5.1,0.4,8.1,0.4,8.8c0.3,0,0.4,0.4,0.4,1.1v0.4
	c-0.3,0.7-0.5,1.1-0.8,1.2h-0.3c-0.1,0-0.3-0.2-0.5-0.6V173c0-0.1,0-0.1,0.1-0.1c-0.2-0.9-0.3-2.1-0.4-3.5c0-0.1,0-0.1,0.1-0.1
	l-0.4-5.7c0.1-0.7,0.1-1.3,0.1-2c-0.1-1.7-0.1-2.7-0.1-3.1c-0.4-0.2-0.5-0.4-0.5-0.7s0.3-0.6,0.5-0.6c-0.2-2.4-0.3-3.9-0.3-4.4
	l0.7-24.8c-0.1,0-0.3-0.1-0.3-0.2c0,0,0,0,0-0.1v-0.4C21.2,127.2,21.4,127,21.8,126.8z M22.9,128.1l-0.7,24.6c0.1,1.9,0.1,3.2,0.1,4
	l0.3,0.1c1.2-0.1,2.4-0.7,3.1-1.6c1.6-1,2.8-6.6,3.8-16.7c0.1-1.7,0.1-2.8,0.1-3.3c0-2.4-1.4-4.5-4.1-6.4
	C24.7,128.5,23.8,128.3,22.9,128.1z"/>
<path class="st0" d="M43.2,128.1h0.1c1.3,0.6,2.4,2.2,3.3,4.8c2.5,7.8,4.4,17.8,5.6,29.9c0.7,3.4,1.1,6.9,1.2,10.4
	c-0.1,0.3-0.4,0.4-0.9,0.4c-0.4-0.7-0.9-4.3-1.6-10.8c-0.2-0.7-0.7-3.7-1.4-9l-1-0.1c-4.9,0.4-7.3,0.9-7.3,1.5v5.3L40.2,173
	c0.2,0.3,0.3,0.6,0.3,0.9c0,0.2-0.2,0.4-0.6,0.6c-0.8,0-1.2-0.5-1.2-1.5c0.7-9.6,1.1-15.3,1.1-17.3c-0.1-1.2-0.1-2.5-0.1-3.8
	c0.1-6.9,0.6-13.9,1.6-20.7C41.7,129.1,42.4,128.1,43.2,128.1 M43.3,129.9c-1.3,5.1-2,11.6-2,19.7c-0.2,1.1-0.2,2.2-0.1,3.3v0.4
	c2.7-0.8,5.5-1.2,8.3-1.2V152c0-2.8-1.5-9.3-4.5-19.7C44.2,130.9,43.7,130.1,43.3,129.9"/>
<path class="st0" d="M43.2,128.1h0.1c1.3,0.6,2.4,2.2,3.3,4.8c2.5,7.8,4.4,17.8,5.6,29.9c0.7,3.4,1.1,6.9,1.2,10.4
	c-0.1,0.3-0.4,0.4-0.9,0.4c-0.4-0.7-0.9-4.3-1.6-10.8c-0.2-0.7-0.7-3.7-1.4-9l-1-0.1c-4.9,0.4-7.3,0.9-7.3,1.5v5.3L40.2,173
	c0.2,0.3,0.3,0.6,0.3,0.9c0,0.2-0.2,0.4-0.6,0.6c-0.8,0-1.2-0.5-1.2-1.5c0.7-9.6,1.1-15.3,1.1-17.3c-0.1-1.2-0.1-2.5-0.1-3.8
	c0.1-6.9,0.6-13.9,1.6-20.7C41.7,129.1,42.3,128.1,43.2,128.1z M43.2,129.9c-1.3,5.1-2,11.6-2,19.7c-0.2,1.1-0.2,2.2-0.1,3.3v0.4
	c2.7-0.8,5.5-1.2,8.3-1.2V152c0-2.8-1.5-9.3-4.5-19.7C44.2,130.9,43.7,130.1,43.2,129.9z"/>
<path class="st0" d="M70.9,128.4h1c1.6,0.3,2.4,0.9,2.4,1.8c0,0.1-0.2,0.3-0.5,0.5h-0.6c-0.4-0.6-1.1-1-1.9-1.1
	c-2.3,0.8-3.4,1.5-3.4,2.2c-1.9,3.5-2.8,8.2-2.8,14.1v2.3c0.1,4.9,0.6,9.8,1.6,14.6c0.7,4.1,1.6,7,2.7,8.4c1,1,2.3,1.7,3.7,1.9
	c1.3,0,2.8-1,4.4-3H78c0.1,0,0.3,0.1,0.4,0.4v0.3c0,0.8-1,1.9-3,3.1c-0.7,0.3-1.5,0.5-2.3,0.5H73c-1.6-0.3-3.1-1-4.2-2.2
	c-1.6-1.3-3-6.4-4.2-15.5c-0.6-3.2-0.8-6.4-0.7-9.7v-0.8c0.2-9.2,1.7-14.8,4.5-17C69.2,128.9,70.1,128.5,70.9,128.4"/>
<path class="st0" d="M70.9,128.4h1c1.6,0.3,2.4,0.9,2.4,1.8c0,0.1-0.2,0.3-0.5,0.5h-0.6c-0.4-0.6-1.1-1-1.9-1.1
	c-2.3,0.8-3.4,1.5-3.4,2.2c-1.9,3.5-2.8,8.2-2.8,14.1v2.3c0.1,4.9,0.6,9.8,1.6,14.6c0.7,4.1,1.6,7,2.7,8.4c1,1,2.3,1.7,3.7,1.9
	c1.3,0,2.8-1,4.4-3H78c0.1,0,0.3,0.1,0.4,0.4v0.3c0,0.8-1,1.9-3,3.1c-0.7,0.3-1.5,0.5-2.3,0.5H73c-1.6-0.3-3.1-1-4.2-2.2
	c-1.6-1.3-3-6.4-4.2-15.5c-0.6-3.2-0.8-6.4-0.7-9.7v-0.8c0.2-9.2,1.7-14.8,4.5-17C69.2,128.9,70,128.6,70.9,128.4z"/>
<path class="st0" d="M92.6,128.4h1c1.6,0.3,2.4,0.9,2.4,1.8c0,0.1-0.2,0.3-0.5,0.5h-0.6c-0.4-0.6-1.1-1-1.9-1.1
	c-2.3,0.8-3.4,1.5-3.4,2.2c-1.8,3.4-2.7,8.2-2.7,14.1v2.3c0.1,4.9,0.6,9.8,1.6,14.6c0.7,4.1,1.6,7,2.7,8.4c1,1,2.3,1.7,3.7,1.9
	c1.3,0,2.8-1,4.4-3h0.4c0.1,0,0.3,0.1,0.4,0.4v0.3c0,0.8-1,1.9-3,3.1c-0.7,0.3-1.5,0.5-2.3,0.5h-0.1c-1.6-0.3-3.1-1-4.2-2.2
	c-1.6-1.3-3-6.4-4.2-15.5c-0.6-3.2-0.8-6.4-0.7-9.7v-0.8c0.2-9.2,1.7-14.8,4.5-17C90.8,128.9,91.7,128.5,92.6,128.4"/>
<path class="st0" d="M92.6,128.4h1c1.6,0.3,2.4,0.9,2.4,1.8c0,0.1-0.2,0.3-0.5,0.5h-0.6c-0.4-0.6-1.1-1-1.9-1.1
	c-2.3,0.8-3.4,1.5-3.4,2.2c-1.8,3.4-2.7,8.2-2.7,14.1v2.3c0.1,4.9,0.6,9.8,1.6,14.6c0.7,4.1,1.6,7,2.7,8.4c1,1,2.3,1.7,3.7,1.9
	c1.3,0,2.8-1,4.4-3h0.4c0.1,0,0.3,0.1,0.4,0.4v0.3c0,0.8-1,1.9-3,3.1c-0.7,0.3-1.5,0.5-2.3,0.5h-0.1c-1.6-0.3-3.1-1-4.2-2.2
	c-1.6-1.3-3-6.4-4.2-15.5c-0.6-3.2-0.8-6.4-0.7-9.7v-0.8c0.2-9.2,1.7-14.8,4.5-17C90.8,128.9,91.7,128.6,92.6,128.4z"/>
<path class="st0" d="M116.8,124.2h0.3c0.4,0.2,0.5,0.4,0.5,0.7c0,4.3-0.1,7.6-0.3,9.9l0.3,14.1c0.1,0.2,0.2,0.4,0.3,0.7
	c-0.1,0.3-0.2,0.4-0.3,0.4c0.2,4.3,0.3,11.6,0.4,22.2c-0.1,0.9-0.2,1.8-0.1,2.7l-0.4,0.3h-0.4l-0.6-0.4c0-0.8,0-1.6,0.1-2.3
	c-0.1-12.4-0.2-19.8-0.4-22.3c-2.4,0-4.8,0.1-7.2,0.4c0.2,1.7,0.3,3.3,0.3,5c0,3.6,0,6.8-0.1,9.5c0.1,1.5,0.1,4.5,0.1,9
	c-0.2,0.2-0.5,0.3-0.8,0.3c-0.1,0-0.3-0.2-0.6-0.6v-1.2c0-3.7,0-6.2-0.1-7.5c0.1-2.2,0.1-5,0.1-8.2v-2c-0.3-4.4-0.4-7.5-0.4-9.2
	c0.3-10.1,0.4-16.5,0.4-19.3c-0.1-0.3-0.1-0.7-0.1-1l0.5-0.4h0.3c0.4,0.2,0.7,0.6,0.7,1.1c0,1.7-0.1,8.5-0.4,20.4v2.5l0.1,0.3
	c2.4-0.3,4.8-0.4,7.2-0.4c-0.1-3.3-0.1-5.6-0.1-7.1v-6.3c0-0.2,0-0.4-0.1-0.6l0.1-0.3c0.1-4.4,0.1-7.7,0.1-10.1L116.8,124.2z"/>
<path class="st0" d="M116.8,124.2h0.3c0.4,0.2,0.5,0.4,0.5,0.7c0,4.3-0.1,7.6-0.3,9.9l0.3,14.1c0.1,0.2,0.2,0.4,0.3,0.7
	c-0.1,0.3-0.2,0.4-0.3,0.4c0.2,4.3,0.3,11.6,0.4,22.2c-0.1,0.9-0.2,1.8-0.1,2.7l-0.4,0.3h-0.4l-0.6-0.4c0-0.8,0-1.6,0.1-2.3
	c-0.1-12.4-0.2-19.8-0.4-22.3c-2.4,0-4.8,0.1-7.2,0.4c0.2,1.7,0.3,3.3,0.3,5c0,3.6,0,6.8-0.1,9.5c0.1,1.5,0.1,4.5,0.1,9
	c-0.2,0.2-0.5,0.3-0.8,0.3c-0.1,0-0.3-0.2-0.6-0.6v-1.2c0-3.7,0-6.2-0.1-7.5c0.1-2.2,0.1-5,0.1-8.2v-2c-0.3-4.4-0.4-7.5-0.4-9.2
	c0.3-10.1,0.4-16.5,0.4-19.3c-0.1-0.3-0.1-0.7-0.1-1l0.5-0.4h0.3c0.4,0.2,0.7,0.6,0.7,1.1c0,1.7-0.1,8.5-0.4,20.4v2.5l0.1,0.3
	c2.4-0.3,4.8-0.4,7.2-0.4c-0.1-3.3-0.1-5.6-0.1-7.1v-6.3c0-0.2,0-0.4-0.1-0.6l0.1-0.3c0.1-4.4,0.1-7.7,0.1-10.1L116.8,124.2z"/>
<path class="st0" d="M132.9,127.6l0.3,0.1c0.1,0,0.1,0,0.1-0.1c2.9,0.3,4.4,0.6,4.4,1v0.1c-0.2,0.4-0.4,0.7-0.7,0.7L133,129
	c-0.2,0-1.2,0-2.7,0.1l0.1,1.6c0,1.5,0.2,7.5,0.7,18h0.9c0.6,0,1.2,0,1.8-0.1c2,0.2,3.5,0.3,4.5,0.3l0.4,0.6v0.4
	c0,0.3-0.2,0.4-0.5,0.4c-0.8,0-2.1-0.1-3.9-0.3c-1.2,0.1-2.3,0.1-3.1,0.1v0.6c0,6.4,0.3,13.8,0.9,22.2c0.1,0,0.1,0,0.1,0.1
	c0,0,0,0,0,0c3.4-0.2,5.5-0.3,6.1-0.3c0.4,0.1,0.7,0.3,0.8,0.7v0.1c0,0.1-0.2,0.3-0.5,0.5c-3.4,0.1-5.5,0.2-6.3,0.3
	c-1.1,0-1.6-0.6-1.6-1.8c-0.7-8.7-1-15.9-1-21.6v-4.4c-0.5-8-0.7-13.4-0.7-16.2c-0.3-1.4-0.4-2.1-0.4-2.2l0.5-0.4h1.5
	C131.1,127.8,131.8,127.8,132.9,127.6"/>
<path class="st0" d="M132.9,127.6l0.3,0.1c0.1,0,0.1,0,0.1-0.1c2.9,0.3,4.4,0.6,4.4,1v0.1c-0.2,0.4-0.4,0.7-0.7,0.7L133,129
	c-0.2,0-1.2,0-2.7,0.1l0.1,1.6c0,1.5,0.2,7.5,0.7,18h0.9c0.6,0,1.2,0,1.8-0.1c2,0.2,3.5,0.3,4.5,0.3l0.4,0.6v0.4
	c0,0.3-0.2,0.4-0.5,0.4c-0.8,0-2.1-0.1-3.9-0.3c-1.2,0.1-2.3,0.1-3.1,0.1v0.6c0,6.4,0.3,13.8,0.9,22.2c0.1,0,0.1,0,0.1,0.1
	c0,0,0,0,0,0c3.4-0.2,5.5-0.3,6.1-0.3c0.4,0.1,0.7,0.3,0.8,0.7v0.1c0,0.1-0.2,0.3-0.5,0.5c-3.4,0.1-5.5,0.2-6.3,0.3
	c-1.1,0-1.6-0.6-1.6-1.8c-0.7-8.7-1-15.9-1-21.6v-4.4c-0.5-8-0.7-13.4-0.7-16.2c-0.3-1.4-0.4-2.1-0.4-2.2l0.5-0.4h1.5
	C131.2,127.7,131.9,127.7,132.9,127.6z"/>
<path class="st0" d="M147.3,124.3h0.3c0.7,0.5,1.6,0.8,2.4,0.8c1.8,0.8,3.3,2.1,4.2,3.8c1.5,3.8,2.3,6.5,2.3,8.3v1.4
	c0,5.9-1.7,10.2-5.2,12.9c4,1,6.3,5.7,6.9,14.1v5.2c0,0.8,0,1.9,0.1,3.4l-0.4,0.3h-0.4l-0.5-0.4c-0.1-1.8-0.1-3.2-0.1-4.1v-4.9
	c-0.1-3.7-1.2-7.3-3.1-10.5c-1.5-1.3-2.7-2-3.8-2h-0.1c0.1,2,0.1,3.4,0.1,4.4v5.2c0.2,4.5,0.3,7,0.3,7.6v0.2
	c-0.1,0.3-0.5,0.5-0.8,0.5c-0.1,0-0.4-0.2-0.7-0.5l0.1-0.9c-0.2-3.8-0.3-6.4-0.3-7.6v-8.2c-0.4,0-0.7-0.2-0.8-0.6v-0.4
	c0.2-0.4,0.4-0.5,0.7-0.5c-0.5-12.4-1.1-21.5-1.8-27.1L147.3,124.3z M148.4,126.2c0.5,6.6,1,14.8,1.5,24.6c3.5-2.4,5.3-6.3,5.3-11.6
	v-1.9c0-2.4-1-5.4-3-9.1c-1.5-1.4-2.6-2-3.4-2L148.4,126.2z"/>
<path class="st0" d="M147.3,124.3h0.3c0.7,0.5,1.6,0.8,2.4,0.8c1.8,0.8,3.3,2.1,4.2,3.8c1.5,3.8,2.3,6.5,2.3,8.3v1.4
	c0,5.9-1.7,10.2-5.2,12.9c4,1,6.3,5.7,6.9,14.1v5.2c0,0.8,0,1.9,0.1,3.4l-0.4,0.3h-0.4l-0.5-0.4c-0.1-1.8-0.1-3.2-0.1-4.1v-4.9
	c-0.1-3.7-1.2-7.3-3.1-10.5c-1.5-1.3-2.7-2-3.8-2h-0.1c0.1,2,0.1,3.4,0.1,4.4v5.2c0.2,4.5,0.3,7,0.3,7.6v0.2
	c-0.1,0.3-0.5,0.5-0.8,0.5c-0.1,0-0.4-0.2-0.7-0.5l0.1-0.9c-0.2-3.8-0.3-6.4-0.3-7.6v-8.2c-0.4,0-0.7-0.2-0.8-0.6v-0.4
	c0.2-0.4,0.4-0.5,0.7-0.5c-0.5-12.4-1.1-21.5-1.8-27.1L147.3,124.3z M148.4,126.2c0.5,6.6,1,14.8,1.5,24.6c3.5-2.4,5.3-6.3,5.3-11.6
	v-1.9c0-2.4-1-5.4-3-9.1c-1.5-1.4-2.6-2-3.4-2L148.4,126.2z"/>
<path class="st0" d="M173.2,127.8c2.6,0,4.6,6.1,6.1,18.4c0.1,1.2,0.1,2.6,0.1,4.5v0.5c0,0.4-0.1,0.8-0.1,1.2
	c0.1,0.3,0.2,0.6,0.1,0.9v0.1c0,0.3,0,0.7-0.1,0.9c0.1,0.5,0.1,0.8,0.1,0.8c0,9.6-1.3,15.5-3.9,17.7c-0.6,0.3-1.2,0.5-1.9,0.6h-0.9
	c-3.3-0.8-5.3-5-6.1-12.7l-0.4-5.6c0-12.8,1.6-21.6,4.8-26.5C171.5,128.2,172.3,127.9,173.2,127.8 M167.5,154.9
	c-0.1,4.6,0.6,9.1,2,13.5c1.3,2.5,2.4,3.8,3.4,3.8h0.1c1.8,0,3-1.3,3.5-3.8c1-2.4,1.5-7.4,1.5-15.1v-2.7c-0.1-6.2-1.1-12.4-2.9-18.4
	c-0.4-1.2-1.1-2.2-2-3c-1.1,0.4-1.7,0.9-1.9,1.5C168.8,136.1,167.5,144.1,167.5,154.9"/>
<path class="st0" d="M173.2,127.8c2.6,0,4.6,6.1,6.1,18.4c0.1,1.2,0.1,2.6,0.1,4.5v0.5c0,0.4-0.1,0.8-0.1,1.2
	c0.1,0.3,0.2,0.6,0.1,0.9v0.1c0,0.3,0,0.7-0.1,0.9c0.1,0.5,0.1,0.8,0.1,0.8c0,9.6-1.3,15.5-3.9,17.7c-0.6,0.3-1.2,0.5-1.9,0.6h-0.9
	c-3.3-0.8-5.3-5-6.1-12.7l-0.4-5.6c0-12.8,1.6-21.6,4.8-26.5C171.5,128.2,172.3,127.9,173.2,127.8z M167.5,154.9
	c-0.1,4.6,0.6,9.1,2,13.5c1.3,2.5,2.4,3.8,3.4,3.8h0.1c1.8,0,3-1.3,3.5-3.8c1-2.4,1.5-7.4,1.5-15.1v-2.7c-0.1-6.2-1.1-12.4-2.9-18.4
	c-0.4-1.2-1.1-2.2-2-3c-1.1,0.4-1.7,0.9-1.9,1.5C168.8,136.1,167.5,144.1,167.5,154.9z"/>
<path class="st0" d="M40.6,184.3L40.6,184.3c0.3,0.1,0.6,0.2,0.8,0.2c0.6,0.2,1,0.6,1.3,1.2c0.4,0.8,0.6,1.7,0.7,2.6v0.4
	c0.1,1.5-0.4,3-1.6,4c1.2,0.3,1.9,1.8,2.1,4.4v1.6c0,0.2,0,0.6,0,1l-0.1,0.1h-0.1l-0.2-0.1c0-0.6,0-1,0-1.3v-1.5
	c0-1.1-0.4-2.3-1-3.2c-0.3-0.3-0.7-0.6-1.2-0.6l0,0c0,0.6,0,1,0,1.3v1.6c0.1,1.4,0.1,2.2,0.1,2.3v0.1c0,0.1-0.1,0.2-0.3,0.2
	c0,0-0.1-0.1-0.2-0.2V198c-0.1-1.2-0.1-2-0.1-2.3v-2.5c-0.1,0-0.2-0.1-0.2-0.2v-0.1c0.1-0.1,0.1-0.2,0.2-0.2
	c-0.1-3.8-0.3-6.6-0.5-8.3L40.6,184.3z M40.9,184.9c0.2,2,0.3,4.6,0.5,7.6c1.1-0.8,1.7-2.2,1.6-3.6v-0.6c-0.1-1-0.4-2-0.9-2.8
	c-0.3-0.3-0.6-0.5-1-0.6H40.9z"/>
<path class="st0" d="M47.6,185.5L47.6,185.5c0.3,0,0.4,0.7,0.4,2.2v0.5c0,0.5-0.1,2-0.2,4.2c0,0.1,0,0.2,0,0.3c0,1.5,0,2.6,0,3.5
	v2.7c0,0.1,0,0.3,0.1,0.4c0,0.2-0.1,0.3-0.2,0.3h-0.2c-0.1,0-0.2-0.4-0.2-1.1c0-4.8,0.1-8.2,0.2-10v-1.2c0-0.6,0-1.2-0.1-1.8
	C47.4,185.7,47.4,185.6,47.6,185.5"/>
<path class="st0" d="M53.4,185.6l0.1,0.2v0.1c0,0-0.1,0.1-0.2,0.2h-0.4c-0.6-0.1-1.2,0.3-1.5,0.8c-0.2,0.6-0.3,1.3-0.3,2
	c0.1,0.8,0.3,1.5,0.6,2.2c0.7,0.8,1.4,1.6,2.3,2.3c0.7,0.9,1,1.9,1,3c0,0.8-0.2,1.6-0.5,2.3c-0.3,0.4-0.7,0.8-1.2,0.9
	c-0.2,0.1-0.4,0.2-0.6,0.2c-0.1,0-0.2,0-0.3-0.1v-0.1c0-0.1,0.2-0.1,0.5-0.2c0.9-0.3,1.4-0.7,1.4-1.1c0.3-0.6,0.4-1.3,0.4-2
	c-0.1-1.2-0.6-2.3-1.4-3.1c-0.6-0.5-1.2-1-1.7-1.6c-0.4-0.7-0.7-1.4-0.8-2.1c0-0.1,0-0.3,0-0.6c0-0.8,0.2-1.6,0.5-2.4
	C51.8,185.7,52.6,185.4,53.4,185.6"/>
<path class="st0" d="M61.1,186.1l0.1,0.1v0.1c0,0.1-0.4,0.2-1.2,0.2h-1.2c0,0-0.1,0.1-0.1,0.1l0.1,1.9c0,0.2,0,0.3,0,0.3
	c0.3,4.2,0.4,7.2,0.4,9.1c0,0,0,0.1,0,0.1c0,0,0,0.1,0,0.1v0.2c0,0.1-0.1,0.1-0.1,0.1h-0.2c0,0-0.1,0-0.2-0.1s0-0.2,0-0.4
	c0-0.6-0.1-3.6-0.4-9c0-0.9,0-1.7-0.1-2.4l-0.1-0.1H58l-1.3,0.1c-0.1-0.1-0.1-0.2-0.1-0.3c0-0.1,0.1-0.1,0.2-0.1l0.3,0.1
	c0.5-0.1,0.9-0.1,1.1-0.1H60C60.4,186.2,60.7,186.2,61.1,186.1"/>
<path class="st0" d="M65.4,185.4c0.8,0,1.4,1.9,1.9,5.6c0,0.4,0,0.8,0,1.4v0.2c0,0.1,0,0.3,0,0.4c0,0,0,0.1,0,0.3l0,0
	c0,0.2,0,0.3,0,0.3c0,0.1,0,0.2,0,0.2c0,3-0.4,4.8-1.2,5.4c-0.2,0.1-0.4,0.1-0.6,0.2h-0.3c-1-0.2-1.6-1.5-1.9-3.9l-0.1-1.7
	c0-3.9,0.5-6.6,1.5-8.1C64.9,185.5,65.1,185.4,65.4,185.4 M63.6,193.7c0,1.4,0.2,2.8,0.6,4.1c0.4,0.8,0.7,1.2,1,1.2l0,0
	c0.6,0,0.9-0.4,1.1-1.2c0.4-1.5,0.6-3.1,0.5-4.6v-0.8c0-1.9-0.3-3.8-0.9-5.6c-0.1-0.4-0.3-0.7-0.6-0.9c-0.3,0.1-0.5,0.3-0.6,0.5
	C63.8,188.6,63.4,191.1,63.6,193.7"/>
<path class="st0" d="M70.2,184.3L70.2,184.3c0.3,0.1,0.6,0.2,0.8,0.2c0.6,0.2,1,0.6,1.3,1.2c0.4,0.8,0.6,1.7,0.7,2.6v0.4
	c0.1,1.5-0.4,3-1.6,4c1.2,0.3,1.9,1.8,2.1,4.4v1.6c0,0.2,0,0.6,0,1l-0.1,0.1h-0.1l-0.2-0.1c0-0.6,0-1,0-1.3v-1.5
	c0-1.1-0.4-2.3-1-3.2c-0.3-0.3-0.7-0.6-1.2-0.6l0,0c0,0.6,0,1,0,1.3v1.6c0.1,1.4,0.1,2.2,0.1,2.3v0.1c0,0.1-0.1,0.2-0.3,0.2
	c0,0-0.1-0.1-0.2-0.2v-0.3c-0.1-1.2-0.1-2-0.1-2.3v-2.5c-0.1,0-0.2-0.1-0.2-0.2v-0.1c0.1-0.1,0.1-0.2,0.2-0.2
	c-0.1-3.8-0.3-6.6-0.5-8.3L70.2,184.3z M70.5,184.9c0.2,2,0.3,4.6,0.5,7.6c1.1-0.8,1.7-2.2,1.6-3.6v-0.6c-0.1-1-0.4-2-0.9-2.8
	c-0.3-0.3-0.6-0.5-1-0.6H70.5z"/>
<path class="st0" d="M77.7,185.4L77.7,185.4c0.5,0.3,0.9,0.9,1,1.5c0.9,3,1.5,6.1,1.7,9.2c0.2,1,0.3,2.1,0.4,3.2
	c0,0.1-0.1,0.1-0.3,0.1c-0.3-1.1-0.4-2.2-0.5-3.3c-0.1-0.2-0.2-1.1-0.4-2.8h-0.3c-1.5,0.1-2.2,0.3-2.2,0.5v1.6l-0.3,3.9
	c0.1,0.1,0.1,0.2,0.1,0.3c0,0-0.1,0.1-0.2,0.2s-0.4-0.1-0.4-0.5c0.2-2.9,0.3-4.7,0.3-5.3c0-0.4,0-0.8,0-1.2c0-2.1,0.2-4.3,0.5-6.4
	C77.2,185.8,77.4,185.5,77.7,185.4 M77.7,186c-0.4,2-0.6,4-0.6,6.1c0,0.3,0,0.7,0,1v0.1c0.8-0.2,1.7-0.4,2.5-0.4v-0.1
	c-0.3-2-0.7-4.1-1.4-6C78,186.3,77.9,186.1,77.7,186"/>
<path class="st0" d="M84.2,185.3c0.2,0,0.8,1.9,1.9,5.7c0.2,0.9,0.8,3.2,2,6.8h0.1v-0.4c-0.2-3.4-0.2-5.3-0.2-5.7c0-0.1,0-0.6,0-1.3
	c0-0.1,0-0.2,0-0.5c0-0.6,0.1-1,0.1-1.3v-3c0-0.2,0.1-0.2,0.2-0.2l0.2,0.1c-0.1,1.6-0.1,2.8-0.1,3.6v1.2c0,2.4,0.1,5.6,0.2,9.4
	l-0.2,0.1c-0.2,0-1.2-3.1-3-9.3l-1.1-3.8l-0.1-0.1v0.2c0,0.6,0.1,1,0.1,1.4v0.4c-0.1,1.6-0.1,2.6-0.1,3.3c0,2.6,0.1,5.2,0.3,7.7
	h-0.2c-0.1,0-0.2-0.1-0.2-0.2c0,0,0,0,0-0.1c-0.2-2.4-0.2-4.6-0.2-6.5v-7.2C83.9,185.3,84,185.3,84.2,185.3"/>
<path class="st0" d="M95.2,186.1l0.1,0.1v0.1c0,0.1-0.4,0.2-1.2,0.2h-1.2c0,0-0.1,0.1-0.1,0.1l0.1,1.9c0,0.1,0,0.2,0,0.3
	c0.3,4.2,0.4,7.2,0.4,9.1c0,0,0,0.1,0,0.1c0,0,0,0.1,0,0.1v0.2c0,0.1-0.1,0.1-0.1,0.1H93c0,0-0.1,0-0.2-0.1c0-0.1,0-0.3,0-0.4
	c0-0.6-0.1-3.6-0.4-9c0-0.9,0-1.7-0.1-2.4l-0.1-0.1h-0.1l-1.3,0.1c-0.1-0.1-0.1-0.2-0.1-0.3c0-0.1,0.1-0.1,0.2-0.1l0.3,0.1
	c0.5-0.1,0.9-0.1,1.1-0.1H94C94.4,186.2,94.8,186.2,95.2,186.1"/>
<path class="st0" d="M99.3,185.3L99.3,185.3L99.3,185.3c1,0.1,1.4,0.2,1.4,0.3l0,0c0,0.1-0.1,0.2-0.2,0.2l-1.2-0.1h-0.8v0.5
	c0,0.5,0.1,2.3,0.2,5.5H99c0.2,0,0.4,0,0.5,0c0.6,0.1,1.1,0.1,1.4,0.1l0.1,0.2v0.1c0,0.1,0,0.1-0.2,0.1s-0.7,0-1.2-0.1
	c-0.4,0-0.7,0-1,0v0.2c0,2,0.1,4.3,0.3,6.8c0.3,3.8,0,0,0,0l1.9-0.1c0.1,0,0.2,0.1,0.3,0.2l0,0c0,0-0.1,0.1-0.2,0.2
	c-1.1,0-1.7,0.1-1.9,0.1s-0.5-0.2-0.5-0.5c-0.2-2.7-0.3-4.9-0.3-6.6V191c-0.1-2.5-0.2-4.1-0.2-5c-0.1-0.4-0.1-0.6-0.1-0.7l0.2-0.1
	h0.5c0.2,0,0.4,0,0.7,0"/>
<path class="st0" d="M108.9,184.8L108.9,184.8c1.1,0.4,2,1.1,2.6,2.1c0.9,1.7,1.3,3.7,1.3,5.6v0.2c0.1,2.6-1,5-3,6.7
	c-0.2,0.1-0.3,0.1-0.5,0.1c-0.1,0-0.1-0.2-0.2-0.7v-0.1c-0.1-0.9-0.2-1.8-0.2-2.7l0,0V196v-0.1c0-1.1,0-2.1,0-3L108.9,184.8z
	 M109.4,185.4L109.4,185.4c0,3.1,0.1,5.6,0.2,7.4c0,0.8,0,1.5,0,2.3v0.5c0,1.1,0.1,2.2,0.2,3.3c0.7-0.6,1.3-1.4,1.8-2.2
	c0.6-1.2,1-2.6,1-4v-0.4c0-1.9-0.5-3.7-1.3-5.4C110.8,186.3,110.2,185.7,109.4,185.4"/>
<path class="st0" d="M125.1,185.2c0.2,0.1,1.1,2.3,2.7,6.7h0.1c0-0.3,0.7-2.5,2.1-6.5h0.1l0.1,0.2v0.4c-0.1,2.5-0.1,4.6-0.1,6.3
	c0,0.7,0.1,3.1,0.4,7.2l-0.2,0.1c-0.2,0-0.3-2.3-0.5-6.8v-5.1h-0.1c-0.5,1.7-1,3.3-1.7,4.9c-0.2,0-1-1.8-2.3-5.5h-0.1v0.1l0.6,12.1
	l-0.2,0.1c-0.2,0-0.2-0.1-0.2-0.2c-0.2-7.3-0.5-11.9-0.7-13.9L125.1,185.2z"/>
<path class="st0" d="M134.1,185.4L134.1,185.4c0.5,0.3,0.9,0.9,1,1.5c0.9,3,1.5,6.1,1.7,9.2c0.2,1,0.4,2.1,0.4,3.2
	c0,0.1-0.1,0.1-0.3,0.1c-0.3-1.1-0.4-2.2-0.5-3.3c-0.1-0.2-0.2-1.1-0.4-2.8h-0.3c-1.5,0.1-2.3,0.3-2.3,0.5v1.6l-0.3,3.9
	c0.1,0.1,0.1,0.2,0.1,0.3c0,0-0.1,0.1-0.2,0.2s-0.4-0.1-0.4-0.5c0.2-2.9,0.3-4.7,0.3-5.3c0-0.4,0-0.8,0-1.2c0-2.1,0.2-4.3,0.5-6.4
	C133.6,185.8,133.8,185.5,134.1,185.4 M134.1,186c-0.5,2-0.7,4-0.6,6.1c0,0.3,0,0.7,0,1v0.1c0.8-0.2,1.7-0.4,2.5-0.4v-0.1
	c-0.3-2-0.7-4.1-1.4-6C134.4,186.3,134.3,186.1,134.1,186"/>
<path class="st0" d="M140.5,184.3L140.5,184.3c0.3,0.1,0.6,0.2,0.8,0.2c0.6,0.2,1,0.6,1.3,1.2c0.4,0.8,0.6,1.7,0.7,2.6v0.4
	c0.1,1.5-0.4,3-1.6,4c1.2,0.3,1.9,1.8,2.1,4.4v1.6c0,0.2,0,0.6,0,1l-0.1,0.1h-0.1l-0.2-0.1c0-0.6,0-1,0-1.3v-1.5
	c0-1.1-0.4-2.3-1-3.2c-0.3-0.3-0.7-0.6-1.2-0.6l0,0c0,0.6,0,1,0,1.3v1.6c0.1,1.4,0.1,2.2,0.1,2.3v0.1c0,0.1-0.1,0.2-0.2,0.2
	c0,0-0.1-0.1-0.2-0.2V198c0-1.2-0.1-2-0.1-2.3v-2.5c-0.1,0-0.2-0.1-0.2-0.2v-0.1c0-0.1,0.1-0.2,0.2-0.2c-0.1-3.8-0.3-6.6-0.6-8.3
	L140.5,184.3z M140.9,184.9c0.2,2,0.3,4.6,0.5,7.6c1.1-0.8,1.7-2.2,1.6-3.6v-0.6c-0.1-1-0.4-2-0.9-2.8c-0.5-0.4-0.8-0.6-1.1-0.6
	H140.9z"/>
<path class="st0" d="M148.3,185.3L148.3,185.3L148.3,185.3c1,0.1,1.4,0.2,1.4,0.3l0,0c0,0.1-0.1,0.2-0.2,0.2l-1.2-0.1h-0.8v0.5
	c0,0.5,0.1,2.3,0.2,5.5h0.3c0.2,0,0.4,0,0.5,0c0.6,0.1,1.1,0.1,1.4,0.1l0.1,0.2v0.1c0,0.1-0.1,0.1-0.2,0.1s-0.6,0-1.2-0.1
	c-0.4,0-0.7,0-1,0v0.2c0,2,0.1,4.2,0.3,6.8l0,0l1.9-0.1c0.1,0,0.2,0.1,0.3,0.2l0,0c0,0-0.1,0.1-0.2,0.2c-1.1,0-1.7,0.1-1.9,0.1
	s-0.5-0.2-0.5-0.5c-0.2-2.7-0.3-4.9-0.3-6.6V191c-0.1-2.5-0.2-4.1-0.2-5c-0.1-0.4-0.1-0.6-0.1-0.7l0.2-0.1h0.5c0.2,0,0.4,0,0.7,0"/>
<path class="st0" d="M40.6,184.3L40.6,184.3c0.3,0.1,0.6,0.2,0.8,0.2c0.6,0.2,1,0.6,1.3,1.2c0.4,0.8,0.6,1.7,0.7,2.6v0.4
	c0.1,1.5-0.4,3-1.6,4c1.2,0.3,1.9,1.8,2.1,4.4v1.6c0,0.2,0,0.6,0,1l-0.1,0.1h-0.1l-0.2-0.1c0-0.6,0-1,0-1.3v-1.5
	c0-1.1-0.4-2.3-1-3.2c-0.3-0.3-0.7-0.6-1.2-0.6l0,0c0,0.6,0,1,0,1.3v1.6c0.1,1.4,0.1,2.2,0.1,2.3v0.1c0,0.1-0.1,0.2-0.3,0.2
	c0,0-0.1-0.1-0.2-0.2V198c-0.1-1.2-0.1-2-0.1-2.3v-2.5c-0.1,0-0.2-0.1-0.2-0.2v-0.1c0.1-0.1,0.1-0.2,0.2-0.2
	c-0.1-3.8-0.3-6.6-0.5-8.3L40.6,184.3z M40.9,184.9c0.2,2,0.3,4.6,0.5,7.6c1.1-0.8,1.7-2.2,1.6-3.6v-0.6c-0.1-1-0.4-2-0.9-2.8
	c-0.3-0.3-0.6-0.5-1-0.6H40.9z"/>
<path class="st0" d="M40.6,184.3L40.6,184.3c0.3,0.1,0.6,0.2,0.8,0.2c0.6,0.2,1,0.6,1.3,1.2c0.4,0.8,0.6,1.7,0.7,2.6v0.4
	c0.1,1.5-0.4,3-1.6,4c1.2,0.3,1.9,1.8,2.1,4.4v1.6c0,0.2,0,0.6,0,1l-0.1,0.1h-0.1l-0.2-0.1c0-0.6,0-1,0-1.3v-1.5
	c0-1.1-0.4-2.3-1-3.2c-0.3-0.3-0.7-0.6-1.2-0.6l0,0c0,0.6,0,1,0,1.3v1.6c0.1,1.4,0.1,2.2,0.1,2.3v0.1c0,0.1-0.1,0.2-0.3,0.2
	c0,0-0.1-0.1-0.2-0.2V198c-0.1-1.2-0.1-2-0.1-2.3v-2.5c-0.1,0-0.2-0.1-0.2-0.2v-0.1c0.1-0.1,0.1-0.2,0.2-0.2
	c-0.1-3.8-0.3-6.6-0.5-8.3L40.6,184.3z M40.9,184.9c0.2,2,0.3,4.6,0.5,7.6c1.1-0.8,1.7-2.2,1.6-3.6v-0.6c-0.1-1-0.4-2-0.9-2.8
	c-0.3-0.3-0.6-0.5-1-0.6H40.9z"/>
<path class="st0" d="M47.6,185.5L47.6,185.5c0.3,0,0.4,0.7,0.4,2.2v0.5c0,0.5-0.1,2-0.2,4.2c0,0.1,0,0.2,0,0.3c0,1.5,0,2.6,0,3.5
	v2.7c0,0.1,0,0.3,0.1,0.4c0,0.2-0.1,0.3-0.2,0.3h-0.2c-0.1,0-0.2-0.4-0.2-1.1c0-4.8,0.1-8.2,0.2-10v-1.2c0-0.6,0-1.2-0.1-1.8
	C47.4,185.7,47.4,185.6,47.6,185.5"/>
<path class="st0" d="M47.6,185.5L47.6,185.5c0.3,0,0.4,0.7,0.4,2.2v0.5c0,0.5-0.1,2-0.2,4.2c0,0.1,0,0.2,0,0.3c0,1.5,0,2.6,0,3.5
	v2.7c0,0.1,0,0.3,0.1,0.4c0,0.2-0.1,0.3-0.2,0.3h-0.2c-0.1,0-0.2-0.4-0.2-1.1c0-4.8,0.1-8.2,0.2-10v-1.2c0-0.6,0-1.2-0.1-1.8
	C47.4,185.7,47.5,185.6,47.6,185.5z"/>
<path class="st0" d="M53.4,185.6l0.1,0.2v0.1c0,0-0.1,0.1-0.2,0.2h-0.4c-0.6-0.1-1.2,0.3-1.5,0.8c-0.2,0.6-0.3,1.3-0.3,2
	c0.1,0.8,0.3,1.5,0.6,2.2c0.7,0.8,1.4,1.6,2.3,2.3c0.7,0.9,1,1.9,1,3c0,0.8-0.2,1.6-0.5,2.3c-0.3,0.4-0.7,0.8-1.2,0.9
	c-0.2,0.1-0.4,0.2-0.6,0.2c-0.1,0-0.2,0-0.3-0.1v-0.1c0-0.1,0.2-0.1,0.5-0.2c0.9-0.3,1.4-0.7,1.4-1.1c0.3-0.6,0.4-1.3,0.4-2
	c-0.1-1.2-0.6-2.3-1.4-3.1c-0.6-0.5-1.2-1-1.7-1.6c-0.4-0.7-0.7-1.4-0.8-2.1c0-0.1,0-0.3,0-0.6c0-0.8,0.2-1.6,0.5-2.4
	C51.8,185.7,52.6,185.4,53.4,185.6"/>
<path class="st0" d="M53.4,185.6l0.1,0.2v0.1c0,0-0.1,0.1-0.2,0.2h-0.4c-0.6-0.1-1.2,0.3-1.5,0.8c-0.2,0.6-0.3,1.3-0.3,2
	c0.1,0.8,0.3,1.5,0.6,2.2c0.7,0.8,1.4,1.6,2.3,2.3c0.7,0.9,1,1.9,1,3c0,0.8-0.2,1.6-0.5,2.3c-0.3,0.4-0.7,0.8-1.2,0.9
	c-0.2,0.1-0.4,0.2-0.6,0.2c-0.1,0-0.2,0-0.3-0.1v-0.1c0-0.1,0.2-0.1,0.5-0.2c0.9-0.3,1.4-0.7,1.4-1.1c0.3-0.6,0.4-1.3,0.4-2
	c-0.1-1.2-0.6-2.3-1.4-3.1c-0.6-0.5-1.2-1-1.7-1.6c-0.4-0.7-0.7-1.4-0.8-2.1c0-0.1,0-0.3,0-0.6c0-0.8,0.2-1.6,0.5-2.4
	C51.8,185.8,52.6,185.5,53.4,185.6z"/>
<path class="st0" d="M61.1,186.1l0.1,0.1v0.1c0,0.1-0.4,0.2-1.2,0.2h-1.2c0,0-0.1,0.1-0.1,0.1l0.1,1.9c0,0.2,0,0.3,0,0.3
	c0.3,4.2,0.4,7.2,0.4,9.1c0,0,0,0.1,0,0.1c0,0,0,0.1,0,0.1v0.2c0,0.1-0.1,0.1-0.1,0.1h-0.2c0,0-0.1,0-0.2-0.1s0-0.2,0-0.4
	c0-0.6-0.1-3.6-0.4-9c0-0.9,0-1.7-0.1-2.4l-0.1-0.1H58l-1.3,0.1c-0.1-0.1-0.1-0.2-0.1-0.3c0-0.1,0.1-0.1,0.2-0.1l0.3,0.1
	c0.5-0.1,0.9-0.1,1.1-0.1H60C60.4,186.2,60.7,186.2,61.1,186.1"/>
<path class="st0" d="M61.1,186.1l0.1,0.1v0.1c0,0.1-0.4,0.2-1.2,0.2h-1.2c0,0-0.1,0.1-0.1,0.1l0.1,1.9c0,0.2,0,0.3,0,0.3
	c0.3,4.2,0.4,7.2,0.4,9.1c0,0,0,0.1,0,0.1c0,0,0,0.1,0,0.1v0.2c0,0.1-0.1,0.1-0.1,0.1h-0.2c0,0-0.1,0-0.2-0.1s0-0.2,0-0.4
	c0-0.6-0.1-3.6-0.4-9c0-0.9,0-1.7-0.1-2.4l-0.1-0.1H58l-1.3,0.1c-0.1-0.1-0.1-0.2-0.1-0.3c0-0.1,0.1-0.1,0.2-0.1l0.3,0.1
	c0.5-0.1,0.9-0.1,1.1-0.1H60C60.4,186.2,60.7,186.2,61.1,186.1z"/>
<path class="st0" d="M65.4,185.4c0.8,0,1.4,1.9,1.9,5.6c0,0.4,0,0.8,0,1.4v0.2c0,0.1,0,0.3,0,0.4c0,0,0,0.1,0,0.3l0,0
	c0,0.2,0,0.3,0,0.3c0,0.1,0,0.2,0,0.2c0,3-0.4,4.8-1.2,5.4c-0.2,0.1-0.4,0.1-0.6,0.2h-0.3c-1-0.2-1.6-1.5-1.9-3.9l-0.1-1.7
	c0-3.9,0.5-6.6,1.5-8.1C64.9,185.5,65.1,185.4,65.4,185.4 M63.6,193.7c0,1.4,0.2,2.8,0.6,4.1c0.4,0.8,0.7,1.2,1,1.2l0,0
	c0.6,0,0.9-0.4,1.1-1.2c0.4-1.5,0.6-3.1,0.5-4.6v-0.8c0-1.9-0.3-3.8-0.9-5.6c-0.1-0.4-0.3-0.7-0.6-0.9c-0.3,0.1-0.5,0.3-0.6,0.5
	C63.8,188.6,63.4,191.1,63.6,193.7"/>
<path class="st0" d="M65.4,185.4c0.8,0,1.4,1.9,1.9,5.6c0,0.4,0,0.8,0,1.4v0.2c0,0.1,0,0.3,0,0.4c0,0,0,0.1,0,0.3l0,0
	c0,0.2,0,0.3,0,0.3c0,0.1,0,0.2,0,0.2c0,3-0.4,4.8-1.2,5.4c-0.2,0.1-0.4,0.1-0.6,0.2h-0.3c-1-0.2-1.6-1.5-1.9-3.9l-0.1-1.7
	c0-3.9,0.5-6.6,1.5-8.1C64.9,185.5,65.1,185.4,65.4,185.4z M63.7,193.7c0,1.4,0.2,2.8,0.6,4.1c0.4,0.8,0.7,1.2,1,1.2l0,0
	c0.6,0,0.9-0.4,1.1-1.2c0.4-1.5,0.6-3.1,0.5-4.6v-0.8c0-1.9-0.3-3.8-0.9-5.6c-0.1-0.4-0.3-0.7-0.6-0.9c-0.3,0.1-0.5,0.3-0.6,0.5
	C63.9,188.6,63.5,191.2,63.7,193.7z"/>
<path class="st0" d="M70.2,184.3L70.2,184.3c0.3,0.1,0.6,0.2,0.8,0.2c0.6,0.2,1,0.6,1.3,1.2c0.4,0.8,0.6,1.7,0.7,2.6v0.4
	c0.1,1.5-0.4,3-1.6,4c1.2,0.3,1.9,1.8,2.1,4.4v1.6c0,0.2,0,0.6,0,1l-0.1,0.1h-0.1l-0.2-0.1c0-0.6,0-1,0-1.3v-1.5
	c0-1.1-0.4-2.3-1-3.2c-0.3-0.3-0.7-0.6-1.2-0.6l0,0c0,0.6,0,1,0,1.3v1.6c0.1,1.4,0.1,2.2,0.1,2.3v0.1c0,0.1-0.1,0.2-0.3,0.2
	c0,0-0.1-0.1-0.2-0.2v-0.3c-0.1-1.2-0.1-2-0.1-2.3v-2.5c-0.1,0-0.2-0.1-0.2-0.2v-0.1c0.1-0.1,0.1-0.2,0.2-0.2
	c-0.1-3.8-0.3-6.6-0.5-8.3L70.2,184.3z M70.5,184.9c0.2,2,0.3,4.6,0.5,7.6c1.1-0.8,1.7-2.2,1.6-3.6v-0.6c-0.1-1-0.4-2-0.9-2.8
	c-0.3-0.3-0.6-0.5-1-0.6H70.5z"/>
<path class="st0" d="M70.2,184.3L70.2,184.3c0.3,0.1,0.6,0.2,0.8,0.2c0.6,0.2,1,0.6,1.3,1.2c0.4,0.8,0.6,1.7,0.7,2.6v0.4
	c0.1,1.5-0.4,3-1.6,4c1.2,0.3,1.9,1.8,2.1,4.4v1.6c0,0.2,0,0.6,0,1l-0.1,0.1h-0.1l-0.2-0.1c0-0.6,0-1,0-1.3v-1.5
	c0-1.1-0.4-2.3-1-3.2c-0.3-0.3-0.7-0.6-1.2-0.6l0,0c0,0.6,0,1,0,1.3v1.6c0.1,1.4,0.1,2.2,0.1,2.3v0.1c0,0.1-0.1,0.2-0.3,0.2
	c0,0-0.1-0.1-0.2-0.2v-0.3c-0.1-1.2-0.1-2-0.1-2.3v-2.5c-0.1,0-0.2-0.1-0.2-0.2v-0.1c0.1-0.1,0.1-0.2,0.2-0.2
	c-0.1-3.8-0.3-6.6-0.5-8.3L70.2,184.3z M70.5,184.9c0.2,2,0.3,4.6,0.5,7.6c1.1-0.8,1.7-2.2,1.6-3.6v-0.6c-0.1-1-0.4-2-0.9-2.8
	c-0.3-0.3-0.6-0.5-1-0.6H70.5z"/>
<path class="st0" d="M77.7,185.4L77.7,185.4c0.5,0.3,0.9,0.9,1,1.5c0.9,3,1.5,6.1,1.7,9.2c0.2,1,0.3,2.1,0.4,3.2
	c0,0.1-0.1,0.1-0.3,0.1c-0.3-1.1-0.4-2.2-0.5-3.3c-0.1-0.2-0.2-1.1-0.4-2.8h-0.3c-1.5,0.1-2.2,0.3-2.2,0.5v1.6l-0.3,3.9
	c0.1,0.1,0.1,0.2,0.1,0.3c0,0-0.1,0.1-0.2,0.2s-0.4-0.1-0.4-0.5c0.2-2.9,0.3-4.7,0.3-5.3c0-0.4,0-0.8,0-1.2c0-2.1,0.2-4.3,0.5-6.4
	C77.2,185.8,77.4,185.5,77.7,185.4 M77.7,186c-0.4,2-0.6,4-0.6,6.1c0,0.3,0,0.7,0,1v0.1c0.8-0.2,1.7-0.4,2.5-0.4v-0.1
	c-0.3-2-0.7-4.1-1.4-6C78,186.3,77.9,186.1,77.7,186"/>
<path class="st0" d="M77.7,185.4L77.7,185.4c0.5,0.3,0.9,0.9,1,1.5c0.9,3,1.5,6.1,1.7,9.2c0.2,1,0.3,2.1,0.4,3.2
	c0,0.1-0.1,0.1-0.3,0.1c-0.3-1.1-0.4-2.2-0.5-3.3c-0.1-0.2-0.2-1.1-0.4-2.8h-0.3c-1.5,0.1-2.2,0.3-2.2,0.5v1.6l-0.3,3.9
	c0.1,0.1,0.1,0.2,0.1,0.3c0,0-0.1,0.1-0.2,0.2s-0.4-0.1-0.4-0.5c0.2-2.9,0.3-4.7,0.3-5.3c0-0.4,0-0.8,0-1.2c0-2.1,0.2-4.3,0.5-6.4
	C77.2,185.8,77.4,185.4,77.7,185.4z M77.7,186c-0.4,2-0.6,4-0.6,6.1c0,0.3,0,0.7,0,1v0.1c0.8-0.2,1.7-0.4,2.5-0.4v-0.1
	c-0.3-2-0.7-4.1-1.4-6C78,186.3,77.9,186.1,77.7,186z"/>
<path class="st0" d="M84.2,185.3c0.2,0,0.8,1.9,1.9,5.7c0.2,0.9,0.8,3.2,2,6.8h0.1v-0.4c-0.2-3.4-0.2-5.3-0.2-5.7c0-0.1,0-0.6,0-1.3
	c0-0.1,0-0.2,0-0.5c0-0.6,0.1-1,0.1-1.3v-3c0-0.2,0.1-0.2,0.2-0.2l0.2,0.1c-0.1,1.6-0.1,2.8-0.1,3.6v1.2c0,2.4,0.1,5.6,0.2,9.4
	l-0.2,0.1c-0.2,0-1.2-3.1-3-9.3l-1.1-3.8l-0.1-0.1v0.2c0,0.6,0.1,1,0.1,1.4v0.4c-0.1,1.6-0.1,2.6-0.1,3.3c0,2.6,0.1,5.2,0.3,7.7
	h-0.2c-0.1,0-0.2-0.1-0.2-0.2c0,0,0,0,0-0.1c-0.2-2.4-0.2-4.6-0.2-6.5v-7.2C83.9,185.3,84,185.3,84.2,185.3"/>
<path class="st0" d="M84.2,185.3c0.2,0,0.8,1.9,1.9,5.7c0.2,0.9,0.8,3.2,2,6.8h0.1v-0.4c-0.2-3.4-0.2-5.3-0.2-5.7c0-0.1,0-0.6,0-1.3
	c0-0.1,0-0.2,0-0.5c0-0.6,0.1-1,0.1-1.3v-3c0-0.2,0.1-0.2,0.2-0.2l0.2,0.1c-0.1,1.6-0.1,2.8-0.1,3.6v1.2c0,2.4,0.1,5.6,0.2,9.4
	l-0.2,0.1c-0.2,0-1.2-3.1-3-9.3l-1.1-3.8l-0.1-0.1v0.2c0,0.6,0.1,1,0.1,1.4v0.4c-0.1,1.6-0.1,2.6-0.1,3.3c0,2.6,0.1,5.2,0.3,7.7
	h-0.2c-0.1,0-0.2-0.1-0.2-0.2c0,0,0,0,0-0.1c-0.2-2.4-0.2-4.6-0.2-6.5v-7.2C84,185.4,84.1,185.3,84.2,185.3z"/>
<path class="st0" d="M95.2,186.1l0.1,0.1v0.1c0,0.1-0.4,0.2-1.2,0.2h-1.2c0,0-0.1,0.1-0.1,0.1l0.1,1.9c0,0.1,0,0.2,0,0.3
	c0.3,4.2,0.4,7.2,0.4,9.1c0,0,0,0.1,0,0.1c0,0,0,0.1,0,0.1v0.2c0,0.1-0.1,0.1-0.1,0.1H93c0,0-0.1,0-0.2-0.1c0-0.1,0-0.3,0-0.4
	c0-0.6-0.1-3.6-0.4-9c0-0.9,0-1.7-0.1-2.4l-0.1-0.1h-0.1l-1.3,0.1c-0.1-0.1-0.1-0.2-0.1-0.3c0-0.1,0.1-0.1,0.2-0.1l0.3,0.1
	c0.5-0.1,0.9-0.1,1.1-0.1H94C94.4,186.2,94.8,186.2,95.2,186.1"/>
<path class="st0" d="M95.2,186.1l0.1,0.1v0.1c0,0.1-0.4,0.2-1.2,0.2h-1.2c0,0-0.1,0.1-0.1,0.1l0.1,1.9c0,0.1,0,0.2,0,0.3
	c0.3,4.2,0.4,7.2,0.4,9.1c0,0,0,0.1,0,0.1c0,0,0,0.1,0,0.1v0.2c0,0.1-0.1,0.1-0.1,0.1H93c0,0-0.1,0-0.2-0.1c0-0.1,0-0.3,0-0.4
	c0-0.6-0.1-3.6-0.4-9c0-0.9,0-1.7-0.1-2.4l-0.1-0.1h-0.1l-1.3,0.1c-0.1-0.1-0.1-0.2-0.1-0.3c0-0.1,0.1-0.1,0.2-0.1l0.3,0.1
	c0.5-0.1,0.9-0.1,1.1-0.1H94C94.4,186.2,94.8,186.2,95.2,186.1z"/>
<path class="st0" d="M99.3,185.3L99.3,185.3L99.3,185.3c1,0.1,1.4,0.2,1.4,0.3l0,0c0,0.1-0.1,0.2-0.2,0.2l-1.2-0.1h-0.8v0.5
	c0,0.5,0.1,2.3,0.2,5.5H99c0.2,0,0.4,0,0.5,0c0.6,0.1,1.1,0.1,1.4,0.1l0.1,0.2v0.1c0,0.1,0,0.1-0.2,0.1s-0.7,0-1.2-0.1
	c-0.4,0-0.7,0-1,0v0.2c0,2,0.1,4.3,0.3,6.8c0.3,3.8,0,0,0,0l1.9-0.1c0.1,0,0.2,0.1,0.3,0.2l0,0c0,0-0.1,0.1-0.2,0.2
	c-1.1,0-1.7,0.1-1.9,0.1s-0.5-0.2-0.5-0.5c-0.2-2.7-0.3-4.9-0.3-6.6V191c-0.1-2.5-0.2-4.1-0.2-5c-0.1-0.4-0.1-0.6-0.1-0.7l0.2-0.1
	h0.5c0.2,0,0.4,0,0.7,0"/>
<path class="st0" d="M99.3,185.3L99.3,185.3L99.3,185.3c1,0.1,1.4,0.2,1.4,0.3l0,0c0,0.1-0.1,0.2-0.2,0.2l-1.2-0.1h-0.8v0.5
	c0,0.5,0.1,2.3,0.2,5.5H99c0.2,0,0.4,0,0.5,0c0.6,0.1,1.1,0.1,1.4,0.1l0.1,0.2v0.1c0,0.1,0,0.1-0.2,0.1s-0.7,0-1.2-0.1
	c-0.4,0-0.7,0-1,0v0.2c0,2,0.1,4.3,0.3,6.8c0.3,3.8,0,0,0,0l1.9-0.1c0.1,0,0.2,0.1,0.3,0.2l0,0c0,0-0.1,0.1-0.2,0.2
	c-1.1,0-1.7,0.1-1.9,0.1s-0.5-0.2-0.5-0.5c-0.2-2.7-0.3-4.9-0.3-6.6V191c-0.1-2.5-0.2-4.1-0.2-5c-0.1-0.4-0.1-0.6-0.1-0.7l0.2-0.1
	h0.5C98.8,185.2,99,185.3,99.3,185.3z"/>
<path class="st0" d="M108.9,184.8L108.9,184.8c1.1,0.4,2,1.1,2.6,2.1c0.9,1.7,1.3,3.7,1.3,5.6v0.2c0.1,2.6-1,5-3,6.7
	c-0.2,0.1-0.3,0.1-0.5,0.1c-0.1,0-0.1-0.2-0.2-0.7v-0.1c-0.1-0.9-0.2-1.8-0.2-2.7l0,0V196v-0.1c0-1.1,0-2.1,0-3L108.9,184.8z
	 M109.4,185.4L109.4,185.4c0,3.1,0.1,5.6,0.2,7.4c0,0.8,0,1.5,0,2.3v0.5c0,1.1,0.1,2.2,0.2,3.3c0.7-0.6,1.3-1.4,1.8-2.2
	c0.6-1.2,1-2.6,1-4v-0.4c0-1.9-0.5-3.7-1.3-5.4C110.8,186.3,110.2,185.7,109.4,185.4"/>
<path class="st0" d="M108.9,184.8L108.9,184.8c1.1,0.4,2,1.1,2.6,2.1c0.9,1.7,1.3,3.7,1.3,5.6v0.2c0.1,2.6-1,5-3,6.7
	c-0.2,0.1-0.3,0.1-0.5,0.1c-0.1,0-0.1-0.2-0.2-0.7v-0.1c-0.1-0.9-0.2-1.8-0.2-2.7l0,0V196v-0.1c0-1.1,0-2.1,0-3L108.9,184.8z
	 M109.4,185.4L109.4,185.4c0,3.1,0.1,5.6,0.2,7.4c0,0.8,0,1.5,0,2.3v0.5c0,1.1,0.1,2.2,0.2,3.3c0.7-0.6,1.3-1.4,1.8-2.2
	c0.6-1.2,1-2.6,1-4v-0.4c0-1.9-0.5-3.7-1.3-5.4C110.8,186.3,110.1,185.7,109.4,185.4z"/>
<path class="st0" d="M116.3,185.5L116.3,185.5c0.2,0,0.4,0.1,0.4,0.2c0,0,0,0.1,0,0.1v0.1c0,0.2-0.1,0.4-0.2,0.6c0,0,0,0,0,0.1
	c0,0.2,0,0.3,0,0.5v0.4h0.1c-0.1,0-0.1,0-0.2,0h-0.2c-0.1,0-0.2,0-0.2-0.1c0-0.5,0-0.9,0.2-1.4v-0.2c0-0.1,0-0.2-0.1-0.2
	L116.3,185.5"/>
<path class="st0" d="M116.3,185.5L116.3,185.5c0.2,0,0.4,0.1,0.4,0.2c0,0,0,0.1,0,0.1v0.1c0,0.2-0.1,0.4-0.2,0.6c0,0,0,0,0,0.1
	c0,0.2,0,0.3,0,0.5v0.4h0.1c-0.1,0-0.1,0-0.2,0h-0.2c-0.1,0-0.2,0-0.2-0.1c0-0.5,0-0.9,0.2-1.4v-0.2c0-0.1,0-0.2-0.1-0.2
	L116.3,185.5z"/>
<path class="st0" d="M125.1,185.2c0.2,0.1,1.1,2.3,2.7,6.7h0.1c0-0.3,0.7-2.5,2.1-6.5h0.1l0.1,0.2v0.4c-0.1,2.5-0.1,4.6-0.1,6.3
	c0,0.7,0.1,3.1,0.4,7.2l-0.2,0.1c-0.2,0-0.3-2.3-0.5-6.8v-5.1h-0.1c-0.5,1.7-1,3.3-1.7,4.9c-0.2,0-1-1.8-2.3-5.5h-0.1v0.1l0.6,12.1
	l-0.2,0.1c-0.2,0-0.2-0.1-0.2-0.2c-0.2-7.3-0.5-11.9-0.7-13.9L125.1,185.2z"/>
<path class="st0" d="M125.1,185.2c0.2,0.1,1.1,2.3,2.7,6.7h0.1c0-0.3,0.7-2.5,2.1-6.5h0.1l0.1,0.2v0.4c-0.1,2.5-0.1,4.6-0.1,6.3
	c0,0.7,0.1,3.1,0.4,7.2l-0.2,0.1c-0.2,0-0.3-2.3-0.5-6.8v-5.1h-0.1c-0.5,1.7-1,3.3-1.7,4.9c-0.2,0-1-1.8-2.3-5.5h-0.1v0.1l0.6,12.1
	l-0.2,0.1c-0.2,0-0.2-0.1-0.2-0.2c-0.2-7.3-0.5-11.9-0.7-13.9L125.1,185.2z"/>
<path class="st0" d="M134.1,185.4L134.1,185.4c0.5,0.3,0.9,0.9,1,1.5c0.9,3,1.5,6.1,1.7,9.2c0.2,1,0.4,2.1,0.4,3.2
	c0,0.1-0.1,0.1-0.3,0.1c-0.3-1.1-0.4-2.2-0.5-3.3c-0.1-0.2-0.2-1.1-0.4-2.8h-0.3c-1.5,0.1-2.3,0.3-2.3,0.5v1.6l-0.3,3.9
	c0.1,0.1,0.1,0.2,0.1,0.3c0,0-0.1,0.1-0.2,0.2s-0.4-0.1-0.4-0.5c0.2-2.9,0.3-4.7,0.3-5.3c0-0.4,0-0.8,0-1.2c0-2.1,0.2-4.3,0.5-6.4
	C133.6,185.8,133.8,185.5,134.1,185.4 M134.1,186c-0.5,2-0.7,4-0.6,6.1c0,0.3,0,0.7,0,1v0.1c0.8-0.2,1.7-0.4,2.5-0.4v-0.1
	c-0.3-2-0.7-4.1-1.4-6C134.4,186.3,134.3,186.1,134.1,186"/>
<path class="st0" d="M134.1,185.4L134.1,185.4c0.5,0.3,0.9,0.9,1,1.5c0.9,3,1.5,6.1,1.7,9.2c0.2,1,0.4,2.1,0.4,3.2
	c0,0.1-0.1,0.1-0.3,0.1c-0.3-1.1-0.4-2.2-0.5-3.3c-0.1-0.2-0.2-1.1-0.4-2.8h-0.3c-1.5,0.1-2.3,0.3-2.3,0.5v1.6l-0.3,3.9
	c0.1,0.1,0.1,0.2,0.1,0.3c0,0-0.1,0.1-0.2,0.2s-0.4-0.1-0.4-0.5c0.2-2.9,0.3-4.7,0.3-5.3c0-0.4,0-0.8,0-1.2c0-2.1,0.2-4.3,0.5-6.4
	C133.6,185.8,133.8,185.4,134.1,185.4z M134.1,186c-0.5,2-0.7,4-0.6,6.1c0,0.3,0,0.7,0,1v0.1c0.8-0.2,1.7-0.4,2.5-0.4v-0.1
	c-0.3-2-0.7-4.1-1.4-6C134.4,186.3,134.2,186.1,134.1,186z"/>
<path class="st0" d="M120.6,185.4L120.6,185.4c0.5,0.3,0.9,0.9,1,1.5c0.9,3,1.5,6.1,1.7,9.2c0.2,1,0.4,2.1,0.4,3.2
	c0,0.1-0.1,0.1-0.3,0.1c-0.3-1.1-0.4-2.2-0.5-3.3c-0.1-0.2-0.2-1.1-0.4-2.8h-0.3c-1.5,0.1-2.3,0.3-2.3,0.5v1.6l-0.3,3.9
	c0.1,0.1,0.1,0.2,0.1,0.3c0,0-0.1,0.1-0.2,0.2s-0.4-0.1-0.4-0.5c0.2-2.9,0.3-4.7,0.3-5.3c0-0.4,0-0.8,0-1.2c0-2.1,0.2-4.3,0.5-6.4
	C120.1,185.8,120.3,185.5,120.6,185.4 M120.6,186c-0.4,2-0.6,4-0.6,6.1c0,0.3,0,0.7,0,1v0.1c0.8-0.2,1.7-0.4,2.5-0.4v-0.1
	c-0.3-2-0.7-4.1-1.4-6C121,186.3,120.8,186.1,120.6,186"/>
<path class="st0" d="M120.6,185.4L120.6,185.4c0.5,0.3,0.9,0.9,1,1.5c0.9,3,1.5,6.1,1.7,9.2c0.2,1,0.4,2.1,0.4,3.2
	c0,0.1-0.1,0.1-0.3,0.1c-0.3-1.1-0.4-2.2-0.5-3.3c-0.1-0.2-0.2-1.1-0.4-2.8h-0.3c-1.5,0.1-2.3,0.3-2.3,0.5v1.6l-0.3,3.9
	c0.1,0.1,0.1,0.2,0.1,0.3c0,0-0.1,0.1-0.2,0.2s-0.4-0.1-0.4-0.5c0.2-2.9,0.3-4.7,0.3-5.3c0-0.4,0-0.8,0-1.2c0-2.1,0.2-4.3,0.5-6.4
	C120.2,185.8,120.3,185.4,120.6,185.4z M120.6,186c-0.4,2-0.6,4-0.6,6.1c0,0.3,0,0.7,0,1v0.1c0.8-0.2,1.7-0.4,2.5-0.4v-0.1
	c-0.3-2-0.7-4.1-1.4-6C120.9,186.3,120.8,186.1,120.6,186z"/>
<path class="st0" d="M140.5,184.3L140.5,184.3c0.3,0.1,0.6,0.2,0.8,0.2c0.6,0.2,1,0.6,1.3,1.2c0.4,0.8,0.6,1.7,0.7,2.6v0.4
	c0.1,1.5-0.4,3-1.6,4c1.2,0.3,1.9,1.8,2.1,4.4v1.6c0,0.2,0,0.6,0,1l-0.1,0.1h-0.1l-0.2-0.1c0-0.6,0-1,0-1.3v-1.5
	c0-1.1-0.4-2.3-1-3.2c-0.3-0.3-0.7-0.6-1.2-0.6l0,0c0,0.6,0,1,0,1.3v1.6c0.1,1.4,0.1,2.2,0.1,2.3v0.1c0,0.1-0.1,0.2-0.2,0.2
	c0,0-0.1-0.1-0.2-0.2V198c0-1.2-0.1-2-0.1-2.3v-2.5c-0.1,0-0.2-0.1-0.2-0.2v-0.1c0-0.1,0.1-0.2,0.2-0.2c-0.1-3.8-0.3-6.6-0.6-8.3
	L140.5,184.3z M140.9,184.9c0.2,2,0.3,4.6,0.5,7.6c1.1-0.8,1.7-2.2,1.6-3.6v-0.6c-0.1-1-0.4-2-0.9-2.8c-0.5-0.4-0.8-0.6-1.1-0.6
	H140.9z"/>
<path class="st0" d="M140.5,184.3L140.5,184.3c0.3,0.1,0.6,0.2,0.8,0.2c0.6,0.2,1,0.6,1.3,1.2c0.4,0.8,0.6,1.7,0.7,2.6v0.4
	c0.1,1.5-0.4,3-1.6,4c1.2,0.3,1.9,1.8,2.1,4.4v1.6c0,0.2,0,0.6,0,1l-0.1,0.1h-0.1l-0.2-0.1c0-0.6,0-1,0-1.3v-1.5
	c0-1.1-0.4-2.3-1-3.2c-0.3-0.3-0.7-0.6-1.2-0.6l0,0c0,0.6,0,1,0,1.3v1.6c0.1,1.4,0.1,2.2,0.1,2.3v0.1c0,0.1-0.1,0.2-0.2,0.2
	c0,0-0.1-0.1-0.2-0.2V198c0-1.2-0.1-2-0.1-2.3v-2.5c-0.1,0-0.2-0.1-0.2-0.2v-0.1c0-0.1,0.1-0.2,0.2-0.2c-0.1-3.8-0.3-6.6-0.6-8.3
	L140.5,184.3z M140.9,184.9c0.2,2,0.3,4.6,0.5,7.6c1.1-0.8,1.7-2.2,1.6-3.6v-0.6c-0.1-1-0.4-2-0.9-2.8c-0.5-0.4-0.8-0.6-1.1-0.6
	H140.9z"/>
<path class="st0" d="M148.3,185.3L148.3,185.3L148.3,185.3c1,0.1,1.4,0.2,1.4,0.3l0,0c0,0.1-0.1,0.2-0.2,0.2l-1.2-0.1h-0.8v0.5
	c0,0.5,0.1,2.3,0.2,5.5h0.3c0.2,0,0.4,0,0.5,0c0.6,0.1,1.1,0.1,1.4,0.1l0.1,0.2v0.1c0,0.1-0.1,0.1-0.2,0.1s-0.6,0-1.2-0.1
	c-0.4,0-0.7,0-1,0v0.2c0,2,0.1,4.2,0.3,6.8l0,0l1.9-0.1c0.1,0,0.2,0.1,0.3,0.2l0,0c0,0-0.1,0.1-0.2,0.2c-1.1,0-1.7,0.1-1.9,0.1
	s-0.5-0.2-0.5-0.5c-0.2-2.7-0.3-4.9-0.3-6.6V191c-0.1-2.5-0.2-4.1-0.2-5c-0.1-0.4-0.1-0.6-0.1-0.7l0.2-0.1h0.5c0.2,0,0.4,0,0.7,0"/>
<path class="st0" d="M148.3,185.3L148.3,185.3L148.3,185.3c1,0.1,1.4,0.2,1.4,0.3l0,0c0,0.1-0.1,0.2-0.2,0.2l-1.2-0.1h-0.8v0.5
	c0,0.5,0.1,2.3,0.2,5.5h0.3c0.2,0,0.4,0,0.5,0c0.6,0.1,1.1,0.1,1.4,0.1l0.1,0.2v0.1c0,0.1-0.1,0.1-0.2,0.1s-0.6,0-1.2-0.1
	c-0.4,0-0.7,0-1,0v0.2c0,2,0.1,4.2,0.3,6.8l0,0l1.9-0.1c0.1,0,0.2,0.1,0.3,0.2l0,0c0,0-0.1,0.1-0.2,0.2c-1.1,0-1.7,0.1-1.9,0.1
	s-0.5-0.2-0.5-0.5c-0.2-2.7-0.3-4.9-0.3-6.6V191c-0.1-2.5-0.2-4.1-0.2-5c-0.1-0.4-0.1-0.6-0.1-0.7l0.2-0.1h0.5
	C147.8,185.2,148,185.3,148.3,185.3z"/>
<path class="st0" d="M135.8,62.7c2.7-1.5,4.2-4.1,6.2-6.4c0.4-0.4-1.2-0.2-1.5,0.1c-1.7,2.1-3.2,4.7-5.6,6
	C133.9,62.9,135.4,62.9,135.8,62.7"/>
<path class="st0" d="M95.1,61.4c0.2-4.9-0.7-9.8-2.5-14.3c-0.2-0.4-1.8,0.1-1.6,0.4c1.8,4.5,2.7,9.4,2.5,14.3
	C93.5,62.1,95.1,61.9,95.1,61.4"/>
<path class="st0" d="M116.9,64.6c-0.2-22.2-5-43.3-12.7-64.1c-0.2-0.6-1.8-0.1-1.6,0.4c7.7,20.7,12.5,41.7,12.7,63.9
	C115.2,65.5,116.9,65.2,116.9,64.6"/>
</svg>
