<svg xmlns="http://www.w3.org/2000/svg" viewBox="0 0 193.33 176.9"><defs><style>.cls-1{fill:#fff;}.cls-2{fill:none;}.cls-3{fill:#85b3ff;}.cls-4{fill:#f15a24;}</style></defs><g id="Livello_2" data-name="Livello 2"><g id="Livello_1-2" data-name="Livello 1"><path class="cls-1" d="M186.36,51v0l1.56.49Z"/><path class="cls-2" d="M186.36,51v0l1.56.49Zm0,0v0l1.56.49Zm0,0v0l1.56.49Zm0,0v0l1.56.49Zm0,0v0l1.56.49Z"/><path d="M191.11,125.44l-33.25-41,22.49-9.37a16.9,16.9,0,0,0,1.72-.9l.08-.06.08-.08.36-.27a6.94,6.94,0,0,0,1.15-1l.24-.25.06,0a7.92,7.92,0,0,0,1.09-1.59,6.3,6.3,0,0,0,.77-2l3.93-16,0,0,.49-2c0-.17.05-.3.08-.44l.14-1.45a9.68,9.68,0,0,0-2.19-6.09L157.45,4.81A13.88,13.88,0,0,0,146.87,0,12.42,12.42,0,0,0,142,.93L115.11,12.16a9.18,9.18,0,0,0-5,4.62H110l-.41,1.56-1.26,5.19A14.14,14.14,0,0,0,98.91,20a12.77,12.77,0,0,0-4.87.95L10.22,55.86A9.53,9.53,0,0,0,6.1,59a30.79,30.79,0,0,0-2.22,6.18L.25,80.07a9.08,9.08,0,0,0,2,8l29.85,36.76a8.16,8.16,0,0,0,1.36,1.45l.47.36a13.4,13.4,0,0,0,1.15.81l.43.28c.52.3,1,.52,1.7.85l0,0,.08,0,.39.14c.57.19,1.25.38,1.88.52a5.25,5.25,0,0,0,1,.16,9,9,0,0,0,1.72.16h.24l.22,0h.5c.38,0,.79-.08,1.42-.19l.43,0,.22-.05a13.61,13.61,0,0,0,2.08-.63l28.5-11.89.66-.14a.73.73,0,0,1,.27,0H77a4.76,4.76,0,0,1,.79.11,4.16,4.16,0,0,1,.68.19,2.94,2.94,0,0,1,.74.44,3.24,3.24,0,0,1,.44.38l44,54.27a9.46,9.46,0,0,0,1.39,1.45l.47.36c.24.22.57.43.9.68l.16.11.52.3a10.19,10.19,0,0,0,1.72.85l.41.16a13.52,13.52,0,0,0,2.13.6l.74.11.22.06a7.09,7.09,0,0,0,1.39.16,5.79,5.79,0,0,0,.61-.05l.21,0h.25a10.44,10.44,0,0,0,1.53-.19l.41,0,.11,0,.14,0a14.15,14.15,0,0,0,2.13-.66l44-18.33a8,8,0,0,0,1.8-1l.39-.25a13.93,13.93,0,0,0,1.12-1l.33-.38a6.09,6.09,0,0,0,1.17-1.61,9,9,0,0,0,.77-2l4.42-18a7.89,7.89,0,0,0,.25-2.05A9.33,9.33,0,0,0,191.11,125.44ZM117.74,17.11,144.66,5.9a6.53,6.53,0,0,1,2.48-.49,7.39,7.39,0,0,1,5.63,2.52L183.68,46a3.67,3.67,0,0,1-1.53,6l-27,11.23a6.18,6.18,0,0,1-2.45.47,7.35,7.35,0,0,1-5.63-2.49L116.21,23.18A3.7,3.7,0,0,1,117.74,17.11ZM184.88,134.6l-44,18.33a6.26,6.26,0,0,1-2.46.47,7.33,7.33,0,0,1-5.61-2.49L88.69,96.55a10,10,0,0,0-7.6-3.36,8.59,8.59,0,0,0-3.36.63L49.28,105.68a6.23,6.23,0,0,1-2.46.47,7.4,7.4,0,0,1-5.63-2.49L11.35,66.87a3.68,3.68,0,0,1,1.53-6.06L96.67,25.88a6.19,6.19,0,0,1,2.46-.46,7.43,7.43,0,0,1,5.63,2.51l81.65,100.63A3.67,3.67,0,0,1,184.88,134.6Z"/><path class="cls-3" d="M182.15,52.06l-27,11.23a6.18,6.18,0,0,1-2.45.47,7.35,7.35,0,0,1-5.63-2.49L116.21,23.18a3.7,3.7,0,0,1,1.53-6.07L144.66,5.9a6.53,6.53,0,0,1,2.48-.49,7.39,7.39,0,0,1,5.63,2.52L183.68,46A3.67,3.67,0,0,1,182.15,52.06Z"/><path class="cls-4" d="M184.88,134.6l-44,18.33a6.26,6.26,0,0,1-2.46.47,7.33,7.33,0,0,1-5.61-2.49L88.69,96.55a10,10,0,0,0-7.6-3.36,8.59,8.59,0,0,0-3.36.63L49.28,105.68a6.23,6.23,0,0,1-2.46.47,7.4,7.4,0,0,1-5.63-2.49L11.35,66.87a3.68,3.68,0,0,1,1.53-6.06L96.67,25.88a6.19,6.19,0,0,1,2.46-.46,7.43,7.43,0,0,1,5.63,2.51l81.65,100.63A3.67,3.67,0,0,1,184.88,134.6Z"/></g></g></svg>