<svg xmlns="http://www.w3.org/2000/svg" viewBox="0 0 200 200"><defs><style>.cls-1{fill:#f5f5f5;}.cls-2{fill:#fff;}.cls-3{fill:none;}.cls-4{fill:#85b3ff;}.cls-5{fill:#f15a24;}</style></defs><g id="Livello_2" data-name="Livello 2"><g id="Livello_1-2" data-name="Livello 1"><rect class="cls-1" width="200" height="200"/><path class="cls-2" d="M161.55,66.31v0l1.15.37Z"/><path class="cls-3" d="M161.55,66.31v0l1.15.37Zm0,0v0l1.15.37Zm0,0v0l1.15.37Zm0,0v0l1.15.37Zm0,0v0l1.15.37Z"/><path d="M165.08,121.62,140.37,91.18l16.71-7a12.48,12.48,0,0,0,1.28-.67l.06,0,.06-.06.26-.21a4.73,4.73,0,0,0,.86-.75l.18-.18,0,0a5.53,5.53,0,0,0,.81-1.18,4.42,4.42,0,0,0,.57-1.52l2.92-11.88,0,0,.36-1.48c0-.12,0-.22.06-.32l.1-1.08a7.25,7.25,0,0,0-1.62-4.53l-23-28.3a10.32,10.32,0,0,0-7.86-3.57,9.2,9.2,0,0,0-3.6.69l-20,8.34a6.8,6.8,0,0,0-3.72,3.43h-.12l-.31,1.16-.93,3.86a10.49,10.49,0,0,0-7-2.64A9.31,9.31,0,0,0,93,44l-62.27,26a7,7,0,0,0-3.06,2.35A22.65,22.65,0,0,0,26,76.87l-2.7,11a6.74,6.74,0,0,0,1.48,5.93l22.17,27.31a6.27,6.27,0,0,0,1,1.08l.34.26a10,10,0,0,0,.86.61l.32.2a12.28,12.28,0,0,0,1.26.63l0,0,.06,0,.29.1a11.44,11.44,0,0,0,1.4.39,3.58,3.58,0,0,0,.73.12,6.85,6.85,0,0,0,1.28.12h.18l.16,0h.37a10.31,10.31,0,0,0,1-.14l.33,0,.16,0a8.8,8.8,0,0,0,1.54-.47l21.18-8.83a4.55,4.55,0,0,1,.49-.1s.08,0,.2,0h.1a5.49,5.49,0,0,1,.59.08,4.87,4.87,0,0,1,.51.14,3.38,3.38,0,0,1,.55.33,2.61,2.61,0,0,1,.32.28L115,156.26a7,7,0,0,0,1,1.07l.34.27c.18.16.43.32.67.5l.12.08.39.23a8,8,0,0,0,1.28.63l.3.12a12.52,12.52,0,0,0,1.59.45l.54.08.17,0a5.2,5.2,0,0,0,1,.12,3.14,3.14,0,0,0,.45,0l.16,0h.18a8.81,8.81,0,0,0,1.14-.14l.31,0,.08,0,.1,0a12.27,12.27,0,0,0,1.58-.49l32.67-13.63a5.66,5.66,0,0,0,1.34-.75l.28-.18a10.41,10.41,0,0,0,.84-.71l.24-.28a4.54,4.54,0,0,0,.87-1.2,6.23,6.23,0,0,0,.57-1.48l3.29-13.4a6.17,6.17,0,0,0,.18-1.53A6.89,6.89,0,0,0,165.08,121.62ZM110.56,41.14l20-8.33a4.84,4.84,0,0,1,1.85-.36,5.51,5.51,0,0,1,4.18,1.86l23,28.31a2.73,2.73,0,0,1-1.14,4.48l-20,8.35a4.72,4.72,0,0,1-1.83.34A5.5,5.5,0,0,1,132.39,74l-23-28.31A2.75,2.75,0,0,1,110.56,41.14Zm49.89,87.28L127.74,142a4.55,4.55,0,0,1-1.83.35,5.44,5.44,0,0,1-4.16-1.85L89,100.16a7.39,7.39,0,0,0-5.64-2.5,6.32,6.32,0,0,0-2.5.47L59.7,106.94a4.64,4.64,0,0,1-1.82.34,5.52,5.52,0,0,1-4.19-1.84L31.52,78.11a2.74,2.74,0,0,1,1.14-4.51L94.91,47.65a4.72,4.72,0,0,1,1.83-.34,5.49,5.49,0,0,1,4.18,1.87l60.67,74.75A2.73,2.73,0,0,1,160.45,128.42Z"/><path class="cls-4" d="M158.42,67.1l-20,8.35a4.72,4.72,0,0,1-1.83.34A5.5,5.5,0,0,1,132.39,74l-23-28.31a2.75,2.75,0,0,1,1.13-4.5l20-8.33a4.84,4.84,0,0,1,1.85-.36,5.51,5.51,0,0,1,4.18,1.86l23,28.31A2.73,2.73,0,0,1,158.42,67.1Z"/><path class="cls-5" d="M160.45,128.42,127.74,142a4.55,4.55,0,0,1-1.83.35,5.44,5.44,0,0,1-4.16-1.85L89,100.16a7.39,7.39,0,0,0-5.64-2.5,6.32,6.32,0,0,0-2.5.47L59.7,106.94a4.64,4.64,0,0,1-1.82.34,5.52,5.52,0,0,1-4.19-1.84L31.52,78.11a2.74,2.74,0,0,1,1.14-4.51L94.91,47.65a4.72,4.72,0,0,1,1.83-.34,5.49,5.49,0,0,1,4.18,1.87l60.67,74.75A2.73,2.73,0,0,1,160.45,128.42Z"/></g></g></svg>