<svg xmlns="http://www.w3.org/2000/svg" viewBox="0 0 430.94 91.38"><defs><style>.cls-1{fill:#1d1d1b;}.cls-2{fill:#85b3ff;}.cls-3{fill:#f15a24;}</style></defs><g id="Livello_2" data-name="Livello 2"><g id="Livello_1-2" data-name="Livello 1"><path d="M99,66.74l-19.49-24,.15,0,14.39-6a3.7,3.7,0,0,0,.59-.32l.15-.11a3.45,3.45,0,0,0,.34-.3.8.8,0,0,0,.13-.13,2.56,2.56,0,0,0,.33-.46h0a2.56,2.56,0,0,0,.22-.58l2.37-9.63h0a2.84,2.84,0,0,0-.66-2.49L81,2.31A5.36,5.36,0,0,0,75.11.83l-14.38,6a2.74,2.74,0,0,0-1.81,2.24,1.75,1.75,0,0,1,0-.33l-1.65,6.68-2-2.43a5.37,5.37,0,0,0-5.87-1.47L4.71,30.17A2.73,2.73,0,0,0,2.9,32.42a2,2,0,0,1,0-.35L.57,41.71a2.85,2.85,0,0,0,.66,2.48l16,19.65a4.81,4.81,0,0,0,.5.51l.17.13a3.19,3.19,0,0,0,.42.3,1.37,1.37,0,0,0,.2.13l.51.26.15.06,0,0,.12,0a6,6,0,0,0,.83.23l.14,0h.15a4.75,4.75,0,0,0,.84.06.61.61,0,0,0,.14,0h0c.19,0,.37,0,.55-.06l.27,0a4.12,4.12,0,0,0,.78-.23L38.22,59a3.86,3.86,0,0,1,.58-.17l.2,0a2.85,2.85,0,0,1,.41,0h.14a3.31,3.31,0,0,1,.62.05l.21,0A4.4,4.4,0,0,1,41,59l.1,0a3.72,3.72,0,0,1,.71.38l.15.11a3.38,3.38,0,0,1,.59.54l23.56,29a5.9,5.9,0,0,0,.49.51l.18.14.42.3.2.12a4.06,4.06,0,0,0,.51.26l.15.07h0l.12,0a4.87,4.87,0,0,0,.83.23l.14,0h.15a4.76,4.76,0,0,0,.84.07h.18a4.87,4.87,0,0,0,.55-.06l.27,0a4.12,4.12,0,0,0,.78-.23l23.5-9.8a3.41,3.41,0,0,0,.6-.32l.15-.11a2.52,2.52,0,0,0,.35-.3l.12-.13a2.48,2.48,0,0,0,.34-.46h0a2.63,2.63,0,0,0,.22-.59l2.37-9.64v0A2.82,2.82,0,0,0,99,66.74Zm.43,3.05h0l.08-.18C99.43,69.67,99.42,69.73,99.39,69.79Zm-1.81-43.6h0A1.67,1.67,0,0,0,97.7,26,1.67,1.67,0,0,1,97.58,26.19Zm-.46.42h0l.07-.06ZM44,48.7l-.14-.06h0l.14.07Zm-.29-.11h0Zm-.47-.15-.13,0,.13,0Zm1.28.53.16.09h0L44.54,49Zm.62.42a.54.54,0,0,1,.12.09.54.54,0,0,0-.12-.09ZM59.53,11.08a2.94,2.94,0,0,1-.32-.49,2.94,2.94,0,0,0,.32.49ZM4.19,31.91h0a1,1,0,0,1,.17-.23h0C4.3,31.76,4.23,31.83,4.19,31.91Zm-.07.19a.94.94,0,0,0-.1.23H4c0-.08.07-.16.1-.25Zm-.61,2.31a2.46,2.46,0,0,1-.31-.48,2.46,2.46,0,0,0,.31.48ZM98.58,70.68l.09-.07-.09.07Zm.46-.42a1,1,0,0,0,.12-.16l-.11.16ZM97.92,25.72h0v0ZM60.87,7.85ZM60.74,8Zm-.13.11h0a1.31,1.31,0,0,0-.12.11h0A1.31,1.31,0,0,1,60.61,8.07Zm-.24.27h0c0,.08-.12.14-.16.22C60.26,8.48,60.32,8.41,60.37,8.34ZM58.93,9.7a2.21,2.21,0,0,1,0-.37A2.21,2.21,0,0,0,58.93,9.7Zm.2.68A2.41,2.41,0,0,1,59,10,2.41,2.41,0,0,0,59.13,10.38ZM4.84,31.2h0a2.54,2.54,0,0,1,.49-.26A2.54,2.54,0,0,0,4.84,31.2Zm-.12.11Zm-.13.11h0a.58.58,0,0,0-.12.1h0A.58.58,0,0,1,4.59,31.42ZM2.92,33.05a2.32,2.32,0,0,1,0-.38A2.32,2.32,0,0,0,2.92,33.05Zm.2.68A3.2,3.2,0,0,1,3,33.3,3.2,3.2,0,0,0,3.12,33.73Z"/><path class="cls-1" d="M70.29,91.38h-.11a5.58,5.58,0,0,1-.91-.07l-.17,0-.13,0a7.67,7.67,0,0,1-.92-.26l-.13,0-.17-.08a4.79,4.79,0,0,1-.6-.3l-.22-.13a3.83,3.83,0,0,1-.46-.33L66.28,90a4.29,4.29,0,0,1-.56-.57l-23.56-29a2.76,2.76,0,0,0-.49-.46l-.13-.09a3.77,3.77,0,0,0-.62-.33,4.6,4.6,0,0,0-.64-.19l-.19,0a4.73,4.73,0,0,0-.54,0l-.13-.5v.5a2.09,2.09,0,0,0-.35,0H39a2.61,2.61,0,0,0-.56.15l-15.2,6.34a4.64,4.64,0,0,1-.87.26,1.46,1.46,0,0,1-.22,0l-.13,0a4.87,4.87,0,0,1-.55.06,1.32,1.32,0,0,1-.2,0,7.26,7.26,0,0,1-.92-.07l-.15,0L20,66a7.67,7.67,0,0,1-.92-.26l-.12,0-.17-.07a5.73,5.73,0,0,1-.61-.31A1.64,1.64,0,0,1,18,65.2a5,5,0,0,1-.47-.33l-.18-.15a4.25,4.25,0,0,1-.56-.57L.84,44.5a3.31,3.31,0,0,1-.75-2.91L2.46,32h0a3.3,3.3,0,0,1,2-2.24L49.28,11.06a5.9,5.9,0,0,1,6.45,1.61l1.34,1.65,1.4-5.7h0a3.27,3.27,0,0,1,2-2.25l14.38-6A5.89,5.89,0,0,1,81.36,2L97.87,22.34a3.35,3.35,0,0,1,.76,2.92h0v0L96.26,34.9a3.16,3.16,0,0,1-.27.7,3,3,0,0,1-.4.55l-.11.12a3.66,3.66,0,0,1-.43.38l-.18.13a5.48,5.48,0,0,1-.67.36l-13.91,5.8L99.35,66.43a3.3,3.3,0,0,1,.75,2.89h0L97.73,79a3,3,0,0,1-.27.7,2.78,2.78,0,0,1-.4.56l-.11.12a3.6,3.6,0,0,1-.44.38l-.18.13a4,4,0,0,1-.67.36L72.15,91a4.64,4.64,0,0,1-.87.26.76.76,0,0,1-.21,0l-.16-.48,0,.5a5.42,5.42,0,0,1-.58.06ZM39.41,58.23h.1a5.46,5.46,0,0,1,.73.05l.24,0a5.45,5.45,0,0,1,.69.2l.12,0a3.48,3.48,0,0,1,.8.43,1.77,1.77,0,0,1,.17.12,3.23,3.23,0,0,1,.68.63l23.56,29a3.66,3.66,0,0,0,.44.44l.09.08a4.77,4.77,0,0,0,.43.31l.19.12.46.23,0,.53.19-.47.15,0a4.61,4.61,0,0,0,.75.21l.27,0a6.49,6.49,0,0,0,.75.06h.13c.2,0,.35,0,.51-.06l.16,0,.11,0a4.5,4.5,0,0,0,.68-.2l23.51-9.8a2.48,2.48,0,0,0,.51-.28l.1-.06a2.44,2.44,0,0,0,.32-.28h0l.1-.1a2.61,2.61,0,0,0,.28-.38,2.07,2.07,0,0,0,.18-.47l1.93-7.87-.41-.57.08-.06.37.47.14-.55L98.64,70l.06-.08h0l.05-.09.16.12L99,69.6l-.07,0L99,69.4l0,0,.08-.33h0a2.32,2.32,0,0,0-.55-2L78.63,42.49l.77-.28,14.41-6a2.46,2.46,0,0,0,.51-.27l.09-.06a2.63,2.63,0,0,0,.33-.28l.1-.1a2.48,2.48,0,0,0,.27-.38,2,2,0,0,0,.18-.46l1.94-7.89-.42-.55h0l0,.05,0-.06.06.08h0l.38.37.15-.59-.2-.19.09-.13.15.12.07-.26.85.33-.84-.39.12-.5.29.07L97.66,25a2.36,2.36,0,0,0-.57-2L80.58,2.63A4.88,4.88,0,0,0,75.31,1.3l-14.39,6-.17.08a.5.5,0,0,1,.38.91l-.06.05h0a.63.63,0,0,1-.19,0l.08.09-.08.07-.24-.22a.46.46,0,0,1-.17-.14l-.34-.3h0l.13-.12.12.12a.45.45,0,0,1,0-.2l0,0,0,0,0,0a.47.47,0,0,1,.09-.12,2.16,2.16,0,0,0-1.11,1.63h0l-.06.21h.07a1.36,1.36,0,0,0,0,.2l0,.1-.19,0-.06.25.27-.07c0,.09.07.18.11.27l-.5.3-.08.3.67-.34c.08.14.18.28.28.42l-.8.59c-.08-.11-.16-.21-.23-.32l-1.34,5.45L55,13.31A4.89,4.89,0,0,0,49.67,12L5.16,30.53l.36.87a2.42,2.42,0,0,0-.39.21h0l-.56-.82A2.19,2.19,0,0,0,3.4,32.47h0l0,.21h.06a1.52,1.52,0,0,0,0,.21l-.16,0-.07.32.27-.07a2.12,2.12,0,0,0,.11.29L3,33.76,3,34.05l.67-.35v0a2.65,2.65,0,0,0,.26.39h0l-.8.59a2.27,2.27,0,0,1-.22-.32L1.06,41.83a2.31,2.31,0,0,0,.56,2l16,19.65A3.12,3.12,0,0,0,18,64l.09.07a3.6,3.6,0,0,0,.43.32l.19.12a5.14,5.14,0,0,0,.47.23l-.06.52.19-.46.15,0a4.91,4.91,0,0,0,.75.21l.26,0a6.93,6.93,0,0,0,.77,0h.12l.49,0,.17,0,.12,0a3.19,3.19,0,0,0,.68-.21L38,58.51a3.71,3.71,0,0,1,.67-.2l.17,0a3.61,3.61,0,0,1,.52-.05ZM98.28,70.28l.3.4ZM3,33.76l.08,0Zm0,0H3l.08,0Zm56-23.34.07,0Zm0,0h0l.07,0Zm-.13-.7-.49.08ZM45,49.86l-.11-.08.62-.78.14.09Zm-.53-.38-.11-.06.47-.89-.25.44.25-.44-.25.44.28-.42.14.09Zm-.61-.32-.08,0,.33-1,.11,0Zm-.21-.08-.11,0,.23-.51.11-.42-.08.38.16-.36-.05.15.07-.14-.07.14Zm-.48-.16-.1,0,.22-1,.12,0ZM4.51,32.45l-1-.24h0a1.48,1.48,0,0,1,.1-.27l0-.07.91.41h0l0,.08Zm.12-.31-.88-.47h0a1.19,1.19,0,0,1,.16-.23l.88.47,0,.07h0l0,.06h0Zm.22-.29-.37-.32L4,31.3l.2-.23.69.68h0l0,0Zm.22-.19L4.36,31h0Zm92.85-5.94-.4-.14v0ZM60.65,8.8l-.88-.48h0a1.25,1.25,0,0,1,.16-.24h0L60,8l.49.43.31.16-.1.14Z"/><path d="M131.36,33.82V53.39c0,3,1.54,4.37,4.16,4.37a13.53,13.53,0,0,0,4-.74v4.91a17,17,0,0,1-5.38.94c-4.77,0-8.54-2.62-8.54-8.87V33.82h-5.44v-4.7h5.44V21.25l5.79-4.3V29.12h8.13v4.7Z"/><path d="M173.33,41.56V62.27H168l-.41-5c-2.35,3.57-6.31,5.58-11.29,5.58-7.13,0-11.64-4-11.64-10.42a8.25,8.25,0,0,1,4.18-7.67c2.48-1.34,5.78-1.88,11.36-1.88h7.33V41.56c0-5.11-2.83-7.94-7.87-7.94-3.9,0-7.06,1.82-9.68,5.31l-4.17-3.49a16.75,16.75,0,0,1,14-6.93C168.29,28.51,173.33,33.35,173.33,41.56Zm-5.78,6.18v-.33h-6.66c-5,0-7.33.4-8.74,1.48a4.67,4.67,0,0,0-1.68,3.83c0,3.23,2.75,5.31,7.2,5.31C163.51,58,167.55,53.86,167.55,47.74Z"/><path d="M180.14,54l4.78-2.15a8.79,8.79,0,0,0,8.74,6c4.3,0,6.72-2.22,6.72-5.11C200.38,45.05,182,50,182,38c0-6,5.12-9.48,11.64-9.48,5.45,0,9.82,2.42,12.17,7.06l-4.57,2.49a8.28,8.28,0,0,0-7.74-4.64c-3.63,0-5.91,1.55-5.91,4,0,6.92,18.56,2.62,18.56,15.06,0,7.06-5.92,10.42-12.24,10.42C187.2,62.87,181.89,59.17,180.14,54Z"/><path d="M221.58,33.82V53.39c0,3,1.54,4.37,4.17,4.37a13.65,13.65,0,0,0,4-.74v4.91a17,17,0,0,1-5.39.94c-4.77,0-8.54-2.62-8.54-8.87V33.82h-5.44v-4.7h5.44V21.25l5.79-4.3V29.12h8.14v4.7Z"/><path d="M234.77,45.66c0-9.69,6.32-17.15,16.07-17.15S267.05,36,267.05,45.66s-6.46,17.21-16.21,17.21S234.77,55.34,234.77,45.66Zm26.49,0c0-6.86-3.63-12-10.42-12s-10.29,5.25-10.29,12,3.57,12.1,10.29,12.1S261.26,52.38,261.26,45.66Z"/><path d="M302.91,48.35H280.18c.34,4.37,3,7.26,8.27,7.26a10,10,0,0,0,7.94-3.56L302,57a17.24,17.24,0,0,1-13.58,6c-11.44,0-16.28-8.2-16.28-17.08,0-8.68,4.71-17.42,15.74-17.42,10.29,0,15.26,7.6,15.26,16.82A23.77,23.77,0,0,1,302.91,48.35ZM295.38,42c-.13-4.24-3.36-6.79-7.6-6.79-4.91,0-7.19,3.5-7.66,6.79Z"/><path d="M339.58,40.88V62.27h-8.07V42.9c0-2.28,0-7.4-6.12-7.4-7.54,0-7.54,7.6-7.54,13.52V62.27h-8.06V29.12h8.06V33c2.36-3.16,6-4.51,10-4.51C335.34,28.44,339.58,33,339.58,40.88Z"/><path d="M357.69,35.5V52.38c0,2.62,1.61,3.83,4.24,3.83a13.91,13.91,0,0,0,4-.73v6.45a19.1,19.1,0,0,1-6,1c-5.58,0-10.29-2.89-10.29-9.95V35.5h-5.38V29.12h5.38V22.73l8.07-6V29.12H366V35.5Z"/><path d="M400.74,48.35H378c.33,4.37,3,7.26,8.26,7.26a9.93,9.93,0,0,0,7.94-3.56L399.79,57a17.24,17.24,0,0,1-13.58,6c-11.43,0-16.27-8.2-16.27-17.08,0-8.68,4.71-17.42,15.73-17.42,10.29,0,15.27,7.6,15.27,16.82A25.67,25.67,0,0,1,400.74,48.35ZM393.2,42c-.13-4.24-3.36-6.79-7.59-6.79-4.91,0-7.2,3.5-7.67,6.79Z"/><path d="M430.94,30.33,427,37.45a7.1,7.1,0,0,0-4-1.14c-4.91,0-7.33,3-7.33,9.28V62.27h-8.07V29.12h8.14v5.64a9.28,9.28,0,0,1,8.87-6.32A11.28,11.28,0,0,1,430.94,30.33Z"/><path class="cls-2" d="M75.73,1.6a4,4,0,0,1,4.33,1.09L96.57,23a2,2,0,0,1-.82,3.22l-14.39,6a4,4,0,0,1-4.31-1.08L60.53,10.83a2,2,0,0,1,.82-3.24Z"/><path class="cls-1" d="M80.05,32.63A4.06,4.06,0,0,1,77,31.25L60.44,10.9a2.18,2.18,0,0,1-.51-2A2.19,2.19,0,0,1,61.3,7.48l14.39-6a4.1,4.1,0,0,1,4.47,1.13L96.67,23a2.22,2.22,0,0,1,.51,1.94,2.25,2.25,0,0,1-1.38,1.48l-14.39,6A3.47,3.47,0,0,1,80.05,32.63ZM75.78,1.71l-14.38,6A2,2,0,0,0,60.17,9a2,2,0,0,0,.46,1.74L77.14,31.1a3.84,3.84,0,0,0,4.18,1l14.38-6a2,2,0,0,0,1.23-1.31,1.93,1.93,0,0,0-.46-1.72L80,2.77a3.82,3.82,0,0,0-4.18-1.06Z"/><path class="cls-3" d="M50.09,12.28a4,4,0,0,1,4.33,1.09L98,67.13a2,2,0,0,1-.83,3.22L73.7,80.15a3.93,3.93,0,0,1-4.31-1.09L45.83,50A5.36,5.36,0,0,0,40,48.57L24.78,54.9a3.94,3.94,0,0,1-4.32-1.08L4.51,34.17a2,2,0,0,1,.82-3.23Z"/><path class="cls-1" d="M72.39,80.52a4.09,4.09,0,0,1-3.1-1.38l-23.56-29A5.19,5.19,0,0,0,40,48.69L24.82,55a4.07,4.07,0,0,1-4.46-1.12L4.42,34.25a2.21,2.21,0,0,1-.52-2,2.25,2.25,0,0,1,1.38-1.48L50.05,12.17h0a4.09,4.09,0,0,1,4.47,1.12L98.13,67.05a2.08,2.08,0,0,1-.87,3.41l-23.51,9.8A3.47,3.47,0,0,1,72.39,80.52ZM41.77,48.11A5.47,5.47,0,0,1,45.93,50L69.48,79a3.82,3.82,0,0,0,4.18,1l23.51-9.8a1.84,1.84,0,0,0,.77-3L54.32,13.45a3.82,3.82,0,0,0-4.18-1h0L5.38,31.05a1.85,1.85,0,0,0-.77,3l16,19.65a3.8,3.8,0,0,0,4.17,1l15.19-6.33A4.83,4.83,0,0,1,41.77,48.11Z"/></g></g></svg>