<?xml version="1.0" encoding="utf-8"?>
<!-- Generator: Adobe Illustrator 24.3.0, SVG Export Plug-In . SVG Version: 6.00 Build 0)  -->
<svg version="1.1" id="Livello_1" xmlns="http://www.w3.org/2000/svg" xmlns:xlink="http://www.w3.org/1999/xlink" x="0px" y="0px"
	 viewBox="0 0 213 106.8" style="enable-background:new 0 0 213 106.8;" xml:space="preserve">
<style type="text/css">
	.st0{fill:#3953FF;}
</style>
<g>
	<path class="st0" d="M112.8,8.6c-3.8,0-7.3,2-9.7,5.1c-0.1,0.2-0.2,0.3-0.3,0.5l0-13.1c0-0.4-0.4-0.8-0.8-0.8h-6
		c-0.4,0-0.8,0.4-0.8,0.8V39c0,0.4,0.4,0.8,0.8,0.8h6c0.4,0,0.8-0.4,0.8-0.8v-4.8c0.2,0.3,0.4,0.5,0.6,0.8c2.2,2.8,5.3,4.6,8.8,4.8
		c0.2,0,0.4,0,0.6,0h0.1c0.8,0,1.7-0.1,2.5-0.3c0.3-0.1,0.6-0.1,0.8-0.2c5.6-1.7,9.8-7.8,9.8-15.1V24C125.8,15.4,120,8.6,112.8,8.6z
		 M117.6,20.6c1.1,2.8,1,7-1.7,9.9c-0.6,0.6-2.6,2.6-5.8,2.6c-2.2,0-3.8-0.9-4.5-1.4c0,0-2-1.3-2.7-3.2c0-0.1-0.1-0.3-0.1-0.3
		s0-0.1-0.1-0.2c-0.3-0.8-0.3-4.1-0.3-4.1v0c0,0,0-2.3,0.2-3.4c0-0.2,0.1-0.4,0.1-0.4c0,0,0-0.2,0.1-0.4c0.9-2.2,3.2-3.6,3.2-3.6
		c0.6-0.3,2-1.1,4-1.1c2.8,0,4.6,1.5,5.1,2C116.7,18.5,117.3,20,117.6,20.6z"/>
	<path class="st0" d="M45.8,0.2h-6C39.3,0.2,39,0.6,39,1l0,13.1c-0.1-0.2-0.2-0.3-0.3-0.5v0l0,0c-0.3-0.4-0.6-0.7-0.9-1.1l0,0
		c-0.1-0.1-0.2-0.2-0.2-0.3c-0.2-0.2-0.3-0.3-0.5-0.5c-0.1-0.1-0.2-0.2-0.3-0.2c-0.1-0.1-0.2-0.2-0.3-0.3c-0.2-0.1-0.3-0.3-0.5-0.4
		c-0.1-0.1-0.3-0.2-0.4-0.3c-0.1,0-0.1-0.1-0.2-0.1c-0.3-0.2-0.6-0.4-0.9-0.5c-0.3-0.2-0.6-0.3-0.9-0.5C32.9,9.3,32.5,9.1,32,9
		c-0.3-0.1-0.6-0.2-1-0.2c0,0-0.1,0-0.1,0c-0.2,0-0.3-0.1-0.5-0.1c-0.5-0.1-1-0.1-1.5-0.1c-7.2,0-13,6.9-13.1,15.4v0.2
		c0,7.3,4.2,13.4,9.8,15.1c0.2,0.1,0.5,0.1,0.7,0.2c0,0,0,0,0,0c0,0,0,0,0,0c0.1,0,0.2,0,0.3,0.1c0.7,0.1,1.4,0.2,2.2,0.2H29
		c0.2,0,0.4,0,0.6,0c3.4-0.2,6.5-2,8.8-4.8c0,0,0,0,0,0c0.2-0.2,0.4-0.5,0.6-0.7v1.2c0,2.4,1.9,4.4,4.3,4.4h0h2.5
		c0.4,0,0.8-0.4,0.8-0.8l0-37.9C46.6,0.6,46.2,0.2,45.8,0.2z M39.2,24c0,0,0,3.2-0.3,4.1c0,0.1-0.1,0.2-0.1,0.2c0,0,0,0.1-0.1,0.3
		c-0.7,1.9-2.7,3.2-2.7,3.2c-0.6,0.4-2.3,1.4-4.5,1.4c-3.2,0-5.3-2.1-5.8-2.6c-2.7-2.9-2.8-7.1-1.7-9.9c0.2-0.6,0.8-2.1,2.4-3.4
		c0.5-0.4,2.3-2,5.1-2c2,0,3.4,0.8,4,1.1c0,0,2.4,1.4,3.2,3.6c0.1,0.2,0.1,0.4,0.1,0.4c0,0,0.1,0.2,0.1,0.4
		C39.2,21.8,39.2,24,39.2,24L39.2,24z"/>
	<path class="st0" d="M157.2,9.3V39c0,0.5-0.4,0.8-0.8,0.8H154c-1.2,0-2.3-0.5-3.1-1.3c-0.8-0.8-1.3-1.9-1.3-3.1v-1.8c0,0,0,0,0,0
		c-1.3,2.1-2.9,3.6-4.9,4.6c-2,1-4.1,1.5-6.5,1.5c-2.9,0-5.1-1-6.6-3c-1.5-2-2.3-4.9-2.3-8.8V9.3c0-0.4,0.4-0.8,0.8-0.8h6
		c0.4,0,0.8,0.4,0.8,0.8v17c0,4.6,1.7,6.9,5,6.9c1.5,0,2.9-0.4,4.3-1.3c1.3-0.9,2.2-1.8,3.2-3.3c0.1-0.1,0.1-0.3,0.1-0.5V9.3
		c0-0.4,0.4-0.8,0.8-0.8h6C156.9,8.5,157.2,8.9,157.2,9.3"/>
	<path class="st0" d="M58.1,21.7c-0.2,0-0.4-0.2-0.4-0.5c0.4-4,3.8-7.1,7.9-7.1c4.1,0,7.5,3.1,7.9,7.1c0,0.2-0.2,0.5-0.4,0.5H58.1z
		 M80.4,26.6c0.4,0,0.8-0.3,0.8-0.7c0.1-0.6,0.1-1.2,0.1-1.8c0-0.8-0.1-1.7-0.2-2.5c-1.2-7.4-7.6-13.1-15.4-13.1
		c-8.6,0-15.6,7-15.6,15.6c0,0.8,0.1,1.7,0.2,2.5c0.5,3.1,1.9,5.8,3.9,8c0.2,0.2,0.4,0.4,0.5,0.6c2.8,2.8,6.7,4.5,11,4.5
		c4.3,0,8.2-1.7,11-4.5c0.8-0.8,1.5-1.6,2.1-2.5c0.3-0.5,0.1-1.1-0.5-1.2l-4.9-1.4c-0.3-0.1-0.7,0-0.9,0.3c-1.4,2.3-3.9,3.7-6.8,3.7
		c-4.3,0-7.8-3.4-8-7.6H80.4z"/>
	<path class="st0" d="M160.6,92.5V62.8c0-0.5,0.4-0.8,0.8-0.8h2.4c1.2,0,2.3,0.5,3.1,1.3c0.8,0.8,1.3,1.9,1.3,3.1v1.8c0,0,0,0,0,0
		c1.3-2.1,2.9-3.6,4.9-4.6c2-1,4.2-1.5,6.6-1.5c2.9,0,5.1,1,6.7,3c1.5,2,2.3,4.9,2.3,8.8v18.8c0,0.4-0.4,0.8-0.8,0.8h-6
		c-0.4,0-0.8-0.4-0.8-0.8V75.4c0-4.6-1.7-6.9-5-6.9c-1.5,0-2.9,0.4-4.3,1.3c-1.3,0.9-2.2,1.8-3.2,3.3c-0.1,0.1-0.1,0.3-0.1,0.5v18.9
		c0,0.4-0.4,0.8-0.8,0.8h-6C160.9,93.4,160.6,93,160.6,92.5"/>
	<path class="st0" d="M45.8,53.4h-6c-0.5,0-0.8,0.4-0.8,0.8v13.5c-0.1-0.2-0.2-0.3-0.3-0.5v0l0,0c-0.3-0.4-0.6-0.7-0.9-1.1l0,0
		c-0.1-0.1-0.2-0.2-0.2-0.3c-0.2-0.2-0.3-0.3-0.5-0.5c-0.1-0.1-0.2-0.2-0.3-0.2c-0.1-0.1-0.2-0.2-0.3-0.3c-0.2-0.1-0.3-0.3-0.5-0.4
		c-0.1-0.1-0.3-0.2-0.4-0.3c-0.1,0-0.1-0.1-0.2-0.1c-0.3-0.2-0.6-0.4-0.9-0.5c-0.3-0.2-0.6-0.3-0.9-0.5c-0.4-0.2-0.9-0.4-1.4-0.5
		c-0.3-0.1-0.6-0.2-1-0.2c0,0-0.1,0-0.1,0c-0.2,0-0.3-0.1-0.5-0.1c-0.5-0.1-1-0.1-1.5-0.1c-7.2,0-13,6.9-13.1,15.4v0.2
		c0,7.3,4.2,13.4,9.8,15.1c0.2,0.1,0.5,0.1,0.7,0.2c0,0,0,0,0,0c0,0,0,0,0,0c0.1,0,0.2,0,0.3,0.1c0.7,0.1,1.4,0.2,2.2,0.2H29
		c0.2,0,0.4,0,0.6,0c3.4-0.2,6.5-2,8.8-4.8c0,0,0,0,0,0c0.2-0.2,0.4-0.5,0.6-0.7V89c0,2.4,1.9,4.4,4.3,4.4h0h2.5
		c0.4,0,0.8-0.4,0.8-0.8V54.2C46.6,53.8,46.2,53.4,45.8,53.4z M39.2,77.6c0,0,0,3.2-0.3,4.1c0,0.1-0.1,0.2-0.1,0.2
		c0,0,0,0.1-0.1,0.3c-0.7,1.9-2.7,3.2-2.7,3.2c-0.6,0.4-2.3,1.4-4.5,1.4c-3.2,0-5.3-2.1-5.8-2.6c-2.7-2.9-2.8-7.1-1.7-9.9
		c0.2-0.6,0.8-2.1,2.4-3.4c0.5-0.4,2.3-2,5.1-2c2,0,3.4,0.8,4,1.1c0,0,2.4,1.4,3.2,3.6c0.1,0.2,0.1,0.4,0.1,0.4c0,0,0.1,0.2,0.1,0.4
		C39.2,75.4,39.2,77.6,39.2,77.6L39.2,77.6z"/>
	<path class="st0" d="M58.1,75.3c-0.2,0-0.4-0.2-0.4-0.5c0.4-4,3.8-7.1,7.9-7.1c4.1,0,7.5,3.1,7.9,7.1c0,0.2-0.2,0.5-0.4,0.5H58.1z
		 M80.4,80.2c0.4,0,0.8-0.3,0.8-0.7c0.1-0.6,0.1-1.2,0.1-1.8c0-0.8-0.1-1.7-0.2-2.5c-1.2-7.4-7.6-13.1-15.4-13.1
		c-8.6,0-15.6,7-15.6,15.6c0,0.8,0.1,1.7,0.2,2.5c0.5,3.1,1.9,5.8,3.9,8c0.2,0.2,0.4,0.4,0.5,0.6c2.8,2.8,6.7,4.5,11,4.5
		c4.3,0,8.2-1.7,11-4.5c0.8-0.8,1.5-1.6,2.1-2.5c0.3-0.5,0.1-1.1-0.5-1.2l-4.9-1.4c-0.3-0.1-0.7,0-0.9,0.3c-1.4,2.3-3.9,3.7-6.8,3.7
		c-4.3,0-7.8-3.4-8-7.6H80.4z"/>
	<path class="st0" d="M113.8,92.5l0-29.7c0-0.5,0.4-0.8,0.8-0.8h6c0.4,0,0.8,0.4,0.8,0.8l0,29.7c0,0.5-0.4,0.8-0.8,0.8h-6
		C114.1,93.4,113.8,93,113.8,92.5z"/>
	<g>
		<path class="st0" d="M97.4,93.4c-2.5,0-5-0.4-7.4-1.2c-2.2-0.7-4.1-1.7-5.7-3c-0.3-0.2-0.4-0.7-0.2-1l2.2-3.6
			c0.2-0.4,0.7-0.5,1-0.2c1.6,1.1,3.2,1.9,4.7,2.5c1.7,0.7,3.5,1,5.2,1c1.5,0,2.7-0.3,3.6-0.9c0.9-0.6,1.3-1.4,1.3-2.5
			c0-1.1-0.5-1.9-1.6-2.4c-1-0.5-2.7-1.1-5.1-1.7c-2-0.5-3.6-1.1-5-1.6c-1.4-0.5-2.5-1.1-3.3-1.7c-0.8-0.6-1.5-1.4-1.8-2.2
			c-0.4-0.8-0.6-1.8-0.6-3c0-1.5,0.3-2.9,0.9-4.1c0.6-1.2,1.4-2.3,2.5-3.1c1.1-0.9,2.3-1.5,3.8-2c1.4-0.5,3-0.7,4.7-0.7
			c2.3,0,4.4,0.3,6.4,1c1.8,0.6,3.4,1.5,4.9,2.7c0.3,0.2,0.4,0.7,0.1,1l-2.3,3.5c-0.2,0.3-0.7,0.4-1,0.2c-1.3-0.9-2.6-1.6-3.8-2.1
			c-1.4-0.5-2.9-0.8-4.3-0.8c-1.3,0-2.4,0.3-3.3,0.8c-0.9,0.5-1.3,1.4-1.3,2.6c0,0.5,0.1,1,0.3,1.3c0.2,0.3,0.5,0.7,1,0.9
			c0.5,0.3,1.1,0.5,1.8,0.8s1.7,0.5,2.8,0.8c2.1,0.5,3.8,1.1,5.3,1.6c1.5,0.5,2.7,1.2,3.6,1.8c0.9,0.7,1.6,1.5,2.1,2.4
			c0.4,0.9,0.7,2,0.7,3.3c0,3-1.1,5.3-3.3,7C104.2,92.5,101.2,93.4,97.4,93.4z"/>
	</g>
	<circle class="st0" cx="86.8" cy="35.2" r="4.5"/>
	<circle class="st0" cx="117.6" cy="53.4" r="4.5"/>
	<path class="st0" d="M191.5,9.2c0-0.4-0.4-0.8-0.8-0.8h-6c-0.4,0-0.8,0.4-0.8,0.8v4.9c-0.1-0.1-0.2-0.3-0.3-0.4c0,0,0,0,0,0
		c-2.4-3.1-5.8-5.1-9.7-5.1c-7,0-12.7,6.6-13.1,14.8c0,0.2,0,0.4,0,0.6v0.3c0,0.2,0,0.5,0,0.7c0.3,6.9,4.4,12.6,9.8,14.3
		c0.2,0.1,0.5,0.2,0.8,0.2c0.2,0,0.4,0.1,0.6,0.1c0.6,0.1,1.2,0.2,1.9,0.2h0.1c0.2,0,0.4,0,0.5,0c3.5-0.2,6.6-2,8.8-4.9
		c0.1-0.2,0.3-0.4,0.4-0.6c0,0,0.1-0.1,0.1-0.1v3.2c0,0.2,0,0.4,0,0.5l0,0.1c0,0.2,0,0.3,0,0.5c0,0,0,0.1,0,0.1c0,0.2,0,0.3-0.1,0.4
		c0,0,0,0.1,0,0.1c0,0.1,0,0.2-0.1,0.3c0,0.2-0.1,0.4-0.2,0.6c0,0,0,0,0,0c-1.1,3.6-4.5,6.2-8.5,6.2c-3.2,0-5.9-1.7-7.5-4.1
		c-0.2-0.3-0.6-0.4-0.9-0.3l-5,1.4c-0.5,0.1-0.7,0.7-0.5,1.1c1.3,2.6,3.2,4.8,5.7,6.4c0,0,0.1,0,0.1,0.1c0.1,0.1,0.2,0.1,0.3,0.2
		c0.1,0.1,0.2,0.1,0.3,0.2c0,0,0.1,0.1,0.1,0.1c0.1,0.1,0.3,0.2,0.4,0.2c0,0,0,0,0,0c2.2,1.2,4.8,1.9,7.5,1.9
		c8.2,0,14.9-6.1,15.9-14c0-0.1,0-0.2,0-0.3c0-0.2,0-0.4,0-0.5V9.2z M183.7,28.6c-1.3,2.8-4.1,4.6-7.2,4.6c-4.5,0-8.1-3.9-8.2-8.7
		v-0.1c0-1.1,0.2-2.2,0.6-3.3c0.1-0.4,0.3-0.7,0.4-1.1c0.2-0.3,0.3-0.6,0.5-0.9c0,0,0-0.1,0.1-0.1c0.1-0.1,0.1-0.2,0.2-0.3
		c1.1-1.5,2.6-2.6,4.3-3.1c0.7-0.2,1.4-0.3,2.2-0.3c3.1,0,5.8,1.9,7.2,4.7c0.1,0.1,0.1,0.5,0.2,0.5c0,0.2,0.2,1.5,0.2,3.6
		c0,2.4-0.2,3.7-0.3,4c0,0.1,0,0.1-0.1,0.2C183.8,28.4,183.7,28.6,183.7,28.6z"/>
	<path class="st0" d="M155.4,62h-6c-0.4,0-0.8,0.4-0.8,0.8v4.9c-0.1-0.1-0.2-0.3-0.3-0.4c0,0,0,0,0,0c-2.4-3.1-5.8-5.1-9.7-5.1
		c-7,0-12.7,6.6-13.1,14.8c0,0.2,0,0.4,0,0.6v0.3c0,0.2,0,0.5,0,0.7c0.3,6.9,4.4,12.6,9.8,14.3c0.2,0.1,0.5,0.2,0.8,0.2
		c0.2,0,0.4,0.1,0.6,0.1c0.6,0.1,1.2,0.2,1.9,0.2h0.1c0.2,0,0.4,0,0.5,0c3.5-0.2,6.6-2,8.8-4.9c0.1-0.2,0.3-0.4,0.4-0.6
		c0,0,0.1-0.1,0.1-0.1V91c0,0.2,0,0.4,0,0.5l0,0.1c0,0.2,0,0.3,0,0.5c0,0,0,0.1,0,0.1c0,0.2,0,0.3-0.1,0.4c0,0,0,0.1,0,0.1
		c0,0.1,0,0.2-0.1,0.3c0,0.2-0.1,0.4-0.2,0.6c0,0,0,0,0,0c-1.1,3.6-4.5,6.2-8.5,6.2c-3.2,0-5.9-1.7-7.5-4.1
		c-0.2-0.3-0.6-0.4-0.9-0.3l-5,1.4c-0.5,0.1-0.7,0.7-0.5,1.1c1.3,2.6,3.2,4.8,5.7,6.4c0,0,0.1,0,0.1,0.1c0.1,0.1,0.2,0.1,0.3,0.2
		c0.1,0.1,0.2,0.1,0.3,0.2c0,0,0.1,0.1,0.1,0.1c0.1,0.1,0.3,0.2,0.4,0.2c0,0,0,0,0,0c2.2,1.2,4.8,1.9,7.5,1.9
		c8.2,0,14.9-6.1,15.9-14c0-0.1,0-0.2,0-0.3c0-0.2,0-0.4,0-0.5V62.8C156.2,62.3,155.9,62,155.4,62z M148.9,77.7c0,0,0,3.2-0.3,4.1
		c0,0.1-0.1,0.2-0.1,0.2c0,0,0,0.1-0.1,0.3c-0.7,1.9-2.7,3.2-2.7,3.2c-0.6,0.4-2.3,1.4-4.5,1.4c-3.2,0-5.3-2.1-5.8-2.6
		c-2.7-2.9-2.8-7.1-1.7-9.9c0.2-0.6,0.8-2.1,2.4-3.4c0.5-0.4,2.3-2,5.1-2c2,0,3.4,0.8,4,1.1c0,0,2.4,1.4,3.2,3.6
		c0.1,0.2,0.1,0.4,0.1,0.4c0,0,0.1,0.2,0.1,0.4C148.8,75.4,148.9,77.7,148.9,77.7L148.9,77.7z"/>
	<path class="st0" d="M199.2,93.4c-0.7,0-1.4-0.1-2-0.4c-0.6-0.2-1.1-0.6-1.6-1c-0.4-0.4-0.8-0.9-1-1.5c-0.2-0.6-0.4-1.2-0.4-1.9
		c0-0.7,0.1-1.3,0.4-1.9c0.2-0.6,0.6-1.1,1-1.5c0.4-0.4,1-0.8,1.6-1c0.6-0.2,1.3-0.4,2-0.4c0.7,0,1.4,0.1,2,0.4s1.1,0.6,1.6,1
		c0.4,0.4,0.8,0.9,1,1.5c0.2,0.6,0.4,1.2,0.4,1.9c0,0.7-0.1,1.3-0.4,1.9c-0.2,0.6-0.6,1.1-1,1.5c-0.4,0.4-1,0.8-1.6,1
		S199.9,93.4,199.2,93.4z M199.2,92.7c0.6,0,1.2-0.1,1.7-0.3c0.5-0.2,1-0.5,1.3-0.8c0.4-0.4,0.7-0.8,0.9-1.3
		c0.2-0.5,0.3-1.1,0.3-1.6c0-0.6-0.1-1.1-0.3-1.6c-0.2-0.5-0.5-0.9-0.9-1.3c-0.4-0.4-0.8-0.7-1.3-0.9c-0.5-0.2-1.1-0.3-1.7-0.3
		c-0.6,0-1.2,0.1-1.7,0.3c-0.5,0.2-1,0.5-1.3,0.9c-0.4,0.4-0.7,0.8-0.9,1.3c-0.2,0.5-0.3,1-0.3,1.6c0,0.6,0.1,1.1,0.3,1.6
		c0.2,0.5,0.5,0.9,0.9,1.3c0.4,0.4,0.8,0.7,1.3,0.9C198,92.6,198.6,92.7,199.2,92.7z M197,85.7h2.6c0.3,0,0.5,0.1,0.7,0.2
		c0.2,0.1,0.4,0.3,0.6,0.4c0.2,0.2,0.3,0.4,0.4,0.6c0.1,0.2,0.1,0.5,0.1,0.7c0,0.4-0.1,0.7-0.3,1c-0.2,0.3-0.4,0.5-0.8,0.7l1.4,2.2
		h-1.4l-1.2-1.9h-0.8v1.9H197V85.7z M199.5,88.5c0.2,0,0.4-0.1,0.5-0.2c0.1-0.1,0.2-0.3,0.2-0.6c0-0.3-0.1-0.5-0.2-0.6
		c-0.1-0.1-0.3-0.2-0.5-0.2h-1.2v1.7H199.5z"/>
</g>
</svg>
