<?xml version="1.0" encoding="utf-8"?>
<!-- Generator: Adobe Illustrator 25.2.3, SVG Export Plug-In . SVG Version: 6.00 Build 0)  -->
<svg version="1.1" id="Livello_1" xmlns="http://www.w3.org/2000/svg" xmlns:xlink="http://www.w3.org/1999/xlink" x="0px" y="0px"
	 viewBox="0 0 118.5 118" style="enable-background:new 0 0 118.5 118;" xml:space="preserve">
<style type="text/css">
	.st0{fill:#2C2E4A;}
</style>
<g id="web-development" transform="translate(0 -1)">
	<path id="Tracciato_542" class="st0" d="M108.1,1H10.4C4.7,1,0,5.7,0,11.4v97.2c0,5.7,4.7,10.4,10.4,10.4h97.6
		c5.7,0,10.4-4.7,10.4-10.4V11.4C118.5,5.7,113.8,1,108.1,1z M10.4,7.9h97.6c1.9,0,3.5,1.6,3.5,3.5v17.4H6.9V11.4
		C6.9,9.5,8.5,7.9,10.4,7.9z M108.1,112.1H10.4c-1.9,0-3.5-1.6-3.5-3.5V35.7h104.6v72.9C111.5,110.5,110,112.1,108.1,112.1z"/>
	<path id="Tracciato_543" class="st0" d="M71,46.4c-1.8-0.8-3.8,0.1-4.6,1.8L45.6,96.8c-0.7,1.8,0.1,3.8,1.9,4.5
		c1.7,0.7,3.7-0.1,4.5-1.8L72.8,51C73.6,49.2,72.8,47.2,71,46.4C71,46.4,71,46.4,71,46.4L71,46.4z"/>
	<path id="Tracciato_544" class="st0" d="M41.1,57.8c-1.2-1.5-3.4-1.7-4.9-0.5L18.9,71.2c-1.5,1.2-1.7,3.4-0.5,4.9
		c0.2,0.2,0.3,0.4,0.5,0.5l17.4,13.9c1.5,1.2,3.7,1,4.9-0.5c1.2-1.5,1-3.7-0.5-4.9l-14-11.2l14-11.2C42.1,61.5,42.3,59.3,41.1,57.8
		C41.1,57.8,41.1,57.8,41.1,57.8z"/>
	<path id="Tracciato_545" class="st0" d="M99.6,71.2L82.2,57.3c-1.5-1.2-3.7-1-4.9,0.5c-1.2,1.5-1,3.7,0.5,4.9l14,11.2l-14,11.2
		c-1.5,1.2-1.7,3.4-0.5,4.9c1.2,1.5,3.4,1.7,4.9,0.5l17.4-13.9c1.5-1.2,1.7-3.4,0.5-4.9C100,71.5,99.8,71.3,99.6,71.2z"/>
	<circle id="Ellisse_213" class="st0" cx="17.5" cy="18.3" r="3.6"/>
	<circle id="Ellisse_214" class="st0" cx="31.5" cy="18.3" r="3.6"/>
	<ellipse id="Ellisse_215" class="st0" cx="45.3" cy="18.3" rx="3.4" ry="3.6"/>
	<path id="Tracciato_546" class="st0" d="M80.1,21.8h20.8c1.9,0,3.5-1.5,3.5-3.4s-1.5-3.5-3.4-3.5c0,0-0.1,0-0.1,0H80.1
		c-1.9,0-3.4,1.6-3.4,3.5C76.7,20.3,78.2,21.8,80.1,21.8z"/>
</g>
</svg>
