<?xml version="1.0" encoding="utf-8"?>
<!-- Generator: Adobe Illustrator 25.2.3, SVG Export Plug-In . SVG Version: 6.00 Build 0)  -->
<svg version="1.1" id="Livello_1" xmlns="http://www.w3.org/2000/svg" xmlns:xlink="http://www.w3.org/1999/xlink" x="0px" y="0px"
	 viewBox="0 0 115.7 115" style="enable-background:new 0 0 115.7 115;" xml:space="preserve">
<style type="text/css">
	.st0{fill:#DEDFD8;}
</style>
<g id="Raggruppa_97" transform="translate(0.2 -9.013)">
	<path id="Tracciato_573" class="st0" d="M57.3,14.8c9.3,0.1,18.4,2.6,26.3,7.5c5.2,3.1,9.8,7,13.7,11.6l-13.6-0.4
		c-1.6-0.1-2.9,1.2-3,2.8c-0.1,1.6,1.2,2.9,2.8,3l0,0l18.8,0.6c1.7,0.1,2.2,0,3.1-0.6c0.9-0.7,0.7-2,0.6-3.1l-0.6-18.8
		c0-1.6-1.4-2.9-3-2.8c-1.6,0-2.9,1.4-2.8,3c0,0,0,0,0,0.1l0.4,10.8c-4-4.3-8.5-7.9-13.5-10.9c-8.8-5.4-19-8.2-29.3-8.3
		c-16.1-0.1-31.4,6.8-42,18.8C5.6,38.6-0.2,53-0.2,66.5c0,1.6,1.3,2.9,2.9,2.8c1.6,0,2.8-1.3,2.8-2.8c0-12.1,5.2-25.1,14-34.8
		C29.1,20.9,42.9,14.7,57.3,14.8z"/>
	<path id="Tracciato_574" class="st0" d="M112.6,63.6c-1.6,0-2.9,1.3-2.9,2.9c0,0,0,0,0,0c0,12.1-5.2,25.1-14,34.8
		c-9.6,10.8-23.3,16.9-37.7,16.9c-9.3-0.1-18.4-2.6-26.3-7.5c-5.2-3.1-9.8-7-13.7-11.6l13.6,0.4c1.6,0.1,2.9-1.2,3-2.8
		s-1.2-2.9-2.8-3l0,0l-18.8-0.6c-2.2,0-2.3-0.2-3.1,0.6S9.1,95,9.1,97l0.6,18.8c0,1.6,1.4,2.9,3,2.8s2.9-1.4,2.8-3c0,0,0,0,0-0.1
		l-0.4-10.8c4,4.3,8.5,7.9,13.5,10.9c8.8,5.4,19,8.2,29.3,8.3c16.1,0.1,31.4-6.8,42-18.8c9.7-10.7,15.4-25.2,15.4-38.7
		C115.5,64.9,114.2,63.6,112.6,63.6C112.6,63.6,112.6,63.6,112.6,63.6z"/>
</g>
</svg>
