<?xml version="1.0" encoding="utf-8"?>
<!-- Generator: Adobe Illustrator 25.2.3, SVG Export Plug-In . SVG Version: 6.00 Build 0)  -->
<svg version="1.1" id="Livello_1" xmlns="http://www.w3.org/2000/svg" xmlns:xlink="http://www.w3.org/1999/xlink" x="0px" y="0px"
	 viewBox="0 0 197.7 118" style="enable-background:new 0 0 197.7 118;" xml:space="preserve">
<style type="text/css">
	.st0{fill:#2C2E4A;}
</style>
<g id="Raggruppa_87" transform="translate(-79.518 -606.216)">
	<g id="Raggruppa_76" transform="translate(152.492 625.805)">
		<g id="Raggruppa_75" transform="translate(0)">
			<path id="Tracciato_547" class="st0" d="M25.9,51.7C11.6,51.7,0,40.1,0,25.9C0,11.6,11.6,0,25.9,0c14.3,0,25.9,11.6,25.9,25.9
				l0,0C51.7,40.1,40.1,51.7,25.9,51.7z M25.9,6.5c-10.7,0-19.3,8.7-19.3,19.3c0,10.7,8.7,19.3,19.3,19.3s19.3-8.7,19.3-19.3
				C45.2,15.2,36.5,6.5,25.9,6.5L25.9,6.5z"/>
		</g>
	</g>
	<g id="Raggruppa_78" transform="translate(138.285 671.193)">
		<g id="Raggruppa_77">
			<path id="Tracciato_548" class="st0" d="M76.9,53c-1.8,0-3.3-1.5-3.3-3.3v-9.7c0-18.5-15-33.5-33.5-33.5
				c-18.5,0-33.5,15-33.5,33.5v9.7c0,1.8-1.5,3.3-3.3,3.3S0,51.6,0,49.8v-9.7C0,17.9,18,0,40.1,0c22.1,0,40,17.9,40.1,40.1v9.7
				C80.1,51.6,78.7,53,76.9,53z"/>
		</g>
	</g>
	<g id="Raggruppa_80" transform="translate(211.259 606.216)">
		<g id="Raggruppa_79">
			<path id="Tracciato_549" class="st0" d="M25.9,51.7C11.6,51.7,0,40.1,0,25.9C0,11.6,11.6,0,25.9,0c14.3,0,25.9,11.6,25.9,25.9
				l0,0C51.7,40.1,40.1,51.7,25.9,51.7z M25.9,6.5c-10.7,0-19.3,8.7-19.3,19.3c0,10.7,8.7,19.3,19.3,19.3s19.3-8.7,19.3-19.3
				C45.2,15.2,36.5,6.5,25.9,6.5L25.9,6.5z"/>
		</g>
	</g>
	<g id="Raggruppa_82" transform="translate(198.13 651.606)">
		<g id="Raggruppa_81">
			<path id="Tracciato_550" class="st0" d="M69.3,22.5L69.3,22.5c-1.1,0-2.1-0.5-2.7-1.4C56.1,5.8,35.2,1.9,20,12.4
				C13.2,17,8.4,23.9,6.4,31.8c-0.4,1.4-1.7,2.5-3.1,2.5c-0.3,0-0.6,0-0.8-0.1c-1.7-0.4-2.8-2.2-2.4-4c0,0,0,0,0,0
				C5.6,8.8,27.4-4.2,48.9,1.2C58.3,3.6,66.5,9.4,72,17.4c1,1.5,0.7,3.5-0.8,4.5C70.7,22.3,70,22.5,69.3,22.5z"/>
			<path id="Tracciato_551" class="st0" d="M75.8,40.8c1.8,0,3.3,1.5,3.3,3.3v5.6c0,1.8-1.5,3.3-3.3,3.3c-1.8,0-3.3-1.5-3.3-3.3l0,0
				v-5.6C72.5,42.3,74,40.8,75.8,40.8L75.8,40.8z"/>
		</g>
	</g>
	<g id="Raggruppa_84" transform="translate(93.726 606.216)">
		<g id="Raggruppa_83">
			<path id="Tracciato_552" class="st0" d="M25.9,51.7C11.6,51.7,0,40.1,0,25.9C0,11.6,11.6,0,25.9,0c14.3,0,25.9,11.6,25.9,25.9
				l0,0C51.7,40.1,40.1,51.7,25.9,51.7z M25.9,6.5c-10.7,0-19.3,8.7-19.3,19.3c0,10.7,8.7,19.3,19.3,19.3c10.7,0,19.3-8.7,19.3-19.3
				C45.2,15.2,36.5,6.5,25.9,6.5L25.9,6.5z"/>
		</g>
	</g>
	<g id="Raggruppa_86" transform="translate(79.518 651.605)">
		<g id="Raggruppa_85" transform="translate(0 0)">
			<path id="Tracciato_553" class="st0" d="M3.3,53C1.5,53,0,51.6,0,49.8v-9.7C0,18,18,0,40.1,0l0,0c18.2,0,34.2,12.3,38.7,30
				c0.4,1.7-0.6,3.5-2.3,4c0,0,0,0,0,0c-0.3,0.1-0.5,0.1-0.8,0.1l0,0c-1.5,0-2.8-1-3.2-2.5C67.8,13.7,49.5,3,31.6,7.6
				C16.8,11.5,6.5,24.8,6.5,40.1v9.7C6.5,51.6,5.1,53,3.3,53z"/>
		</g>
	</g>
	<circle id="Ellisse_216" class="st0" cx="272.4" cy="683" r="4"/>
</g>
</svg>
