<?xml version="1.0" encoding="utf-8"?>
<!-- Generator: Adobe Illustrator 24.2.0, SVG Export Plug-In . SVG Version: 6.00 Build 0)  -->
<svg version="1.1" id="Livello_1" xmlns="http://www.w3.org/2000/svg" xmlns:xlink="http://www.w3.org/1999/xlink" x="0px" y="0px"
	 viewBox="0 0 127.6 127.6" style="enable-background:new 0 0 127.6 127.6;" xml:space="preserve">
<style type="text/css">
	.st0{fill:#E4E5E0;}
</style>
<g id="Raggruppa_97" transform="translate(0.2 -9.013)">
	<g id="Tracciato_573">
		<path class="st0" d="M112.7,47L112.7,47c-1.5,1-2.5,1.1-4.4,1l-18.7-0.6c-1.4-0.1-2.5-0.6-3.4-1.6s-1.4-2.2-1.3-3.6
			c0.1-1.3,0.6-2.5,1.6-3.4s2.2-1.4,3.6-1.3l8.8,0.3c-3-3-6.4-5.6-10-7.8c-7.5-4.6-16.2-7.1-25.3-7.2c-14.1,0-27.3,5.9-36.6,16.3
			c-8.5,9.3-13.5,21.8-13.5,33.5c0,2.6-2.1,4.8-4.7,4.8H8.6c-1.2,0-2.3-0.4-3.2-1.3c-1-0.9-1.5-2.2-1.5-3.5c0-14,6-28.8,15.9-39.7
			c10.9-12.4,26.6-19.4,43.1-19.4h0.3c10.9,0.1,21.3,3.1,30.3,8.6c3.7,2.2,7.1,4.8,10.3,7.6l-0.2-5.9c-0.1-1.3,0.4-2.6,1.3-3.5
			s2.1-1.5,3.4-1.5c1.3-0.1,2.6,0.4,3.5,1.3c1,0.9,1.5,2.2,1.5,3.5l0.6,18.8C114.2,43.6,114.4,45.7,112.7,47z"/>
	</g>
	<g id="Tracciato_574">
		<path class="st0" d="M123.3,72.6c0,14-6,29-15.9,39.9C96.5,124.9,80.8,132,64.3,132h-0.4c-10.9-0.1-21.3-3.1-30.3-8.6
			c-3.7-2.2-7.1-4.8-10.3-7.6l0.2,5.9c0.1,1.3-0.4,2.5-1.3,3.5c-0.9,0.9-2.1,1.5-3.4,1.5c-1.3,0.1-2.6-0.4-3.6-1.3s-1.5-2.2-1.5-3.5
			l-0.6-18.7c0-2.2,0-3.4,1.4-4.8c1.2-1.2,2-1.2,3.5-1.2c0.3,0,0.6,0,1,0l18.9,0.6c2.8,0.2,4.9,2.5,4.7,5.1
			c-0.1,1.3-0.6,2.5-1.6,3.4s-2.3,1.4-3.6,1.3l-8.8-0.3c3,3,6.4,5.6,10,7.7c7.5,4.6,16.2,7.1,25.3,7.2c13.8,0,27-5.9,36.2-16.2
			c8.5-9.3,13.5-21.8,13.5-33.5c0-2.7,2.2-4.9,4.9-4.9c1.4,0,2.7,0.6,3.6,1.6C123.1,70.2,123.5,71.4,123.3,72.6z"/>
	</g>
</g>
</svg>
