<?xml version="1.0" encoding="utf-8"?>
<!-- Generator: Adobe Illustrator 25.2.3, SVG Export Plug-In . SVG Version: 6.00 Build 0)  -->
<svg version="1.1" id="Livello_1" xmlns="http://www.w3.org/2000/svg" xmlns:xlink="http://www.w3.org/1999/xlink" x="0px" y="0px"
	 viewBox="0 0 115.4 133" style="enable-background:new 0 0 115.4 133;" xml:space="preserve">
<style type="text/css">
	.st0{fill:#2C2E4A;}
</style>
<g id="Raggruppa_94" transform="translate(931.23 50.326)">
	<g id="Raggruppa_93" transform="translate(-931.23 -50.326)">
		<path id="Tracciato_563" class="st0" d="M57.7,17.6C25.9,17.6,0.1,43.3,0,75.1c0,0.1,0,0.2,0,0.2C0,107.2,25.8,133,57.7,133
			c0,0,0,0,0,0c11.2,0,22.1-3.2,31.5-9.4c1.3-0.9,1.7-2.7,0.8-4c-0.1-0.2-0.2-0.3-0.4-0.5l0,0c-1-1-2.5-1.1-3.6-0.4
			c-8.4,5.5-18.3,8.4-28.4,8.4C29,127.2,5.7,104,5.8,75.3C5.7,46.7,28.8,23.5,57.5,23.4c0.1,0,0.1,0,0.2,0
			c28.7,0,51.9,23.2,51.9,51.9c0,10.1-2.9,19.9-8.4,28.4c-0.7,1.1-0.6,2.6,0.4,3.6l0,0c1.1,1.1,2.9,1.1,4.1,0
			c0.1-0.1,0.3-0.3,0.4-0.5c6.1-9.4,9.4-20.3,9.4-31.5C115.4,43.5,89.5,17.6,57.7,17.6C57.7,17.6,57.7,17.6,57.7,17.6z"/>
		<path id="Tracciato_564" class="st0" d="M70.3,19.1L70.3,19.1c4.3-1.1,7.4-5,7.4-9.4c0-5.4-4.3-9.7-9.7-9.7H47.4
			c-5.4,0-9.7,4.3-9.7,9.7c0,4.5,3,8.3,7.4,9.4v0L70.3,19.1z M43.4,9.7c0-2.2,1.8-4,4-4h20.5c2.2,0,4,1.8,4,4s-1.8,4-4,4H47.4
			C45.2,13.7,43.4,11.9,43.4,9.7z"/>
		<path id="Tracciato_565" class="st0" d="M96.5,111.2c-0.8,0-1.5,0.3-2,0.8c-0.5,0.5-0.8,1.3-0.8,2c0,0.8,0.3,1.5,0.8,2
			c0.5,0.5,1.3,0.8,2,0.8c0.8,0,1.5-0.3,2-0.8c0.5-0.5,0.8-1.3,0.8-2c0-0.8-0.3-1.5-0.8-2C97.9,111.5,97.2,111.2,96.5,111.2z"/>
		<path id="Tracciato_566" class="st0" d="M57.7,31.1c-24.4,0-44.2,19.8-44.3,44.3c0,24.4,19.8,44.2,44.3,44.3
			c24.4,0,44.2-19.8,44.3-44.3C102,50.9,82.2,31.1,57.7,31.1z M57.7,113.9c-21.3,0-38.5-17.3-38.6-38.6c0-21.3,17.3-38.5,38.6-38.6
			c21.3,0,38.5,17.3,38.6,38.6C96.3,96.6,79,113.9,57.7,113.9z"/>
		<path id="Tracciato_567" class="st0" d="M75.8,53.3L61.6,67.4c-1.2-0.6-2.6-0.9-3.9-0.9c-1.4,0-2.7,0.3-3.9,0.9l-6.3-6.3
			c-1.1-1.1-2.9-1.1-4,0c-1.1,1.1-1.1,2.9,0,4l6.3,6.3c-0.6,1.2-0.9,2.6-0.9,3.9c0,4.9,4,8.9,8.9,8.9c4.9,0,8.9-4,8.9-8.9
			c0-1.4-0.3-2.7-0.9-3.9l13.7-13.7l0,0l0.4-0.4c1.1-1.1,1.1-2.9,0-4C78.7,52.2,76.9,52.2,75.8,53.3z M57.7,78.5
			c-1.7,0-3.2-1.4-3.2-3.2c0-1.7,1.4-3.2,3.2-3.2c1.7,0,3.2,1.4,3.2,3.2C60.9,77.1,59.5,78.5,57.7,78.5z"/>
		<path id="Tracciato_568" class="st0" d="M88.2,72.5h-2.6c-1.6,0-2.9,1.3-2.9,2.9c0,0,0,0,0,0c0,1.6,1.3,2.9,2.9,2.9l0,0h2.6
			c1.6,0,2.9-1.3,2.9-2.9c0,0,0,0,0,0C91.1,73.8,89.8,72.5,88.2,72.5L88.2,72.5z"/>
		<path id="Tracciato_569" class="st0" d="M29.8,72.5h-2.6c-1.6,0-2.9,1.3-2.9,2.9c0,0,0,0,0,0c0,1.6,1.3,2.9,2.9,2.9l0,0h2.6
			c1.6,0,2.9-1.3,2.9-2.9c0,0,0,0,0,0C32.7,73.7,31.4,72.5,29.8,72.5L29.8,72.5z"/>
		<path id="Tracciato_570" class="st0" d="M57.7,50.3c1.6,0,2.9-1.3,2.9-2.9v0v-2.6c0-1.6-1.3-2.9-2.9-2.9l0,0
			c-1.6,0-2.9,1.3-2.9,2.9v0v2.6C54.9,49.1,56.2,50.3,57.7,50.3z"/>
		<path id="Tracciato_571" class="st0" d="M57.7,100.4c-1.6,0-2.9,1.3-2.9,2.9l0,0v2.6c0,1.6,1.3,2.9,2.9,2.9l0,0
			c1.6,0,2.9-1.3,2.9-2.9l0,0v-2.6C60.5,101.7,59.3,100.4,57.7,100.4C57.7,100.4,57.7,100.4,57.7,100.4z"/>
	</g>
</g>
</svg>
