<svg xmlns="http://www.w3.org/2000/svg" viewBox="0 0 701.6972 431.3171"><defs><style>.cls-1{fill:#fff;}.cls-2{fill:#e0e0e0;}.cls-10,.cls-3{opacity:0.3;}.cls-4{fill:#ebebeb;}.cls-5{fill:#f5f5f5;}.cls-6{fill:#455a64;}.cls-7{fill:#263238;}.cls-8{fill:#ff725e;}.cls-9{fill:#fafafa;}.cls-11{fill:#ffbe9d;}.cls-12{fill:#eb996e;}</style></defs><g id="Background_Complete" data-name="Background Complete"><rect class="cls-1" x="0.2731" y="49.7597" width="152.297" height="101.9722"/><path class="cls-2" d="M176.3929,181.5668s-.0156-.6376-.0236-1.8549c-.0055-1.2252-.0138-3.0267-.0245-5.38-.0127-4.72-.0315-11.6434-.0555-20.5084-.0274-17.7165-.0666-43.1825-.1145-74.2287l.218.2179-152.2847.0549H24.096l.2728-.2728c-.0082,36.3278-.016,70.8733-.0228,101.972l-.25-.25c44.8327.05,82.8742.0931,109.72.1231,13.4336.0288,24.0633.0517,31.3469.0672l8.3382.03q1.4126.01,2.1527.0148c.4849.0048.7391.0146.7391.0146s-.2345.01-.71.0148l-2.1247.0147-8.2881.03-31.29.0671-109.884.1232-.25,0v-.25c-.007-31.0987-.0147-65.6442-.0228-101.972l0-.2731h.2853c57.3778.02,110.3185.04,152.2847.0548h.2185l0,.2182c-.0479,31.103-.0871,56.6154-.1145,74.3644-.0239,8.8439-.0428,15.7511-.0556,20.4594-.0107,2.3356-.0188,4.1234-.0243,5.3392C176.4085,180.9605,176.3929,181.5668,176.3929,181.5668Z" transform="translate(-23.8228 -29.8349)"/><path class="cls-2" d="M24.0959,88.6946c0-.1508,34.0674-.2731,76.0818-.2731,42.029,0,76.0891.1223,76.0891.2731s-34.06.2729-76.0891.2729C58.1633,88.9675,24.0959,88.8452,24.0959,88.6946Z" transform="translate(-23.8228 -29.8349)"/><g class="cls-3"><path class="cls-2" d="M30.1042,84.1038a1.2206,1.2206,0,1,1-1.22-1.2205A1.22,1.22,0,0,1,30.1042,84.1038Z" transform="translate(-23.8228 -29.8349)"/></g><g class="cls-3"><path class="cls-2" d="M34.2868,84.1038a1.2206,1.2206,0,1,1-1.2205-1.2205A1.2205,1.2205,0,0,1,34.2868,84.1038Z" transform="translate(-23.8228 -29.8349)"/></g><g class="cls-3"><path class="cls-2" d="M38.4094,84.1038a1.2206,1.2206,0,1,1-1.22-1.2205A1.2205,1.2205,0,0,1,38.4094,84.1038Z" transform="translate(-23.8228 -29.8349)"/></g><rect class="cls-2" x="13.3662" y="69.4937" width="40.6248" height="40.625"/><path class="cls-2" d="M155.5079,110.8115c0,.1508-15.8445.2731-35.3848.2731-19.5473,0-35.3884-.1223-35.3884-.2731s15.8411-.273,35.3884-.273C139.6634,110.5385,155.5079,110.6608,155.5079,110.8115Z" transform="translate(-23.8228 -29.8349)"/><path class="cls-2" d="M155.5079,118.3608c0,.1508-15.8445.2731-35.3848.2731-19.5473,0-35.3884-.1223-35.3884-.2731s15.8411-.2728,35.3884-.2728C139.6634,118.088,155.5079,118.21,155.5079,118.3608Z" transform="translate(-23.8228 -29.8349)"/><path class="cls-2" d="M155.5079,125.91c0,.1507-15.8445.273-35.3848.273-19.5473,0-35.3884-.1223-35.3884-.273s15.8411-.2729,35.3884-.2729C139.6634,125.6373,155.5079,125.7594,155.5079,125.91Z" transform="translate(-23.8228 -29.8349)"/><path class="cls-2" d="M126.5627,133.46a9.4822,9.4822,0,0,1-1.6436.1063l-4.4822.0868c-3.7845.0495-9.0128.08-14.7872.08-5.7763,0-11.0051-.03-14.79-.08l-4.4818-.0868a9.4782,9.4782,0,0,1-1.6434-.1063,9.5377,9.5377,0,0,1,1.6434-.1062l4.4818-.0867c3.7847-.05,9.0135-.08,14.79-.08,5.7744,0,11.0027.03,14.7872.08l4.4822.0867A9.5418,9.5418,0,0,1,126.5627,133.46Z" transform="translate(-23.8228 -29.8349)"/><rect class="cls-2" x="15.9082" y="123.8157" width="19.0918" height="19.0919"/><rect class="cls-2" x="50.5318" y="123.8157" width="19.0919" height="19.0919"/><rect class="cls-2" x="85.1555" y="123.8157" width="19.092" height="19.0919"/><rect class="cls-2" x="119.7792" y="123.8157" width="19.0919" height="19.0919"/><rect class="cls-1" x="175.0432" y="0.2078" width="131.1893" height="53.2871"/><path class="cls-2" d="M330.0553,83.33s-.01-.3274-.015-.9518c-.0036-.6311-.0089-1.5552-.0157-2.7646-.0084-2.4314-.0206-6.0034-.0362-10.6046-.0187-9.1972-.0457-22.5008-.079-38.966l.1458.1459c-33.3726.0156-79.8278.0376-131.18.0618h-.0087l.2077-.2077c-.0032,18.6605-.0062,36.6729-.009,53.2869l-.1987-.1988,94.06.0938,27.2861.0552,7.303.0253q1.24.0078,1.8906.0122c.4262.0042.65.0124.65.0124s-.2069.0082-.625.0123l-1.8672.0124-7.2615.0251-27.2406.0551-94.1949.0939h-.1989V83.33c-.0028-16.614-.0057-34.6264-.009-53.2869v-.2079h.2166l131.18.0619h.1464l0,.1459c-.0334,16.5024-.06,29.8363-.079,39.0543-.0157,4.587-.0278,8.148-.0361,10.5719-.0069,1.1981-.0122,2.1133-.0158,2.7384C330.0653,83.0224,330.0553,83.33,330.0553,83.33Z" transform="translate(-23.8228 -29.8349)"/><path class="cls-2" d="M198.9971,37.229c0-.1148,29.3236-.2078,65.4875-.2078,36.1766,0,65.4939.093,65.4939.2078s-29.3173.2076-65.4939.2076C228.3207,37.4366,198.9971,37.3436,198.9971,37.229Z" transform="translate(-23.8228 -29.8349)"/><g class="cls-3"><path class="cls-4" d="M204.4893,34.0148a.9521.9521,0,1,1-.9521-.9521A.9521.9521,0,0,1,204.4893,34.0148Z" transform="translate(-23.8228 -29.8349)"/></g><g class="cls-3"><path class="cls-4" d="M207.7516,34.0148a.9521.9521,0,1,1-.952-.9521A.9519.9519,0,0,1,207.7516,34.0148Z" transform="translate(-23.8228 -29.8349)"/></g><g class="cls-3"><circle class="cls-4" cx="186.1924" cy="4.1799" r="0.9521"/></g><rect class="cls-2" x="186.1924" y="16.0552" width="31.6874" height="31.6873"/><path class="cls-2" d="M320.9784,54.3817c0,.1147-16.306.2077-36.4159.2077-20.1167,0-36.4192-.093-36.4192-.2077s16.3025-.2077,36.4192-.2077C304.6724,54.174,320.9784,54.267,320.9784,54.3817Z" transform="translate(-23.8228 -29.8349)"/><path class="cls-2" d="M320.9784,60.837c0,.1147-16.306.2078-36.4159.2078-20.1167,0-36.4192-.0931-36.4192-.2078s16.3025-.2078,36.4192-.2078C304.6724,60.6292,320.9784,60.7222,320.9784,60.837Z" transform="translate(-23.8228 -29.8349)"/><path class="cls-2" d="M295.03,67.2923a2.0822,2.0822,0,0,1-.4763.0418l-1.3661.039-5.0242.0661L271.5879,67.5l-16.5785-.0608-5.0239-.0661-1.366-.039a2.0807,2.0807,0,0,1-.4762-.0418,2.0688,2.0688,0,0,1,.4762-.0419c.3573-.01.81-.0231,1.366-.039l5.0239-.0659c4.2919-.0159,10.1282-.0372,16.5785-.0609,6.448.0237,12.2837.045,16.5758.0609l5.0242.0659c.5564.0159,1.0087.0289,1.3661.039A2.07,2.07,0,0,1,295.03,67.2923Z" transform="translate(-23.8228 -29.8349)"/><path class="cls-2" d="M684.02,101.1578a4.847,4.847,0,0,1,.7435-.8441l2.156-2.1665c1.8355-1.8134,4.3948-4.2934,7.2431-7.01l.0647-.0617.0024.3664c-2.87-2.6658-5.4457-5.0965-7.2924-6.8733q-1.2844-1.257-2.1687-2.1225a4.791,4.791,0,0,1-.7486-.8281,4.79,4.79,0,0,1,.88.6851l2.2766,2.0055c1.9079,1.71,4.522,4.0993,7.3926,6.7645l.1959.1819-.1935.1846-.0647.0619c-2.8482,2.7164-5.4462,5.1555-7.3441,6.9031q-1.3419,1.2144-2.2655,2.0507A4.854,4.854,0,0,1,684.02,101.1578Z" transform="translate(-23.8228 -29.8349)"/><path class="cls-2" d="M661.87,81.6182a4.857,4.857,0,0,1-.7435.8441q-.8763.8805-2.1559,2.1665c-1.8355,1.8133-4.395,4.2933-7.2431,7.01l-.0649.0618-.0024-.3663c2.87,2.6657,5.4458,5.0963,7.2924,6.8731q1.2845,1.2573,2.1688,2.1227a4.7932,4.7932,0,0,1,.7486.828,4.799,4.799,0,0,1-.88-.685q-.9257-.8156-2.2765-2.0057c-1.9081-1.71-4.5222-4.0992-7.3926-6.7644l-.196-.182.1936-.1846.0647-.0617c2.848-2.7165,5.4461-5.1557,7.3439-6.9031l2.2656-2.0507A4.8566,4.8566,0,0,1,661.87,81.6182Z" transform="translate(-23.8228 -29.8349)"/><path class="cls-2" d="M667.5556,105.76c-.13-.0488,2.1956-6.584,5.1921-14.5951,2.9976-8.0137,5.5316-14.4686,5.6611-14.42s-2.195,6.5826-5.1927,14.5965C670.22,99.3528,667.685,105.809,667.5556,105.76Z" transform="translate(-23.8228 -29.8349)"/><path class="cls-2" d="M709.19,119.7435s-.0152-.3795-.0229-1.0929c-.0056-.7279-.0134-1.7781-.0238-3.1439-.0125-2.76-.0307-6.782-.0538-11.9066-.0261-10.2509-.0631-24.9-.108-42.563l.2085.2092-72.043.0418h-.0061l.25-.251c-.01,21.2224-.0188,41.2642-.0267,58.7064l-.2234-.2244c21.391.0463,39.3737.0852,52.0255.1124l14.7464.0595,3.9142.0267,1.012.0129c.2285.0044.351.0129.351.0129s-.1053.0087-.3254.0129l-.9873.0129c-.8935.0063-2.1885.0151-3.87.0267l-14.6957.0595c-12.6872.0272-30.72.0661-52.17.1124l-.2234,0v-.2248c-.008-17.4422-.0171-37.484-.0268-58.7064v-.2512h.2564c26.65.0153,51.4335.03,72.043.0417l.2092,0-.0006.2093c-.0447,17.7174-.0819,32.4123-.108,42.6947-.0231,5.1043-.0413,9.11-.0538,11.86-.01,1.3487-.0183,2.3855-.0237,3.104C709.2056,119.3947,709.19,119.7435,709.19,119.7435Z" transform="translate(-23.8228 -29.8349)"/><path class="cls-2" d="M709.755,69.7476c0,.1387-16.2636.2512-36.321.2512-20.0645,0-36.3245-.1125-36.3245-.2512s16.26-.2512,36.3245-.2512C693.4914,69.4964,709.755,69.6088,709.755,69.7476Z" transform="translate(-23.8228 -29.8349)"/><path class="cls-2" d="M643.0211,65.4635a.97.97,0,1,1-.97-.974A.972.972,0,0,1,643.0211,65.4635Z" transform="translate(-23.8228 -29.8349)"/><path class="cls-2" d="M646.5571,65.4635a.97.97,0,1,1-.97-.974A.972.972,0,0,1,646.5571,65.4635Z" transform="translate(-23.8228 -29.8349)"/><path class="cls-2" d="M650.0931,65.4635a.97.97,0,1,1-.97-.974A.972.972,0,0,1,650.0931,65.4635Z" transform="translate(-23.8228 -29.8349)"/><path class="cls-4" d="M692.59,377.9c4.1633-2.148,9.0657-2.4273,13.6877-1.6633,2.4832.41,5.0719,1.1534,6.7617,3.0186s2.01,5.1477.07,6.75a6.4783,6.4783,0,0,1-4.2635,1.0816c-3.6182-.0422-7.633-.6792-10.5237,1.4978-1.6491,1.242-2.747,3.3069-4.7189,3.9178a4.6619,4.6619,0,0,1-5.129-2.2819,7.968,7.968,0,0,1-.58-5.88A8.9769,8.9769,0,0,1,692.59,377.9Z" transform="translate(-23.8228 -29.8349)"/><path class="cls-4" d="M683.0518,359.487c2.5459,3.636,7.4938,2.4321,9.788.2129s3.2639-5.4361,4.1465-8.5035c2.0167-7.0086,4.05-14.3609,2.5506-21.4979a11.9462,11.9462,0,0,0-2.7457-5.8447,6.24,6.24,0,0,0-5.913-1.9677c-2.4947.659-4.0454,3.1025-5.1659,5.427a51.2436,51.2436,0,0,0-5.064,21.9921c-.0124,3.5422.4052,7.2572,2.4035,10.1818" transform="translate(-23.8228 -29.8349)"/><path class="cls-4" d="M676.0608,364.7041c2.7642-3.2806,3.2887-8.0653,2.0588-12.175a23.4688,23.4688,0,0,0-7.2111-10.46,38.8243,38.8243,0,0,0-12.9129-7.6189,13.7687,13.7687,0,0,0-5.8073-.9866,6.0951,6.0951,0,0,0-4.8736,2.9485c-1.3589,2.5919-.056,5.7356,1.3532,8.3a98.3893,98.3893,0,0,0,8.4814,12.9153c2.542,3.2774,5.4539,6.51,9.3283,7.9915s7.8987,1.3068,9.9523-1.38" transform="translate(-23.8228 -29.8349)"/><path class="cls-2" d="M682.88,414.3356a7.9211,7.9211,0,0,0,.23-1.6521c.1171-1.2026.264-2.7126.4388-4.5091a65.1052,65.1052,0,0,1,1.0144-6.6137,51.0306,51.0306,0,0,1,2.4038-7.8059,28.7766,28.7766,0,0,1,3.9861-7.063,14.8867,14.8867,0,0,1,5.0393-4.19,14.1,14.1,0,0,1,4.2438-1.3215,7.9363,7.9363,0,0,0,1.645-.2381,7.7481,7.7481,0,0,0-1.6741-.0258,12.8573,12.8573,0,0,0-4.4251,1.1515,14.8563,14.8563,0,0,0-5.3158,4.226,28.105,28.105,0,0,0-4.1317,7.2051,47.7021,47.7021,0,0,0-2.3867,7.9336,55.854,55.854,0,0,0-.8793,6.6973c-.1432,1.9148-.1974,3.4651-.2235,4.5369A7.7514,7.7514,0,0,0,682.88,414.3356Z" transform="translate(-23.8228 -29.8349)"/><path class="cls-2" d="M683.19,410.8663a3.2717,3.2717,0,0,0,.0444-.767c-.0016-.576-.0034-1.3016-.0058-2.1923-.0053-1.9024-.0043-4.6559.0976-8.0555.1683-6.8.7537-14.1178,1.8846-24.4351,1.0708-9.7014,2.5082-20.9918,4.0249-28.3324.3252-1.6694.6528-3.1719.9613-4.4872.294-1.3185.5451-2.4553.7874-3.375.2082-.8658.3776-1.5711.5124-2.1309a.3853.3853,0,1,0-.1324-.0376c-.1671.5517-.3777,1.247-.6364,2.1006-.2824.9113-.5717,2.0408-.902,3.3539-.3442,1.31-.7055,2.8088-1.0618,4.4758a248.758,248.758,0,0,0-4.2314,26.29c-1.1332,10.3387-1.6435,19.7523-1.6886,26.5692-.04,3.4084.0319,6.1675.119,8.0713.0544.89.0987,1.6154.1338,2.1911A3.2472,3.2472,0,0,0,683.19,410.8663Z" transform="translate(-23.8228 -29.8349)"/><path class="cls-2" d="M683.2357,392.71a14.5827,14.5827,0,0,0-.0161-2.29c-.0842-1.4717-.2865-3.5988-.7012-6.2044a81.8485,81.8485,0,0,0-2.0179-9.04,74.055,74.055,0,0,0-3.78-10.6965,56.9812,56.9812,0,0,0-11.1012-17.286,28.19,28.19,0,0,0-2.6116-2.4275c-.4007-.3388-.7548-.6766-1.1156-.9443q-.5441-.375-1.0131-.6984a14.6111,14.6111,0,0,0-1.928-1.2343,68.3359,68.3359,0,0,1,6.32,5.6378,60.04,60.04,0,0,1,10.824,17.2235,84.5612,84.5612,0,0,1,3.8017,10.5983,91.9635,91.9635,0,0,1,2.1472,8.95c.4728,2.5793.7467,4.6851.9118,6.1435A14.7657,14.7657,0,0,0,683.2357,392.71Z" transform="translate(-23.8228 -29.8349)"/><polygon class="cls-2" points="641.864 394.903 643.683 419.828 675.703 419.828 677.523 394.903 641.864 394.903"/><rect class="cls-2" x="638.771" y="385.0784" width="42.5725" height="9.8243"/><polygon class="cls-4" points="638.771 418.874 638.771 421.597 640.771 421.597 680.64 421.597 680.64 418.874 638.771 418.874"/><polygon class="cls-2" points="642.732 426.39 640.771 421.597 679.115 421.597 676.827 426.39 642.732 426.39"/><path class="cls-5" d="M700.751,432.8837a1.0231,1.0231,0,0,1-.1493.229c-.127.1685-.2844.3774-.4784.6346-.4547.582-1.0795,1.3815-1.8653,2.3871l-.0829.1061-.08-.111-4.5828-6.3381h.2637c-1.3631,1.93-2.8815,4.08-4.5118,6.3885l-.1415.2-.1582-.1883-5.351-6.3664.3085-.004c-.0929.1168-.1934.2433-.2944.37l-4.7846,5.9982-.1595.2-.1472-.2082c-1.6243-2.2984-3.142-4.4457-4.5141-6.3871l.2626.0125c-2.2246,2.5346-4.1113,4.6843-5.5594,6.334l-.0987.1125-.0753-.1266c-.7329-1.2311-1.3172-2.2129-1.7408-2.9244-.182-.3174-.3292-.5741-.4465-.7788a.1554.1554,0,1,1,.05-.0308c.13.1969.2929.4439.4942.7494.4447.6986,1.058,1.6624,1.8273,2.8711l-.1739-.014c1.4249-1.67,3.2813-3.8457,5.47-6.4112l.138-.1619.1247.1744,4.5546,6.3581-.3066-.0083,4.7733-6.0071c.1007-.1269.2014-.2532.2944-.37l.1521-.191.1564.1872c1.8724,2.238,3.6756,4.3938,5.3361,6.3788l-.3.0119c1.6466-2.2967,3.18-4.436,4.5568-6.3565l.1337-.1863.13.1863c1.8049,2.5781,3.3381,4.7678,4.4859,6.407l-.163-.0049,1.9405-2.3264.52-.6014A1.0438,1.0438,0,0,1,700.751,432.8837Z" transform="translate(-23.8228 -29.8349)"/><path class="cls-5" d="M701.7911,424.5732c0,.11-8.0232.1994-17.918.1994-9.8984,0-17.92-.0893-17.92-.1994s8.0215-.1993,17.92-.1993C693.7679,424.3739,701.7911,424.4632,701.7911,424.5732Z" transform="translate(-23.8228 -29.8349)"/><path class="cls-5" d="M703.4088,451.7005c0,.11-8.72.1994-19.4735.1994-10.7576,0-19.4754-.0892-19.4754-.1994s8.7178-.1992,19.4754-.1992C694.6892,451.5013,703.4088,451.5906,703.4088,451.7005Z" transform="translate(-23.8228 -29.8349)"/></g><g id="Device"><path class="cls-6" d="M85.32,74.26H596.2067a6.74,6.74,0,0,1,6.74,6.74V407.1188a14.5674,14.5674,0,0,1-14.5674,14.5674H92.1365a14.5674,14.5674,0,0,1-14.5674-14.5674V82.0107A7.7511,7.7511,0,0,1,85.32,74.26Z"/><path class="cls-6" d="M55.5986,395.9911H624.8051a0,0,0,0,1,0,0v16.6775A13.7215,13.7215,0,0,1,611.0836,426.39H69.32a13.7214,13.7214,0,0,1-13.7214-13.7214V395.9911a0,0,0,0,1,0,0Z"/><rect class="cls-2" x="91.6714" y="88.0635" width="495.7028" height="293.3956"/><polygon class="cls-7" points="288.466 395.991 295.53 407.226 394.92 407.226 401.479 395.991 288.466 395.991"/><rect class="cls-7" x="106.3794" y="105.0616" width="467.4836" height="276.3975"/><path class="cls-2" d="M166.0692,403.183c-.2422,0-.4386-58.8677-.4386-131.4678,0-72.6255.1964-131.48.4386-131.48s.4385,58.855.4385,131.48C166.5077,344.3153,166.3114,403.183,166.0692,403.183Z" transform="translate(-23.8228 -29.8349)"/><path class="cls-2" d="M156.6394,164.0691c0,.2424-3.4.4386-7.5936.4386s-7.5942-.1962-7.5942-.4386,3.3995-.4384,7.5942-.4384S156.6394,163.8271,156.6394,164.0691Z" transform="translate(-23.8228 -29.8349)"/><path class="cls-2" d="M157.2242,149.1489c0,.2422-3.4.4386-7.5936.4386s-7.5944-.1964-7.5944-.4386,3.3995-.4384,7.5944-.4384S157.2242,148.9069,157.2242,149.1489Z" transform="translate(-23.8228 -29.8349)"/><path class="cls-2" d="M156.6394,180.1516c0,.2422-3.4.4386-7.5936.4386s-7.5942-.1964-7.5942-.4386,3.3995-.4386,7.5942-.4386S156.6394,179.9094,156.6394,180.1516Z" transform="translate(-23.8228 -29.8349)"/><path class="cls-2" d="M156.6394,196.2339c0,.2424-3.4.4388-7.5936.4388s-7.5942-.1964-7.5942-.4388,3.3995-.4384,7.5942-.4384S156.6394,195.9919,156.6394,196.2339Z" transform="translate(-23.8228 -29.8349)"/><path class="cls-2" d="M156.6394,212.3164c0,.2424-3.4.4386-7.5936.4386s-7.5942-.1962-7.5942-.4386,3.3995-.4385,7.5942-.4385S156.6394,212.0743,156.6394,212.3164Z" transform="translate(-23.8228 -29.8349)"/><path class="cls-2" d="M156.6394,228.3989c0,.2422-3.4.4386-7.5936.4386s-7.5942-.1964-7.5942-.4386,3.3995-.4385,7.5942-.4385S156.6394,228.1568,156.6394,228.3989Z" transform="translate(-23.8228 -29.8349)"/><path class="cls-2" d="M156.6394,244.4813c0,.2423-3.4.4386-7.5936.4386s-7.5942-.1963-7.5942-.4386,3.3995-.4384,7.5942-.4384S156.6394,244.2393,156.6394,244.4813Z" transform="translate(-23.8228 -29.8349)"/><path class="cls-2" d="M156.6394,260.5638c0,.2422-3.4.4386-7.5936.4386s-7.5942-.1964-7.5942-.4386,3.3995-.4386,7.5942-.4386S156.6394,260.3216,156.6394,260.5638Z" transform="translate(-23.8228 -29.8349)"/><path class="cls-2" d="M156.6394,276.6461c0,.2424-3.4.4386-7.5936.4386s-7.5942-.1962-7.5942-.4386,3.3995-.4384,7.5942-.4384S156.6394,276.4041,156.6394,276.6461Z" transform="translate(-23.8228 -29.8349)"/><path class="cls-2" d="M156.6394,292.7286c0,.2424-3.4.4386-7.5936.4386s-7.5942-.1962-7.5942-.4386,3.3995-.4386,7.5942-.4386S156.6394,292.4866,156.6394,292.7286Z" transform="translate(-23.8228 -29.8349)"/><path class="cls-2" d="M156.6394,308.8111c0,.2422-3.4.4384-7.5936.4384s-7.5942-.1962-7.5942-.4384,3.3995-.4386,7.5942-.4386S156.6394,308.5689,156.6394,308.8111Z" transform="translate(-23.8228 -29.8349)"/><path class="cls-2" d="M156.6394,324.8935c0,.2422-3.4.4385-7.5936.4385s-7.5942-.1963-7.5942-.4385,3.3995-.4384,7.5942-.4384S156.6394,324.6513,156.6394,324.8935Z" transform="translate(-23.8228 -29.8349)"/><path class="cls-2" d="M156.6394,340.9758c0,.2424-3.4.4387-7.5936.4387s-7.5942-.1963-7.5942-.4387,3.3995-.4384,7.5942-.4384S156.6394,340.7338,156.6394,340.9758Z" transform="translate(-23.8228 -29.8349)"/><path class="cls-2" d="M156.6394,357.0583c0,.2424-3.4.4386-7.5936.4386s-7.5942-.1962-7.5942-.4386,3.3995-.4384,7.5942-.4384S156.6394,356.8163,156.6394,357.0583Z" transform="translate(-23.8228 -29.8349)"/><path class="cls-2" d="M156.6394,373.1408c0,.2422-3.4.4386-7.5936.4386s-7.5942-.1964-7.5942-.4386,3.3995-.4386,7.5942-.4386S156.6394,372.8986,156.6394,373.1408Z" transform="translate(-23.8228 -29.8349)"/><path class="cls-2" d="M156.6394,389.2231c0,.2424-3.4.4388-7.5936.4388s-7.5942-.1964-7.5942-.4388,3.3995-.4384,7.5942-.4384S156.6394,388.9811,156.6394,389.2231Z" transform="translate(-23.8228 -29.8349)"/><path class="cls-8" d="M217.5135,163.1209c0,.2422-8.8241.4386-19.7066.4386-10.8863,0-19.7085-.1964-19.7085-.4386s8.8222-.4386,19.7085-.4386C208.6894,162.6823,217.5135,162.8787,217.5135,163.1209Z" transform="translate(-23.8228 -29.8349)"/><path class="cls-8" d="M217.5135,389.2231c0,.2424-8.8241.4388-19.7066.4388-10.8863,0-19.7085-.1964-19.7085-.4388s8.8222-.4384,19.7085-.4384C208.6894,388.7847,217.5135,388.9811,217.5135,389.2231Z" transform="translate(-23.8228 -29.8349)"/><path class="cls-8" d="M272.4039,196.2339c0,.2424-16.51.4388-36.871.4388-20.3684,0-36.8747-.1964-36.8747-.4388s16.5063-.4384,36.8747-.4384C255.8941,195.7955,272.4039,195.9919,272.4039,196.2339Z" transform="translate(-23.8228 -29.8349)"/><path class="cls-2" d="M357.6762,196.2339c0,.2424-16.51.4388-36.8711.4388-20.3682,0-36.8745-.1964-36.8745-.4388s16.5063-.4384,36.8745-.4384C341.1663,195.7955,357.6762,195.9919,357.6762,196.2339Z" transform="translate(-23.8228 -29.8349)"/><path class="cls-2" d="M325.086,212.3164c0,.2424-24.3309.4386-54.3378.4386-30.0174,0-54.3431-.1962-54.3431-.4386s24.3257-.4385,54.3431-.4385C300.7551,211.8779,325.086,212.0743,325.086,212.3164Z" transform="translate(-23.8228 -29.8349)"/><path class="cls-2" d="M325.086,228.3989c0,.2422-24.3309.4386-54.3378.4386-30.0174,0-54.3431-.1964-54.3431-.4386s24.3257-.4385,54.3431-.4385C300.7551,227.96,325.086,228.1568,325.086,228.3989Z" transform="translate(-23.8228 -29.8349)"/><path class="cls-2" d="M399.8955,276.6461c0,.2424-24.3309.4386-54.3377.4386-30.0173,0-54.3431-.1962-54.3431-.4386s24.3258-.4384,54.3431-.4384C375.5646,276.2077,399.8955,276.4041,399.8955,276.6461Z" transform="translate(-23.8228 -29.8349)"/><path class="cls-2" d="M367.6136,244.4813c0,.2423-24.3309.4386-54.3377.4386-30.0173,0-54.343-.1963-54.343-.4386s24.3257-.4384,54.343-.4384C343.2827,244.0429,367.6136,244.2393,367.6136,244.4813Z" transform="translate(-23.8228 -29.8349)"/><path class="cls-2" d="M500.4234,244.4813c0,.2423-24.331.4386-54.3379.4386-30.0172,0-54.3429-.1963-54.3429-.4386s24.3257-.4384,54.3429-.4384C476.0924,244.0429,500.4234,244.2393,500.4234,244.4813Z" transform="translate(-23.8228 -29.8349)"/><path class="cls-9" d="M454.2359,212.3164c0,.2424-24.3309.4386-54.3377.4386-30.0173,0-54.3431-.1962-54.3431-.4386s24.3258-.4385,54.3431-.4385C429.905,211.8779,454.2359,212.0743,454.2359,212.3164Z" transform="translate(-23.8228 -29.8349)"/><path class="cls-9" d="M529.3082,276.6461c0,.2424-24.3309.4386-54.3377.4386-30.0174,0-54.3431-.1962-54.3431-.4386s24.3257-.4384,54.3431-.4384C504.9773,276.2077,529.3082,276.4041,529.3082,276.6461Z" transform="translate(-23.8228 -29.8349)"/><path class="cls-6" d="M514.3169,228.3989c0,.2422-37.7816.4386-84.3768.4386-46.6115,0-84.385-.1964-84.385-.4386s37.7735-.4385,84.385-.4385C476.5353,227.96,514.3169,228.1568,514.3169,228.3989Z" transform="translate(-23.8228 -29.8349)"/><path class="cls-9" d="M217.5135,180.1516c0,.2422-8.8241.4386-19.7066.4386-10.8863,0-19.7085-.1964-19.7085-.4386s8.8222-.4386,19.7085-.4386C208.6894,179.713,217.5135,179.9094,217.5135,180.1516Z" transform="translate(-23.8228 -29.8349)"/><path class="cls-9" d="M217.5135,373.1408c0,.2422-8.8241.4386-19.7066.4386-10.8863,0-19.7085-.1964-19.7085-.4386s8.8222-.4386,19.7085-.4386C208.6894,372.7022,217.5135,372.8986,217.5135,373.1408Z" transform="translate(-23.8228 -29.8349)"/><path class="cls-9" d="M237.04,244.4813c0,.2423-8.8241.4386-19.7066.4386-10.8863,0-19.7084-.1963-19.7084-.4386s8.8221-.4384,19.7084-.4384C228.2155,244.0429,237.04,244.2393,237.04,244.4813Z" transform="translate(-23.8228 -29.8349)"/><path class="cls-8" d="M552.9339,244.4813c0,.2423-8.824.4386-19.7064.4386-10.8863,0-19.7086-.1963-19.7086-.4386s8.8223-.4384,19.7086-.4384C544.11,244.0429,552.9339,244.2393,552.9339,244.4813Z" transform="translate(-23.8228 -29.8349)"/><path class="cls-8" d="M272.4039,308.7165c0,.2422-16.51.4385-36.871.4385-20.3684,0-36.8747-.1963-36.8747-.4385s16.5063-.4386,36.8747-.4386C255.8941,308.2779,272.4039,308.4743,272.4039,308.7165Z" transform="translate(-23.8228 -29.8349)"/><path class="cls-2" d="M357.6762,308.7165c0,.2422-16.51.4385-36.8711.4385-20.3682,0-36.8745-.1963-36.8745-.4385s16.5063-.4386,36.8745-.4386C341.1663,308.2779,357.6762,308.4743,357.6762,308.7165Z" transform="translate(-23.8228 -29.8349)"/><path class="cls-2" d="M325.086,324.7988c0,.2424-24.3309.4388-54.3378.4388-30.0174,0-54.3431-.1964-54.3431-.4388s24.3257-.4386,54.3431-.4386C300.7551,324.36,325.086,324.5568,325.086,324.7988Z" transform="translate(-23.8228 -29.8349)"/><path class="cls-2" d="M325.086,340.8813c0,.2422-24.3309.4386-54.3378.4386-30.0174,0-54.3431-.1964-54.3431-.4386s24.3257-.4386,54.3431-.4386C300.7551,340.4427,325.086,340.6391,325.086,340.8813Z" transform="translate(-23.8228 -29.8349)"/><path class="cls-2" d="M367.6136,356.9636c0,.2424-24.3309.4386-54.3377.4386-30.0173,0-54.343-.1962-54.343-.4386s24.3257-.4384,54.343-.4384C343.2827,356.5252,367.6136,356.7216,367.6136,356.9636Z" transform="translate(-23.8228 -29.8349)"/><path class="cls-2" d="M500.4234,356.9636c0,.2424-24.331.4386-54.3379.4386-30.0172,0-54.3429-.1962-54.3429-.4386s24.3257-.4384,54.3429-.4384C476.0924,356.5252,500.4234,356.7216,500.4234,356.9636Z" transform="translate(-23.8228 -29.8349)"/><path class="cls-9" d="M454.2359,324.7988c0,.2424-24.3309.4388-54.3377.4388-30.0173,0-54.3431-.1964-54.3431-.4388s24.3258-.4386,54.3431-.4386C429.905,324.36,454.2359,324.5568,454.2359,324.7988Z" transform="translate(-23.8228 -29.8349)"/><path class="cls-6" d="M514.3169,340.8813c0,.2422-37.7816.4386-84.3768.4386-46.6115,0-84.385-.1964-84.385-.4386s37.7735-.4386,84.385-.4386C476.5353,340.4427,514.3169,340.6391,514.3169,340.8813Z" transform="translate(-23.8228 -29.8349)"/><path class="cls-9" d="M237.04,356.9636c0,.2424-8.8241.4386-19.7066.4386-10.8863,0-19.7084-.1962-19.7084-.4386s8.8221-.4384,19.7084-.4384C228.2155,356.5252,237.04,356.7216,237.04,356.9636Z" transform="translate(-23.8228 -29.8349)"/><path class="cls-8" d="M552.9339,356.9636c0,.2424-8.824.4386-19.7064.4386-10.8863,0-19.7086-.1962-19.7086-.4386s8.8223-.4384,19.7086-.4384C544.11,356.5252,552.9339,356.7216,552.9339,356.9636Z" transform="translate(-23.8228 -29.8349)"/><path class="cls-7" d="M563.4373,435.9787c0,.1439-100.64.26-224.7569.26-124.16,0-224.7785-.1165-224.7785-.26s100.6185-.26,224.7785-.26C462.7974,435.7184,563.4373,435.835,563.4373,435.9787Z" transform="translate(-23.8228 -29.8349)"/></g><g id="Plant"><path class="cls-8" d="M97.072,347.8254a57.0887,57.0887,0,0,0-54.45-14.9442,99.1709,99.1709,0,0,0,55.0941,17.2134" transform="translate(-23.8228 -29.8349)"/><path class="cls-8" d="M78.6039,282.4259c2.2688-16.0449-3.9667-34.095-15.98-45.7576-.3967,15.9018,6.3168,33.7962,15.98,45.7576" transform="translate(-23.8228 -29.8349)"/><path class="cls-8" d="M88.21,312.7362a85.68,85.68,0,0,0-39.349-37.6047,54.07,54.07,0,0,0,39.4961,37.7753" transform="translate(-23.8228 -29.8349)"/><path class="cls-8" d="M90.2,318.584c-9.6912.2721-19.4985-.0689-28.8709-2.5488S42.98,308.7888,36.7436,301.366a96.4725,96.4725,0,0,1,53.3112,16.275" transform="translate(-23.8228 -29.8349)"/><path class="cls-8" d="M85.2806,299.3206c4.9191-18.4362,13.0353-31.19,27.5264-41.5218a38.3447,38.3447,0,0,1-27.5264,41.5218" transform="translate(-23.8228 -29.8349)"/><path class="cls-8" d="M121.8617,331.1158a27.2969,27.2969,0,0,0-16.579-25.2767c.8054,9.5209,8.2841,20.5344,16.579,25.2767" transform="translate(-23.8228 -29.8349)"/><path class="cls-8" d="M126.4923,315.5713a40.665,40.665,0,0,1,26.6391-34.6869c-3.3472,15.4065-12.2551,28.2318-26.6391,34.6869" transform="translate(-23.8228 -29.8349)"/><path class="cls-8" d="M119.5147,343.1571c3.4177-4.889,8.9944-7.9293,14.7653-9.439s11.8-1.6433,17.7636-1.7682a41.5281,41.5281,0,0,1-32.0753,13.359" transform="translate(-23.8228 -29.8349)"/><path class="cls-8" d="M112.5879,382.455a45.5029,45.5029,0,0,1,55.5658,26.3223c-20.185-3.8308-40.1023-12.7951-55.5658-26.3223" transform="translate(-23.8228 -29.8349)"/><path class="cls-8" d="M90.4351,368.7973c3.3531,9.9118,2.7091,21.8915-4.7444,30.434a36.3644,36.3644,0,0,1,4.7444-30.434" transform="translate(-23.8228 -29.8349)"/><path class="cls-8" d="M77.3427,363.2919a37.2861,37.2861,0,0,1-20.5944,30.2558,2.318,2.318,0,0,1-1.821.2993c-.9081-.37-.9911-1.6095-.879-2.5839,1.46-12.6981,10.8678-24.9788,23.2944-27.9712" transform="translate(-23.8228 -29.8349)"/><path class="cls-8" d="M68.79,362.0041a30.5779,30.5779,0,0,1-44.67.2283c14.1994-1.5541,30.5824-2.59,44.67-.2283" transform="translate(-23.8228 -29.8349)"/><path class="cls-7" d="M66.664,248.4937a2.5844,2.5844,0,0,0,.13.4161l.4327,1.2008,1.7129,4.5978c.7644,1.9884,1.6454,4.4414,2.6666,7.29q.771,2.1363,1.6448,4.5586.8406,2.4339,1.7734,5.136c2.5156,7.19,5.3085,15.82,8.3241,25.4283,2.9607,9.6258,6.0706,20.2527,9.13,31.4641,3.0183,11.2268,5.6939,21.9736,7.9713,31.7849,2.2128,9.825,4.1161,18.6947,5.4906,26.1865q.5293,2.8055,1.0073,5.3387l.8117,4.7772c.5144,2.9816.9546,5.55,1.2506,7.66.32,2.0834.57,3.7117.7445,4.8486.0878.5333.1565.9506.2072,1.2594a2.5913,2.5913,0,0,0,.0891.4267,2.5656,2.5656,0,0,0-.034-.434c-.0377-.3106-.0887-.73-.1539-1.2667-.151-1.1407-.3672-2.7745-.6439-4.8649-.264-2.1152-.674-4.69-1.16-7.678l-.7711-4.7874q-.46-2.535-.97-5.3492c-1.3272-7.5061-3.1928-16.39-5.38-26.228-2.2521-9.8236-4.9147-20.5815-7.9349-31.8153-3.0614-11.2183-6.1878-21.8475-9.1765-31.4708-3.0437-9.6056-5.8759-18.2283-8.4393-25.406l-1.8106-5.1258q-.8941-2.4127-1.685-4.5468c-1.0489-2.84-1.9591-5.283-2.7541-7.2607-.7772-1.96-1.3845-3.4926-1.8085-4.5624-.2046-.5-.3646-.8917-.4831-1.1813A2.5806,2.5806,0,0,0,66.664,248.4937Z" transform="translate(-23.8228 -29.8349)"/><path class="cls-7" d="M144.656,289.109a1.5453,1.5453,0,0,0-.2449.2307l-.6789.7139c-.5928.6313-1.4525,1.5765-2.5246,2.8245a99.4725,99.4725,0,0,0-8.36,11.1467,74.8566,74.8566,0,0,0-8.7416,18.7015c-2.3422,7.4447-3.7957,15.9065-5.2432,24.7506-2.8872,17.7049-6.43,33.5615-8.9939,45.032-1.2926,5.7067-2.3412,10.3364-3.0753,13.5782-.3495,1.5775-.6237,2.8159-.8186,3.6961-.0829.4-.1488.7182-.2.9642a1.5557,1.5557,0,0,0-.05.3328,1.5387,1.5387,0,0,0,.104-.32c.0644-.2429.1474-.5569.2521-.952L107,406.1354l3.2437-13.5407c2.66-11.45,6.2653-27.3067,9.1555-45.0291,1.4475-8.8459,2.8824-17.2807,5.1854-24.6914a75.6869,75.6869,0,0,1,8.5877-18.6435,107.2271,107.2271,0,0,1,8.1972-11.2163c1.0454-1.2668,1.8786-2.2334,2.4446-2.8878l.6385-.75A1.5524,1.5524,0,0,0,144.656,289.109Z" transform="translate(-23.8228 -29.8349)"/><path class="cls-7" d="M64.5476,361.4011a1.8928,1.8928,0,0,0,.5115.0938l1.47.1624,1.0621.1043,1.2555.1887c.9009.1334,1.9289.2656,3.0483.5142l1.7626.3507q.9111.2307,1.8884.4783c1.3141.2967,2.672.7779,4.1195,1.2146a60.5463,60.5463,0,0,1,8.9906,3.9618,50.775,50.775,0,0,1,8.0611,5.5993,40.3932,40.3932,0,0,1,3.0929,2.969,32.2844,32.2844,0,0,1,2.4474,2.8235,29.5511,29.5511,0,0,1,1.8118,2.4972,18.5014,18.5014,0,0,1,1.2408,1.974c.3.5073.5489.9271.7532,1.2718a1.91,1.91,0,0,0,.2961.428,1.8562,1.8562,0,0,0-.1987-.4775c-.1805-.3593-.4-.7967-.6662-1.3255a16.3272,16.3272,0,0,0-1.17-2.0357,27.2967,27.2967,0,0,0-1.7627-2.5665,30.8258,30.8258,0,0,0-2.4226-2.8967,38.8646,38.8646,0,0,0-3.0934-3.0389,49.04,49.04,0,0,0-8.1264-5.6969,57.88,57.88,0,0,0-9.095-3.9612c-1.4646-.4281-2.8389-.8965-4.1681-1.1769q-.9874-.2332-1.91-.4512l-1.782-.3188c-1.1314-.2258-2.17-.3323-3.0792-.4377l-1.267-.145-1.071-.0575-1.4818-.0611A1.867,1.867,0,0,0,64.5476,361.4011Z" transform="translate(-23.8228 -29.8349)"/><path class="cls-7" d="M60.5039,289.4489a7.0924,7.0924,0,0,0,1.023.9856l2.9221,2.5347c2.4828,2.1224,5.9375,5.0262,9.7747,8.2077s7.3324,6.04,9.878,8.0865l3.032,2.4017a7.1,7.1,0,0,0,1.1578.8227,7.1918,7.1918,0,0,0-1.0257-.9876l-2.923-2.5354c-2.4829-2.1225-5.9362-5.0252-9.7726-8.2059s-7.3268-6.0352-9.8724-8.082l-3.0333-2.4028A7.1913,7.1913,0,0,0,60.5039,289.4489Z" transform="translate(-23.8228 -29.8349)"/><path class="cls-7" d="M57.0131,308.2316c-.0426.1439,7.4129,2.4734,16.65,5.2026,9.24,2.73,16.7631,4.826,16.8057,4.6822s-7.4115-2.4728-16.6519-5.2029C64.58,310.1843,57.0555,308.088,57.0131,308.2316Z" transform="translate(-23.8228 -29.8349)"/><path class="cls-7" d="M84.542,300.7541a6.146,6.146,0,0,0,.77-1.0707c.5247-.8,1.1829-1.8021,1.9654-2.9943,1.6667-2.5218,4.0335-5.9621,6.8314-9.6256,2.8023-3.662,5.4983-6.8517,7.4856-9.13.94-1.0727,1.73-1.9748,2.3605-2.6941a6.1679,6.1679,0,0,0,.8246-1.0286,6.1327,6.1327,0,0,0-.9786.8838c-.6067.5919-1.4594,1.4731-2.4919,2.5822-2.065,2.2177-4.8182,5.38-7.6317,9.0571-2.8089,3.6778-5.1353,7.1671-6.7233,9.7483-.7944,1.2907-1.416,2.3479-1.8228,3.0917A6.1478,6.1478,0,0,0,84.542,300.7541Z" transform="translate(-23.8228 -29.8349)"/><path class="cls-7" d="M110.4334,311.1789a24.568,24.568,0,0,0,1.749,2.8765c1.1143,1.7507,2.6252,4.1852,4.1906,6.9342,1.5637,2.7514,2.8846,5.2943,3.82,7.1467a24.61,24.61,0,0,0,1.5788,2.973,17.8579,17.8579,0,0,0-1.2322-3.1383c-.85-1.9009-2.1234-4.485-3.6948-7.25-1.5732-2.7626-3.1437-5.1774-4.3434-6.8791A17.88,17.88,0,0,0,110.4334,311.1789Z" transform="translate(-23.8228 -29.8349)"/><path class="cls-7" d="M119.2916,343.6705c.0388.0739,1.46-.6216,3.7887-1.6689s5.578-2.4174,9.2509-3.7054c3.6757-1.284,7.0705-2.2413,9.5439-2.8729,2.4732-.6334,4.018-.9762,4.0022-1.0581a4.4126,4.4126,0,0,0-1.11.1158c-.709.1061-1.7282.2984-2.9809.5687a83.24,83.24,0,0,0-18.87,6.6046c-1.1479.57-2.0646,1.0553-2.685,1.4145A4.4165,4.4165,0,0,0,119.2916,343.6705Z" transform="translate(-23.8228 -29.8349)"/><path class="cls-7" d="M112.3178,382.5144a1.64,1.64,0,0,0,.46.1557l1.3421.342,4.9589,1.1444a163.4666,163.4666,0,0,1,16.1951,4.2746,71.8931,71.8931,0,0,1,15.11,7.0985c1.8057,1.15,3.2134,2.1659,4.1626,2.898a14.6219,14.6219,0,0,0,1.5013,1.11c.0122-.0142-.1028-.135-.3335-.3525-.2343-.2129-.5689-.5414-1.0355-.9221a43.6273,43.6273,0,0,0-4.0858-3.0551,66.275,66.275,0,0,0-15.1425-7.29,135.4213,135.4213,0,0,0-16.2911-4.1363l-4.9952-.9757A12.48,12.48,0,0,0,112.3178,382.5144Z" transform="translate(-23.8228 -29.8349)"/><path class="cls-7" d="M87.0994,392.0887c.1483.0217,1.0362-5.2078,1.9827-11.6788.9468-6.4734,1.5939-11.7369,1.4455-11.7586s-1.0358,5.2066-1.9827,11.68C87.5982,386.8023,86.951,392.067,87.0994,392.0887Z" transform="translate(-23.8228 -29.8349)"/><path class="cls-7" d="M60.844,382.5553a27.4174,27.4174,0,0,0,2.3658-2.81c1.4193-1.7663,3.3852-4.2,5.6074-6.8458,2.2241-2.6454,4.2833-5.0014,5.7788-6.7036a27.4152,27.4152,0,0,0,2.36-2.8143,3.5023,3.5023,0,0,0-.7521.6442c-.46.4386-1.1062,1.0909-1.8914,1.9108-1.5706,1.6388-3.6813,3.961-5.9114,6.6137-2.2281,2.6527-4.152,5.1313-5.4959,6.9608-.6723.9146-1.2036,1.664-1.5565,2.1922A3.4892,3.4892,0,0,0,60.844,382.5553Z" transform="translate(-23.8228 -29.8349)"/><polygon class="cls-8" points="106.504 377.071 106.504 390.045 103.26 390.045 91.729 426.443 66.155 426.443 54.984 390.405 50.659 390.045 50.659 377.071 106.504 377.071"/><g class="cls-3"><polygon points="106.504 377.071 106.504 390.045 103.26 390.045 91.729 426.443 66.155 426.443 54.984 390.405 50.659 390.045 50.659 377.071 106.504 377.071"/></g><path class="cls-7" d="M76.6445,420.24c0,.15,11.292.2714,25.2182.2714,13.931,0,25.2206-.1215,25.2206-.2714s-11.29-.2715-25.2206-.2715C87.9365,419.9686,76.6445,420.09,76.6445,420.24Z" transform="translate(-23.8228 -29.8349)"/><path class="cls-7" d="M58.2518,336.79a10.1361,10.1361,0,0,0,1.6388.443c1.152.2776,2.6639.642,4.4889,1.082,3.783.9368,8.9776,2.3593,14.6131,4.2512,5.6353,1.8988,10.6343,3.9046,14.2146,5.4443l4.23,1.8505a10.1659,10.1659,0,0,0,1.5732.6373,10.1518,10.1518,0,0,0-1.4822-.8281c-.9683-.5056-2.3906-1.1955-4.1657-2.0108a147.5333,147.5333,0,0,0-28.8949-9.7181c-1.9069-.4232-3.4571-.7331-4.5343-.9152A10.1545,10.1545,0,0,0,58.2518,336.79Z" transform="translate(-23.8228 -29.8349)"/><path class="cls-9" d="M85.1347,440.4523c0,.15,7.9225.2715,17.693.2715,9.774,0,17.6946-.1216,17.6946-.2715s-7.9206-.2714-17.6946-.2714C93.0572,440.1809,85.1347,440.3024,85.1347,440.4523Z" transform="translate(-23.8228 -29.8349)"/><path class="cls-9" d="M84.14,437.4434c0,.15,8.3958.2715,18.75.2715,10.358,0,18.752-.1216,18.752-.2715s-8.394-.2715-18.752-.2715C92.5356,437.1719,84.14,437.2935,84.14,437.4434Z" transform="translate(-23.8228 -29.8349)"/></g><g id="Floor"><path class="cls-7" d="M709.457,456.4847c0,.1439-152.44.2605-340.4407.2605-188.0659,0-340.4733-.1166-340.4733-.2605s152.4074-.26,340.4733-.26C557.017,456.2244,709.457,456.341,709.457,456.4847Z" transform="translate(-23.8228 -29.8349)"/></g><g id="Speech_Bubbles" data-name="Speech Bubbles"><polygon class="cls-9" points="592.214 46.29 324.228 46.29 324.228 212.256 549.828 212.256 563.794 244.389 576.177 212.256 592.214 212.256 592.214 46.29"/><path class="cls-7" d="M616.0365,76.1249c.0019,1.6093.0771,63.96.2,165.9663l0,.2h-.2005L600,242.2989l.1935-.1328-12.37,32.1375-.1939.5039-.2154-.4952-13.9771-32.1282.2132.14-204.0155.0278-21.5838,0h-.26v-.26c.0081-59.1482.0159-115.2825.0229-165.9662v-.2376l.2373,0,267.9855.2372-267.9855.2372.2371-.2371c.007,50.6837.0147,106.818.0229,165.9662l-.26-.26,21.5838,0,204.0155.0279h.1526l.0608.14c4.8547,11.1789,9.5833,22.0675,13.9562,32.1372l-.4092.0087c4.3231-11.2056,8.51-22.0593,12.395-32.1279l.0513-.1331H600l16.0368.0074-.2.2C615.9593,140.0849,616.0345,77.733,616.0365,76.1249Z" transform="translate(-23.8228 -29.8349)"/><path class="cls-7" d="M615.8975,92.32c0,.2022-59.8739.366-133.715.366-73.8669,0-133.7279-.1638-133.7279-.366s59.861-.366,133.7279-.366C556.0236,91.954,615.8975,92.118,615.8975,92.32Z" transform="translate(-23.8228 -29.8349)"/><path class="cls-7" d="M362.2938,84.9887a2.1964,2.1964,0,1,1-2.1963-2.1962A2.1963,2.1963,0,0,1,362.2938,84.9887Z" transform="translate(-23.8228 -29.8349)"/><path class="cls-7" d="M370.2424,84.9887a2.1964,2.1964,0,1,1-2.1963-2.1962A2.1963,2.1963,0,0,1,370.2424,84.9887Z" transform="translate(-23.8228 -29.8349)"/><path class="cls-7" d="M378.1909,84.9887a2.1963,2.1963,0,1,1-2.1963-2.1962A2.1963,2.1963,0,0,1,378.1909,84.9887Z" transform="translate(-23.8228 -29.8349)"/><path class="cls-7" d="M377.28,122.01l-6.3647,2.4556,6.3647,2.4568V128.41l-8.0325-3.1734v-1.5414l8.0325-3.1734Z" transform="translate(-23.8228 -29.8349)"/><path class="cls-7" d="M383.9016,115.6453h1.5593l-5.9159,16.8883h-1.5606Z" transform="translate(-23.8228 -29.8349)"/><path class="cls-7" d="M394.034,123.6955v1.5414l-8.0323,3.1734v-1.4879l6.3825-2.4568-6.3825-2.4556v-1.4879Z" transform="translate(-23.8228 -29.8349)"/><path class="cls-7" d="M396.064,129.6113a1.198,1.198,0,0,1,1.2189-1.2188,1.18,1.18,0,0,1,1.1832,1.2188,1.1957,1.1957,0,0,1-1.1832,1.2382A1.2137,1.2137,0,0,1,396.064,129.6113Z" transform="translate(-23.8228 -29.8349)"/><path class="cls-7" d="M400.1366,129.6113a1.1979,1.1979,0,0,1,1.2188-1.2188,1.18,1.18,0,0,1,1.1832,1.2188,1.1956,1.1956,0,0,1-1.1832,1.2382A1.2136,1.2136,0,0,1,400.1366,129.6113Z" transform="translate(-23.8228 -29.8349)"/><path class="cls-7" d="M404.2077,129.6113a1.198,1.198,0,0,1,1.2188-1.2188,1.18,1.18,0,0,1,1.1832,1.2188,1.1958,1.1958,0,0,1-1.1832,1.2382A1.2137,1.2137,0,0,1,404.2077,129.6113Z" transform="translate(-23.8228 -29.8349)"/><path class="cls-6" d="M546.5046,145.707c0,.2021-39.6156.366-88.4725.366-48.8739,0-88.481-.1639-88.481-.366s39.6071-.366,88.481-.366C506.889,145.341,546.5046,145.5049,546.5046,145.707Z" transform="translate(-23.8228 -29.8349)"/><path class="cls-7" d="M575.4029,146.23c0,.2023-3.8063.3662-8.5005.3662-4.6958,0-8.5013-.1639-8.5013-.3662s3.8055-.3658,8.5013-.3658C571.5966,145.8645,575.4029,146.0283,575.4029,146.23Z" transform="translate(-23.8228 -29.8349)"/><path class="cls-7" d="M600.2516,146.23c0,.2023-4.1576.3662-9.2851.3662-5.1293,0-9.286-.1639-9.286-.3662s4.1567-.3658,9.286-.3658C596.094,145.8645,600.2516,146.0283,600.2516,146.23Z" transform="translate(-23.8228 -29.8349)"/><path class="cls-6" d="M482.2282,160.6165c0,.2021-25.18.366-56.2338.366-31.0646,0-56.2392-.1639-56.2392-.366s25.1746-.366,56.2392-.366C457.0483,160.2505,482.2282,160.4143,482.2282,160.6165Z" transform="translate(-23.8228 -29.8349)"/><path class="cls-6" d="M481.4243,216.2489c0,.2021-25.18.366-56.2338.366-31.0647,0-56.2393-.1639-56.2393-.366s25.1746-.366,56.2393-.366C456.2443,215.8829,481.4243,216.0467,481.4243,216.2489Z" transform="translate(-23.8228 -29.8349)"/><path class="cls-7" d="M523.09,160.6165c0,.2021-6.8512.366-15.3007.366-8.4526,0-15.3024-.1639-15.3024-.366s6.85-.366,15.3024-.366C516.2386,160.2505,523.09,160.4143,523.09,160.6165Z" transform="translate(-23.8228 -29.8349)"/><path class="cls-7" d="M522.77,216.2489c0,.2021-6.8514.366-15.3009.366-8.4524,0-15.3023-.1639-15.3023-.366s6.85-.366,15.3023-.366C515.9183,215.8829,522.77,216.0467,522.77,216.2489Z" transform="translate(-23.8228 -29.8349)"/><path class="cls-8" d="M377.1365,168.2018c0,.2021-1.6982.366-3.7926.366s-3.7928-.1639-3.7928-.366,1.6979-.366,3.7928-.366S377.1365,168,377.1365,168.2018Z" transform="translate(-23.8228 -29.8349)"/><path class="cls-7" d="M403.2931,168.3588c0,.2021-3.6892.366-8.2389.366-4.5514,0-8.24-.1639-8.24-.366s3.6884-.366,8.24-.366C399.6039,167.9928,403.2931,168.1567,403.2931,168.3588Z" transform="translate(-23.8228 -29.8349)"/><path class="cls-7" d="M420.0332,168.3588c0,.2021-3.1621.366-7.0619.366s-7.0627-.1639-7.0627-.366,3.1615-.366,7.0627-.366S420.0332,168.1567,420.0332,168.3588Z" transform="translate(-23.8228 -29.8349)"/><path class="cls-7" d="M441.22,168.3588c0,.2021-3.2207.366-7.1928.366s-7.1933-.1639-7.1933-.366,3.22-.366,7.1933-.366S441.22,168.1567,441.22,168.3588Z" transform="translate(-23.8228 -29.8349)"/><path class="cls-7" d="M459.7911,168.3588c0,.2021-2.9278.366-6.5388.366s-6.5395-.1639-6.5395-.366,2.9273-.366,6.5395-.366S459.7911,168.1567,459.7911,168.3588Z" transform="translate(-23.8228 -29.8349)"/><path class="cls-7" d="M521.2589,168.3588c0,.2021-12.8827.366-28.7708.366-15.8936,0-28.7736-.1639-28.7736-.366s12.88-.366,28.7736-.366C508.3762,167.9928,521.2589,168.1567,521.2589,168.3588Z" transform="translate(-23.8228 -29.8349)"/><path class="cls-8" d="M376.09,177.88c0,.2021-1.4639.366-3.2693.366s-3.27-.1639-3.27-.366,1.4637-.366,3.27-.366S376.09,177.6776,376.09,177.88Z" transform="translate(-23.8228 -29.8349)"/><path class="cls-8" d="M376.3518,187.8192c0,.2023-1.5225.366-3.4.366s-3.4-.1637-3.4-.366,1.5222-.3658,3.4-.3658S376.3518,187.6172,376.3518,187.8192Z" transform="translate(-23.8228 -29.8349)"/><path class="cls-8" d="M376.3518,199.0665c0,.2022-1.5225.366-3.4.366s-3.4-.1638-3.4-.366,1.5222-.366,3.4-.366S376.3518,198.8644,376.3518,199.0665Z" transform="translate(-23.8228 -29.8349)"/><path class="cls-7" d="M438.3428,198.5434c0,.2021-11.36.366-25.3707.366-14.0152,0-25.373-.1639-25.373-.366s11.3578-.366,25.373-.366C426.9826,198.1774,438.3428,198.3413,438.3428,198.5434Z" transform="translate(-23.8228 -29.8349)"/><path class="cls-7" d="M433.8961,187.8192c0,.2023-10.8331.366-24.1935.366-13.3651,0-24.1959-.1637-24.1959-.366s10.8308-.3658,24.1959-.3658C423.063,187.4534,433.8961,187.6172,433.8961,187.8192Z" transform="translate(-23.8228 -29.8349)"/><path class="cls-7" d="M550.8157,177.3566c0,.2021-36.8914.366-82.389.366-45.5133,0-82.3969-.1639-82.3969-.366s36.8836-.366,82.3969-.366C513.9243,176.9906,550.8157,177.1545,550.8157,177.3566Z" transform="translate(-23.8228 -29.8349)"/><polygon class="cls-9" points="608.68 114.162 608.68 255.203 586.751 273.5 608.68 273.5 610.834 273.5 701.437 273.5 701.437 114.162 608.68 114.162"/><path class="cls-7" d="M632.5031,143.9964s.5425-.0137,1.6211-.0207l4.7962-.0216,18.4668-.0492L725.26,143.8l.1963,0v.1967c.0169,42.5715.0392,98.1731.0636,159.3381v.26h-.26l-16.083,0-98.6028-.0183h-.6685l.5134-.428,21.9374-18.2871-.0823.1757c.0478-42.168.0878-77.45.1158-102.2009.026-12.3452.0464-22.0619.06-28.7026.0118-3.3029.0208-5.8388.0269-7.56q.0086-1.27.013-1.9328c.0044-.4321.013-.6451.013-.6451s.0088.23.0131.671q.0045.6722.0131,1.9578c.0061,1.7307.0151,4.2816.0268,7.604.0139,6.6527.0343,16.3868.06,28.7544.028,24.7151.068,59.9464.1157,102.0537v.1071l-.0824.0689-21.9206,18.3072-.1551-.4279,98.6028-.0183,16.083,0-.26.26c.0244-61.165.0466-116.7666.0637-159.3381l.1961.1962-67.7522-.1047-18.5108-.0493-4.8323-.0215C633.0732,144.01,632.5031,143.9964,632.5031,143.9964Z" transform="translate(-23.8228 -29.8349)"/><path class="cls-7" d="M640.9272,151.0137a1.8794,1.8794,0,1,1-1.8793-1.8794A1.8793,1.8793,0,0,1,640.9272,151.0137Z" transform="translate(-23.8228 -29.8349)"/><path class="cls-7" d="M647.7288,151.0137a1.8794,1.8794,0,1,1-1.8793-1.8794A1.8794,1.8794,0,0,1,647.7288,151.0137Z" transform="translate(-23.8228 -29.8349)"/><path class="cls-7" d="M654.53,151.0137a1.8794,1.8794,0,1,1-1.8794-1.8794A1.8794,1.8794,0,0,1,654.53,151.0137Z" transform="translate(-23.8228 -29.8349)"/><path class="cls-8" d="M699.7641,194.47c0,.1661-11.7594.3006-26.2622.3006-14.5077,0-26.2647-.1345-26.2647-.3006s11.757-.3006,26.2647-.3006C688.0047,194.1694,699.7641,194.304,699.7641,194.47Z" transform="translate(-23.8228 -29.8349)"/><path class="cls-8" d="M710.7166,207.2279c0,.1661-14.3109.3008-31.96.3008-17.6556,0-31.9635-.1347-31.9635-.3008s14.3079-.3006,31.9635-.3006C696.4057,206.9273,710.7166,207.062,710.7166,207.2279Z" transform="translate(-23.8228 -29.8349)"/><path class="cls-8" d="M713.3191,254.8324c0,.1661-15.2591.3007-34.0777.3007-18.8251,0-34.0808-.1346-34.0808-.3007s15.2557-.3006,34.0808-.3006C698.06,254.5318,713.3191,254.6664,713.3191,254.8324Z" transform="translate(-23.8228 -29.8349)"/><path class="cls-8" d="M652.1646,213.7187a17.6633,17.6633,0,0,1-6.4907,0,17.6691,17.6691,0,0,1,6.4907,0Z" transform="translate(-23.8228 -29.8349)"/><path class="cls-8" d="M674.5467,213.853c0,.1661-3.1568.3007-7.05.3007s-7.0507-.1346-7.0507-.3007,3.1561-.3006,7.0507-.3006S674.5467,213.687,674.5467,213.853Z" transform="translate(-23.8228 -29.8349)"/><path class="cls-8" d="M688.8712,213.853c0,.1661-2.7058.3007-6.0429.3007s-6.0433-.1346-6.0433-.3007,2.7052-.3006,6.0433-.3006A30.6364,30.6364,0,0,1,688.8712,213.853Z" transform="translate(-23.8228 -29.8349)"/><path class="cls-8" d="M651.2694,222a13.1614,13.1614,0,0,1-5.5955,0,13.1742,13.1742,0,0,1,5.5955,0Z" transform="translate(-23.8228 -29.8349)"/><path class="cls-8" d="M651.4932,230.5053a14.2322,14.2322,0,0,1-5.8193,0,14.2276,14.2276,0,0,1,5.8193,0Z" transform="translate(-23.8228 -29.8349)"/><path class="cls-8" d="M651.4932,240.13a14.2322,14.2322,0,0,1-5.8193,0,14.2276,14.2276,0,0,1,5.8193,0Z" transform="translate(-23.8228 -29.8349)"/><path class="cls-8" d="M704.5387,239.6819c0,.1661-9.721.3007-21.71.3007-11.9927,0-21.7116-.1346-21.7116-.3007s9.7189-.3006,21.7116-.3006C694.8177,239.3813,704.5387,239.5159,704.5387,239.6819Z" transform="translate(-23.8228 -29.8349)"/><path class="cls-8" d="M700.7338,230.5053c0,.166-9.27.3006-20.7025.3006-11.4364,0-20.7044-.1346-20.7044-.3006s9.268-.3007,20.7044-.3007C691.4637,230.2046,700.7338,230.3392,700.7338,230.5053Z" transform="translate(-23.8228 -29.8349)"/><path class="cls-8" d="M655.7311,267.5409a14.2271,14.2271,0,0,1-5.8192,0,14.2318,14.2318,0,0,1,5.8192,0Z" transform="translate(-23.8228 -29.8349)"/><path class="cls-8" d="M655.7311,277.1652a14.2271,14.2271,0,0,1-5.8192,0,14.2318,14.2318,0,0,1,5.8192,0Z" transform="translate(-23.8228 -29.8349)"/><path class="cls-8" d="M708.7767,276.7176c0,.166-9.7211.3007-21.71.3007-11.9927,0-21.7116-.1347-21.7116-.3007s9.7189-.3007,21.7116-.3007C699.0556,276.4169,708.7767,276.5516,708.7767,276.7176Z" transform="translate(-23.8228 -29.8349)"/><path class="cls-8" d="M704.9717,267.5409c0,.1661-9.27.3007-20.7024.3007-11.4365,0-20.7045-.1346-20.7045-.3007s9.268-.3006,20.7045-.3006C695.7017,267.24,704.9717,267.3749,704.9717,267.5409Z" transform="translate(-23.8228 -29.8349)"/><path class="cls-8" d="M716.1288,221.5524c0,.1661-12.6163.3008-28.1758.3008-15.5648,0-28.1784-.1347-28.1784-.3008s12.6136-.3006,28.1784-.3006C703.5125,221.2518,716.1288,221.3865,716.1288,221.5524Z" transform="translate(-23.8228 -29.8349)"/><path class="cls-7" d="M724.3882,158.3774c0,.1661-20.3677.3006-45.4868.3006-25.1278,0-45.4912-.1345-45.4912-.3006s20.3634-.3006,45.4912-.3006C704.0205,158.0768,724.3882,158.2115,724.3882,158.3774Z" transform="translate(-23.8228 -29.8349)"/><path class="cls-8" d="M666.4262,186.7761c0,.166-4.3016.3006-9.6067.3006-5.3071,0-9.6078-.1346-9.6078-.3006s4.3007-.3007,9.6078-.3007C662.1246,186.4754,666.4262,186.61,666.4262,186.7761Z" transform="translate(-23.8228 -29.8349)"/><path class="cls-8" d="M655.55,169.3742a34.31,34.31,0,0,1-9.0635,0,34.31,34.31,0,0,1,9.0635,0Z" transform="translate(-23.8228 -29.8349)"/></g><g id="Character"><path class="cls-8" d="M575.2719,374.7606l20.1407-19.9134-35.9189-61.509a34.6779,34.6779,0,0,0-13.785-9.5884l-12.65-4.8079-31.4457-5.7686-22.3266,8.7921a13.3489,13.3489,0,0,0-8.3647,13.9954l5.84,49.1619,3.44,64.0135,81.13-14.0721-8.1633-23.6767.2745-36.9141Z" transform="translate(-23.8228 -29.8349)"/><path class="cls-7" d="M553.9132,369.816c.19-.0015.2388-12.79.11-28.5593-.129-15.7752-.3873-28.5581-.5768-28.5566s-.2386,12.7871-.11,28.5623C553.4654,357.0321,553.7239,369.8175,553.9132,369.816Z" transform="translate(-23.8228 -29.8349)"/><path class="cls-8" d="M550.9416,379.1992,501.92,359.4652a11.2016,11.2016,0,0,1-6.9858-9.5385l-3.5873-46.9993s.4242-19.9891-12.0606-20.962l-7.1032,2.7972c-9.18,4.8751-11.4539,18.2408-10.2043,28.5593,1.7754,14.6625,2.5155,35.4125,4.5024,48.1378,1.6254,10.4093,7.8765,18.644,17.7764,22.2479l60.3787,13.071Z" transform="translate(-23.8228 -29.8349)"/><path class="cls-7" d="M492.05,310.0967a6.7093,6.7093,0,0,1,.1544,1.0765q.117,1.1487.3149,3.0968c.2507,2.7545.6033,6.6325,1.0368,11.3978.4154,4.8335.9073,10.5589,1.4531,16.91q.2008,2.3877.411,4.8881a36.7834,36.7834,0,0,0,.6259,5.0291,8.3506,8.3506,0,0,0,2.4366,4.4045,16.5516,16.5516,0,0,0,4.5231,2.8144c13.5175,5.8491,25.9752,10.6788,35.0186,14.0657,4.4888,1.6538,8.1416,2.9993,10.7362,3.9552l2.9195,1.0765a6.7,6.7,0,0,1,1.004.4162,6.7757,6.7757,0,0,1-1.0471-.2911q-1.0983-.3566-2.9605-.9606c-2.5658-.85-6.2639-2.1241-10.8121-3.7609-9.096-3.28-21.5736-8.0377-35.1311-13.9045a17.1064,17.1064,0,0,1-4.6995-2.9374,8.9938,8.9938,0,0,1-2.6134-4.7323,36.8508,36.8508,0,0,1-.6243-5.1194q-.1986-2.5-.3889-4.8913c-.4932-6.3571-.938-12.0873-1.3135-16.9252-.3465-4.7729-.6284-8.6568-.8289-11.4157q-.1207-1.9544-.1922-3.1062A6.7425,6.7425,0,0,1,492.05,310.0967Z" transform="translate(-23.8228 -29.8349)"/><path class="cls-7" d="M463.9637,335.647a2.4083,2.4083,0,0,1,.0973.6309c.0439.49.0974,1.089.1623,1.8143.1459,1.6746.3422,3.9288.5812,6.6694.2685,2.8127.61,6.16,1.0983,9.8606a94.152,94.152,0,0,0,2.2135,11.9055,17.7721,17.7721,0,0,0,2.3925,5.6761,32.5825,32.5825,0,0,0,3.6619,4.4994,31.3413,31.3413,0,0,0,7.8444,5.8851,29.473,29.473,0,0,0,8.61,2.8186,2.3151,2.3151,0,0,1-.6377-.0147,13.5436,13.5436,0,0,1-1.8137-.2337,23.9587,23.9587,0,0,1-6.3693-2.157,30.7387,30.7387,0,0,1-8.0643-5.8742,32.4153,32.4153,0,0,1-3.7637-4.5638,18.2219,18.2219,0,0,1-2.4923-5.8613A88.7086,88.7086,0,0,1,465.3034,354.7c-.4569-3.7179-.7513-7.0769-.9611-9.8994-.2064-2.8231-.3159-5.111-.3739-6.6929-.0157-.7287-.0287-1.33-.0393-1.8225A2.2929,2.2929,0,0,1,463.9637,335.647Z" transform="translate(-23.8228 -29.8349)"/><path class="cls-7" d="M484.9261,368.5352a7.2,7.2,0,0,1,.8924-2.6125,16.8644,16.8644,0,0,1,9.9459-8.4942,7.2041,7.2041,0,0,1,2.72-.4726c.02.11-1.0093.3139-2.5676.9106a19.0689,19.0689,0,0,0-9.69,8.2753C485.3941,367.5874,485.0313,368.572,484.9261,368.5352Z" transform="translate(-23.8228 -29.8349)"/><g class="cls-3"><path d="M536.8543,373.597c-5.2419-2.9608-10.3707-5.2358-15.8513-7.7268s-10.8493-5.6879-14.4365-10.5229c-6.7652-9.1184-5.9948-22.2787-12.92-31.2767q.6785,9.0762,1.3566,18.1519c.4144,5.5456-.4353,11.029,3.1366,14.7978,3.0087,3.1746,8.8764,5.6091,13.03,6.9792,8.3475,2.7539,17.3364,6.8436,25.684,9.5975" transform="translate(-23.8228 -29.8349)"/></g><polygon class="cls-10" points="529.631 286.328 533.871 312.484 529.857 305.075 529.631 286.328"/><path class="cls-6" d="M490.5715,300.0243a4.798,4.798,0,0,1-1.1358.0872l-3.0918.0783c-2.61.0654-6.212.1973-10.1824.48-3.9715.2862-7.5564.6694-10.1485.9768l-3.0711.3634a4.7963,4.7963,0,0,1-1.1365.0756,4.7985,4.7985,0,0,1,1.1054-.2759c.7171-.1462,1.76-.3278,3.0527-.5279,2.5851-.4017,6.1762-.8443,10.1608-1.1314,3.9835-.284,7.6007-.3579,10.2166-.3291,1.3081.0137,2.3663.0448,3.097.0873A4.7976,4.7976,0,0,1,490.5715,300.0243Z" transform="translate(-23.8228 -29.8349)"/><path class="cls-6" d="M491.9656,325.0561c.0119.1434-6.4138.7917-14.35,1.4478-7.9392.6565-14.3827,1.0722-14.3946.9289s6.4125-.7914,14.3517-1.4479C485.5089,325.3287,491.9538,324.9128,491.9656,325.0561Z" transform="translate(-23.8228 -29.8349)"/><path class="cls-6" d="M494.3287,351.3709a5.0516,5.0516,0,0,1-1.0168.5815c-.6673.3491-1.6566.8074-2.8974,1.3311a60.1662,60.1662,0,0,1-20.4538,4.5789c-1.3457.0553-2.4358.0625-3.1882.0313a5.0456,5.0456,0,0,1-1.1675-.0925,5.0861,5.0861,0,0,1,1.1652-.11c.7494-.031,1.8331-.0943,3.1683-.1962a71.5828,71.5828,0,0,0,20.3393-4.5533c1.2513-.4771,2.2586-.8819,2.95-1.1734A5.077,5.077,0,0,1,494.3287,351.3709Z" transform="translate(-23.8228 -29.8349)"/><path class="cls-6" d="M511.7583,364.8665a19.5836,19.5836,0,0,0-8.2455,9.1342,4.8472,4.8472,0,0,1,.54-1.79,14.2974,14.2974,0,0,1,5.9792-6.6236A4.8515,4.8515,0,0,1,511.7583,364.8665Z" transform="translate(-23.8228 -29.8349)"/><path class="cls-6" d="M529.4883,382.1939a19.1849,19.1849,0,0,1,5.2374-9.5632c.1206.1-1.42,2.0113-2.8558,4.652C530.4185,379.9136,529.6377,382.2414,529.4883,382.1939Z" transform="translate(-23.8228 -29.8349)"/><path class="cls-6" d="M501.548,285.3032a96.6974,96.6974,0,0,1-13.9575,2.5232,96.7071,96.7071,0,0,1,13.9575-2.5232Z" transform="translate(-23.8228 -29.8349)"/><path class="cls-6" d="M548.4762,287.4389a178.8725,178.8725,0,0,1-19.1639-2.2744,178.9961,178.9961,0,0,1,19.1639,2.2744Z" transform="translate(-23.8228 -29.8349)"/><path class="cls-6" d="M552.4838,309.2645a2.7342,2.7342,0,0,1-.6142.04l-1.7593.0135-6.4676-.0082c-5.4606-.0046-13.0035.0414-21.3311.2536-8.33.2158-15.8664.5574-21.32.8425l-6.4583.34-1.7574.0768a2.7359,2.7359,0,0,1-.6154-.0086,2.7339,2.7339,0,0,1,.6077-.0961l1.7508-.1743c1.5212-.1426,3.7251-.3168,6.4505-.5058,5.45-.3793,12.9907-.7795,21.3283-.9955,8.3347-.2125,15.8848-.2,21.3476-.1012,2.7315.0487,4.9416.11,6.4683.1738l1.7577.0841A2.7347,2.7347,0,0,1,552.4838,309.2645Z" transform="translate(-23.8228 -29.8349)"/><path class="cls-6" d="M553.0584,336.9053c.0094.1435-12.8514,1.1071-28.7218,2.1519-15.8759,1.0452-28.7493,1.7759-28.7588,1.6324s12.8487-1.1068,28.7246-2.152C540.1728,337.4927,553.0489,336.7618,553.0584,336.9053Z" transform="translate(-23.8228 -29.8349)"/><path class="cls-6" d="M551.6919,361.2553a5.1133,5.1133,0,0,1-1.0821.4622c-.7071.2675-1.74.6257-3.0247,1.045-2.5684.84-6.1538,1.8922-10.164,2.8578-4.0123.963-7.6846,1.6553-10.3541,2.0747-1.3347.21-2.4177.3609-3.169.444a5.1029,5.1029,0,0,1-1.1738.08,5.1269,5.1269,0,0,1,1.1424-.28l3.1365-.6064c2.6476-.5112,6.2964-1.2583,10.2963-2.2183,3.9978-.9627,7.5871-1.9555,10.1778-2.7036l3.07-.8856A5.1122,5.1122,0,0,1,551.6919,361.2553Z" transform="translate(-23.8228 -29.8349)"/><path class="cls-6" d="M572.2609,317.1159a181.2347,181.2347,0,0,1-18.8073,4.8629,181.3414,181.3414,0,0,1,18.8073-4.8629Z" transform="translate(-23.8228 -29.8349)"/><path class="cls-6" d="M562.4532,298.4323a34.8323,34.8323,0,0,1-8.3688,1.506,34.8417,34.8417,0,0,1,8.3688-1.506Z" transform="translate(-23.8228 -29.8349)"/><path class="cls-7" d="M492.1963,304.2319c-.1013.0177-.2545-1.6606-1.1693-4.1749a21.0421,21.0421,0,0,0-14.8605-13.353c-2.5975-.6417-4.2822-.6151-4.2754-.7178a4.4532,4.4532,0,0,1,1.1754-.0442,17.9973,17.9973,0,0,1,3.1834.4033,20.3577,20.3577,0,0,1,15.1248,13.5906,17.99,17.99,0,0,1,.74,3.1225A4.4528,4.4528,0,0,1,492.1963,304.2319Z" transform="translate(-23.8228 -29.8349)"/><path class="cls-7" d="M550.6038,290.8978a83.3013,83.3013,0,0,1,1.7268,9.1432,83.2555,83.2555,0,0,1,1.2125,9.2263,83.3183,83.3183,0,0,1-1.7268-9.144A83.3429,83.3429,0,0,1,550.6038,290.8978Z" transform="translate(-23.8228 -29.8349)"/><path class="cls-8" d="M605.2407,438.2865s37.6789,10.4283,39.1907,10.96c2.27.7993,1.8886,9.1152-1.6436,8.9859-1.6712-.0613-28.9415,1.0155-32.3873.8s-13.8411-4.3117-13.8411-4.3117Z" transform="translate(-23.8228 -29.8349)"/><path class="cls-7" d="M620.937,452.6636c.1893.0259.444-1.967,1.66-4.0455,1.1864-2.0966,2.7816-3.3174,2.664-3.4684-.0659-.1453-1.9374.9166-3.2106,3.154C620.7565,450.5274,620.7782,452.68,620.937,452.6636Z" transform="translate(-23.8228 -29.8349)"/><path class="cls-7" d="M617.0085,450.8822c.1845.0322.5662-1.7493,1.5694-3.7174.9841-1.9787,2.1877-3.3459,2.052-3.475-.1038-.1235-1.5758,1.1085-2.6151,3.1914C616.9607,448.9559,616.8475,450.8723,617.0085,450.8822Z" transform="translate(-23.8228 -29.8349)"/><path class="cls-7" d="M613.3236,449.8951c.19-.0115.045-1.8938.8811-3.9806.8008-2.1014,2.1839-3.3861,2.052-3.5237-.0752-.1432-1.7649,1.0217-2.6394,3.2943C612.7192,447.947,613.1709,449.9494,613.3236,449.8951Z" transform="translate(-23.8228 -29.8349)"/><path class="cls-7" d="M613.9922,445.0285a6.6779,6.6779,0,0,0,.4043-2.8038,13.2218,13.2218,0,0,0-.3818-3.0724,13.014,13.014,0,0,0-.5607-1.749,2.106,2.106,0,0,0-.6036-.9233,1.0043,1.0043,0,0,0-1.2939.0639,1.6636,1.6636,0,0,0-.502,1.0654,7.3017,7.3017,0,0,0-.0491.9954,8.3332,8.3332,0,0,0,.2325,1.8444,11.2034,11.2034,0,0,0,1.16,2.88,7.5974,7.5974,0,0,0,1.6927,2.2684c.0862-.06-.5451-.9378-1.2974-2.4746a12.3784,12.3784,0,0,1-.9881-2.8012,8.2827,8.2827,0,0,1-.1816-1.7215c.0168-.5789.0085-1.3028.3473-1.581a.3652.3652,0,0,1,.4982-.0419,1.5882,1.5882,0,0,1,.413.6584,13.8885,13.8885,0,0,1,.5708,1.6625,15.12,15.12,0,0,1,.4984,2.9423C614.0612,443.947,613.89,445.0134,613.9922,445.0285Z" transform="translate(-23.8228 -29.8349)"/><path class="cls-7" d="M613.9453,444.6451a5.273,5.273,0,0,0-2.43-.3923,10.9436,10.9436,0,0,0-2.6734.3277,5.8881,5.8881,0,0,0-1.54.5673,1.59,1.59,0,0,0-.8512,1.7218,1.8819,1.8819,0,0,0,1.3573,1.345,3.4489,3.4489,0,0,0,1.69-.0045,6.4882,6.4882,0,0,0,2.4478-1.2036,6.6239,6.6239,0,0,0,1.752-1.7249,16.5956,16.5956,0,0,0-2.0072,1.3593,6.6878,6.6878,0,0,1-2.3111,1,2.9761,2.9761,0,0,1-1.3974-.0194,1.2767,1.2767,0,0,1-.9175-.8957.9719.9719,0,0,1,.56-1.0515,5.7334,5.7334,0,0,1,1.367-.5328,12.6425,12.6425,0,0,1,2.5391-.4434C613.005,444.5955,613.93,444.7463,613.9453,444.6451Z" transform="translate(-23.8228 -29.8349)"/><path class="cls-7" d="M626.7266,453.067c.1863-.0211.0018-1.6319.7428-3.3984.7054-1.7817,1.9633-2.804,1.8448-2.95-.0621-.1538-1.6377.7392-2.4288,2.7115C626.0724,451.3932,626.5745,453.1335,626.7266,453.067Z" transform="translate(-23.8228 -29.8349)"/><path class="cls-7" d="M600.4355,454.8064a7.8447,7.8447,0,0,0,1.4573.6856,32.3438,32.3438,0,0,0,4.1931,1.2995,59.8013,59.8013,0,0,0,14.3852,1.3633c5.6465-.0621,10.7347-.3192,14.4247-.4669,1.7466-.0926,3.21-.17,4.3663-.2313a7.8772,7.8772,0,0,0,1.5983-.1707,7.83,7.83,0,0,0-1.6058-.0746l-4.3721.0309-14.4146.2819a67.3888,67.3888,0,0,1-14.2836-1.1674C602.5823,455.6163,600.4791,454.69,600.4355,454.8064Z" transform="translate(-23.8228 -29.8349)"/><path class="cls-7" d="M599.3214,455.6651c.0509.0869,1.0819-.5156,2.8228-1.2788a13.12,13.12,0,0,1,7.13-1.1855c2.84.4349,4.8523,2.3421,6.1631,3.6663a22.1057,22.1057,0,0,0,2.1713,2.2179,11.6769,11.6769,0,0,0-1.8439-2.52,14.9414,14.9414,0,0,0-2.4984-2.336,8.9486,8.9486,0,0,0-3.8928-1.65,12.4635,12.4635,0,0,0-7.4173,1.4036A9.9924,9.9924,0,0,0,599.3214,455.6651Z" transform="translate(-23.8228 -29.8349)"/><path class="cls-8" d="M560.6463,429.54s-35.6549,23.3447-36.9335,24.3107c-1.92,1.4509.2822,8.3593,3.6084,7.1632,1.5735-.5658,31.4923-8.8887,34.71-10.14s11.8779-8.3118,11.8779-8.3118Z" transform="translate(-23.8228 -29.8349)"/><path class="cls-7" d="M550.0577,448.0047c.1564-.0331-.4765-2.09-2.3855-3.8159-1.8924-1.7449-3.9981-2.1882-4.0167-2.03-.0661.1793,1.8244.8581,3.5916,2.4952C549.0374,446.2653,549.8853,448.0869,550.0577,448.0047Z" transform="translate(-23.8228 -29.8349)"/><path class="cls-7" d="M553.26,445.1145c.1506-.0585-.5395-1.85-2.1737-3.5068-1.6227-1.6687-3.3994-2.3957-3.4608-2.2462-.09.1642,1.4719,1.1013,3.01,2.6877C552.1889,443.62,553.0937,445.2008,553.26,445.1145Z" transform="translate(-23.8228 -29.8349)"/><path class="cls-7" d="M556.4708,443.0547c.1621.0053-.0158-2.04-1.5585-3.9221-1.5232-1.9-3.487-2.4963-3.5152-2.3368-.0837.1708,1.6239.975,3.0252,2.7339C555.8526,441.2641,556.2865,443.1013,556.4708,443.0547Z" transform="translate(-23.8228 -29.8349)"/><path class="cls-7" d="M554.3556,438.621c.0936-.0456-.394-1.01-.8071-2.6685a15.1426,15.1426,0,0,1-.4187-2.9546,13.8411,13.8411,0,0,1,.0389-1.7573,1.59,1.59,0,0,1,.1935-.7527.3656.3656,0,0,1,.4876-.1116c.4071.1623.6191.8546.8109,1.4011a8.2823,8.2823,0,0,1,.35,1.6953,12.38,12.38,0,0,1-.0907,2.9688c-.25,1.6928-.5848,2.7207-.4845,2.7518a7.6052,7.6052,0,0,0,.9239-2.6752,11.2121,11.2121,0,0,0,.23-3.0967,8.3181,8.3181,0,0,0-.3387-1.8278,7.3162,7.3162,0,0,0-.349-.9335,1.6626,1.6626,0,0,0-.8019-.8627,1.0044,1.0044,0,0,0-1.2522.3321,2.1055,2.1055,0,0,0-.2945,1.0632,13.0219,13.0219,0,0,0-.0034,1.8365,13.2172,13.2172,0,0,0,.57,3.0432A6.68,6.68,0,0,0,554.3556,438.621Z" transform="translate(-23.8228 -29.8349)"/><path class="cls-7" d="M554.2839,438.2412c.0458.0917.881-.3325,2.3172-.6822a12.6509,12.6509,0,0,1,2.5538-.3487,5.7474,5.7474,0,0,1,1.4642.0924.9723.9723,0,0,1,.8527.832,1.2768,1.2768,0,0,1-.6022,1.1318,2.97,2.97,0,0,1-1.3257.4429,6.6835,6.6835,0,0,1-2.5056-.2511,16.5913,16.5913,0,0,0-2.3253-.6854,6.627,6.627,0,0,0,2.1931,1.1113,6.4952,6.4952,0,0,0,2.6978.4033,3.4479,3.4479,0,0,0,1.6117-.5091,1.8817,1.8817,0,0,0,.8847-1.6936,1.589,1.589,0,0,0-1.3339-1.3819,5.9,5.9,0,0,0-1.6393-.0731,10.936,10.936,0,0,0-2.6467.5A5.2828,5.2828,0,0,0,554.2839,438.2412Z" transform="translate(-23.8228 -29.8349)"/><path class="cls-7" d="M531.8643,459.7111c.0407.0556.6-.3611.8723-1.3817a5.2645,5.2645,0,0,0-.6676-3.8693,14.1958,14.1958,0,0,0-1.1947-1.78,6.5558,6.5558,0,0,0-1.21-1.2988,2.1141,2.1141,0,0,0-1.1393-.4769c-.2984-.0127-.45.06-.4457.0968a3.3751,3.3751,0,0,1,1.2968.72,8.0825,8.0825,0,0,1,1.0286,1.3,20.2956,20.2956,0,0,1,1.1114,1.7409A5.5113,5.5113,0,0,1,532.3,458.24C532.17,459.1626,531.78,459.65,531.8643,459.7111Z" transform="translate(-23.8228 -29.8349)"/><path class="cls-7" d="M544.6641,450.1472c.1653.0173.115-1.7934-1.2556-3.4164-1.3527-1.6388-3.125-2.0112-3.1376-1.8457-.0686.1746,1.44.7665,2.6535,2.25C544.1668,448.5932,544.48,450.1837,544.6641,450.1472Z" transform="translate(-23.8228 -29.8349)"/><path class="cls-7" d="M570.2418,443.82a12.552,12.552,0,0,0-1.5672,1.0754,44.6938,44.6938,0,0,1-4.3959,2.6937,57.8855,57.8855,0,0,1-6.9827,3.108c-2.7,1.0069-5.7277,1.9564-8.93,2.8846-6.4144,1.8469-12.2217,3.5353-16.4115,4.7958-2.01.6171-3.6767,1.1289-4.9545,1.5212a10.9857,10.9857,0,0,0-1.793.6406,11.02,11.02,0,0,0,1.8607-.4047l5.0094-1.3282c4.2227-1.1511,10.0446-2.77,16.4655-4.6193,3.2086-.93,6.25-1.9018,8.96-2.9468a52.5379,52.5379,0,0,0,6.992-3.2609,35.0879,35.0879,0,0,0,4.327-2.8873A9.7941,9.7941,0,0,0,570.2418,443.82Z" transform="translate(-23.8228 -29.8349)"/><path class="cls-7" d="M571.5638,444.3a9.9767,9.9767,0,0,0-3.0213-.8037,12.4632,12.4632,0,0,0-7.4932.9154,8.9482,8.9482,0,0,0-3.2077,2.7544,14.9413,14.9413,0,0,0-1.671,2.9845,11.68,11.68,0,0,0-.9913,2.9614,22.09,22.09,0,0,0,1.3952-2.7726c.8466-1.66,2.1852-4.0881,4.7586-5.3646a13.12,13.12,0,0,1,7.153-1.0363C570.3764,444.137,571.5419,444.3982,571.5638,444.3Z" transform="translate(-23.8228 -29.8349)"/><path class="cls-7" d="M634.7664,371.1578s10.6961,3.8193,10.7408,15.8132c.0861,22.9737-46.4188,48.2973-46.4188,48.2973L537.2018,394.263l-3.8789-1.57S616.8647,361.3119,634.7664,371.1578Z" transform="translate(-23.8228 -29.8349)"/><path class="cls-6" d="M568.5507,414.974a11.4672,11.4672,0,0,0,1.6119-1.0932c1.0146-.7352,2.4616-1.8262,4.2327-3.1961,3.5436-2.7387,8.3643-6.62,13.55-11.0714,5.1859-4.4549,9.7527-8.6336,12.9957-11.7222,1.622-1.5437,2.9194-2.809,3.7992-3.7a11.4975,11.4975,0,0,0,1.3244-1.4279,11.4907,11.4907,0,0,0-1.4933,1.25l-3.9334,3.5514c-3.3176,3.002-7.9247,7.122-13.1033,11.5706-5.179,4.4449-9.9477,8.3753-13.4171,11.2008l-4.1057,3.3515A11.52,11.52,0,0,0,568.5507,414.974Z" transform="translate(-23.8228 -29.8349)"/><path class="cls-6" d="M617.2955,379.7449c.0233-.1543-2.7374-.4241-5.9635.5412-3.2342.9413-5.4055,2.667-5.3023,2.7839.1028.1638,2.3588-1.2736,5.481-2.1789C614.6227,379.9563,617.2984,379.9381,617.2955,379.7449Z" transform="translate(-23.8228 -29.8349)"/><path class="cls-6" d="M611.9647,376.1241c-.0555-.1491-2.0394.7233-3.669,2.76-1.6482,2.0224-2.0829,4.1452-1.9255,4.168.18.0625.8566-1.8651,2.4161-3.7719C610.3214,377.3545,612.0638,376.2871,611.9647,376.1241Z" transform="translate(-23.8228 -29.8349)"/><path class="cls-7" d="M638.1692,448.8671c.033-.0721-.7383-.2212-1.5951.4838a5.7847,5.7847,0,0,0-1.7888,3.5921,7.0569,7.0569,0,0,0,.5643,3.9607c.4381.94.92,1.3814.9736,1.3369.085-.0584-.254-.5806-.56-1.503a8.0393,8.0393,0,0,1-.3536-3.7061,6.2144,6.2144,0,0,1,1.4636-3.35C637.53,448.994,638.1823,448.9673,638.1692,448.8671Z" transform="translate(-23.8228 -29.8349)"/><path class="cls-2" d="M630.3418,338.526l-17.6061,47.4283a6.8347,6.8347,0,0,1-6.4975,4.4555l-96.9145-1.2758V381.77l35.962,1.3133,15.2687-47.3419a3.8639,3.8639,0,0,1,3.6886-2.6778l62.5157.181A3.8639,3.8639,0,0,1,630.3418,338.526Z" transform="translate(-23.8228 -29.8349)"/><path class="cls-7" d="M630.3419,338.526s.0116-.051.041-.1493a3.9011,3.9011,0,0,0,.1208-.4414,3.7935,3.7935,0,0,0-.039-1.78,3.8652,3.8652,0,0,0-1.702-2.2922,3.7756,3.7756,0,0,0-1.76-.5559c-.6674-.0306-1.3911-.0084-2.1517-.0154l-26.0815-.0306-18.2734-.0342-10.2669-.0216-5.3937-.0118a4.243,4.243,0,0,0-2.58.5671,3.7667,3.7667,0,0,0-1.604,2.1089c-4.6107,14.3157-9.74,30.24-15.2211,47.26l-.0353.11-.1151-.0042-35.962-1.3091.1618-.156v1.3144c0,2.0723,0,4.1357,0,6.05l-.1539-.156c21.68.29,42.2629.5659,60.9446.8162l26.4917.3634,6.1059.0848,2.9689.0413a7.08,7.08,0,0,0,2.818-.4113,6.71,6.71,0,0,0,3.8832-3.7393q.9675-2.5851,1.8917-5.0545l11.623-31.17c1.3725-3.6613,2.4382-6.5044,3.1668-8.4481.7265-1.9286,1.1222-2.9345,1.1222-2.9345s-.3568,1.0208-1.0647,2.9564c-.7163,1.9485-1.7639,4.7983-3.113,8.4685-2.7228,7.3679-6.6578,18.0163-11.5309,31.2033l-1.885,5.0653a6.9413,6.9413,0,0,1-4.0111,3.8751,7.324,7.324,0,0,1-2.9034.4308l-2.9689-.0368-6.106-.076-26.4922-.334-60.945-.7886-.1541-.0019v-.1542c0-1.9141,0-3.9775,0-6.05v-1.4765l.162.0059,35.9617,1.3174-.15.1052,15.26-47.2479a4.0313,4.0313,0,0,1,1.7172-2.2486,4.5072,4.5072,0,0,1,2.7182-.6029l5.3937.0194,10.2669.0379,18.2732.0716,26.0813.12c.7632.0112,1.4785-.0072,2.1575.028a3.8537,3.8537,0,0,1,1.7964.5806,3.9145,3.9145,0,0,1,1.712,2.3465,3.7539,3.7539,0,0,1,.0133,1.8A4.01,4.01,0,0,1,630.3419,338.526Z" transform="translate(-23.8228 -29.8349)"/><path class="cls-1" d="M587.3667,356.46a4.3549,4.3549,0,0,1,4.711.5029A3.809,3.809,0,0,1,593,361.1367a4.1275,4.1275,0,0,1-3.539,2.4723,3.72,3.72,0,0,1-3.7412-2.471c-.4505-1.5487.0492-3.8613,1.6467-4.6778" transform="translate(-23.8228 -29.8349)"/><path class="cls-7" d="M609.5237,437.8509s-87.3409-55.9447-91.1966-58.14c-3.28-1.8672-12.055-7.2695-20.7075-4.8827s-16.41,10.1443-20.2885,21.4821c-2.2158,6.4768-3.2632,17.5295-3.754,25.8167a38.3016,38.3016,0,0,0,8.9631,27.3091c2.9493,3.4211,6.5867,6.3975,10.9024,7.74.91.2834,1.8554.5282,2.8256.7385,16.532,3.5843,33.5213-3.8369,42.81-17.9748l2.04-3.105s57.1993,21.0139,58.0944,20.7157Z" transform="translate(-23.8228 -29.8349)"/><path class="cls-6" d="M522.8357,382.81a.9321.9321,0,0,1-.2189-.1281l-.6109-.4175c-.5348-.37-1.3224-.916-2.3605-1.582a46.1265,46.1265,0,0,0-9.2756-4.713,24.9224,24.9224,0,0,0-6.9863-1.4733,20.1025,20.1025,0,0,0-8.0349,1.3114,25.9513,25.9513,0,0,0-7.7212,4.6837,35.4675,35.4675,0,0,0-3.4282,3.3671,25.0734,25.0734,0,0,0-2.8363,4.035,41.3512,41.3512,0,0,0-3.7679,8.998c-.8225,3.0464-1.482,6.0576-2.109,8.9a81.3332,81.3332,0,0,0-2.0107,15.3238,55.4638,55.4638,0,0,0,.7942,10.3871c.1913,1.2188.4083,2.1519.5393,2.7886l.1428.7261a.9308.9308,0,0,1,.0314.2519.9148.9148,0,0,1-.0831-.2389c-.0515-.1906-.115-.4256-.1932-.7148-.1642-.63-.4137-1.5584-.6366-2.7763a52.0545,52.0545,0,0,1-.963-10.4291,79.2605,79.2605,0,0,1,1.9094-15.4175c.6186-2.8636,1.2606-5.8491,2.0882-8.9418a41.4831,41.4831,0,0,1,3.8071-9.1173,25.4548,25.4548,0,0,1,2.8975-4.1159,35.6655,35.6655,0,0,1,3.4872-3.4142,26.273,26.273,0,0,1,7.8839-4.7448,20.428,20.428,0,0,1,8.2253-1.2933,25.0234,25.0234,0,0,1,7.0892,1.5583,43.813,43.813,0,0,1,9.2623,4.89c1.0245.6944,1.7949,1.2688,2.31,1.6663l.5809.46C522.7777,382.7446,522.8411,382.8024,522.8357,382.81Z" transform="translate(-23.8228 -29.8349)"/><path class="cls-6" d="M501.348,422.0641s.1588.0809.48.212l1.4312.5681c1.29.4969,3.1516,1.2135,5.5435,2.1343,4.8631,1.8321,11.8789,4.4751,20.6009,7.7606,8.7515,3.265,19.2331,7.1467,30.9935,11.4267,11.7625,4.2746,24.7962,8.9684,38.7156,13.6814l.2529.0857.1242-.2373c2.1854-4.1734,4.4913-8.5769,6.8313-13.0457,1.1928-2.279,2.3765-4.5411,3.4817-6.6529l.1342-.2566-.2422-.1538-66.6979-42.34c-8.4642-5.3392-15.295-9.6477-20.0348-12.6372l-5.4411-3.3959c-.6072-.3713-1.0789-.66-1.4207-.8686-.3215-.1926-.4944-.2779-.4944-.2779s.1507.12.4615.33l1.3885.92,5.38,3.4925c4.7148,3.0286,11.51,7.3934,19.9294,12.8022l66.5877,42.5034-.108-.41-3.4828,6.6523c-2.3385,4.4694-4.6431,8.8738-6.8269,13.048l.3763-.1515c-13.9124-4.7-26.9528-9.3711-38.7251-13.6118-11.7533-4.2775-22.2532-8.0988-31.0378-11.2957-8.75-3.21-15.7878-5.7917-20.6664-7.5814-2.4085-.8763-4.2828-1.5581-5.582-2.0309l-1.4515-.5138C501.5209,422.1076,501.348,422.0641,501.348,422.0641Z" transform="translate(-23.8228 -29.8349)"/><path class="cls-8" d="M505.87,236.4671a45.0365,45.0365,0,0,1-3.8813-9.2848,15.13,15.13,0,0,1,.5179-9.8818c.8131-1.79,2.0914-3.3587,2.73-5.218.8784-2.5589.5189-5.5776,2.1032-7.7706,2.4759-3.4273,7.7743-2.628,11.6023-4.423,2.9815-1.398,5.0646-4.4131,8.2-5.4187,2.7394-.8786,5.7262-.036,8.3708,1.0963s5.224,2.5741,8.0764,2.948a56.5512,56.5512,0,0,0,6.1464.0162,8.1039,8.1039,0,0,1,5.6715,1.955c1.4429,1.4574,1.747,4.147.1837,5.4746,3.5873-.6086,6.9668,2.9726,6.92,6.6108s-2.7877,6.8412-6.0968,8.354-7.0866,1.6119-10.7141,1.3294c-10.27-.8-20.5884-4.7038-27.58-12.2687" transform="translate(-23.8228 -29.8349)"/><path class="cls-11" d="M508.0827,223.6172l-6.9966,50.849A15.2686,15.2686,0,0,0,514.88,291.758h0a15.2763,15.2763,0,0,0,16.4615-13.1529c.5227-3.8281.9665-7.02,1.0461-7.41,0,0,13.1121.5635,15.81-12.12,1.3033-6.1293,2.9605-18.9723,4.3252-30.6085a24.1528,24.1528,0,0,0-19.2658-26.4853l-1.2267-.2451C518.6473,199.8666,509.5822,210.1876,508.0827,223.6172Z" transform="translate(-23.8228 -29.8349)"/><path class="cls-12" d="M532.4454,271.0164a30.1518,30.1518,0,0,1-15.6348-8.023s2.09,9.9333,15.006,11.3233Z" transform="translate(-23.8228 -29.8349)"/><path class="cls-7" d="M546.8205,239.2771a1.8514,1.8514,0,0,1-2.1168,1.4821,1.7711,1.7711,0,0,1-1.5445-2.0112,1.8523,1.8523,0,0,1,2.1151-1.4836A1.7723,1.7723,0,0,1,546.8205,239.2771Z" transform="translate(-23.8228 -29.8349)"/><path class="cls-7" d="M548.5442,234.1618c-.2724.1916-1.4444-1.1013-3.4-1.4864-1.9471-.4129-3.5819.3058-3.7458.0243-.0831-.1268.2315-.5084.9466-.8382a5.08,5.08,0,0,1,3.0576-.3122,4.878,4.878,0,0,1,2.6468,1.4785C548.5583,233.6089,548.6763,234.0778,548.5442,234.1618Z" transform="translate(-23.8228 -29.8349)"/><path class="cls-7" d="M528.5972,236.1313a1.8515,1.8515,0,0,1-2.1168,1.482,1.7707,1.7707,0,0,1-1.5445-2.0111,1.8527,1.8527,0,0,1,2.1155-1.4835A1.7721,1.7721,0,0,1,528.5972,236.1313Z" transform="translate(-23.8228 -29.8349)"/><path class="cls-7" d="M529.2653,230.6887c-.2728.1917-1.4468-1.1013-3.4-1.4863-1.947-.4126-3.5821.3058-3.7462.0241-.0826-.1267.23-.5084.9474-.8377a5.0788,5.0788,0,0,1,3.0571-.3129,4.8844,4.8844,0,0,1,2.6472,1.4789C529.2774,230.1356,529.3966,230.6048,529.2653,230.6887Z" transform="translate(-23.8228 -29.8349)"/><path class="cls-7" d="M533.461,246.5961a13.1707,13.1707,0,0,1,3.2878.0614c.5094.0483,1.0013.0434,1.1535-.28a2.59,2.59,0,0,0-.0376-1.5454q-.342-1.9516-.7164-4.0942c-.9683-5.8186-1.5627-10.5626-1.3282-10.6s1.21,4.6493,2.1781,10.4681q.34,2.1488.65,4.1045a2.9462,2.9462,0,0,1-.1325,2.01,1.2759,1.2759,0,0,1-.966.5656,3.4537,3.4537,0,0,1-.871-.0515A12.9825,12.9825,0,0,1,533.461,246.5961Z" transform="translate(-23.8228 -29.8349)"/><path class="cls-7" d="M527.4407,246.7987c.3216.0449-.0982,2.1665,1.4163,4.0346,1.51,1.8725,3.8187,2.0861,3.7761,2.3857.003.139-.5859.3114-1.5453.1467a5.386,5.386,0,0,1-3.1762-1.8715,4.6918,4.6918,0,0,1-1.0514-3.3559C526.9565,247.2353,527.298,246.7573,527.4407,246.7987Z" transform="translate(-23.8228 -29.8349)"/><path class="cls-8" d="M531.3,223.1322c-.299.4926-2.2-.1489-4.547-.33-2.3442-.2291-4.3267.0728-4.5357-.4644-.09-.2553.3321-.6907,1.1823-1.0555a7.9233,7.9233,0,0,1,6.9194.6056C531.0927,222.3945,531.433,222.8967,531.3,223.1322Z" transform="translate(-23.8228 -29.8349)"/><path class="cls-8" d="M548.9557,228.3634c-.4323.375-1.6863-.3546-3.3006-.7-1.6019-.4017-3.0485-.299-3.2714-.8264-.0931-.2527.2112-.6544.8942-.9548a4.8856,4.8856,0,0,1,5.2955,1.23C549.0541,227.6825,549.1506,228.1772,548.9557,228.3634Z" transform="translate(-23.8228 -29.8349)"/><path class="cls-11" d="M507.24,233.2394c-.198-.1372-8.22-4.33-9.6792,4.4185s7.6247,8.4085,7.6817,8.16S507.24,233.2394,507.24,233.2394Z" transform="translate(-23.8228 -29.8349)"/><path class="cls-12" d="M503.1231,242.0581c-.0339-.0344-.1705.0812-.4476.1564a1.5449,1.5449,0,0,1-1.143-.1666c-.8675-.4935-1.4011-2.09-1.1806-3.6742a5.1054,5.1054,0,0,1,.7906-2.1108,1.7847,1.7847,0,0,1,1.3415-.9785.7863.7863,0,0,1,.83.5677c.0764.2642-.0082.4294.0357.4522.0209.026.2122-.1151.202-.4883a.9861.9861,0,0,0-.2528-.6055,1.1661,1.1661,0,0,0-.8056-.3632,2.1713,2.1713,0,0,0-1.8182,1.0907,5.2446,5.2446,0,0,0-.935,2.35c-.2379,1.7721.3893,3.5722,1.593,4.1486a1.6542,1.6542,0,0,0,1.4324.001C503.0721,242.2669,503.1506,242.079,503.1231,242.0581Z" transform="translate(-23.8228 -29.8349)"/><path class="cls-8" d="M555.0414,216.6571c-1.5019,3.2332-9.22,4.4814-14.8785,2.7737-5.2163-1.5743-7.108-4.8854-10.4271-7.7718-2.1007-1.8269-2.1007-1.8269-5.5261-2.1807-2.7694-.2858-4.9924,2.4721-7.0867,4.3067,1.1655,6.9525-1.9258,13.8356-4.939,20.2088a3.5242,3.5242,0,0,1-1.4126,1.8033c-1.1864.5853-2.6023-.34-3.3113-1.4571a10.9477,10.9477,0,0,1-1.2259-6.1392,36.47,36.47,0,0,1,2.9012-14.0831,24.8258,24.8258,0,0,1,9.1454-10.9509,23.5191,23.5191,0,0,1,17.3985-2.8814,28.8839,28.8839,0,0,1,15.2528,9.1556,16.9227,16.9227,0,0,1,4.1093,7.2161" transform="translate(-23.8228 -29.8349)"/><path class="cls-7" d="M537.2442,237.8044c.0751.004.0486-.7542.3982-2.0332a8.4424,8.4424,0,0,1,3.0965-4.4963,8.23,8.23,0,0,1,7.7421-1.1142,8.0619,8.0619,0,0,1,3.7653,2.8455,8.1023,8.1023,0,0,1,0,9.5956,8.0607,8.0607,0,0,1-3.7658,2.8463,8.2289,8.2289,0,0,1-7.7425-1.1146,8.4417,8.4417,0,0,1-3.0962-4.4962c-.3495-1.2788-.323-2.0368-.3981-2.0329a1.5779,1.5779,0,0,0-.0439.5439,6.5517,6.5517,0,0,0,.175,1.5561,8.4256,8.4256,0,0,0,3.06,4.8267,8.7165,8.7165,0,0,0,12.37-1.7189,8.7362,8.7362,0,0,0-.0006-10.4163,8.7166,8.7166,0,0,0-12.3686-1.7186,8.4254,8.4254,0,0,0-3.06,4.8268A6.5445,6.5445,0,0,0,537.2,237.26,1.5788,1.5788,0,0,0,537.2442,237.8044Z" transform="translate(-23.8228 -29.8349)"/><path class="cls-7" d="M516.4943,234.1811c.0751.0039.0486-.7542.3981-2.0332a8.4431,8.4431,0,0,1,3.0966-4.4963,8.23,8.23,0,0,1,7.7422-1.1143,8.0623,8.0623,0,0,1,3.7652,2.8455,8.1025,8.1025,0,0,1,0,9.5957,8.06,8.06,0,0,1-3.7657,2.8463,8.2293,8.2293,0,0,1-7.7426-1.1147,8.4421,8.4421,0,0,1-3.0962-4.4961c-.3495-1.2789-.323-2.037-.3981-2.0329a1.5807,1.5807,0,0,0-.0439.5438,6.5483,6.5483,0,0,0,.1751,1.5562,8.426,8.426,0,0,0,3.06,4.8267,8.7168,8.7168,0,0,0,12.37-1.719,8.7364,8.7364,0,0,0-.0007-10.4163,8.7163,8.7163,0,0,0-12.3686-1.7185,8.4248,8.4248,0,0,0-3.06,4.8268,6.544,6.544,0,0,0-.1752,1.5563A1.582,1.582,0,0,0,516.4943,234.1811Z" transform="translate(-23.8228 -29.8349)"/><path class="cls-7" d="M533.5891,234.4752c.0876.1768,1.2-.3435,2.4936.0523,1.2977.3833,1.9386,1.4312,2.1092,1.332.0821-.0383.0414-.371-.2513-.8116a3.11,3.11,0,0,0-3.6942-1.1111C533.7592,234.1428,533.5417,234.398,533.5891,234.4752Z" transform="translate(-23.8228 -29.8349)"/><path class="cls-7" d="M504.7379,231.94c.0028.1953,2.7925.3144,6.23.2659s6.2239-.2459,6.2211-.4412-2.792-.3142-6.2311-.2659S504.7352,231.7449,504.7379,231.94Z" transform="translate(-23.8228 -29.8349)"/><path class="cls-1" d="M559.1254,208.308a2.487,2.487,0,0,1-.135.8336,4.1015,4.1015,0,0,1-1.3111,1.8828,5.8011,5.8011,0,0,1-3.1464,1.2878,15.7971,15.7971,0,0,1-4.1727-.2177,71.3819,71.3819,0,0,1-7.4233-1.4989c-.9381-.2435-1.6921-.46-2.21-.6182l-.5945-.19a.8546.8546,0,0,1-.2031-.08.8745.8745,0,0,1,.2147.04l.6048.1518,2.2238.5534c1.881.4513,4.4976,1.006,7.4182,1.4357a16.1132,16.1132,0,0,0,4.12.2332,5.7337,5.7337,0,0,0,3.0747-1.2107,4.1642,4.1642,0,0,0,1.3282-1.7955C559.0934,208.61,559.1012,208.3045,559.1254,208.308Z" transform="translate(-23.8228 -29.8349)"/><path class="cls-1" d="M561.0651,210.2927a8.008,8.008,0,0,1-.7493,2.3929,10.2314,10.2314,0,0,1-9.8649,5.898,8.0051,8.0051,0,0,1-2.4622-.4727,5.4785,5.4785,0,0,1,.66.1252,11.028,11.028,0,0,0,1.8083.2,10.3884,10.3884,0,0,0,9.7266-5.8153,11.0164,11.0164,0,0,0,.68-1.6878A5.4516,5.4516,0,0,1,561.0651,210.2927Z" transform="translate(-23.8228 -29.8349)"/></g></svg>