<svg xmlns="http://www.w3.org/2000/svg" viewBox="0 0 683.4907 430.041"><defs><style>.cls-1{fill:#e0e0e0;}.cls-2{fill:#ebebeb;}.cls-3{fill:#f5f5f5;}.cls-4{fill:#fafafa;}.cls-5{fill:#263238;}.cls-6{fill:#ff725e;}.cls-7{opacity:0.2;}.cls-8{opacity:0.3;}.cls-9{fill:#fff;}.cls-10{opacity:0.5;}.cls-11{fill:#455a64;}.cls-12{fill:#ffbe9d;}.cls-13{fill:#eb996e;}</style></defs><g id="Background_Complete" data-name="Background Complete"><path class="cls-1" d="M351.6045,79.9333a38.9057,38.9057,0,0,1,9.4932-4.1259l1.9556-9.3969,15.8764-.2783,2.2848,9.3214a38.8822,38.8822,0,0,1,9.6333,3.79l8.0239-5.26,11.4233,11.03-4.9734,8.202a38.8749,38.8749,0,0,1,4.1255,9.4957l9.3959,1.9553.2789,15.8762L409.8,122.8282a38.909,38.909,0,0,1-3.79,9.6321l5.2586,8.0245-11.0283,11.4235-8.2031-4.9737a38.8907,38.8907,0,0,1-9.4948,4.1252l-1.956,9.397-15.8758.2785-2.2852-9.3222a38.9187,38.9187,0,0,1-9.6324-3.79l-8.024,5.26-11.4235-11.03,4.9736-8.2025a38.881,38.881,0,0,1-4.1261-9.4948l-9.3963-1.9555-.2785-15.876,9.3219-2.2858a38.9371,38.9371,0,0,1,3.7895-9.6321l-5.259-8.0241L343.4,74.9592l8.2045,4.9741Zm8.4632,21.15a17.0337,17.0337,0,1,0,24.0855-.4235A17.0335,17.0335,0,0,0,360.0677,101.083Z" transform="translate(-29.752 -35.9022)"/><path class="cls-2" d="M271.0994,45.1521a26.0763,26.0763,0,0,1,6.3626-2.7653l1.3107-6.2981,10.6409-.1865,1.5313,6.2474a26.0687,26.0687,0,0,1,6.4566,2.54l5.3778-3.5251,7.6563,7.3926-3.3333,5.4973a26.0533,26.0533,0,0,1,2.7651,6.3643l6.2974,1.31.187,10.6407-6.2477,1.5318a26.075,26.075,0,0,1-2.54,6.4557l3.5245,5.3783-7.3915,7.6564-5.498-3.3335a26.0711,26.0711,0,0,1-6.3638,2.7649l-1.3109,6.2981-10.6405.1867L278.3525,93.06a26.0844,26.0844,0,0,1-6.456-2.54l-5.3779,3.5251-7.6564-7.3923,3.3334-5.4976a26.0627,26.0627,0,0,1-2.7654-6.3637l-6.2977-1.3107-.1867-10.6406,6.2479-1.532a26.0975,26.0975,0,0,1,2.54-6.4558l-3.5247-5.378L265.6,41.8183l5.499,3.3338Zm5.6722,14.1752a11.4166,11.4166,0,1,0,16.143-.2838A11.4165,11.4165,0,0,0,276.7716,59.3273Z" transform="translate(-29.752 -35.9022)"/><path class="cls-2" d="M622.835,233.5352a26.077,26.077,0,0,1,6.3627-2.7653l1.3106-6.2981,10.6409-.1865,1.5314,6.2474a26.068,26.068,0,0,1,6.4565,2.54l5.3779-3.5251,7.6563,7.3926-3.3333,5.4973a26.0568,26.0568,0,0,1,2.765,6.3643l6.2974,1.3105.187,10.6407-6.2476,1.5318a26.0753,26.0753,0,0,1-2.54,6.4557l3.5245,5.3783-7.3915,7.6564-5.498-3.3335a26.0687,26.0687,0,0,1-6.3637,2.7649l-1.311,6.2981-10.64.1867-1.5317-6.2481a26.086,26.086,0,0,1-6.456-2.54l-5.3778,3.5251-7.6565-7.3923,3.3335-5.4976a26.0582,26.0582,0,0,1-2.7655-6.3638l-6.2977-1.3106-.1867-10.6406,6.2479-1.532a26.0978,26.0978,0,0,1,2.54-6.4558l-3.5248-5.378,7.3917-7.6564,5.4989,3.3338Zm5.6723,14.1752a11.4166,11.4166,0,1,0,16.1429-.2838A11.4165,11.4165,0,0,0,628.5073,247.71Z" transform="translate(-29.752 -35.9022)"/><path class="cls-3" d="M445.8231,51.1561a28.5545,28.5545,0,0,1,6.9677-3.0283l1.4353-6.897,11.6528-.2043,1.6769,6.8416a28.5426,28.5426,0,0,1,7.0706,2.7815l5.8893-3.86L488.9,54.8848l-3.65,6.02a28.5334,28.5334,0,0,1,3.028,6.9695L495.174,69.31l.2047,11.6526L488.537,82.64a28.5578,28.5578,0,0,1-2.7814,7.07l3.86,5.89-8.0944,8.3845L475.5,100.3329a28.5434,28.5434,0,0,1-6.9689,3.0278l-1.4356,6.8971-11.6523.2044L453.766,103.62a28.5641,28.5641,0,0,1-7.07-2.7815l-5.8893,3.86-8.3845-8.0953,3.65-6.02a28.5437,28.5437,0,0,1-3.0284-6.9689l-6.8966-1.4353-.2044-11.6525,6.842-1.6777a28.5782,28.5782,0,0,1,2.7814-7.07l-3.86-5.89,8.0945-8.3845,6.0219,3.6509Zm6.2117,15.5232a12.5022,12.5022,0,1,0,17.678-.3109A12.5019,12.5019,0,0,0,452.0348,66.6793Z" transform="translate(-29.752 -35.9022)"/><path class="cls-2" d="M138.5586,142.1365,82.7341,127.3818a7.2244,7.2244,0,0,1-5.1385-8.831l20.4222-77.268a7.2248,7.2248,0,0,1,8.8309-5.139l35.4039,9.3573,19.94,35.49L147.39,136.9977A7.2248,7.2248,0,0,1,138.5586,142.1365Z" transform="translate(-29.752 -35.9022)"/><path class="cls-3" d="M142.2526,45.5011l-5.7477,21.7465a6.72,6.72,0,0,0,4.7785,8.2137l20.909,5.53Z" transform="translate(-29.752 -35.9022)"/><path class="cls-1" d="M136.2859,69.2314s-1.6691,5.2016,3.877,8.5225a6.9524,6.9524,0,0,0,.6466.3366c2.6011,1.21,19.7293,9.1571,19.8384,8.7443.118-.4467,1.5445-5.8436,1.5445-5.8436l-20.91-5.5266S136.1089,73.9063,136.2859,69.2314Z" transform="translate(-29.752 -35.9022)"/><path class="cls-4" d="M132.0584,65.123c-.0738.2794-5.9158-1.0222-13.0466-2.907-7.1331-1.8853-12.8541-3.64-12.78-3.9192s5.9145,1.0218,13.0478,2.9073C126.41,63.0888,132.1322,64.8435,132.0584,65.123Z" transform="translate(-29.752 -35.9022)"/><path class="cls-4" d="M145.4884,81.8267c-.0738.2794-9.65-2.009-21.3859-5.1111-11.74-3.1029-21.1944-5.8442-21.1206-6.1236s9.6479,2.0087,21.388,5.1117C136.1061,78.8055,145.5624,81.5472,145.4884,81.8267Z" transform="translate(-29.752 -35.9022)"/><path class="cls-4" d="M146.6029,93.1057c-.0739.28-10.5071-2.2358-23.3-5.617-12.7976-3.3824-23.1088-6.35-23.0349-6.6295s10.5046,2.2353,23.3022,5.6177C136.3633,89.8581,146.6767,92.8264,146.6029,93.1057Z" transform="translate(-29.752 -35.9022)"/><path class="cls-4" d="M144.0426,102.7923c-.0739.28-10.507-2.2354-23.3-5.6167-12.7976-3.3823-23.1087-6.35-23.0347-6.63s10.5045,2.2353,23.3021,5.6178C133.8031,99.5449,144.1165,102.5132,144.0426,102.7923Z" transform="translate(-29.752 -35.9022)"/><path class="cls-4" d="M141.4824,112.4791c-.0739.28-10.507-2.2354-23.3-5.6167-12.7975-3.3825-23.1085-6.35-23.0347-6.63s10.5048,2.2353,23.3022,5.6177C131.2428,109.2316,141.5561,112.2,141.4824,112.4791Z" transform="translate(-29.752 -35.9022)"/><path class="cls-4" d="M138.9221,122.1661c-.0738.2794-10.5071-2.2358-23.3-5.6171-12.7975-3.3823-23.1086-6.35-23.0348-6.63s10.5047,2.2351,23.3023,5.6176C128.6826,118.9183,138.9959,121.8866,138.9221,122.1661Z" transform="translate(-29.752 -35.9022)"/><path class="cls-1" d="M55.2632,371.0125a33.461,33.461,0,0,0-14.3172-4.9279c-2.3393-.24-4.8955-.1721-6.7721,1.2452a1.3922,1.3922,0,0,0-.6974,1.2366,1.5093,1.5093,0,0,0,.6622.846c5.8253,4.444,14.637,5.0051,21.1245,1.6" transform="translate(-29.752 -35.9022)"/><path class="cls-1" d="M54.896,370.6074a69.8338,69.8338,0,0,1-9.2472-8.1361,23.39,23.39,0,0,1-5.7976-10.7219,4.323,4.323,0,0,1,.4582-3.5877c7.371,5.7568,13.1614,13.2022,14.5866,22.4457" transform="translate(-29.752 -35.9022)"/><path class="cls-1" d="M55.1869,370.957a33.4425,33.4425,0,0,1,.1713-12.141,16.4153,16.4153,0,0,1,6.4671-10.0183c1.274,2.9771.7264,6.407-.171,9.5184a46.2553,46.2553,0,0,1-6.4126,13.501" transform="translate(-29.752 -35.9022)"/><path class="cls-1" d="M62.4129,383.9047c-4.3863.533-8.2067,2.8453-11.4818,5.8111A21.7207,21.7207,0,0,0,44.3634,400.99c4.3026-.2657,7.9526-3.3,10.6-6.702s4.4815-7.1349,7.3895-10.3169" transform="translate(-29.752 -35.9022)"/><path class="cls-1" d="M63.9822,385.9755a28.3186,28.3186,0,0,1,3.27-26.7869c2.4991,8.8893,1.5816,18.93-3.27,26.7869" transform="translate(-29.752 -35.9022)"/><path class="cls-1" d="M73.53,397.344a20.4767,20.4767,0,0,0-19.58,11.2706c-.2428.485-.4569,1.1011-.132,1.5354a1.4561,1.4561,0,0,0,1.2983.3819c3.8587-.25,7.2788-2.5717,10.1007-5.2154s5.28-5.6976,8.3988-7.9839" transform="translate(-29.752 -35.9022)"/><path class="cls-1" d="M73.2251,396.7249a36.4649,36.4649,0,0,1-.364-20.37c.7178-2.6221,1.9225-5.3825,4.3471-6.6119a.8526.8526,0,0,1,.6651-.1168.8767.8767,0,0,1,.42.487,12.2692,12.2692,0,0,1,1.0249,5.844,36.6327,36.6327,0,0,1-.9158,5.9161c-.7634,3.6158-1.17,7.5016-3.1529,10.62a21.5762,21.5762,0,0,0-1.2608,2.3325c-.3754.7927-.3782,1.0717-.7223,1.702" transform="translate(-29.752 -35.9022)"/><path class="cls-1" d="M98.4976,400.49c-1.8724-7.1222.1151-15.7566,4.603-21.5952.3305-.43.7686-.8908,1.3086-.8407.8266.0764,1.0408,1.1778,1.0038,2.0071A39.0232,39.0232,0,0,1,98.4976,400.49" transform="translate(-29.752 -35.9022)"/><path class="cls-1" d="M100.7761,402.0477a31.4121,31.4121,0,0,0,25.7767-5.2426,20.87,20.87,0,0,0-13.9541-1.7126c-4.6614,1.0661-8.921,3.1545-11.8226,6.9552" transform="translate(-29.752 -35.9022)"/><path class="cls-1" d="M102.6976,397.3055c4.8464-7.901,14.1372-13.0581,23.3943-13.5274-1.0665,3.7652-4.16,6.6915-7.6516,8.46s-7.3882,2.5382-11.23,3.2842c-1.4943.29-3.5441.6094-4.5129,1.7835" transform="translate(-29.752 -35.9022)"/><path class="cls-1" d="M98.9792,374.2942a67.9677,67.9677,0,0,0,2.9919-13.7009c.36-4.6695-.3055-9.5444-2.7287-13.5522-4.5267,8.76-4.985,18.994-.3992,27.7228" transform="translate(-29.752 -35.9022)"/><path class="cls-1" d="M114.22,366.5912c5.294-9.6212,16.0942-17.3066,27.0228-18.3837-4.2158,10.497-15.7131,18.6092-27.0228,18.3837" transform="translate(-29.752 -35.9022)"/><path class="cls-1" d="M110.8893,368.4766c7.8949,1.2026,14.6214,6.245,21.9994,9.3018a9.8566,9.8566,0,0,0,4.9734.9524,3.8933,3.8933,0,0,0,2.4375-6.8872,10.6446,10.6446,0,0,0-3.6125-2.1913c-8.0359-3.3455-16.6535-3.4291-25.1183-1.4" transform="translate(-29.752 -35.9022)"/><path class="cls-1" d="M106.3207,374.014c1.7874.5118,2.398,1.4371,3.8134,2.6426a41.147,41.147,0,0,0,16.6824,8.57c.6373.1584,1.4733.2214,1.7891-.3544.2759-.503-.0733-1.1118-.4314-1.56a22.9641,22.9641,0,0,0-10.0727-6.8379c-3.85-1.4337-7.1855-3.1616-11.7808-2.791" transform="translate(-29.752 -35.9022)"/><path class="cls-1" d="M101.1651,340.57a31.572,31.572,0,0,0,24.2048,8.2352,1.66,1.66,0,0,0,1.102-.3956c.6091-.6627-.1217-1.6857-.8316-2.2391-7.1164-5.5483-15.7362-7.8485-24.4752-5.6005" transform="translate(-29.752 -35.9022)"/><path class="cls-1" d="M107.2777,338.3331A33.7362,33.7362,0,0,1,137.481,333.35a23.9763,23.9763,0,0,1-14.3926,6.3186,45.5441,45.5441,0,0,1-15.8107-1.335" transform="translate(-29.752 -35.9022)"/><path class="cls-1" d="M104.8482,322.9651c-.6989-7.103-.2453-12.71-.7384-19.8464-.0394-.57-.1619-1.2561-.6952-1.4614-.7427-.2861-1.3618.6267-1.6054,1.3844a22.75,22.75,0,0,0,3.0286,19.767" transform="translate(-29.752 -35.9022)"/><path class="cls-1" d="M104.3372,323.75a41.7658,41.7658,0,0,0,11.7661-11.4357c2.3239-3.18,4.2833-6.9892,3.7551-10.8922a11.2617,11.2617,0,0,0-8.4874,4.2147,23.6815,23.6815,0,0,0-4.3267,8.7051c-.9422,3.1252-1.6016,6.3369-2.7071,9.4081" transform="translate(-29.752 -35.9022)"/><path class="cls-1" d="M115.8973,320.5382a94.87,94.87,0,0,0,28.9562-17.0741c-3.459-1.3932-7.4191-.5595-10.877.8364a34.2982,34.2982,0,0,0-18.23,16.1605" transform="translate(-29.752 -35.9022)"/><path class="cls-1" d="M107.5876,327.6358c5.3452.5842,10.775.9648,16.0786.0784,5.2128-.8712,10.139-2.9375,15.01-4.9876a1.7619,1.7619,0,0,0,1.02-.7742,1.1735,1.1735,0,0,0-.3656-1.2844,3.1,3.1,0,0,0-1.28-.6c-5.2957-1.4812-11.0108-.7879-16.2212.9692a75.2554,75.2554,0,0,0-14.2419,6.5985" transform="translate(-29.752 -35.9022)"/><path class="cls-1" d="M77.0654,340.8129c-3.6469-7.3613-3.41-15.9519-.26-23.539,2.2177,3.3791,2.4886,7.6823,2.083,11.7037s-1.63,8.16-1.709,12.2012" transform="translate(-29.752 -35.9022)"/><path class="cls-1" d="M62.4965,333.465a32.83,32.83,0,0,0-24.396,10.3927,22.7975,22.7975,0,0,0,13.3586-2.4767,67.9452,67.9452,0,0,0,11.4479-7.6622" transform="translate(-29.752 -35.9022)"/><path class="cls-1" d="M52.7016,330.1893c-4.4544-.3612-8.74-.9127-13.0232.4a15.62,15.62,0,0,0-9.9264,8.4166,23.5328,23.5328,0,0,0,12.21-2.3056,70.2372,70.2372,0,0,0,10.74-6.5107" transform="translate(-29.752 -35.9022)"/><path class="cls-1" d="M67.2041,330.3391c-4.0071-2.6259-8.1221-5.2992-12.7878-6.3869s-10.0729-.284-13.3264,3.2327c3.7769,2.2164,8.3594,2.4782,12.7386,2.4747s9.7478-.053,13.8761,1.4079" transform="translate(-29.752 -35.9022)"/><path class="cls-1" d="M67.2279,330.5507c-6.8507-6.7269-9.4476-18.8115-6.6915-28.0086a42.6773,42.6773,0,0,1,6.6915,28.0086" transform="translate(-29.752 -35.9022)"/><path class="cls-1" d="M86.0655,311.4906c1.2919-3.0036,2.2007-6.1561,3.36-9.2134a26.4749,26.4749,0,0,1,4.79-8.4937,12.6152,12.6152,0,0,1,8.4845-4.3973,34.1708,34.1708,0,0,1-16.4667,22.1524" transform="translate(-29.752 -35.9022)"/><path class="cls-1" d="M82.6566,315.4622c-2.1381-2.943-4.6083-6.9377-7.5077-9.1343s-6.6748-3.5259-10.2133-2.6824a23.7888,23.7888,0,0,0,17.721,11.8167" transform="translate(-29.752 -35.9022)"/><path class="cls-1" d="M83.3384,311.7355a50.82,50.82,0,0,1-3.38-10.9445,17.0739,17.0739,0,0,1,1.7134-11.1287c3.76,7.1086,4.9716,14.739,1.858,22.1538" transform="translate(-29.752 -35.9022)"/><path class="cls-1" d="M86.1,289.6623c2.13-7.0469,8.5826-12.2353,15.5488-14.6163a5.8032,5.8032,0,0,1,2.7262-.4086,2.3656,2.3656,0,0,1,2.0093,1.6771c.2541,1.1987-.7361,2.2729-1.6675,3.0692A52.928,52.928,0,0,1,86.1,289.6623" transform="translate(-29.752 -35.9022)"/><path class="cls-1" d="M86.1769,283.8992c.2709-4.5436.5542-9.1527,2.032-13.4578s4.326-8.3434,8.4695-10.2274c.7049,4.5889-1.32,9.1543-3.7615,13.1031s-5.3846,7.6759-6.8514,12.0808" transform="translate(-29.752 -35.9022)"/><path class="cls-1" d="M86.0655,287.0269c-1.76-5.1357-1.9425-11.6588-5.0177-16.1329-2.15-3.1275-5.5923-5.2581-7.4444-8.57a13.0373,13.0373,0,0,0,.433,9.7293,28.1644,28.1644,0,0,0,5.6891,8.1445c2.2757,2.43,4.2243,4.2586,6.34,6.83" transform="translate(-29.752 -35.9022)"/><path class="cls-1" d="M86.1,438.2671c-.1369,0-.2554-34.2595-.2649-76.5112-.01-42.2662.0937-76.5186.23-76.5186s.2553,34.2523.2648,76.5185C86.34,404.0075,86.2366,438.2671,86.1,438.2671Z" transform="translate(-29.752 -35.9022)"/><path class="cls-1" d="M116.0387,335.6433a7.3182,7.3182,0,0,1-1.288.4836l-3.545,1.196c-2.9891,1.0183-7.095,2.4928-11.5515,4.319-4.4126,1.8928-8.5741,3.43-10.9439,5.4832a8.0417,8.0417,0,0,0-2.199,2.9093c-.34.8043-.4006,1.2965-.4459,1.2877a.9914.9914,0,0,1,.0146-.3594,5.46,5.46,0,0,1,.2517-.9983,7.732,7.732,0,0,1,2.1461-3.1011,19.2335,19.2335,0,0,1,4.7486-2.95c1.8993-.8865,4.0048-1.8114,6.24-2.73,4.47-1.8319,8.6079-3.2589,11.6308-4.1939,1.51-.4712,2.7432-.8185,3.5978-1.0476A7.3277,7.3277,0,0,1,116.0387,335.6433Z" transform="translate(-29.752 -35.9022)"/><path class="cls-1" d="M125.8521,311.5386a2.1227,2.1227,0,0,1-.361.3854c-.2918.2739-.6552.6153-1.0993,1.0326l-4.1041,3.7283-13.66,12.1627c-5.3322,4.7463-9.94,9.2814-13.1336,12.696-1.5991,1.7053-2.8583,3.118-3.7174,4.1041-.4011.458-.7292.8328-.9926,1.1337a2.1237,2.1237,0,0,1-.3707.3759,2.11,2.11,0,0,1,.2932-.4387c.2075-.2754.5093-.6858.9222-1.1944.8153-1.0263,2.0374-2.4776,3.6078-4.2177a173.068,173.068,0,0,1,13.0614-12.8284c5.3506-4.7354,10.22-8.989,13.7579-12.0556l4.2082-3.6105c.4691-.389.8529-.7073,1.1608-.9628A2.1248,2.1248,0,0,1,125.8521,311.5386Z" transform="translate(-29.752 -35.9022)"/><path class="cls-1" d="M100.8717,333.6737c-.14-.0623.9741-2.6343,2.0839-5.8868,1.12-3.2522,1.6474-5.9972,1.7893-5.974a20.0679,20.0679,0,0,1-1.32,6.1326,39.986,39.986,0,0,1-1.6585,4.1174A6.42,6.42,0,0,1,100.8717,333.6737Z" transform="translate(-29.752 -35.9022)"/><path class="cls-1" d="M86.1312,354.41a6.1376,6.1376,0,0,1-.8218-.9538l-2.1049-2.6992c-1.7682-2.2855-4.2126-5.44-6.9522-8.8929-2.7417-3.4529-5.26-6.55-7.084-8.7906l-2.1511-2.6625a6.1349,6.1349,0,0,1-.7421-1.0166,6.15,6.15,0,0,1,.8888.8915c.5486.5945,1.3253,1.47,2.2725,2.5625,1.8947,2.1849,4.4587,5.2506,7.2037,8.7079,2.743,3.4569,5.1465,6.6494,6.8445,8.9906.8492,1.17,1.5253,2.1256,1.98,2.795A6.1493,6.1493,0,0,1,86.1312,354.41Z" transform="translate(-29.752 -35.9022)"/><path class="cls-1" d="M79.5667,345.9826a12.0686,12.0686,0,0,1-2.75-5.1485,14.7007,14.7007,0,0,1-.6236-5.1907l.2187.0177c-.0979.3969-.17.6059-.2086.6s-.0411-.2273-.0087-.6349l.2188.0178a23.6612,23.6612,0,0,0,.8781,5.05A38.4854,38.4854,0,0,0,79.5667,345.9826Z" transform="translate(-29.752 -35.9022)"/><path class="cls-1" d="M71.0919,335.3219a8.8525,8.8525,0,0,0-1.92-1.1154,12.84,12.84,0,0,0-5.331-.4239,32.92,32.92,0,0,0-5.3682.8663,16.2266,16.2266,0,0,1-2.209.53,7.7015,7.7015,0,0,1,2.115-.8672,24.5265,24.5265,0,0,1,5.425-1.0229,11.6321,11.6321,0,0,1,5.4994.5931A3.4032,3.4032,0,0,1,71.0919,335.3219Z" transform="translate(-29.752 -35.9022)"/><path class="cls-1" d="M69.083,332.7384c-.0378.0769-1.1185-.4484-2.9417-1.0713a29.607,29.607,0,0,0-14.8242-1.13c-1.8966.3395-3.0442.6947-3.07.6129a2.7986,2.7986,0,0,1,.78-.3324,18.33,18.33,0,0,1,2.2215-.6238,26.1638,26.1638,0,0,1,15.0125,1.1445,18.3811,18.3811,0,0,1,2.1014.9533A2.7952,2.7952,0,0,1,69.083,332.7384Z" transform="translate(-29.752 -35.9022)"/><path class="cls-1" d="M86.0655,321.8129a60.843,60.843,0,0,1-2.1452-7.4518,60.8467,60.8467,0,0,1-1.6655-7.5742A60.9014,60.9014,0,0,1,84.4,314.2394,60.8944,60.8944,0,0,1,86.0655,321.8129Z" transform="translate(-29.752 -35.9022)"/><path class="cls-1" d="M86.202,321.8129a35.89,35.89,0,0,0-2.3778-4.4614,19.63,19.63,0,0,0-3.5-3.6117,3.2568,3.2568,0,0,1,1.3507.6966A10.8812,10.8812,0,0,1,84.23,317.067,9.8892,9.8892,0,0,1,86.202,321.8129Z" transform="translate(-29.752 -35.9022)"/><path class="cls-1" d="M86.1,420.0041c-.0534.008-.1543-.8237-.54-2.2785a32.45,32.45,0,0,0-2.2893-5.9314c-2.3669-4.8371-6.674-10.97-12.1469-17.1129-2.7118-3.0984-5.3429-6.0213-7.5759-8.82A61.921,61.921,0,0,1,58.13,378.048a37.5057,37.5057,0,0,1-2.7348-5.7981c-.2515-.7147-.4359-1.2723-.5371-1.6584A2.7887,2.7887,0,0,1,54.7172,370c.0444-.014.2935.784.8579,2.1806a42.4243,42.4243,0,0,0,2.8571,5.6909,65.5248,65.5248,0,0,0,5.4705,7.704c2.242,2.7695,4.877,5.6765,7.5936,8.78,5.4874,6.1591,9.7843,12.37,12.0894,17.2863a29.5975,29.5975,0,0,1,2.161,6.0374,16.6612,16.6612,0,0,1,.3032,1.7184A2.7947,2.7947,0,0,1,86.1,420.0041Z" transform="translate(-29.752 -35.9022)"/><path class="cls-1" d="M113.1536,389.4467a12.45,12.45,0,0,1-1.4177.7959,30.9936,30.9936,0,0,0-3.6779,2.4311,42.2157,42.2157,0,0,0-4.83,4.4053c-1.6952,1.7908-3.4414,3.87-5.2238,6.0989-3.5633,4.4709-6.896,8.4272-8.8916,11.5851-1.0132,1.5663-1.75,2.8871-2.2324,3.8135a12.2134,12.2134,0,0,1-.7806,1.4276,1.3683,1.3683,0,0,1,.1314-.4022c.1056-.255.2487-.6379.4763-1.1108a36.1245,36.1245,0,0,1,2.1093-3.915c1.9379-3.2342,5.2442-7.2445,8.8014-11.7081,1.7858-2.2327,3.5533-4.3165,5.2806-6.1048a39.2334,39.2334,0,0,1,4.9493-4.37,25.8281,25.8281,0,0,1,3.7982-2.3214c.47-.2359.8532-.3806,1.1067-.49A1.36,1.36,0,0,1,113.1536,389.4467Z" transform="translate(-29.752 -35.9022)"/><path class="cls-1" d="M113.6832,399.36a20.6082,20.6082,0,0,1-2.997.4353,39.5592,39.5592,0,0,0-7.1075,1.4,21.3692,21.3692,0,0,0-6.3639,3.34c-1.467,1.1336-2.1585,2.0715-2.2267,2.0167a2.2875,2.2875,0,0,1,.4438-.69,11.2906,11.2906,0,0,1,1.5615-1.5981,19.2709,19.2709,0,0,1,6.4334-3.54,32.1065,32.1065,0,0,1,7.2246-1.2771A16.5476,16.5476,0,0,1,113.6832,399.36Z" transform="translate(-29.752 -35.9022)"/><path class="cls-1" d="M95.8628,405.4624c-.1564-.0886,1.1943-2.1516,2.2418-4.9262.9832-2.8,1.2133-5.2555,1.39-5.2271a4.7548,4.7548,0,0,1-.05,1.608,17.2453,17.2453,0,0,1-.8742,3.7878,18.3316,18.3316,0,0,1-1.7381,3.4742A4.8423,4.8423,0,0,1,95.8628,405.4624Z" transform="translate(-29.752 -35.9022)"/><path class="cls-1" d="M121.9154,362.8331a2.2532,2.2532,0,0,1-.48.255c-.3719.1689-.8377.3807-1.4084.64-.617.2645-1.3658.6-2.2093,1.0449-.8468.4366-1.8348.8867-2.8635,1.5046l-1.635.93c-.5667.326-1.1277.7131-1.7244,1.0867-1.2053.731-2.4125,1.6316-3.7014,2.5508a63.5121,63.5121,0,0,0-14.2553,14.751c-.8747,1.32-1.7334,2.5572-2.4229,3.7868-.353.6093-.7208,1.1831-1.0272,1.7607l-.8732,1.6659c-.5823,1.0492-.9982,2.052-1.4057,2.9131-.4158.8582-.7254,1.618-.9686,2.2435-.24.5792-.4354,1.0519-.5916,1.4293a2.2486,2.2486,0,0,1-.2383.4879,2.2155,2.2155,0,0,1,.1444-.5214c.1335-.3869.3008-.8717.5058-1.4654.2164-.6383.5012-1.4117.8946-2.2846.3852-.8757.7811-1.8943,1.3467-2.96q.4073-.81.85-1.6908c.2994-.5861.6611-1.1684,1.0088-1.7862.6789-1.247,1.53-2.5017,2.4015-3.8381a61.1743,61.1743,0,0,1,14.3593-14.8587c1.3057-.916,2.53-1.81,3.7533-2.531.6056-.3687,1.1751-.75,1.75-1.0694l1.6608-.9073c1.0455-.6016,2.05-1.0323,2.9119-1.4472.859-.4229,1.6223-.7341,2.2529-.9722l1.4475-.5557A2.2225,2.2225,0,0,1,121.9154,362.8331Z" transform="translate(-29.752 -35.9022)"/><path class="cls-1" d="M100.5042,377.1789a3.444,3.444,0,0,1,1.1772-1.7533,7.4318,7.4318,0,0,1,4.7438-1.82,12.9692,12.9692,0,0,1,4.9919.9752,7.1136,7.1136,0,0,1,1.8873.917,11.6,11.6,0,0,1-2.0024-.5863,15.0786,15.0786,0,0,0-4.8611-.811,7.7248,7.7248,0,0,0-4.5311,1.59A13.9669,13.9669,0,0,0,100.5042,377.1789Z" transform="translate(-29.752 -35.9022)"/><path class="cls-1" d="M97.3039,380.4806a12.6633,12.6633,0,0,0,1.045-8.957,2.9019,2.9019,0,0,1,.5563,1.2763,9.0609,9.0609,0,0,1-.7661,6.5666C97.7209,380.1238,97.3516,380.5149,97.3039,380.4806Z" transform="translate(-29.752 -35.9022)"/><path class="cls-1" d="M62.4381,424.9129c.7383,13.0927,4.6837,26.4079,10.7521,39.87H99.58c5.7873-13.3287,9.46-26.6236,10.1131-39.87Z" transform="translate(-29.752 -35.9022)"/><path class="cls-4" d="M105.4159,446.099c0,.1368-8.6888.2476-19.4045.2476-10.7194,0-19.4063-.1108-19.4063-.2476s8.6869-.2476,19.4063-.2476C96.7271,445.8514,105.4159,445.9623,105.4159,446.099Z" transform="translate(-29.752 -35.9022)"/><path class="cls-4" d="M104.8261,450.842c0,.1368-8.1456.2477-18.1911.2477-10.0491,0-18.1928-.1109-18.1928-.2477s8.1437-.2475,18.1928-.2475C96.6805,450.5945,104.8261,450.7054,104.8261,450.842Z" transform="translate(-29.752 -35.9022)"/><path class="cls-4" d="M73.6159,433.5093a74.7051,74.7051,0,0,1,0,12.1569,74.7653,74.7653,0,0,1,0-12.1569Z" transform="translate(-29.752 -35.9022)"/><path class="cls-4" d="M87.7552,433.5093a80.1422,80.1422,0,0,1,0,12.59,80.1745,80.1745,0,0,1,0-12.59Z" transform="translate(-29.752 -35.9022)"/><path class="cls-4" d="M101.0288,433.4025a83.3647,83.3647,0,0,1,0,12.8407,83.3983,83.3983,0,0,1,0-12.8407Z" transform="translate(-29.752 -35.9022)"/><path class="cls-4" d="M108.8549,433.5093c0,.1367-10.1909.2476-22.7592.2476-12.5725,0-22.7612-.1109-22.7612-.2476s10.1887-.2477,22.7612-.2477C98.664,433.2616,108.8549,433.3726,108.8549,433.5093Z" transform="translate(-29.752 -35.9022)"/></g><g id="Floor"><path class="cls-5" d="M702.003,465.1491c0,.1439-149.08.26-332.9359.26-183.92,0-332.9679-.1165-332.9679-.26s149.0476-.26,332.9679-.26C552.9234,464.8888,702.003,465.0053,702.003,465.1491Z" transform="translate(-29.752 -35.9022)"/></g><g id="Documents"><path class="cls-6" d="M129.296,249.9333l-56.2837,12.268a7.208,7.208,0,0,1-8.5774-5.5075l-16.98-77.904a7.2079,7.2079,0,0,1,5.5073-8.5775l35.6952-7.78,33.8385,22.4563,12.308,56.4676A7.2078,7.2078,0,0,1,129.296,249.9333Z" transform="translate(-29.752 -35.9022)"/><g class="cls-7"><path d="M62.1021,227.8286h72.0207a0,0,0,0,1,0,0v20.3529a8.2135,8.2135,0,0,1-8.2135,8.2135H70.191a8.0889,8.0889,0,0,1-8.0889-8.0889V227.8286a0,0,0,0,1,0,0Z" transform="translate(-79.0628 -9.4535) rotate(-12.2962)"/></g><path class="cls-4" d="M88.749,248.3933l1.3075-2.511a3.237,3.237,0,0,0,2.8879.9574c1.2787-.2788,1.7806-1.1917,1.45-2.7066l-1.428-6.5516-4.84,1.0549-.5575-2.5577,8.0074-1.7454,1.9469,8.9322c.7419,3.4037-.6051,5.4492-3.8515,6.1568A5.669,5.669,0,0,1,88.749,248.3933Z" transform="translate(-29.752 -35.9022)"/><path class="cls-4" d="M100.2684,246.7065l.5432-2.4266a7.4074,7.4074,0,0,0,3.9019.2215c1.4162-.3086,1.8664-.7983,1.7376-1.3889-.3773-1.731-6.3857,1.4333-7.3077-2.7966-.4374-2.0068,1.0639-3.8181,4.1527-4.4914a8.9132,8.9132,0,0,1,4.2743.0371l-.5468,2.4069a6.2207,6.2207,0,0,0-3.2215-.1224c-1.3772.3-1.8728.8617-1.7527,1.4128.3945,1.81,6.4066-1.3346,7.3157,2.8361.4288,1.9673-1.0963,3.7634-4.2637,4.4538A9.298,9.298,0,0,1,100.2684,246.7065Z" transform="translate(-29.752 -35.9022)"/><path class="cls-4" d="M71.6017,217.925l1.6432-3.0678a6.7958,6.7958,0,0,0,6.2422,1.9467c3.0053-.6551,4.1673-2.8208,3.3878-6.3971l-3.2587-14.9505-9.6252,2.098-.7215-3.31,13.391-2.9188,3.9388,18.0706c1.2935,5.9347-.9591,9.4938-6.3991,10.68A9.5008,9.5008,0,0,1,71.6017,217.925Z" transform="translate(-29.752 -35.9022)"/><path class="cls-4" d="M92.6839,214.804l.8914-3.2227a13.2611,13.2611,0,0,0,7.5318.55c3.3858-.738,4.57-2.0717,4.1966-3.7837-.9867-4.5269-12.8767,2.1694-14.6264-5.8581-.7877-3.6136,1.9148-6.753,7.0891-7.8808a15.0169,15.0169,0,0,1,7.74.2254l-.93,3.2311a10.7782,10.7782,0,0,0-6.1686-.3287c-3.1952.6965-4.4983,2.2154-4.15,3.8133,1.0365,4.7553,12.9733-1.9109,14.6815,5.9259.796,3.6521-2.0461,6.7023-7.41,7.8715C98.1818,216.0767,94.6477,215.7708,92.6839,214.804Z" transform="translate(-29.752 -35.9022)"/><g class="cls-8"><path class="cls-9" d="M88.657,162.432l4.779,21.9254a6.704,6.704,0,0,0,7.9769,5.1227l21.0826-4.5918Z" transform="translate(-29.752 -35.9022)"/></g><g class="cls-7"><path d="M94.1431,186.2187s.8818,5.378,7.3166,5.8069a6.9979,6.9979,0,0,0,.7271.0051c2.86-.108,21.6836-.8345,21.5929-1.2506-.0981-.45-1.2842-5.8918-1.2842-5.8918l-21.0819,4.5951S96.1107,190.451,94.1431,186.2187Z" transform="translate(-29.752 -35.9022)"/></g><path class="cls-6" d="M674.2307,172.411l-64.4078-7.7446a8.1169,8.1169,0,0,1-7.09-9.028L613.4524,66.49a8.1169,8.1169,0,0,1,9.028-7.09l40.8474,4.9115,27.7006,36.3916-7.77,64.6181A8.117,8.117,0,0,1,674.2307,172.411Z" transform="translate(-29.752 -35.9022)"/><g class="cls-7"><path d="M603.3942,136.484H684.5a0,0,0,0,1,0,0v23.15a9.0195,9.0195,0,0,1-9.0195,9.0195H612.5468a9.1527,9.1527,0,0,1-9.1527-9.1527V136.484a0,0,0,0,1,0,0Z" transform="translate(-6.9329 -111.6865) rotate(6.8564)"/></g><g class="cls-7"><path class="cls-9" d="M663.3278,64.3113l-3.0169,25.09a7.55,7.55,0,0,0,6.5932,8.3968l24.1243,2.9047Z" transform="translate(-29.752 -35.9022)"/></g><g class="cls-7"><path d="M660.3755,91.6427s-1.0491,6.047,5.638,8.8808a7.854,7.854,0,0,0,.7716.274c3.0824.9419,23.3754,7.1238,23.4327,6.6476.0619-.5153.8106-6.7422.8106-6.7422l-24.1247-2.9008S660.9048,96.8721,660.3755,91.6427Z" transform="translate(-29.752 -35.9022)"/></g><path class="cls-4" d="M626.9821,148.4456c.454-3.7756,3.6783-6.1277,7.5777-5.6588a6.51,6.51,0,0,1,4.8861,2.8383l-2.067,1.494a4.0564,4.0564,0,0,0-2.9719-1.8463,4.0366,4.0366,0,0,0-.9638,8.0155,4.018,4.018,0,0,0,3.327-1.1071l1.6539,1.9415a6.9342,6.9342,0,0,1-11.442-5.6771Z" transform="translate(-29.752 -35.9022)"/><path class="cls-4" d="M639.1811,155.013l1.2468-2.0646a7.4213,7.4213,0,0,0,3.9758,1.8026c1.7176.2065,2.484-.2821,2.5764-1.0509.2818-2.3439-7.1929-1.6088-6.6335-6.26.256-2.1294,2.1866-3.6941,5.7468-3.266a8.4511,8.4511,0,0,1,4.2135,1.632l-1.1586,2.0935a7.1131,7.1131,0,0,0-3.3525-1.4017c-1.7176-.2065-2.4568.3578-2.5514,1.1445-.2775,2.308,7.1948,1.5921,6.6419,6.19-.2516,2.0924-2.2022,3.6729-5.78,3.2427A8.998,8.998,0,0,1,639.1811,155.013Z" transform="translate(-29.752 -35.9022)"/><path class="cls-4" d="M650.591,156.385l1.2455-2.0648a7.426,7.426,0,0,0,3.977,1.8028c1.7177.2065,2.484-.2822,2.5765-1.0509.2818-2.3439-7.1942-1.609-6.6349-6.2607.2561-2.1294,2.1866-3.6941,5.7468-3.266a8.4543,8.4543,0,0,1,4.2149,1.6322l-1.16,2.0933a7.1127,7.1127,0,0,0-3.3525-1.4017c-1.7176-.2065-2.4568.3578-2.5514,1.1445-.2775,2.308,7.1961,1.5923,6.6432,6.19-.2516,2.0924-2.2022,3.6729-5.78,3.2427A8.9952,8.9952,0,0,1,650.591,156.385Z" transform="translate(-29.752 -35.9022)"/><path class="cls-4" d="M635.9463,108.4062c1.275.5622,1.7791,1.4688,1.54,3.4541l-.5535,4.6032a1.907,1.907,0,0,0,1.8442,2.3821l.5177.0622-.422,3.5092-1.6678-.2006c-3.5972-.4325-5.2172-2.4951-4.8193-5.8041l.626-5.2063a1.187,1.187,0,0,0-1.102-1.5053l-.95-.1142.4219-3.5091.95.1142a1.1867,1.1867,0,0,0,1.4274-1.2008l.6262-5.2075c.3978-3.3084,2.4606-4.9283,6.0578-4.4958l1.6678.2006-.422,3.51-.5177-.0622a1.9064,1.9064,0,0,0-2.3563,1.8769l-.5535,4.6032C638.0229,107.4011,637.3182,108.1625,635.9463,108.4062Z" transform="translate(-29.752 -35.9022)"/><path class="cls-4" d="M667.1748,110.3812l-.4219,3.5091-.95-.1142a1.1869,1.1869,0,0,0-1.4275,1.2011l-.626,5.2063c-.3979,3.309-2.4607,4.9288-6.0578,4.4962l-1.6678-.2.4219-3.5091.5177.0622a1.9069,1.9069,0,0,0,2.3562-1.877l.5535-4.6032c.2388-1.9854.9434-2.7466,2.3154-2.99-1.275-.562-1.7792-1.4687-1.54-3.454l.5535-4.6033a1.9063,1.9063,0,0,0-1.8441-2.3819l-.5177-.0623.422-3.51,1.6679.2005c3.5971.4326,5.2171,2.4953,4.8193,5.8036l-.6262,5.2076a1.1868,1.1868,0,0,0,1.1022,1.505Z" transform="translate(-29.752 -35.9022)"/></g><g id="Plant"><path class="cls-5" d="M648.2533,421.779c-10.8867-5.8847-23.1232-16.5946-27.8838-28.76a64.8789,64.8789,0,0,1,27.8838,28.76" transform="translate(-29.752 -35.9022)"/><path class="cls-5" d="M647.5428,403.5312c-10.8866-5.8847-23.1232-16.5946-27.8839-28.76a64.8778,64.8778,0,0,1,27.8839,28.76" transform="translate(-29.752 -35.9022)"/><path class="cls-5" d="M645.9165,385.6937c-10.8867-5.8847-23.1232-16.5944-27.8838-28.76a64.8792,64.8792,0,0,1,27.8838,28.76" transform="translate(-29.752 -35.9022)"/><path class="cls-5" d="M643.5355,366.9565c-10.1-7.3591-20.9677-19.6921-24.25-32.4225a66.9209,66.9209,0,0,1,24.25,32.4225" transform="translate(-29.752 -35.9022)"/><path class="cls-5" d="M640.4653,352.5007c-6.834-10.9345-12.6686-26.7941-11.3317-39.9351a71.9761,71.9761,0,0,1,11.3317,39.9351" transform="translate(-29.752 -35.9022)"/><path class="cls-5" d="M642.0148,359.3813c2.8767-13.639,9.8776-30.4706,19.96-39.9508a84.5962,84.5962,0,0,1-19.96,39.9508" transform="translate(-29.752 -35.9022)"/><path class="cls-5" d="M644.2566,374.81c4.1181-13.9547,12.7944-30.875,24.0754-39.8707A87.8891,87.8891,0,0,1,644.2566,374.81" transform="translate(-29.752 -35.9022)"/><path class="cls-5" d="M646.7314,393.6009c4.118-13.9546,12.7943-30.8749,24.0754-39.8707a87.8881,87.8881,0,0,1-24.0754,39.8707" transform="translate(-29.752 -35.9022)"/><path class="cls-5" d="M647.9781,416.5016c4.1179-13.9548,12.7943-30.8751,24.0754-39.8707a87.8908,87.8908,0,0,1-24.0754,39.8707" transform="translate(-29.752 -35.9022)"/><path class="cls-5" d="M640.192,349.7484a.877.877,0,0,1,.0678.2206c.0409.173.0919.389.1551.6566.1339.6126.319,1.46.5538,2.5338.48,2.2008,1.1086,5.4,1.8229,9.3635.7225,3.9626,1.48,8.7,2.226,13.9731.7227,5.2767,1.4181,11.0921,1.9882,17.2123.5553,6.1236.93,11.97,1.1807,17.2906.23,5.3219.3456,10.118.36,14.1458.02,4.0277-.0131,7.2872-.0829,9.5383-.0346,1.0988-.0618,1.9653-.0814,2.592l-.0326.6738a.8771.8771,0,0,1-.0263.2292.8987.8987,0,0,1-.0192-.23c-.003-.1778-.007-.4-.0117-.6746l-.0021-2.5925c.0165-2.2509.0022-5.5086-.0586-9.5325-.0543-4.0242-.2028-8.8146-.4547-14.13-.2732-5.3141-.66-11.1527-1.2143-17.2693-.5694-6.1132-1.2516-11.9231-1.9513-17.1974-.7228-5.271-1.4474-10.0084-2.13-13.9747-.6741-3.9675-1.2551-7.1733-1.6827-9.3835-.2-1.0808-.3576-1.9332-.4717-2.55-.0456-.2712-.0823-.49-.1118-.6654A.9114.9114,0,0,1,640.192,349.7484Z" transform="translate(-29.752 -35.9022)"/><g class="cls-10"><path d="M640.4653,352.5007" transform="translate(-29.752 -35.9022)"/></g><path class="cls-11" d="M653.0333,426.49c-5.0663-10.612-8.7527-25.5313-6.2648-37.1782a65.9052,65.9052,0,0,1,6.2648,37.1782" transform="translate(-29.752 -35.9022)"/><path class="cls-11" d="M661.4622,412.75c-5.0663-10.612-8.7527-25.5313-6.2648-37.1782a65.9052,65.9052,0,0,1,6.2648,37.1782" transform="translate(-29.752 -35.9022)"/><path class="cls-11" d="M669.0209,398.7773c-5.0663-10.612-8.7527-25.5312-6.2647-37.1781a65.9064,65.9064,0,0,1,6.2647,37.1781" transform="translate(-29.752 -35.9022)"/><path class="cls-11" d="M676.47,383.71c-3.7687-11.2327-5.6594-26.5437-1.814-37.7457A66.353,66.353,0,0,1,676.47,383.71" transform="translate(-29.752 -35.9022)"/><path class="cls-11" d="M681.3156,371.3706c.37-11.95,3.885-26.9183,11.3053-35.7417a64.8128,64.8128,0,0,1-11.3053,35.7417" transform="translate(-29.752 -35.9022)"/><path class="cls-11" d="M679.0735,377.2952c8.7892-8.2942,22.1563-16.5285,34.1692-17.6063a66.2051,66.2051,0,0,1-34.1692,17.6063" transform="translate(-29.752 -35.9022)"/><path class="cls-11" d="M673.1455,389.8649c9.8506-7.8048,24.485-15.1322,37.1362-15.1606a68.9032,68.9032,0,0,1-37.1362,15.1606" transform="translate(-29.752 -35.9022)"/><path class="cls-11" d="M665.739,405.0257c9.8506-7.8049,24.4851-15.1324,37.1362-15.1608a68.9035,68.9035,0,0,1-37.1362,15.1608" transform="translate(-29.752 -35.9022)"/><path class="cls-11" d="M655.42,422.476c9.8507-7.8049,24.4851-15.1324,37.1362-15.1608A68.9025,68.9025,0,0,1,655.42,422.476" transform="translate(-29.752 -35.9022)"/><path class="cls-5" d="M682.4656,369.2019a.7037.7037,0,0,1-.0553.1973l-.2039.5627q-.3027.789-.8244,2.1484c-.7173,1.8651-1.8144,4.5411-3.2213,7.8258-2.8123,6.5692-6.9768,15.5326-12.1519,25.1352-2.5954,4.7983-5.1919,9.3009-7.6262,13.3515-2.4559,4.0378-4.7308,7.6353-6.7148,10.6077-1.9751,2.9779-3.6146,5.36-4.7831,6.981l-1.3473,1.8651-.36.4784c-.083.1063-.1286.1587-.1349.1542a.7139.7139,0,0,1,.0977-.18c.0871-.1359.1933-.3014.3233-.5039q.4693-.7022,1.2781-1.912c1.1241-1.65,2.7227-4.0578,4.6622-7.0548,1.9483-2.9916,4.1931-6.6022,6.6265-10.6465,2.4121-4.0573,4.9942-8.56,7.5861-13.3517,5.1679-9.5894,9.3717-18.5185,12.2553-25.05,1.4425-3.2655,2.583-5.9211,3.3493-7.7653q.57-1.3377.9016-2.1162c.0984-.22.1788-.399.2449-.5463A.7079.7079,0,0,1,682.4656,369.2019Z" transform="translate(-29.752 -35.9022)"/><polygon class="cls-6" points="647.416 391.869 597.07 391.869 597.07 401.573 602.243 401.573 606.6 429.247 637.72 429.247 642.201 401.573 647.416 401.573 647.416 391.869"/><path class="cls-5" d="M677.1676,437.2724c0-.1291-11.19-.2338-24.99-.2338-13.8049,0-24.9923.1047-24.9923.2338s11.1874.2338,24.9923.2338C665.9779,437.5062,677.1676,437.4015,677.1676,437.2724Z" transform="translate(-29.752 -35.9022)"/></g><g id="Device"><path class="cls-2" d="M602.8334,462.6552H146.824A27.6943,27.6943,0,0,1,119.13,434.9609V137.76a20.878,20.878,0,0,1,20.878-20.878H610.6608a19.8669,19.8669,0,0,1,19.8669,19.8669V434.9609A27.6944,27.6944,0,0,1,602.8334,462.6552Z" transform="translate(-29.752 -35.9022)"/><path class="cls-5" d="M602.8334,462.6552l1.0866-.0683a21.8474,21.8474,0,0,0,3.2079-.3248,27.5762,27.5762,0,0,0,11.6164-4.7213,26.9577,26.9577,0,0,0,6.565-6.551,27.784,27.784,0,0,0,4.5145-10.2088c.2006-.994.3284-2.024.4843-3.0654.0416-1.0541.1286-2.1237.1361-3.2191q-.003-3.2888-.006-6.8077-.0056-7.0373-.0118-14.9788c-.02-42.3347-.0479-103.5881-.0828-179.2759q-.0081-28.3838-.0168-59.4037-.0039-15.4926-.0078-31.6,0-2.0129-.0009-4.0352a34.1179,34.1179,0,0,0-.1584-4.0216,19.5017,19.5017,0,0,0-2.5784-7.5879,19.7765,19.7765,0,0,0-12.9078-9.2745c-2.6926-.6035-5.5031-.3609-8.3086-.411l-8.45.0017-17.109.0034-35.0292.0062-73.1193.011-325.5758.02H141.67c-.9015-.0013-1.8051-.0114-2.6883.0522a17.7822,17.7822,0,0,0-2.6474.2933A20.5236,20.5236,0,0,0,120.73,130.5a21.2147,21.2147,0,0,0-1.231,5.1326c-.1277,1.7512-.1157,3.5382-.1095,5.3226q0,21.39-.001,42.4894-.0019,42.1889-.0039,83.071c-.0053,54.4627-.01,106.9963-.0152,157.04q-.0006,4.6917-.0013,9.354c.0062.7758-.0142,1.5561.0137,2.3265l.116,2.3029a28.6425,28.6425,0,0,0,.8288,4.5174A26.95,26.95,0,0,0,130.35,456.892a26.83,26.83,0,0,0,7.965,4.17,29.8329,29.8329,0,0,0,8.8333,1.3617l17.9092.0029,68.9743.0131,123.8043.0318,244.9975.1841-244.9975.1841-123.8043.0318-68.9743.013-17.9092.003a30.3063,30.3063,0,0,1-8.9779-1.3818,27.3,27.3,0,0,1-8.1026-4.2382,27.42,27.42,0,0,1-10.1994-15.0878,29.1032,29.1032,0,0,1-.8442-4.5957l-.1186-2.3423c-.0282-.78-.008-1.5533-.0144-2.3312q-.0006-4.6623-.0013-9.354c-.0048-50.044-.01-102.5776-.0151-157.04q-.002-40.8469-.004-83.071,0-21.0945-.001-42.4894c-.0056-1.781-.02-3.5631.112-5.3757a21.7374,21.7374,0,0,1,1.2616-5.263,21.0432,21.0432,0,0,1,15.999-13.3411,18.2835,18.2835,0,0,1,2.7141-.301c.9145-.0647,1.813-.054,2.7139-.0528h5.4111l325.5758.02,73.1193.011,35.0292.0063,17.109.0033,8.45.0017c2.7872.0524,5.6235-.1945,8.3964.4234a20.2055,20.2055,0,0,1,13.1858,9.4816,19.9238,19.9238,0,0,1,2.6306,7.7532,34.5334,34.5334,0,0,1,.16,4.0721q0,2.0223-.0009,4.0352-.0041,16.1034-.0078,31.6-.0089,30.9849-.0168,59.4037c-.035,75.6878-.0632,136.9412-.0827,179.2759q-.0064,7.9371-.0119,14.9788-.0032,3.5185-.006,6.8077c-.0094,1.0965-.0987,2.1763-.1429,3.235-.1585,1.0473-.2893,2.0829-.4931,3.082a27.8992,27.8992,0,0,1-4.56,10.252,27.0312,27.0312,0,0,1-6.61,6.5611,27.4871,27.4871,0,0,1-11.6687,4.6881,21.0985,21.0985,0,0,1-3.215.299Z" transform="translate(-29.752 -35.9022)"/><path class="cls-2" d="M620.784,465.1492H122.8569A28.0667,28.0667,0,0,1,94.79,437.0824H648.8508A28.0668,28.0668,0,0,1,620.784,465.1492Z" transform="translate(-29.752 -35.9022)"/><path class="cls-5" d="M620.784,465.1492s.249-.0215.7406-.0508l2.1956-.1311a29.9912,29.9912,0,0,0,8.2983-2.2311,28.0185,28.0185,0,0,0,5.4618-3.2122,26.9827,26.9827,0,0,0,5.4389-5.3564,26.5473,26.5473,0,0,0,4.2374-7.818c.1282-.3769.2926-.7458.3942-1.1375l.3033-1.1858q.1528-.5974.3082-1.2043c.0832-.4087.1311-.8278.1992-1.246a18.45,18.45,0,0,0,.2933-2.5619q.0322-.654.0651-1.3175l.0164-.3324.0083-.1666.0041-.0834c-.0084-.0612.1687.158.05.0688l-.6738.0007-122.1724.0827-403.0685.0763-28.094,0,.26-.26a28.62,28.62,0,0,0,3.4478,13.4058,29.502,29.502,0,0,0,1.8858,2.9235l1.0443,1.39,1.1687,1.2856.5837.6427.641.5848,1.2834,1.1668c.4523.3588.9226.6953,1.3826,1.044a12.0591,12.0591,0,0,0,1.4244.9808,27.3809,27.3809,0,0,0,12.9535,4.2832c2.2767.1705,4.6042.075,6.9021.1012l6.8965,0,54.1618.0049,102.1206.0165,172.1493.0564,115.4928.0813,31.3.0475,8.1283.0252c1.83.0085,2.7672.0258,2.7672.0258s-.9368.0173-2.7672.0258l-8.1283.0251-31.3.0475-115.4928.0813-172.1493.0564-102.1206.0165-54.1618.0049-6.8965,0c-2.3074-.0265-4.6.0711-6.9387-.1017a27.8969,27.8969,0,0,1-13.1961-4.3621,12.4235,12.4235,0,0,1-1.451-.9988c-.4687-.355-.9475-.6981-1.4081-1.0637l-1.3076-1.188-.6525-.596-.595-.6542-1.19-1.31-1.0642-1.4156a30.0534,30.0534,0,0,1-1.921-2.9781A29.14,29.14,0,0,1,94.53,437.0824l.26-.26,28.094,0,403.0685.0763,122.1724.0828.6738.0007c-.0614-.09.1862.115.1508.1327l-.0043.084-.0087.1678-.0172.3347q-.0345.6681-.0684,1.3267a18.5962,18.5962,0,0,1-.3012,2.5789c-.0695.4209-.1189.8426-.2037,1.2539l-.3129,1.2117q-.1555.6012-.3084,1.1928c-.1033.3941-.2695.7652-.3995,1.1441a26.6853,26.6853,0,0,1-4.2837,7.8534,27.0621,27.0621,0,0,1-5.4838,5.3659,28.013,28.013,0,0,1-5.4974,3.204,29.6447,29.6447,0,0,1-8.3348,2.1879C621.7806,465.1239,620.784,465.1492,620.784,465.1492Z" transform="translate(-29.752 -35.9022)"/><polygon class="cls-9" points="294.663 401.18 301.539 412.362 398.284 412.362 404.669 401.18 294.663 401.18"/><path class="cls-11" d="M123.568,96.622H477.3308a0,0,0,0,1,0,0V384.6247a0,0,0,0,1,0,0H126.6952a19.9461,19.9461,0,0,1-19.9461-19.9461V113.4409A16.8189,16.8189,0,0,1,123.568,96.622Z"/><path class="cls-5" d="M217.3772,132.5242H142.6887a6.758,6.758,0,0,0-6.758,6.7579V411.3576a9.1693,9.1693,0,0,0,9.1693,9.1693h69.4052a2.872,2.872,0,0,0,2.872-2.872V132.5242" transform="translate(-29.752 -35.9022)"/><path class="cls-11" d="M163.0652,153.8517a5.061,5.061,0,1,1-5.061-5.0609A5.061,5.061,0,0,1,163.0652,153.8517Z" transform="translate(-29.752 -35.9022)"/><circle class="cls-11" cx="141.8909" cy="117.9495" r="5.0609"/><circle class="cls-11" cx="156.4732" cy="117.9495" r="5.0609"/><path class="cls-2" d="M344.5516,157.6211H243.08a4.9527,4.9527,0,0,1-4.9527-4.9527h0a4.9527,4.9527,0,0,1,4.9527-4.9528H344.5516a4.9527,4.9527,0,0,1,4.9527,4.9528h0A4.9527,4.9527,0,0,1,344.5516,157.6211Z" transform="translate(-29.752 -35.9022)"/><path class="cls-11" d="M195.2882,222.8378H160.5428a3.5708,3.5708,0,0,1-3.5707-3.5707h0a3.5708,3.5708,0,0,1,3.5707-3.5707h34.7454a3.5708,3.5708,0,0,1,3.5707,3.5707h0A3.5708,3.5708,0,0,1,195.2882,222.8378Z" transform="translate(-29.752 -35.9022)"/><path class="cls-5" d="M288.6426,185.9556H255.732a3.5708,3.5708,0,0,1-3.5707-3.5707h0a3.5707,3.5707,0,0,1,3.5707-3.5706h32.9106a3.5707,3.5707,0,0,1,3.5707,3.5706h0A3.5708,3.5708,0,0,1,288.6426,185.9556Z" transform="translate(-29.752 -35.9022)"/><path class="cls-5" d="M288.6426,204.6468H255.732a3.5707,3.5707,0,0,1-3.5707-3.5707h0a3.5707,3.5707,0,0,1,3.5707-3.5706h32.9106a3.5707,3.5707,0,0,1,3.5707,3.5706h0A3.5707,3.5707,0,0,1,288.6426,204.6468Z" transform="translate(-29.752 -35.9022)"/><g class="cls-7"><path d="M288.6426,223.9624H255.732a3.5708,3.5708,0,0,1-3.5707-3.5707h0a3.5708,3.5708,0,0,1,3.5707-3.5707h32.9106a3.5708,3.5708,0,0,1,3.5707,3.5707h0A3.5708,3.5708,0,0,1,288.6426,223.9624Z" transform="translate(-29.752 -35.9022)"/></g><path class="cls-5" d="M274.6038,261.3076H255.732a3.5708,3.5708,0,0,1-3.5707-3.5707h0a3.5708,3.5708,0,0,1,3.5707-3.5707h18.8718a3.5707,3.5707,0,0,1,3.5706,3.5707h0A3.5707,3.5707,0,0,1,274.6038,261.3076Z" transform="translate(-29.752 -35.9022)"/><path class="cls-5" d="M274.6038,280.6651H255.732a3.5708,3.5708,0,0,1-3.5707-3.5707h0a3.5707,3.5707,0,0,1,3.5707-3.5706h18.8718a3.5706,3.5706,0,0,1,3.5706,3.5706h0A3.5707,3.5707,0,0,1,274.6038,280.6651Z" transform="translate(-29.752 -35.9022)"/><g class="cls-7"><path d="M330.69,280.6651H296.0861a3.5708,3.5708,0,0,1-3.5707-3.5707h0a3.5707,3.5707,0,0,1,3.5707-3.5706H330.69a3.5707,3.5707,0,0,1,3.5707,3.5706h0A3.5708,3.5708,0,0,1,330.69,280.6651Z" transform="translate(-29.752 -35.9022)"/></g><path class="cls-5" d="M311.1179,297.88h-34.604a3.5706,3.5706,0,0,1-3.5706-3.5707h0a3.5706,3.5706,0,0,1,3.5706-3.5706h34.604a3.5706,3.5706,0,0,1,3.5706,3.5706h0A3.5706,3.5706,0,0,1,311.1179,297.88Z" transform="translate(-29.752 -35.9022)"/><rect class="cls-6" x="262.8264" y="274.4711" width="28.6432" height="7.1413" rx="3.5706"/><path class="cls-6" d="M317.6509,355.9953H296.1491a3.5706,3.5706,0,0,1-3.5707-3.5706h0a3.5707,3.5707,0,0,1,3.5707-3.5707h21.5018a3.5707,3.5707,0,0,1,3.5707,3.5707h0A3.5706,3.5706,0,0,1,317.6509,355.9953Z" transform="translate(-29.752 -35.9022)"/><path class="cls-6" d="M317.6509,396.64H296.1491a3.5707,3.5707,0,0,1-3.5707-3.5707h0a3.5707,3.5707,0,0,1,3.5707-3.5707h21.5018a3.5707,3.5707,0,0,1,3.5707,3.5707h0A3.5707,3.5707,0,0,1,317.6509,396.64Z" transform="translate(-29.752 -35.9022)"/><g class="cls-7"><path d="M370.5086,396.64H332.8131a3.5707,3.5707,0,0,1-3.5706-3.5707h0a3.5707,3.5707,0,0,1,3.5706-3.5707h37.6955a3.5707,3.5707,0,0,1,3.5706,3.5707h0A3.5707,3.5707,0,0,1,370.5086,396.64Z" transform="translate(-29.752 -35.9022)"/></g><g class="cls-7"><path d="M396.8935,396.64h-5.43a3.5708,3.5708,0,0,1-3.5707-3.5707h0a3.5708,3.5708,0,0,1,3.5707-3.5707h5.43a3.5708,3.5708,0,0,1,3.5707,3.5707h0A3.5708,3.5708,0,0,1,396.8935,396.64Z" transform="translate(-29.752 -35.9022)"/></g><g class="cls-7"><path d="M368.25,355.9953H336.394a3.5706,3.5706,0,0,1-3.5706-3.5706h0a3.5707,3.5707,0,0,1,3.5706-3.5707H368.25a3.5707,3.5707,0,0,1,3.5707,3.5707h0A3.5706,3.5706,0,0,1,368.25,355.9953Z" transform="translate(-29.752 -35.9022)"/></g><g class="cls-7"><path d="M438.1051,373.8379H336.394a3.5707,3.5707,0,0,1-3.5706-3.5707h0a3.5707,3.5707,0,0,1,3.5706-3.5707H438.1051a3.5707,3.5707,0,0,1,3.5706,3.5707h0A3.5707,3.5707,0,0,1,438.1051,373.8379Z" transform="translate(-29.752 -35.9022)"/></g><g class="cls-7"><path d="M449.8548,355.9953H384.9159a3.5706,3.5706,0,0,1-3.5706-3.5706h0a3.5707,3.5707,0,0,1,3.5706-3.5707h64.9389a3.5707,3.5707,0,0,1,3.5707,3.5707h0A3.5706,3.5706,0,0,1,449.8548,355.9953Z" transform="translate(-29.752 -35.9022)"/></g><g class="cls-7"><rect x="300.8233" y="274.4711" width="34.0454" height="7.1413" rx="3.5706"/></g><g class="cls-7"><path d="M347.8979,274.4711h6.6854a3.5706,3.5706,0,0,1,3.5706,3.5706v0a3.5706,3.5706,0,0,1-3.5706,3.5706h-6.6855a3.5706,3.5706,0,0,1-3.5706-3.5706v0a3.5707,3.5707,0,0,1,3.5707-3.5707Z"/></g><g class="cls-7"><rect x="368.6694" y="274.4711" width="40.7804" height="7.1413" rx="3.5706"/></g><path class="cls-5" d="M334.5571,297.88h-7.7089a3.5707,3.5707,0,0,1-3.5707-3.5707h0a3.5707,3.5707,0,0,1,3.5707-3.5706h7.7089a3.5706,3.5706,0,0,1,3.5706,3.5706h0A3.5706,3.5706,0,0,1,334.5571,297.88Z" transform="translate(-29.752 -35.9022)"/><g class="cls-7"><path d="M399.8842,297.88H350.7884a3.5707,3.5707,0,0,1-3.5707-3.5707h0a3.5707,3.5707,0,0,1,3.5707-3.5706h49.0958a3.5706,3.5706,0,0,1,3.5707,3.5706h0A3.5706,3.5706,0,0,1,399.8842,297.88Z" transform="translate(-29.752 -35.9022)"/></g><g class="cls-7"><path d="M341.3677,185.9556H308.4571a3.5707,3.5707,0,0,1-3.5707-3.5707h0a3.5706,3.5706,0,0,1,3.5707-3.5706h32.9106a3.5706,3.5706,0,0,1,3.5706,3.5706h0A3.5707,3.5707,0,0,1,341.3677,185.9556Z" transform="translate(-29.752 -35.9022)"/></g><g class="cls-7"><path d="M383.7724,204.6468H308.4571a3.5706,3.5706,0,0,1-3.5707-3.5707h0a3.5706,3.5706,0,0,1,3.5707-3.5706h75.3153a3.5706,3.5706,0,0,1,3.5706,3.5706h0A3.5706,3.5706,0,0,1,383.7724,204.6468Z" transform="translate(-29.752 -35.9022)"/></g><g class="cls-7"><path d="M464.86,223.9624H308.4571a3.5707,3.5707,0,0,1-3.5707-3.5707h0a3.5707,3.5707,0,0,1,3.5707-3.5707H464.86a3.5707,3.5707,0,0,1,3.5707,3.5707h0A3.5707,3.5707,0,0,1,464.86,223.9624Z" transform="translate(-29.752 -35.9022)"/></g><g class="cls-7"><path d="M382.2033,237.5679H308.4571a3.5707,3.5707,0,0,1-3.5707-3.5707h0a3.5707,3.5707,0,0,1,3.5707-3.5707h73.7462a3.5707,3.5707,0,0,1,3.5706,3.5707h0A3.5707,3.5707,0,0,1,382.2033,237.5679Z" transform="translate(-29.752 -35.9022)"/></g><g class="cls-7"><path d="M367.1176,261.3076H293.3714a3.5707,3.5707,0,0,1-3.5707-3.5707h0a3.5707,3.5707,0,0,1,3.5707-3.5707h73.7462a3.5707,3.5707,0,0,1,3.5706,3.5707h0A3.5707,3.5707,0,0,1,367.1176,261.3076Z" transform="translate(-29.752 -35.9022)"/></g><g class="cls-7"><path d="M408.402,261.3076H383.6826a3.5707,3.5707,0,0,1-3.5706-3.5707h0a3.5707,3.5707,0,0,1,3.5706-3.5707H408.402a3.5707,3.5707,0,0,1,3.5707,3.5707h0A3.5707,3.5707,0,0,1,408.402,261.3076Z" transform="translate(-29.752 -35.9022)"/></g><path class="cls-5" d="M471.6012,261.1914h-46.693a3.5708,3.5708,0,0,1-3.5707-3.5707h0a3.5708,3.5708,0,0,1,3.5707-3.5707h46.693a3.5707,3.5707,0,0,1,3.5706,3.5707h0A3.5707,3.5707,0,0,1,471.6012,261.1914Z" transform="translate(-29.752 -35.9022)"/><path class="cls-11" d="M180.24,242.0939H160.5428a3.5708,3.5708,0,0,1-3.5707-3.5707h0a3.5708,3.5708,0,0,1,3.5707-3.5707H180.24a3.5707,3.5707,0,0,1,3.5706,3.5707h0A3.5707,3.5707,0,0,1,180.24,242.0939Z" transform="translate(-29.752 -35.9022)"/><path class="cls-11" d="M174.3448,299.8622h-13.802a3.5707,3.5707,0,0,1-3.5707-3.5707h0a3.5707,3.5707,0,0,1,3.5707-3.5706h13.802a3.5707,3.5707,0,0,1,3.5707,3.5706h0A3.5707,3.5707,0,0,1,174.3448,299.8622Z" transform="translate(-29.752 -35.9022)"/><path class="cls-11" d="M198.8589,261.35H160.5428a3.5708,3.5708,0,0,1-3.5707-3.5707h0a3.5708,3.5708,0,0,1,3.5707-3.5707h38.3161a3.5707,3.5707,0,0,1,3.5706,3.5707h0A3.5707,3.5707,0,0,1,198.8589,261.35Z" transform="translate(-29.752 -35.9022)"/><path class="cls-11" d="M192.136,280.6061H160.5428a3.5707,3.5707,0,0,1-3.5707-3.5707h0a3.5707,3.5707,0,0,1,3.5707-3.5706H192.136a3.5706,3.5706,0,0,1,3.5706,3.5706h0A3.5706,3.5706,0,0,1,192.136,280.6061Z" transform="translate(-29.752 -35.9022)"/><circle class="cls-5" cx="206.2206" cy="146.4827" r="3.6271"/><path class="cls-5" d="M239.6,201.02a3.6271,3.6271,0,1,1-3.6271-3.627A3.6271,3.6271,0,0,1,239.6,201.02Z" transform="translate(-29.752 -35.9022)"/><circle class="cls-5" cx="206.2206" cy="184.4895" r="3.6271"/><path class="cls-5" d="M239.6,239.7636a3.6271,3.6271,0,1,1-3.6271-3.627A3.6271,3.6271,0,0,1,239.6,239.7636Z" transform="translate(-29.752 -35.9022)"/><circle class="cls-5" cx="206.2206" cy="223.2334" r="3.6271"/><path class="cls-5" d="M239.6,278.5075a3.6271,3.6271,0,1,1-3.6271-3.627A3.6271,3.6271,0,0,1,239.6,278.5075Z" transform="translate(-29.752 -35.9022)"/><circle class="cls-5" cx="206.2206" cy="261.9773" r="3.6271"/><path class="cls-5" d="M239.6,317.2514a3.6271,3.6271,0,1,1-3.6271-3.627A3.6271,3.6271,0,0,1,239.6,317.2514Z" transform="translate(-29.752 -35.9022)"/><circle class="cls-5" cx="206.2206" cy="300.7212" r="3.6271"/><path class="cls-5" d="M239.6,355.9953a3.6271,3.6271,0,1,1-3.6271-3.627A3.6271,3.6271,0,0,1,239.6,355.9953Z" transform="translate(-29.752 -35.9022)"/><circle class="cls-5" cx="206.2206" cy="339.4651" r="3.6271"/><path class="cls-5" d="M239.6,394.7392a3.6271,3.6271,0,1,1-3.6271-3.627A3.6271,3.6271,0,0,1,239.6,394.7392Z" transform="translate(-29.752 -35.9022)"/><g class="cls-7"><rect x="411.9237" y="96.184" width="9.0189" height="288.4407"/></g><g class="cls-7"><path d="M357.6975,420.4767a80.0508,80.0508,0,0,0,27.3365-44.6062c2.6841-12.3616,2.4053-25.3175,6.1408-37.403,3.0938-10.0093,8.8051-18.9757,13.0905-28.5357,9.3956-20.96,11.7732-44.5242,10.3014-67.4464s-6.636-45.4267-11.7822-67.8123c-.9746-4.2394-2.0478-8.6749-4.9479-11.9171-5.9024-6.5988-17.6732-5.0231-23.3414,1.7779S368.553,181.42,371.63,189.7212c2.166,5.8437,5.8725,11.89,4.0389,17.8468-1.286,4.1776-5.05,7.1284-6.8741,11.1-4.3645,9.5022,3.504,19.8685,5.2066,30.1855,2.8552,17.3018-11.718,32.1312-17.3577,48.7354-5.427,15.9782-2.3932,33.4246-3.1889,50.2807-1.2094,25.6216-10.9489,49.0176-20.9049,72.6568Z" transform="translate(-29.752 -35.9022)"/></g><g class="cls-7"><path d="M436.5087,379.8243c-.5284-2.7819-2.3777-5.099-4.1293-7.324A240.8963,240.8963,0,0,1,401.3309,320.86l-5.9616,15.6353c-.5565,16.4011,12.9,30.1435,15.26,46.3836,1.8556,12.7721-3.6145,25.7843-8.6952,37.6484l15.7206.0441a31.5341,31.5341,0,0,0,7.71-8.4482,101.2121,101.2121,0,0,0,10.4824-25.4153A15.8446,15.8446,0,0,0,436.5087,379.8243Z" transform="translate(-29.752 -35.9022)"/></g><path class="cls-9" d="M420.93,96.184H578.43a7.6771,7.6771,0,0,1,7.6771,7.6771V378.4065a6.2182,6.2182,0,0,1-6.2182,6.2182H420.93a0,0,0,0,1,0,0V96.184A0,0,0,0,1,420.93,96.184Z"/><rect class="cls-6" x="420.8959" y="144.6221" width="154.826" height="111.7853"/><path class="cls-5" d="M585.3825,326.6428c0,.1438-13.0223.26-29.0824.26-16.0657,0-29.0852-.1166-29.0852-.26s13.02-.26,29.0852-.26C572.36,326.3824,585.3825,326.4991,585.3825,326.6428Z" transform="translate(-29.752 -35.9022)"/><path class="cls-5" d="M598.28,341.4073c0,.1438-18.7973.26-41.98.26-23.19,0-41.9837-.1166-41.9837-.26s18.7933-.26,41.9837-.26C579.4831,341.1469,598.28,341.2635,598.28,341.4073Z" transform="translate(-29.752 -35.9022)"/><path class="cls-5" d="M598.28,352.95c0,.1438-18.7973.26-41.98.26-23.19,0-41.9837-.1166-41.9837-.26s18.7933-.26,41.9837-.26C579.4831,352.6893,598.28,352.8059,598.28,352.95Z" transform="translate(-29.752 -35.9022)"/><path class="cls-5" d="M598.28,364.4921c0,.1439-18.7973.26-41.98.26-23.19,0-41.9837-.1165-41.9837-.26s18.7933-.26,41.9837-.26C579.4831,364.2317,598.28,364.3484,598.28,364.4921Z" transform="translate(-29.752 -35.9022)"/><path class="cls-6" d="M575.3137,400.5428h-38.03a9.6205,9.6205,0,0,1-9.62-9.62h0a9.6206,9.6206,0,0,1,9.62-9.62h38.03a9.6206,9.6206,0,0,1,9.62,9.62h0A9.6205,9.6205,0,0,1,575.3137,400.5428Z" transform="translate(-29.752 -35.9022)"/><path class="cls-5" d="M484.8287,326.6428a6.667,6.667,0,0,1-1.3418.1014l-3.659.0828c-3.09.0471-7.3579.0762-12.0719.0762-4.7156,0-8.9842-.0291-12.0739-.0762l-3.6588-.0828a6.6647,6.6647,0,0,1-1.3416-.1014,6.6706,6.6706,0,0,1,1.3416-.1013l3.6588-.0828c3.09-.0471,7.3583-.0763,12.0739-.0763,4.714,0,8.9822.0292,12.0719.0763l3.659.0828A6.6729,6.6729,0,0,1,484.8287,326.6428Z" transform="translate(-29.752 -35.9022)"/><path class="cls-5" d="M497.7266,341.4073a1.683,1.683,0,0,1-.4779.0525l-1.3707.0489-5.0411.0827c-4.2567.0472-10.1371.0763-16.6316.0763-6.4969,0-12.3778-.0291-16.6345-.0763l-5.0408-.0827-1.37-.0489a.2418.2418,0,1,1,0-.105l1.37-.0488,5.0408-.0828c4.2567-.0471,10.1376-.0763,16.6345-.0763,6.4945,0,12.3749.0292,16.6316.0763l5.0411.0828,1.3707.0488A1.683,1.683,0,0,1,497.7266,341.4073Z" transform="translate(-29.752 -35.9022)"/><path class="cls-5" d="M497.7266,352.95a1.6877,1.6877,0,0,1-.4779.0525l-1.3707.0489-5.0411.0827c-4.2567.0472-10.1371.0763-16.6316.0763-6.4969,0-12.3778-.0291-16.6345-.0763l-5.0408-.0827-1.37-.0489a.2418.2418,0,1,1,0-.105l1.37-.0488,5.0408-.0828c4.2567-.0471,10.1376-.0763,16.6345-.0763,6.4945,0,12.3749.0292,16.6316.0763l5.0411.0828,1.3707.0488A1.683,1.683,0,0,1,497.7266,352.95Z" transform="translate(-29.752 -35.9022)"/><path class="cls-5" d="M497.7266,364.4921a1.6877,1.6877,0,0,1-.4779.0525l-1.3707.0489-5.0411.0827c-4.2567.0472-10.1371.0763-16.6316.0763-6.4969,0-12.3778-.0291-16.6345-.0763l-5.0408-.0827-1.37-.0489a.2418.2418,0,1,1,0-.105l1.37-.0488,5.0408-.0828c4.2567-.0471,10.1376-.0763,16.6345-.0763,6.4945,0,12.3749.0292,16.6316.0763l5.0411.0828,1.3707.0488A1.683,1.683,0,0,1,497.7266,364.4921Z" transform="translate(-29.752 -35.9022)"/><path class="cls-6" d="M475.0616,381.3018h-24.38v19.241h24.38a9.6254,9.6254,0,0,0,0-19.241Z" transform="translate(-29.752 -35.9022)"/><path class="cls-3" d="M575.7219,96.184h2.7253a7.66,7.66,0,0,1,7.66,7.66V378.1056a6.5191,6.5191,0,0,1-6.5191,6.5191h-3.8664a0,0,0,0,1,0,0V96.184A0,0,0,0,1,575.7219,96.184Z"/><path class="cls-1" d="M610.6667,179.763h0a5.1928,5.1928,0,0,1-5.1928-5.1928V147.262a5.1928,5.1928,0,0,1,5.1928-5.1927h0a5.1928,5.1928,0,0,1,5.1927,5.1927V174.57A5.1928,5.1928,0,0,1,610.6667,179.763Z" transform="translate(-29.752 -35.9022)"/><path class="cls-1" d="M577.3854,166.4407H526.2526a12.4358,12.4358,0,0,1,0-24.8715h51.1328a12.4358,12.4358,0,0,1,0,24.8715Zm-51.1328-23.8715a11.4358,11.4358,0,0,0,0,22.8715h51.1328a11.4358,11.4358,0,0,0,0-22.8715Z" transform="translate(-29.752 -35.9022)"/><path class="cls-1" d="M490.0189,153.4734c0,.1439-8.8964.2605-19.8681.2605-10.9756,0-19.87-.1166-19.87-.2605s8.8945-.26,19.87-.26C481.1225,153.2131,490.0189,153.33,490.0189,153.4734Z" transform="translate(-29.752 -35.9022)"/><path class="cls-1" d="M575.9308,153.4734c0,.1439-10.4436.2605-23.3235.2605-12.8843,0-23.3257-.1166-23.3257-.2605s10.4414-.26,23.3257-.26C565.4872,153.2131,575.9308,153.33,575.9308,153.4734Z" transform="translate(-29.752 -35.9022)"/><ellipse class="cls-9" cx="502.8455" cy="180.3757" rx="11.0256" ry="11.3826"/><path class="cls-9" d="M605.474,267.4551s-.1553-.1008-.442-.3178l-1.2649-.9738-4.8318-3.7836-17.71-13.9914-12.2142-9.6816-1.66-1.3152a4.94,4.94,0,0,0-1.838-.8932,4.7737,4.7737,0,0,0-3.9866.8375c-2.1982,1.9528-4.4647,4.073-6.7872,6.1859L540.157,256.8668c-1.2738,1.156-2.52,2.3249-3.8473,3.4982a5.2208,5.2208,0,0,1-5.2174.8291,5.6235,5.6235,0,0,1-2.2267-1.6189l-1.8181-1.9732-3.6713-3.9854L508.9984,237.999l-6.8337-7.4288-3.3125-3.6023-1.6282-1.7711a19.2354,19.2354,0,0,0-1.63-1.675,4.7089,4.7089,0,0,0-4.1881-.8741,4.7931,4.7931,0,0,0-1.9059,1.0178c-.5218.478-1.0216,1.0889-1.5277,1.6221l-5.8637,6.4047-10.5312,11.49L456.3016,259.796l-4.1727,4.4989q-.7052.7481-1.0948,1.1612c-.2489.26-.3862.3836-.3862.3836s.1109-.1481.3468-.4195l1.0567-1.196,4.1005-4.5649,15.1539-16.7248L481.79,231.4012l5.8445-6.4224c.52-.5494.9681-1.1127,1.56-1.6619a5.2574,5.2574,0,0,1,2.089-1.1222,5.183,5.183,0,0,1,4.6092.9513,19.2643,19.2643,0,0,1,1.6878,1.7225l1.6315,1.7679,3.3185,3.5969,6.8432,7.42,14.3856,15.61L527.43,257.25l1.8174,1.9738a5.0946,5.0946,0,0,0,2.0335,1.4882,4.7033,4.7033,0,0,0,4.7036-.7457c1.2842-1.1341,2.5632-2.3295,3.8282-3.4757l14.6027-13.3225c2.3417-2.12,4.5654-4.1954,6.835-6.1972a5.2255,5.2255,0,0,1,4.3677-.9048,5.3812,5.3812,0,0,1,2.0043.9813l1.6572,1.322L581.4542,248.1l17.6073,14.1209,4.771,3.86,1.2326,1.0142C605.341,267.3264,605.474,267.4551,605.474,267.4551Z" transform="translate(-29.752 -35.9022)"/><path class="cls-5" d="M608.2887,421.0267H143.5011a8.0792,8.0792,0,0,1-8.07-8.07v-273.3a8.0792,8.0792,0,0,1,8.07-8.07H608.2887a8.0792,8.0792,0,0,1,8.07,8.07v273.3A8.0792,8.0792,0,0,1,608.2887,421.0267Zm-464.7876-288.44a7.0785,7.0785,0,0,0-7.07,7.07v273.3a7.0785,7.0785,0,0,0,7.07,7.07H608.2887a7.0785,7.0785,0,0,0,7.07-7.07v-273.3a7.0785,7.0785,0,0,0-7.07-7.07Z" transform="translate(-29.752 -35.9022)"/><path class="cls-5" d="M648.8508,437.2724c0,.1439-123.254.26-275.26.26-152.0592,0-275.2868-.1165-275.2868-.26s123.2276-.26,275.2868-.26C525.5968,437.012,648.8508,437.1287,648.8508,437.2724Z" transform="translate(-29.752 -35.9022)"/></g><g id="Character"><path class="cls-12" d="M407.86,444.1943l18.3551,2.1312c-1.7633,4.5957-2.8773,8.221-2.8773,8.221a25.3816,25.3816,0,0,1-17.5548-.4059Z" transform="translate(-29.752 -35.9022)"/><path class="cls-12" d="M334.7291,440.4086c-1.2615,5.2641-3.3939,11.601-3.3939,11.601l17.9552,1.7955c.4331-2.6471,3.09-8.6773,4.22-12.0255Z" transform="translate(-29.752 -35.9022)"/><path class="cls-5" d="M402.0979,154.1153c-2.22-1.4093-2.756-4.6781-1.5531-7.0161a8.5754,8.5754,0,0,1,6.3517-4.1766,12.1014,12.1014,0,0,1,10.4261,3.4549c1.4328,1.4753,2.5933,3.4,4.5358,4.0759,1.7073.5942,3.5963.0577,5.3892.29a8.1327,8.1327,0,0,1,5.6958,4.1066,17.559,17.559,0,0,1,2.0254,6.927c.2613,2.2088.4338,4.6329,1.9662,6.2449,1.4944,1.572,3.855,1.9049,5.7134,3.0233a7.82,7.82,0,0,1,2.3226,10.6817c-.7356,1.073-1.7916,2.0571-1.8769,3.3556-.078,1.1853.6881,2.2407,1.0471,3.3732a5.2787,5.2787,0,0,1-4.5163,6.5546c-1.5415.0886-3.193-.5124-4.5747.1769-1.3725.6846-1.8833,2.34-2.7611,3.5974a6.6013,6.6013,0,0,1-8.048,2.0786c-1.1338-.5561-2.2045-1.4739-3.4646-1.3892-1.2573.0848-2.2472,1.1584-3.4843,1.3977-1.62.3133-3.1577-.88-4.1209-2.2191s-1.6341-2.9174-2.8668-4.0138c-1.614-1.4356-3.8816-1.79-5.924-2.4935a16.71,16.71,0,0,1-9.4364-23.4084" transform="translate(-29.752 -35.9022)"/><path class="cls-11" d="M425.5854,183.1421a4.5348,4.5348,0,0,1,1.8017-1.1854l-.1377-.0084a2.6747,2.6747,0,0,1,.3859-.0654,1.791,1.791,0,0,1,1.4078.1741l-.0134-.0009a3.3333,3.3333,0,0,1,1.8228,1.5867,3.9443,3.9443,0,0,1-.4647,4.0642,3.0146,3.0146,0,0,1-5.5318-1.0356A3.742,3.742,0,0,1,425.5854,183.1421Z" transform="translate(-29.752 -35.9022)"/><path class="cls-12" d="M396.2933,206.7513l-2.359-43.303a3.6762,3.6762,0,0,1,3.1818-3.82l19.36-5.4828c6.226-.8378,10.5967,6.7337,11.17,12.99.6365,6.95,1.14,15.4614.4621,20.68-1.362,10.494-9.96,12.0828-9.96,12.0828-.0035-.0353-.0632,10.6862,0,14.4836l2.3858,11.7714Z" transform="translate(-29.752 -35.9022)"/><path class="cls-5" d="M423.6113,175.7157a1.34,1.34,0,0,1-1.2534,1.3883,1.2821,1.2821,0,0,1-1.4155-1.1688,1.3409,1.3409,0,0,1,1.252-1.389A1.2826,1.2826,0,0,1,423.6113,175.7157Z" transform="translate(-29.752 -35.9022)"/><path class="cls-5" d="M425.9235,171.6187c-.161.18-1.1975-.5427-2.6392-.4981-1.44.0241-2.4776.7959-2.639.6239-.0791-.0761.0814-.3962.5324-.7448a3.6791,3.6791,0,0,1,2.1065-.7155,3.5332,3.5332,0,0,1,2.1068.6148C425.844,171.2265,426.0032,171.5383,425.9235,171.6187Z" transform="translate(-29.752 -35.9022)"/><path class="cls-5" d="M409.4994,175.7157a1.34,1.34,0,0,1-1.2534,1.3883,1.282,1.282,0,0,1-1.4152-1.1686,1.341,1.341,0,0,1,1.2522-1.3892A1.2823,1.2823,0,0,1,409.4994,175.7157Z" transform="translate(-29.752 -35.9022)"/><path class="cls-5" d="M411.76,172.29c-.1616.1794-1.1992-.5426-2.64-.4979-1.44.0239-2.4776.7957-2.639.6236-.0788-.0761.08-.3959.5327-.7446a3.6774,3.6774,0,0,1,2.1062-.7157,3.5362,3.5362,0,0,1,2.107.6147C411.6787,171.8982,411.8389,172.21,411.76,172.29Z" transform="translate(-29.752 -35.9022)"/><path class="cls-5" d="M417.2956,182.8337a9.5547,9.5547,0,0,1,2.33-.4891c.367-.0484.7134-.1315.7683-.3844a1.8734,1.8734,0,0,0-.2767-1.0843q-.5572-1.3215-1.1683-2.7722c-1.6253-3.9484-2.813-7.1992-2.6535-7.2631s1.6067,3.0841,3.2318,7.0325q.5874,1.4607,1.1231,2.79a2.13,2.13,0,0,1,.232,1.44.9249.9249,0,0,1-.59.5554,2.4779,2.4779,0,0,1-.6229.1045A9.3789,9.3789,0,0,1,417.2956,182.8337Z" transform="translate(-29.752 -35.9022)"/><path class="cls-13" d="M418.148,199.898a25.0881,25.0881,0,0,1-13.4687-3.3666s3.0242,7.77,13.4522,6.4957Z" transform="translate(-29.752 -35.9022)"/><path class="cls-13" d="M417.18,186.2678a3.5485,3.5485,0,0,0-2.9646-1.4661,2.31,2.31,0,0,0-1.8677,1.0859,2.1176,2.1176,0,0,0,2.4643,3.104,5.2625,5.2625,0,0,0,2.0857-1.3731,1.6446,1.6446,0,0,0,.4407-.5525.7352.7352,0,0,0-.0773-.73" transform="translate(-29.752 -35.9022)"/><path class="cls-5" d="M413.0811,183.9515c.234-.02.2815,1.5445,1.6528,2.6172,1.3684,1.0765,3.0317.8533,3.05,1.0716.0247.0978-.3629.3147-1.0663.3537a3.8973,3.8973,0,0,1-2.5438-.806,3.3938,3.3938,0,0,1-1.2853-2.1973C412.81,184.3383,412.974,183.9456,413.0811,183.9515Z" transform="translate(-29.752 -35.9022)"/><path class="cls-5" d="M412.228,166.337c-.1309.396-1.5757.2512-3.2611.5031-1.6911.218-3.0408.7518-3.2754.4066-.1048-.1654.1225-.5407.6632-.9361a5.737,5.737,0,0,1,4.98-.6932C411.9627,165.85,412.2838,166.1492,412.228,166.337Z" transform="translate(-29.752 -35.9022)"/><path class="cls-5" d="M425.2749,166.6717c-.2443.3345-1.2471.0231-2.4418.0409-1.1952-.0239-2.1994.2826-2.4419-.0532-.1069-.1634.0433-.4959.4763-.8185a3.536,3.536,0,0,1,3.9349.01C425.2341,166.1753,425.3823,166.5086,425.2749,166.6717Z" transform="translate(-29.752 -35.9022)"/><path class="cls-5" d="M434.6884,164.94a7.1753,7.1753,0,0,0-2.7555-3.9535,26.5892,26.5892,0,0,1-2.3258-1.3533c-1.51-1.2187-1.8594-3.34-2.7915-5.0416a7.89,7.89,0,0,0-6.0109-3.9875c-2.07-.2117-4.2032.41-6.2211-.0992-1.4916-.3761-2.7945-1.3444-4.3057-1.6315-2.9428-.5593-5.6786,1.5525-7.8121,3.6553-.0079,2.1065,1.67,3.5153,3.2857,4.8672a7.3056,7.3056,0,0,0,5.9155,1.5611c1.6077-.2939,3.37-1.1065,4.7614-.25,1.4638.9009,1.5242,3.1072,2.8222,4.2341,1.8552,1.61,4.8048.0993,7.16.7977,1.8187.5394,2.9547,2.2778,4.163,3.74s3.018,2.8529,4.8365,2.3131A21.3451,21.3451,0,0,0,434.6884,164.94Z" transform="translate(-29.752 -35.9022)"/><path class="cls-5" d="M412.5916,156.0365c-1.3192-.3775-4.0187-1.2318-4.7264-2.376a8.0637,8.0637,0,0,0-7.0145-4.0309,6.6555,6.6555,0,0,0-5.9922,5.2607,9.57,9.57,0,0,0-8.2254,5.2949,10.0067,10.0067,0,0,0-.5222,1.2277,7.28,7.28,0,0,0-.4873,6.1126c.4566,1.1915,1.2341,2.5172.6212,3.6361-.6237,1.1389-2.2,1.1748-3.4282,1.598a4.8346,4.8346,0,0,0-3.0454,5.4,5.8955,5.8955,0,0,1,.3844,2.378,5.18,5.18,0,0,1-1.4223,2.0556,6.0168,6.0168,0,0,0,3.5282,9.7931,7.7615,7.7615,0,0,1,2.7685.6312c.9315.5733,1.3391,1.694,1.9964,2.5683a5.1908,5.1908,0,0,0,5.6239,1.7611,4.7536,4.7536,0,0,0,1.13-.5686,3.7251,3.7251,0,0,0,3.302,1.4622l-.3874-22.028a1.8233,1.8233,0,0,0,1.3351,1.0461c3.5352.8,4.0521-6.4857,3.2632-8.46a20.56,20.56,0,0,0,3.5478-3.73,14.8264,14.8264,0,0,0,1.6271-7.1477C407.7426,157.9948,413.171,156.2023,412.5916,156.0365Z" transform="translate(-29.752 -35.9022)"/><path class="cls-12" d="M397.6687,178.004c-.1119-2.2389-2.8516-2.7177-4.7924-1.596-1.0653.6159-1.88,1.8542-1.7825,4.2312.2611,6.3389,6.5711,4.7691,6.5749,4.5871C397.6706,185.1132,397.8,180.6256,397.6687,178.004Z" transform="translate(-29.752 -35.9022)"/><path class="cls-13" d="M395.6333,182.9044c-.0287-.0191-.1074.0819-.29.1751a1.1043,1.1043,0,0,1-.8247.0511,2.7347,2.7347,0,0,1-1.3653-2.3995,3.6514,3.6514,0,0,1,.2441-1.5936,1.2762,1.2762,0,0,1,.7955-.8819.5628.5628,0,0,1,.6642.2758c.0923.1737.0572.3019.0913.3115.0184.0151.1316-.1119.07-.3715a.7056.7056,0,0,0-.2657-.387.834.834,0,0,0-.6172-.1362,1.5534,1.5534,0,0,0-1.1131,1.03,3.7505,3.7505,0,0,0-.31,1.7827,2.8685,2.8685,0,0,0,1.7236,2.6709,1.183,1.183,0,0,0,1.0029-.2092C395.6283,183.058,395.6557,182.9151,395.6333,182.9044Z" transform="translate(-29.752 -35.9022)"/><path class="cls-11" d="M403.8638,154.3249a3.783,3.783,0,0,0-1.2645,1.0589,5.8457,5.8457,0,0,0-.4664,4.3835l.0342.16-.1562.0388a6.13,6.13,0,0,0-4.0838,3.5979,4.771,4.771,0,0,0-.3281,1.5463,9.3218,9.3218,0,0,0,.1982,1.6749,12.5656,12.5656,0,0,1,.2415,1.8038,2.981,2.981,0,0,1-.5022,1.87,7.6881,7.6881,0,0,1-3.1446,2.3627,10.6626,10.6626,0,0,0-2.9433,1.9277,7.9213,7.9213,0,0,0-2.3674,5.3114,8.2684,8.2684,0,0,0,.8353,3.9174c.421.8653.7746,1.2782.7387,1.3043-.0121.01-.1045-.0882-.2709-.2849a6.7141,6.7141,0,0,1-.6223-.9393,8.0467,8.0467,0,0,1-.997-4.0057,8.1527,8.1527,0,0,1,2.393-5.5954,10.9128,10.9128,0,0,1,3.034-2.0255,7.3764,7.3764,0,0,0,2.969-2.2161c.7022-.9621.3881-2.2187.2035-3.3542a9.5947,9.5947,0,0,1-.1952-1.7592,5.14,5.14,0,0,1,.3707-1.6916,6.4242,6.4242,0,0,1,4.3926-3.7667l-.122.1987a5.8889,5.8889,0,0,1,.6394-4.5673,2.6691,2.6691,0,0,1,.9918-.8084A1.5376,1.5376,0,0,1,403.8638,154.3249Z" transform="translate(-29.752 -35.9022)"/><path class="cls-11" d="M393.2656,185.2773a4.53,4.53,0,0,1,1.8017-1.1854l-.1377-.0084a2.6308,2.6308,0,0,1,.3858-.0655,1.7912,1.7912,0,0,1,1.4079.1741l-.0134-.0008a3.3322,3.3322,0,0,1,1.8226,1.5865,3.944,3.944,0,0,1-.4646,4.0643,3.0146,3.0146,0,0,1-5.5317-1.0356A3.7414,3.7414,0,0,1,393.2656,185.2773Z" transform="translate(-29.752 -35.9022)"/><path class="cls-12" d="M461.3933,218.642c-.2132.32-5.8628,6.8221-5.8628,6.8221l-3.6243,5.9694v-7.6749s-1.066-1.599-1.7056.8528-2.6649,11.7256-2.6649,11.7256l-2.1319,7.1419,7.9947,5.9694s3.1979-3.6243,4.7969-5.01,5.4364-3.4111,6.7155-3.5177,6.8222-2.4517,6.8222-3.1979-1.0659-1.0659-2.5583-.4264-6.8222,2.132-7.3551,1.1726,8.7409-5.65,9.2738-6.5024.32-2.0253-2.2385-1.0659-7.3551,3.8374-8.5277,3.1445.9594-2.0786,1.1726-2.3984,6.1826-5.33,5.9694-6.3958-.32-2.1319-1.7056-1.1725-7.0353,7.3551-8.2079,6.7156,1.066-2.9847,1.0127-3.5177,4.1039-6.076,4.1039-7.2486S461.3933,218.642,461.3933,218.642Z" transform="translate(-29.752 -35.9022)"/><polygon class="cls-12" points="423.646 213.546 411.47 224.959 406.277 213.546 415.652 207.577 423.646 213.546"/><path class="cls-6" d="M395.7532,201.043c.6473.3237,12.9511,10.17,12.9511,10.17l11.4345,7.429s6.6924,34.3535,5.7215,40.0172-7.1209,25.0346-7.7681,24.8728l-39.8378-4.3786,4.5267-16.9436-6.7617-32.3607s-1.2987-9.4262,3.006-13.895c4.4785-4.6492,14.4692-10.6149,14.4692-10.6149Z" transform="translate(-29.752 -35.9022)"/><path class="cls-6" d="M418.362,217.4875l.0545,5.179-3.9511,60.6289h8.1735s11.1252-26.1412,10.8015-34.3941c-.2353-6-4.8674-17.1274-7.1113-24.0559a73.9059,73.9059,0,0,0-3.2662-7.86c-1.7325-1.5438-2.0749-1.8425-2.0749-2.1921l.7337-3.3337-3.6024-3.321.0287,6.2425Z" transform="translate(-29.752 -35.9022)"/><path class="cls-5" d="M393.5831,205.89a5.9046,5.9046,0,0,1,.8265.9164l2.1208,2.6264c1.78,2.2384,4.2263,5.3694,6.9466,8.8978l-.4093-.0025.8867-1.1255,3.7551-4.7337.12-.1518.1736.0813c2.99,1.4,5.5376,2.6122,7.3321,3.4871l2.088,1.0406a3.3144,3.3144,0,0,1,.7245.4226,3.3263,3.3263,0,0,1-.7916-.2772l-2.1466-.9135c-1.83-.7979-4.4057-1.95-7.4109-3.3165l.2937-.07c-1.1563,1.474-2.414,3.0774-3.7294,4.7541l-.888,1.1243-.2068.2618-.2028-.2643c-2.7114-3.5352-5.1091-6.7037-6.8154-8.9987l-1.9937-2.7243A5.91,5.91,0,0,1,393.5831,205.89Z" transform="translate(-29.752 -35.9022)"/><path class="cls-6" d="M424.6892,452.6705l.0192,1.2009s20.458,7.9315,20.7212,11.7918l-40.4292.28.4567-13.4572A23.13,23.13,0,0,0,424.6892,452.6705Z" transform="translate(-29.752 -35.9022)"/><path class="cls-9" d="M409.5805,456.7591a1.65,1.65,0,0,0-1.1284,1.8918,1.5867,1.5867,0,0,0,1.8654,1.1352,1.7411,1.7411,0,0,0,1.1846-2.01,1.6468,1.6468,0,0,0-2.0713-.9658" transform="translate(-29.752 -35.9022)"/><path class="cls-5" d="M405,465.9432l.11-3.2367,38.7089.9168s1.8053.7707,1.6106,2.04Z" transform="translate(-29.752 -35.9022)"/><path class="cls-5" d="M424.8505,453.9834c-.0051.1976-.9915.2939-1.9585.9354-.9837.6162-1.4783,1.4748-1.6606,1.3979-.1823-.0372.1039-1.22,1.2882-1.9753C423.697,453.5747,424.8923,453.802,424.8505,453.9834Z" transform="translate(-29.752 -35.9022)"/><path class="cls-5" d="M429.1034,455.7078c.0464.191-.8063.5329-1.4712,1.3726-.6892.82-.8522,1.7239-1.0487,1.7168-.1855.0322-.33-1.1231.5165-2.1513C427.9368,455.6106,429.0979,455.52,429.1034,455.7078Z" transform="translate(-29.752 -35.9022)"/><path class="cls-5" d="M431.5468,460.7664c-.1792.0434-.4607-.941.0389-2.0256.4918-1.0885,1.42-1.5215,1.5046-1.3575.1124.1615-.483.7458-.88,1.6425C431.7934,459.9129,431.7429,460.7456,431.5468,460.7664Z" transform="translate(-29.752 -35.9022)"/><path class="cls-6" d="M349.8372,451.1987l-.08,1.1985s19.7366,9.5868,19.6815,13.4557l-40.3153-3.0454,1.5617-13.3741A23.13,23.13,0,0,0,349.8372,451.1987Z" transform="translate(-29.752 -35.9022)"/><path class="cls-9" d="M334.4434,454.0311a1.65,1.65,0,0,0-1.28,1.7926,1.5868,1.5868,0,0,0,1.7658,1.2848,1.7412,1.7412,0,0,0,1.3458-1.9056A1.6467,1.6467,0,0,0,334.29,454.07" transform="translate(-29.752 -35.9022)"/><path class="cls-5" d="M329.1234,462.8075l.3757-3.2167,38.5024,4.0967s1.7359.9164,1.4375,2.1654Z" transform="translate(-29.752 -35.9022)"/><path class="cls-5" d="M349.89,452.5205c-.0213.1965-1.0124.2113-2.0288.7711-1.031.5333-1.5946,1.3483-1.77,1.2567-.1786-.0521.2039-1.2069,1.4464-1.8628C348.774,452.0183,349.9466,452.3431,349.89,452.5205Z" transform="translate(-29.752 -35.9022)"/><path class="cls-5" d="M353.9867,454.5888c.0305.1941-.8474.4647-1.5791,1.2469-.7543.76-.991,1.6479-1.1863,1.6247-.1875.0169-.2366-1.1464.6917-2.1015C352.832,454.3959,353.9967,454.4008,353.9867,454.5888Z" transform="translate(-29.752 -35.9022)"/><path class="cls-5" d="M356.0059,459.8311c-.1822.0286-.3818-.9757.2052-2.0155.58-1.0444,1.54-1.4,1.6112-1.2293.0988.17-.5427.7036-1.0116,1.5647C356.3218,459.0007,356.203,459.8265,356.0059,459.8311Z" transform="translate(-29.752 -35.9022)"/><path class="cls-5" d="M420.4713,294.3835s31.9027,74.1122,30.3871,84.0908-21.7532,68.1868-21.7532,68.1868L405,443.8622l12.5864-66.3915L394.1783,329.46l4.0335-48.6817,24.4271,2.5172Z" transform="translate(-29.752 -35.9022)"/><path class="cls-5" d="M378.0813,276.8817l-2.0619,5.4237c-3.9069,5.1831-10.3348,14.9867-12.3137,20.9549-2.7988,8.4407-1.2373,35.0452-1.2373,35.0452l-2.7636,39.1652s-7.64,15.24-11.734,23.797c-3.5391,7.3975-14.8231,40.4954-14.8231,40.4954l23.6786,1.7493s30.0631-49.11,32.862-56.1041,8.8733-63.1962,8.8733-63.1962l10.15-42.3519Z" transform="translate(-29.752 -35.9022)"/><path class="cls-11" d="M408.7118,284.7256a1.0115,1.0115,0,0,1-.0117.2655c-.0226.204-.0509.4578-.0858.7719-.0921.7169-.2191,1.7065-.38,2.9607-.3586,2.61-.8675,6.3142-1.494,10.8744-.3235,2.2982-.6773,4.8107-1.0567,7.5055q-.1527,1.0173-.31,2.0684a18.3981,18.3981,0,0,1-.5548,2.1017,15.8032,15.8032,0,0,1-2.073,4.0213,26.1783,26.1783,0,0,0-2.4419,3.9648,16.0938,16.0938,0,0,0-1.2577,4.65c-.3968,3.31-.8076,6.7352-1.2283,10.244-1.7023,14.0266-3.243,26.7216-4.364,35.9592-.5795,4.5671-1.05,8.2768-1.3817,10.89-.17,1.2529-.3046,2.2415-.4019,2.9576-.0478.3124-.0865.5647-.1175.7676a.1335.1335,0,1,1-.0529-.0063c.0175-.2044.0392-.4589.0662-.7737.0738-.7189.1757-1.7113.3048-2.9692l1.2173-10.91c1.0822-9.2423,2.5694-21.9437,4.2126-35.9774.4247-3.5112.8393-6.9393,1.24-10.2511a16.5383,16.5383,0,0,1,1.3108-4.7875,26.4165,26.4165,0,0,1,2.4983-4.0292,15.3943,15.3943,0,0,0,2.0356-3.8979,18.0668,18.0668,0,0,0,.5512-2.04q.1623-1.0364.32-2.04c.4021-2.6924.777-5.2027,1.12-7.4987.6953-4.5514,1.26-8.2487,1.6581-10.8532.202-1.2485.3615-2.2335.4769-2.9471.0558-.3111.1008-.5625.1371-.7645A1.0073,1.0073,0,0,1,408.7118,284.7256Z" transform="translate(-29.752 -35.9022)"/><path class="cls-5" d="M420.3668,281.5481a3.3871,3.3871,0,0,1,.2443-.6393c.2025-.4572.4652-1.05.7915-1.7875.3619-.7675.762-1.725,1.2144-2.8413q.3463-.8385.7362-1.7823l.737-2.0316a56.8266,56.8266,0,0,0,3.4974-23.1914,71.7481,71.7481,0,0,0-2.2145-12.8031,103.9963,103.9963,0,0,0-3.3885-10.0824c-.5665-1.3975-1.0812-2.6669-1.5375-3.7925l-1.2717-2.8173c-.3237-.7383-.5843-1.3326-.7852-1.7906a3.3819,3.3819,0,0,1-.2421-.64,3.361,3.361,0,0,1,.3365.5943l.8743,1.75,1.3544,2.7857c.4787,1.12,1.0187,2.3829,1.613,3.7732a96.2082,96.2082,0,0,1,3.51,10.093,69.7572,69.7572,0,0,1,2.2713,12.8953,55.3671,55.3671,0,0,1-3.6713,23.3526l-.7751,2.0278-.7759,1.7733c-.48,1.1092-.9077,2.057-1.2985,2.8127l-.8809,1.748A3.3493,3.3493,0,0,1,420.3668,281.5481Z" transform="translate(-29.752 -35.9022)"/><path class="cls-6" d="M397.01,220.2075c.43.7737,15.6251,35.0062,15.6251,35.0062l28.7145-10.16,7.5349,13.2974s-32.4975,21.3714-41.0979,20.7911-10.0667-2.1814-13.2406-8.9243c-3.892-8.2689-15.7055-38.6692-15.7055-38.6692s-3.72-16.7927,7.5911-17.9329C393.4972,212.9032,397.01,220.2075,397.01,220.2075Z" transform="translate(-29.752 -35.9022)"/><path class="cls-6" d="M397.01,220.2075c.43.7737,15.6251,35.0062,15.6251,35.0062l28.7145-10.16,7.5349,13.2974s-32.4975,21.3714-41.0979,20.7911-10.0667-2.1814-13.2406-8.9243c-3.892-8.2689-15.7055-38.6692-15.7055-38.6692s-4.3045-16.7927,7.5911-17.9329C393.5007,212.9378,397.01,220.2075,397.01,220.2075Z" transform="translate(-29.752 -35.9022)"/><path class="cls-5" d="M397.01,220.2074s-.1071-.1843-.3268-.5358a15.4606,15.4606,0,0,0-1.0542-1.5035,14.5979,14.5979,0,0,0-2.07-2.1374,10.2573,10.2573,0,0,0-3.5241-1.9457,9.38,9.38,0,0,0-4.996-.1069,7.7707,7.7707,0,0,0-4.846,3.2441,13.0092,13.0092,0,0,0-1.9036,6.5536,28.2331,28.2331,0,0,0,.7345,7.7254l-.0069-.0214c3.6568,9.2847,7.9548,20.2488,12.9608,32.2508,1.271,2.99,2.5459,6.0717,4.1285,9.0552a11.5233,11.5233,0,0,0,3.0847,3.9288,10.8912,10.8912,0,0,0,4.7613,1.7546c.8608.1417,1.7353.2388,2.616.3183a10.129,10.129,0,0,0,2.6131.019,24.0617,24.0617,0,0,0,5.1356-1.4737,99.12,99.12,0,0,0,9.9825-4.6677c8.6869-4.6072,16.8346-9.6077,24.4461-14.5249l-.0807.3346-7.5242-13.3032.2886.1078L412.7,255.3976l-.1706.06-.073-.1649c-4.7751-10.7872-8.6515-19.5444-11.3427-25.6242l-3.067-7q-.509-1.1844-.786-1.8292c-.1744-.4137-.2509-.6325-.2509-.6325s.1108.201.3019.6061l.8356,1.8039c.7317,1.61,1.7959,3.9508,3.1612,6.9541l11.5046,25.5629-.2433-.1047,28.6994-10.2026.1894-.0673.0995.1753,7.5452,13.2913.1173.2066-.1981.1283c-7.6215,4.9364-15.7682,9.9437-24.4808,14.5649a99.22,99.22,0,0,1-10.039,4.6905,24.49,24.49,0,0,1-5.2549,1.5007,7.8007,7.8007,0,0,1-1.3835.08c-.4541-.02-.8947-.0669-1.3413-.0989-.89-.0811-1.7758-.18-2.655-.3256a11.3757,11.3757,0,0,1-4.9776-1.852,11.991,11.991,0,0,1-3.2228-4.0974c-1.599-3.0252-2.8675-6.11-4.1351-9.1062-4.9877-12.0218-9.2518-22.9967-12.8689-32.3l-.005-.0126-.0021-.0092a28.4744,28.4744,0,0,1-.7084-7.839,13.2938,13.2938,0,0,1,1.9962-6.7036,8.0379,8.0379,0,0,1,5.0373-3.325,9.5759,9.5759,0,0,1,5.1161.1568,10.3443,10.3443,0,0,1,3.5646,2.0231,14.2244,14.2244,0,0,1,2.0528,2.194A10.4947,10.4947,0,0,1,397.01,220.2074Z" transform="translate(-29.752 -35.9022)"/><path class="cls-11" d="M405.066,284.1329a2.6762,2.6762,0,0,0-1.5262.18,1.4975,1.4975,0,0,0-.844,1.2393,1.6215,1.6215,0,0,0,.8751,1.5507,1.5742,1.5742,0,0,0,1.7193-.408,1.3476,1.3476,0,0,0,.2324-1.4479c-.373-.897-1.1166-.9891-1.0762-1.0645.0017-.0286.1742-.0616.4668.0387a1.75,1.75,0,0,1,.9449.8738,1.719,1.719,0,0,1-.2066,1.9157,2.02,2.02,0,0,1-2.2926.5679,2.0647,2.0647,0,0,1-1.1413-2.0668,1.8542,1.8542,0,0,1,1.1671-1.5329,1.9189,1.9189,0,0,1,1.28-.0844C404.9564,283.9868,405.0806,284.1071,405.066,284.1329Z" transform="translate(-29.752 -35.9022)"/><path class="cls-11" d="M370.8412,292.2761c.0244-.099,1.3736.2816,3.6023.4451a23.2237,23.2237,0,0,0,3.9116-.0581,23.3486,23.3486,0,0,0,9.0768-2.857,23.21,23.21,0,0,0,3.24-2.193c1.7332-1.41,2.621-2.4951,2.6977-2.4279a3.5669,3.5669,0,0,1-.58.7954,8.3644,8.3644,0,0,1-.7719.8584,14.0143,14.0143,0,0,1-1.1091,1.056,20.7711,20.7711,0,0,1-3.24,2.3281,22.0681,22.0681,0,0,1-9.27,2.9178,20.7634,20.7634,0,0,1-3.9888-.053,13.9672,13.9672,0,0,1-1.5139-.23,8.3548,8.3548,0,0,1-1.1246-.2616A3.567,3.567,0,0,1,370.8412,292.2761Z" transform="translate(-29.752 -35.9022)"/><path class="cls-11" d="M417.9766,379.419a22.1436,22.1436,0,0,1,11.1619-4.7112c.0333.1547-2.6309.7479-5.7072,2.0573C420.3482,378.0554,418.0641,379.5507,417.9766,379.419Z" transform="translate(-29.752 -35.9022)"/><path class="cls-11" d="M360.227,377.31a10.8266,10.8266,0,0,1,6.2026,3.1955,30.2113,30.2113,0,0,1-3.0754-1.6483A30.2147,30.2147,0,0,1,360.227,377.31Z" transform="translate(-29.752 -35.9022)"/><path class="cls-5" d="M425.0379,221.4a4.5154,4.5154,0,0,1,.5986.931c.3643.612.834,1.5283,1.39,2.6727a63.6814,63.6814,0,0,1,3.5219,9.2918,54.3746,54.3746,0,0,1,1.9892,9.74,28.9529,28.9529,0,0,1,.14,3.0141,4.5091,4.5091,0,0,1-.0913,1.1043c-.0876-.0013-.0749-1.5709-.4149-4.0759a66.7319,66.7319,0,0,0-2.123-9.6358,81.5721,81.5721,0,0,0-3.3575-9.2863C425.6812,222.8359,424.9622,221.4405,425.0379,221.4Z" transform="translate(-29.752 -35.9022)"/><path class="cls-5" d="M420.695,215.5767a20.47,20.47,0,0,1,.7807-4.1778l.4794.16c-.1551.3745-.3266.7675-.5168,1.1651a14.7351,14.7351,0,0,1-3.1,4.5791c-.134-.0967,1.3315-2.0869,2.6306-4.8039l.52-1.1376.4793.16A20.4767,20.4767,0,0,1,420.695,215.5767Z" transform="translate(-29.752 -35.9022)"/></g></svg>