<?xml version="1.0" encoding="utf-8"?>
<!-- Generator: Adobe Illustrator 24.3.0, SVG Export Plug-In . SVG Version: 6.00 Build 0)  -->
<svg version="1.1" id="Livello_1" xmlns="http://www.w3.org/2000/svg" xmlns:xlink="http://www.w3.org/1999/xlink" x="0px" y="0px"
	 viewBox="0 0 316.9 316.9" style="enable-background:new 0 0 316.9 316.9;" xml:space="preserve">
<style type="text/css">
	.st0{fill:#FFFFFF;}
	.st1{fill:#3953FF;}
</style>
<rect x="-49.5" y="-51.6" class="st0" width="413.7" height="408.4"/>
<g>
	<path class="st1" d="M157,113.4c-3.8,0-7.3,2-9.7,5.1c-0.1,0.2-0.2,0.3-0.3,0.5l0-13.1c0-0.4-0.4-0.8-0.8-0.8h-6
		c-0.4,0-0.8,0.4-0.8,0.8v37.9c0,0.4,0.4,0.8,0.8,0.8h6c0.4,0,0.8-0.4,0.8-0.8v-4.8c0.2,0.3,0.4,0.5,0.6,0.8
		c2.2,2.8,5.3,4.6,8.8,4.8c0.2,0,0.4,0,0.6,0h0.1c0.8,0,1.7-0.1,2.5-0.3c0.3-0.1,0.6-0.1,0.8-0.2c5.6-1.7,9.8-7.8,9.8-15.1v-0.2
		C170,120.3,164.2,113.4,157,113.4z M161.8,125.5c1.1,2.8,1,7-1.7,9.9c-0.6,0.6-2.6,2.6-5.8,2.6c-2.2,0-3.8-0.9-4.5-1.4
		c0,0-2-1.3-2.7-3.2c0-0.1-0.1-0.3-0.1-0.3c0,0,0-0.1-0.1-0.2c-0.3-0.8-0.3-4.1-0.3-4.1v0c0,0,0-2.3,0.2-3.4c0-0.2,0.1-0.4,0.1-0.4
		c0,0,0-0.2,0.1-0.4c0.9-2.2,3.2-3.6,3.2-3.6c0.6-0.3,2-1.1,4-1.1c2.8,0,4.6,1.5,5.1,2C160.9,123.4,161.5,124.9,161.8,125.5z"/>
	<path class="st1" d="M90,105.1h-6c-0.5,0-0.8,0.4-0.8,0.8l0,13.1c-0.1-0.2-0.2-0.3-0.3-0.5v0l0,0c-0.3-0.4-0.6-0.7-0.9-1.1l0,0
		c-0.1-0.1-0.2-0.2-0.2-0.3c-0.2-0.2-0.3-0.3-0.5-0.5c-0.1-0.1-0.2-0.2-0.3-0.2c-0.1-0.1-0.2-0.2-0.3-0.3c-0.2-0.1-0.3-0.3-0.5-0.4
		c-0.1-0.1-0.3-0.2-0.4-0.3c-0.1,0-0.1-0.1-0.2-0.1c-0.3-0.2-0.6-0.4-0.9-0.5c-0.3-0.2-0.6-0.3-0.9-0.5c-0.4-0.2-0.9-0.4-1.4-0.5
		c-0.3-0.1-0.6-0.2-1-0.2c0,0-0.1,0-0.1,0c-0.2,0-0.3-0.1-0.5-0.1c-0.5-0.1-1-0.1-1.5-0.1c-7.2,0-13,6.9-13.1,15.4v0.2
		c0,7.3,4.2,13.4,9.8,15.1c0.2,0.1,0.5,0.1,0.7,0.2c0,0,0,0,0,0c0,0,0,0,0,0c0.1,0,0.2,0,0.3,0.1c0.7,0.1,1.4,0.2,2.2,0.2h0.1
		c0.2,0,0.4,0,0.6,0c3.4-0.2,6.5-2,8.8-4.8c0,0,0,0,0,0c0.2-0.2,0.4-0.5,0.6-0.7v1.2c0,2.4,1.9,4.4,4.3,4.4h0H90
		c0.4,0,0.8-0.4,0.8-0.8l0-37.9C90.8,105.4,90.4,105.1,90,105.1z M83.4,128.9c0,0,0,3.2-0.3,4.1c0,0.1-0.1,0.2-0.1,0.2
		c0,0,0,0.1-0.1,0.3c-0.7,1.9-2.7,3.2-2.7,3.2c-0.6,0.4-2.3,1.4-4.5,1.4c-3.2,0-5.3-2.1-5.8-2.6c-2.7-2.9-2.8-7.1-1.7-9.9
		c0.2-0.6,0.8-2.1,2.4-3.4c0.5-0.4,2.3-2,5.1-2c2,0,3.4,0.8,4,1.1c0,0,2.4,1.4,3.2,3.6c0.1,0.2,0.1,0.4,0.1,0.4c0,0,0.1,0.2,0.1,0.4
		C83.4,126.6,83.4,128.9,83.4,128.9L83.4,128.9z"/>
	<path class="st1" d="M201.4,114.2v29.6c0,0.5-0.4,0.8-0.8,0.8h-2.4c-1.2,0-2.3-0.5-3.1-1.3c-0.8-0.8-1.3-1.9-1.3-3.1v-1.8
		c0,0,0,0,0,0c-1.3,2.1-2.9,3.6-4.9,4.6c-2,1-4.1,1.5-6.5,1.5c-2.9,0-5.1-1-6.6-3c-1.5-2-2.3-4.9-2.3-8.8v-18.7
		c0-0.4,0.4-0.8,0.8-0.8h6c0.4,0,0.8,0.4,0.8,0.8v17c0,4.6,1.7,6.9,5,6.9c1.5,0,2.9-0.4,4.3-1.3c1.3-0.9,2.2-1.8,3.2-3.3
		c0.1-0.1,0.1-0.3,0.1-0.5v-18.8c0-0.4,0.4-0.8,0.8-0.8h6C201.1,113.4,201.4,113.8,201.4,114.2"/>
	<path class="st1" d="M102.4,126.5c-0.2,0-0.4-0.2-0.4-0.5c0.4-4,3.8-7.1,7.9-7.1c4.1,0,7.5,3.1,7.9,7.1c0,0.2-0.2,0.5-0.4,0.5
		H102.4z M124.6,131.5c0.4,0,0.8-0.3,0.8-0.7c0.1-0.6,0.1-1.2,0.1-1.8c0-0.8-0.1-1.7-0.2-2.5c-1.2-7.4-7.6-13.1-15.4-13.1
		c-8.6,0-15.6,7-15.6,15.6c0,0.8,0.1,1.7,0.2,2.5c0.5,3.1,1.9,5.8,3.9,8c0.2,0.2,0.4,0.4,0.5,0.6c2.8,2.8,6.7,4.5,11,4.5
		c4.3,0,8.2-1.7,11-4.5c0.8-0.8,1.5-1.6,2.1-2.5c0.3-0.5,0.1-1.1-0.5-1.2l-4.9-1.4c-0.3-0.1-0.7,0-0.9,0.3c-1.4,2.3-3.9,3.7-6.8,3.7
		c-4.3,0-7.8-3.4-8-7.6H124.6z"/>
	<path class="st1" d="M204.8,197.4v-29.7c0-0.5,0.4-0.8,0.8-0.8h2.4c1.2,0,2.3,0.5,3.1,1.3c0.8,0.8,1.3,1.9,1.3,3.1v1.8c0,0,0,0,0,0
		c1.3-2.1,2.9-3.6,4.9-4.6c2-1,4.2-1.5,6.6-1.5c2.9,0,5.1,1,6.7,3c1.5,2,2.3,4.9,2.3,8.8v18.8c0,0.4-0.4,0.8-0.8,0.8h-6
		c-0.4,0-0.8-0.4-0.8-0.8v-17.1c0-4.6-1.7-6.9-5-6.9c-1.5,0-2.9,0.4-4.3,1.3c-1.3,0.9-2.2,1.8-3.2,3.3c-0.1,0.1-0.1,0.3-0.1,0.5
		v18.9c0,0.4-0.4,0.8-0.8,0.8h-6C205.1,198.2,204.8,197.8,204.8,197.4"/>
	<path class="st1" d="M90,158.2h-6c-0.5,0-0.8,0.4-0.8,0.8v13.5c-0.1-0.2-0.2-0.3-0.3-0.5v0l0,0c-0.3-0.4-0.6-0.7-0.9-1.1l0,0
		c-0.1-0.1-0.2-0.2-0.2-0.3c-0.2-0.2-0.3-0.3-0.5-0.5c-0.1-0.1-0.2-0.2-0.3-0.2c-0.1-0.1-0.2-0.2-0.3-0.3c-0.2-0.1-0.3-0.3-0.5-0.4
		c-0.1-0.1-0.3-0.2-0.4-0.3c-0.1,0-0.1-0.1-0.2-0.1c-0.3-0.2-0.6-0.4-0.9-0.5c-0.3-0.2-0.6-0.3-0.9-0.5c-0.4-0.2-0.9-0.4-1.4-0.5
		c-0.3-0.1-0.6-0.2-1-0.2c0,0-0.1,0-0.1,0c-0.2,0-0.3-0.1-0.5-0.1c-0.5-0.1-1-0.1-1.5-0.1c-7.2,0-13,6.9-13.1,15.4v0.2
		c0,7.3,4.2,13.4,9.8,15.1c0.2,0.1,0.5,0.1,0.7,0.2c0,0,0,0,0,0c0,0,0,0,0,0c0.1,0,0.2,0,0.3,0.1c0.7,0.1,1.4,0.2,2.2,0.2h0.1
		c0.2,0,0.4,0,0.6,0c3.4-0.2,6.5-2,8.8-4.8c0,0,0,0,0,0c0.2-0.2,0.4-0.5,0.6-0.7v1.2c0,2.4,1.9,4.4,4.3,4.4h0H90
		c0.4,0,0.8-0.4,0.8-0.8v-38.3C90.8,158.6,90.4,158.2,90,158.2z M83.4,182.5c0,0,0,3.2-0.3,4.1c0,0.1-0.1,0.2-0.1,0.2
		c0,0,0,0.1-0.1,0.3c-0.7,1.9-2.7,3.2-2.7,3.2c-0.6,0.4-2.3,1.4-4.5,1.4c-3.2,0-5.3-2.1-5.8-2.6c-2.7-2.9-2.8-7.1-1.7-9.9
		c0.2-0.6,0.8-2.1,2.4-3.4c0.5-0.4,2.3-2,5.1-2c2,0,3.4,0.8,4,1.1c0,0,2.4,1.4,3.2,3.6c0.1,0.2,0.1,0.4,0.1,0.4c0,0,0.1,0.2,0.1,0.4
		C83.4,180.2,83.4,182.5,83.4,182.5L83.4,182.5z"/>
	<path class="st1" d="M102.4,180.1c-0.2,0-0.4-0.2-0.4-0.5c0.4-4,3.8-7.1,7.9-7.1c4.1,0,7.5,3.1,7.9,7.1c0,0.2-0.2,0.5-0.4,0.5
		H102.4z M124.6,185.1c0.4,0,0.8-0.3,0.8-0.7c0.1-0.6,0.1-1.2,0.1-1.8c0-0.8-0.1-1.7-0.2-2.5c-1.2-7.4-7.6-13.1-15.4-13.1
		c-8.6,0-15.6,7-15.6,15.6c0,0.8,0.1,1.7,0.2,2.5c0.5,3.1,1.9,5.8,3.9,8c0.2,0.2,0.4,0.4,0.5,0.6c2.8,2.8,6.7,4.5,11,4.5
		c4.3,0,8.2-1.7,11-4.5c0.8-0.8,1.5-1.6,2.1-2.5c0.3-0.5,0.1-1.1-0.5-1.2l-4.9-1.4c-0.3-0.1-0.7,0-0.9,0.3c-1.4,2.3-3.9,3.7-6.8,3.7
		c-4.3,0-7.8-3.4-8-7.6H124.6z"/>
	<path class="st1" d="M158,197.4l0-29.7c0-0.5,0.4-0.8,0.8-0.8h6c0.4,0,0.8,0.4,0.8,0.8l0,29.7c0,0.5-0.4,0.8-0.8,0.8h-6
		C158.3,198.2,158,197.8,158,197.4z"/>
	<g>
		<path class="st1" d="M141.7,198.2c-2.5,0-5-0.4-7.4-1.2c-2.2-0.7-4.1-1.7-5.7-3c-0.3-0.2-0.4-0.7-0.2-1l2.2-3.6
			c0.2-0.4,0.7-0.5,1-0.2c1.6,1.1,3.2,1.9,4.7,2.5c1.7,0.7,3.5,1,5.2,1c1.5,0,2.7-0.3,3.6-0.9c0.9-0.6,1.3-1.4,1.3-2.5
			c0-1.1-0.5-1.9-1.6-2.4c-1-0.5-2.7-1.1-5.1-1.7c-2-0.5-3.6-1.1-5-1.6c-1.4-0.5-2.5-1.1-3.3-1.7c-0.8-0.6-1.5-1.4-1.8-2.2
			c-0.4-0.8-0.6-1.8-0.6-3c0-1.5,0.3-2.9,0.9-4.1c0.6-1.2,1.4-2.3,2.5-3.1c1.1-0.9,2.3-1.5,3.8-2c1.4-0.5,3-0.7,4.7-0.7
			c2.3,0,4.4,0.3,6.4,1c1.8,0.6,3.4,1.5,4.9,2.7c0.3,0.2,0.4,0.7,0.1,1l-2.3,3.5c-0.2,0.3-0.7,0.4-1,0.2c-1.3-0.9-2.6-1.6-3.8-2.1
			c-1.4-0.5-2.9-0.8-4.3-0.8c-1.3,0-2.4,0.3-3.3,0.8c-0.9,0.5-1.3,1.4-1.3,2.6c0,0.5,0.1,1,0.3,1.3c0.2,0.3,0.5,0.7,1,0.9
			c0.5,0.3,1.1,0.5,1.8,0.8c0.7,0.2,1.7,0.5,2.8,0.8c2.1,0.5,3.8,1.1,5.3,1.6c1.5,0.5,2.7,1.2,3.6,1.8c0.9,0.7,1.6,1.5,2.1,2.4
			c0.4,0.9,0.7,2,0.7,3.3c0,3-1.1,5.3-3.3,7C148.4,197.4,145.4,198.2,141.7,198.2z"/>
	</g>
	<circle class="st1" cx="131" cy="140.1" r="4.5"/>
	<circle class="st1" cx="161.8" cy="158.2" r="4.5"/>
	<path class="st1" d="M235.7,114.1c0-0.4-0.4-0.8-0.8-0.8h-6c-0.4,0-0.8,0.4-0.8,0.8v4.9c-0.1-0.1-0.2-0.3-0.3-0.4c0,0,0,0,0,0
		c-2.4-3.1-5.8-5.1-9.7-5.1c-7,0-12.7,6.6-13.1,14.8c0,0.2,0,0.4,0,0.6v0.3c0,0.2,0,0.5,0,0.7c0.3,6.9,4.4,12.6,9.8,14.3
		c0.2,0.1,0.5,0.2,0.8,0.2c0.2,0,0.4,0.1,0.6,0.1c0.6,0.1,1.2,0.2,1.9,0.2h0.1c0.2,0,0.4,0,0.5,0c3.5-0.2,6.6-2,8.8-4.9
		c0.1-0.2,0.3-0.4,0.4-0.6c0,0,0.1-0.1,0.1-0.1v3.2c0,0.2,0,0.4,0,0.5l0,0.1c0,0.2,0,0.3,0,0.5c0,0,0,0.1,0,0.1c0,0.2,0,0.3-0.1,0.4
		c0,0,0,0.1,0,0.1c0,0.1,0,0.2-0.1,0.3c0,0.2-0.1,0.4-0.2,0.6c0,0,0,0,0,0c-1.1,3.6-4.5,6.2-8.5,6.2c-3.2,0-5.9-1.7-7.5-4.1
		c-0.2-0.3-0.6-0.4-0.9-0.3l-5,1.4c-0.5,0.1-0.7,0.7-0.5,1.1c1.3,2.6,3.2,4.8,5.7,6.4c0,0,0.1,0,0.1,0.1c0.1,0.1,0.2,0.1,0.3,0.2
		c0.1,0.1,0.2,0.1,0.3,0.2c0,0,0.1,0.1,0.1,0.1c0.1,0.1,0.3,0.2,0.4,0.2c0,0,0,0,0,0c2.2,1.2,4.8,1.9,7.5,1.9
		c8.2,0,14.9-6.1,15.9-14c0-0.1,0-0.2,0-0.3c0-0.2,0-0.4,0-0.5V114.1z M227.9,133.4c-1.3,2.8-4.1,4.6-7.2,4.6
		c-4.5,0-8.1-3.9-8.2-8.7v-0.1c0-1.1,0.2-2.2,0.6-3.3c0.1-0.4,0.3-0.7,0.4-1.1c0.2-0.3,0.3-0.6,0.5-0.9c0,0,0-0.1,0.1-0.1
		c0.1-0.1,0.1-0.2,0.2-0.3c1.1-1.5,2.6-2.6,4.3-3.1c0.7-0.2,1.4-0.3,2.2-0.3c3.1,0,5.8,1.9,7.2,4.7c0.1,0.1,0.1,0.5,0.2,0.5
		c0,0.2,0.2,1.5,0.2,3.6c0,2.4-0.2,3.7-0.3,4c0,0.1,0,0.1-0.1,0.2C228,133.3,227.9,133.4,227.9,133.4z"/>
	<path class="st1" d="M199.6,166.8h-6c-0.4,0-0.8,0.4-0.8,0.8v4.9c-0.1-0.1-0.2-0.3-0.3-0.4c0,0,0,0,0,0c-2.4-3.1-5.8-5.1-9.7-5.1
		c-7,0-12.7,6.6-13.1,14.8c0,0.2,0,0.4,0,0.6v0.3c0,0.2,0,0.5,0,0.7c0.3,6.9,4.4,12.6,9.8,14.3c0.2,0.1,0.5,0.2,0.8,0.2
		c0.2,0,0.4,0.1,0.6,0.1c0.6,0.1,1.2,0.2,1.9,0.2h0.1c0.2,0,0.4,0,0.5,0c3.5-0.2,6.6-2,8.8-4.9c0.1-0.2,0.3-0.4,0.4-0.6
		c0,0,0.1-0.1,0.1-0.1v3.2c0,0.2,0,0.4,0,0.5l0,0.1c0,0.2,0,0.3,0,0.5c0,0,0,0.1,0,0.1c0,0.2,0,0.3-0.1,0.4c0,0,0,0.1,0,0.1
		c0,0.1,0,0.2-0.1,0.3c0,0.2-0.1,0.4-0.2,0.6c0,0,0,0,0,0c-1.1,3.6-4.5,6.2-8.5,6.2c-3.2,0-5.9-1.7-7.5-4.1
		c-0.2-0.3-0.6-0.4-0.9-0.3l-5,1.4c-0.5,0.1-0.7,0.7-0.5,1.1c1.3,2.6,3.2,4.8,5.7,6.4c0,0,0.1,0,0.1,0.1c0.1,0.1,0.2,0.1,0.3,0.2
		c0.1,0.1,0.2,0.1,0.3,0.2c0,0,0.1,0.1,0.1,0.1c0.1,0.1,0.3,0.2,0.4,0.2c0,0,0,0,0,0c2.2,1.2,4.8,1.9,7.5,1.9
		c8.2,0,14.9-6.1,15.9-14c0-0.1,0-0.2,0-0.3c0-0.2,0-0.4,0-0.5v-29.3C200.4,167.2,200.1,166.8,199.6,166.8z M193.1,182.5
		c0,0,0,3.2-0.3,4.1c0,0.1-0.1,0.2-0.1,0.2c0,0,0,0.1-0.1,0.3c-0.7,1.9-2.7,3.2-2.7,3.2c-0.6,0.4-2.3,1.4-4.5,1.4
		c-3.2,0-5.3-2.1-5.8-2.6c-2.7-2.9-2.8-7.1-1.7-9.9c0.2-0.6,0.8-2.1,2.4-3.4c0.5-0.4,2.3-2,5.1-2c2,0,3.4,0.8,4,1.1
		c0,0,2.4,1.4,3.2,3.6c0.1,0.2,0.1,0.4,0.1,0.4c0,0,0.1,0.2,0.1,0.4C193,180.3,193.1,182.5,193.1,182.5L193.1,182.5z"/>
	<path class="st1" d="M247.6,198.2c-1.3,0-2.5-0.2-3.6-0.7c-1.1-0.4-2.1-1.1-2.9-1.8c-0.8-0.8-1.5-1.7-1.9-2.8
		c-0.5-1.1-0.7-2.2-0.7-3.5c0-1.2,0.2-2.4,0.7-3.5c0.5-1.1,1.1-2,1.9-2.8c0.8-0.8,1.8-1.4,2.9-1.8c1.1-0.4,2.3-0.7,3.6-0.7
		c1.3,0,2.5,0.2,3.7,0.7c1.1,0.4,2.1,1.1,2.9,1.8c0.8,0.8,1.5,1.7,1.9,2.8c0.5,1.1,0.7,2.2,0.7,3.5c0,1.3-0.2,2.4-0.7,3.5
		c-0.5,1.1-1.1,2-1.9,2.8c-0.8,0.8-1.8,1.4-2.9,1.8C250.1,198,248.9,198.2,247.6,198.2z M247.6,197c1.1,0,2.1-0.2,3.1-0.6
		c1-0.4,1.8-0.9,2.5-1.6c0.7-0.7,1.3-1.5,1.7-2.4c0.4-0.9,0.6-1.9,0.6-3.1c0-1.1-0.2-2.1-0.6-3c-0.4-0.9-0.9-1.7-1.6-2.4
		c-0.7-0.7-1.5-1.2-2.5-1.6c-1-0.4-2-0.6-3.1-0.6c-1.1,0-2.2,0.2-3.1,0.6c-0.9,0.4-1.8,0.9-2.5,1.6c-0.7,0.7-1.2,1.5-1.6,2.4
		c-0.4,0.9-0.6,1.9-0.6,3c0,1.1,0.2,2.1,0.6,3c0.4,0.9,0.9,1.7,1.6,2.4c0.7,0.7,1.5,1.2,2.5,1.6C245.4,196.8,246.5,197,247.6,197z
		 M243.6,184h4.7c0.5,0,0.9,0.1,1.4,0.3c0.4,0.2,0.8,0.5,1.1,0.8c0.3,0.3,0.5,0.7,0.7,1.1c0.2,0.4,0.3,0.9,0.3,1.3
		c0,0.7-0.2,1.3-0.5,1.9c-0.4,0.6-0.8,1-1.4,1.2l2.5,4h-2.6l-2.2-3.6H246v3.6h-2.3V184z M248.2,189.1c0.4,0,0.7-0.1,1-0.4
		c0.2-0.3,0.4-0.6,0.4-1.1c0-0.5-0.1-0.9-0.4-1.2c-0.3-0.3-0.6-0.4-1-0.4H246v3.1H248.2z"/>
</g>
</svg>
