<svg id="Livello_1" data-name="Livello 1" xmlns="http://www.w3.org/2000/svg" viewBox="0 0 200 200"><defs><style>.cls-1{fill:#151516;}.cls-2{fill:#00ffb2;}</style></defs><g id="Livello_2" data-name="Livello 2"><g id="logo"><rect class="cls-1" width="200" height="200"/><polygon class="cls-2" points="96.675 102.623 99.649 98.58 97.945 126.079 96.174 120.533 96.675 102.623"/><polygon class="cls-2" points="15.013 106.399 20.025 103.492 22.965 104.928 21.662 114.318 22.063 117.793 23.433 111.878 30.316 104.127 32.455 105.329 31.686 116.49 34.727 111.277 40.006 103.959 42.679 105.229 41.376 109.439 42.679 125.411 41.075 125.411 37.567 114.451 38.636 107.267 34.894 113.649 31.285 125.411 28.98 124.041 28.98 115.788 29.614 108.838 25.003 113.048 22.364 124.342 20.593 125.411 18.254 122.07 19.022 107.267 15.013 106.399"/><path class="cls-2" d="M44.81762,123.94076V110.00734H47.357l.86876,2.43918-1.70409,8.85458,1.03582,4.10986Z"/><polygon class="cls-2" points="44.818 104.327 44.818 103.492 48.226 102.957 49.262 103.659 48.226 105.797 44.818 104.327"/><polygon class="cls-2" points="48.76 124.442 50.097 119.63 51.066 123.039 55.109 120.198 49.262 110.709 51.667 109.038 55.109 110.007 55.109 107.368 57.448 108.069 55.109 115.621 53.539 111.377 52.369 110.709 51.567 111.778 57.448 122.07 54.107 125.411 48.76 124.442"/><path class="cls-2" d="M65.50057,113.44893l-.60144-3.44159-5.27933.401-.80192,12.53006,3.34134,2.43918,3.34134-2.43918-2.47259.23389-2.43919-2.84015,4.91178-3.27452Zm-2.07164,2.94039-2.84014,1.33654,1.57043-6.41539h1.26971Z"/><polygon class="cls-2" points="67.071 111.277 67.071 117.726 67.973 124.509 69.31 125.01 70.68 116.389 72.918 111.277 73.62 117.726 74.79 116.389 75.859 109.038 72.852 109.038 69.31 114.05 69.31 112.179 67.973 111.277 67.071 111.277"/><path class="cls-2" d="M84.98063,110.4083l-1.16947-.86875-5.27933,1.77092-3.80914,11.36058,2.77332,1.67068,2.339-1.26973.93558-1.77092.60144,1.67067,2.63965,3.24111-.20047-9.15529Zm-4.21009,8.52044-1.57044,2.17188-2.63966,1.06923,4.2101-9.52285Z"/><path class="cls-2" d="M92.8328,110.50854l-5.51322,1.2697L88.92343,99.7494V98.61334l-3.2077,1.13606v23.7904l3.50841,1.4702,4.21011-5.37957,1.16947-5.11226Zm-1.87115,9.52285-2.84014,2.17186c0-.20047-1.16948-5.14566-1.16948-5.14566l4.00962-4.37717.86876,2.73991Z"/><path class="cls-2" d="M107.83546,113.54917l-.86876-4.00962-5.11226.86875-.86875,12.53006,3.475,2.43918,2.87355-2.17187-1.87114.60144-2.84015-4.41058,5.17909-2.40577v-3.44159Zm-2.47261,3.475-2.63966.401,1.7375-6.11467.93558-.5012v6.21492Z"/><path class="cls-2" d="M137.03885,105.36287l-7.65167-3.84256-13.19834-1.136v1.23629s-7.15049,4.34376-6.84977,4.71131l8.08607,15.10289,3.64207,2.60625-.568-19.81421,8.28654-.969,7.4178,3.64207-11.5611,7.68509-1.537-1.43679-.80194,1.43679,4.71131,3.2411,11.394-10.25795Zm-22.72117,1.537,2.67308-2.10505,1.03582,11.56106Z"/><polygon class="cls-2" points="139.478 122.304 139.478 108.437 142.051 108.437 142.251 110.141 140.881 119.463 142.251 123.339 139.478 122.304"/><polygon class="cls-2" points="139.077 102.656 139.478 101.721 143.053 101.721 142.251 104.36 139.077 102.656"/><polygon class="cls-2" points="144.958 123.339 143.588 117.86 143.588 109.54 145.593 110.575 145.593 112.213 149.903 106.8 152.309 107.668 151.473 115.12 150.037 115.888 149.435 110.809 146.395 115.888 146.395 121.735 144.958 123.339"/><path class="cls-2" d="M160.729,107.66839l-5.27932,1.87116-3.9428,11.36058,2.63967,1.9714,2.0048-.93558,1.40337-2.37236,3.2077,5.27933-.568-8.98823Zm-3.40817,9.75674-1.938,2.53942-1.938.568,3.876-9.05506v5.94764Z"/><polygon class="cls-2" points="165.14 127.316 166.008 128.151 166.008 109.54 167.88 109.54 169.517 107.668 166.109 107.668 166.376 102.289 163.469 101.721 163.469 107.668 161.932 107.668 162.333 109.105 163.636 109.54 165.14 127.316"/><polygon class="cls-2" points="32.689 80.938 33.758 92.165 38.068 98.647 35.896 81.038 49.863 79.1 35.395 77.362 34.894 73.587 32.12 73.587 32.521 77.73 22.464 78.766 25.772 81.74 32.689 80.938"/><path class="cls-2" d="M43.21377,97.00949c-.03341-.80192-.46779-23.08872-.46779-23.08872l2.60626-.969.76851.66826L45.0181,79.13328l-.03341,9.65648,1.50361-2.2387L52.16859,80.403l.90216.86875v22.22L51.50032,102.222,49.42868,84.81357l-1.90457,2.33894L45.18517,97.94507Z"/><path class="cls-2" d="M58.55057,96.40805l-2.00481-3.60866,4.91178-2.87356-.80192-7.518-5.07885.80191L54.541,95.84l3.7089,2.20529,2.7399-1.50361.43438-.73509Zm-1.73751-9.22212,1.50361-3.24111h.70169v5.54664l-2.63967.63485Z"/><path class="cls-2" d="M163.40208,94.704c-.03341-.60144-.33413-17.07429-.33413-17.07429l1.938-.70168.568.5012-.80192,4.07644-.03342,7.15049,1.10265-1.67067,4.2101-4.54424.66827.63485V99.51551l-1.16948-.93558-1.537-12.86419-1.40337,1.73751-1.7375,7.98581Z"/><path class="cls-2" d="M175.36412,94.26959l-1.47018-2.67308L177.536,89.458l-.60144-5.54664-3.74233.60145-.80193,9.35578,2.73992,1.63726,2.03822-1.10265.33414-.53461Zm-1.26971-6.81635,1.10264-2.40578h.53462v4.10987l-1.938.46778Z"/><path class="cls-2" d="M96.97608,82.70852,91.8304,84.81357l-2.40577,3.37476-5.91419-2.70649-5.81394-.36755-.23391-.66827,2.87356-2.07164,1.90457-3.17428-.60144-1.43678-1.30313-.969L74.7227,74.589,63.42893,76.19289l3.97621,3.40818,1.87114-1.06924.568,19.21276L73.1188,99.7494,87.52,93.16694l.36755,2.84015,2.57284,1.7375L92.365,96.60853l1.5036-2.27212,3.04063,4.91178V90.72776L97.97848,83.477Zm-26.263-5.31275,8.38679.401-1.938,3.40817L73.5198,83.97826l-1.13606-.401.16706-4.67788-1.80432-.60144v-.90217ZM87.21934,90.79458l-3.04063,1.80433L72.7513,97.00949,71.64865,96.241l.66827-8.05265,2.77332-1.57043,8.05266.401L88.05468,89.291ZM93.735,92.09771l-1.83774,2.40577-1.83774.969,3.7089-9.38919v6.01443Z"/><polygon class="cls-2" points="99.014 72.384 102.456 71.849 100.752 99.315 98.613 89.057 99.014 72.384"/><polygon class="cls-2" points="103.425 72.384 106.833 71.849 105.129 99.315 102.456 92.833 103.425 72.384"/><path class="cls-2" d="M116.38931,83.61068l-.63485-.86875-5.31273,1.938-4.64448,9.15529,3.2077,3.80914,1.30312-.43438,2.03824-2.87355.80191,2.10505,2.40578,3.34134-.46779-8.98822Zm-4.37716,8.95482-1.67067,1.7375-1.90458-.16707,1.70409-5.17909,2.03822-2.87356Z"/><path class="cls-2" d="M126.71408,73.31933l-1.73751-.20048L123.90734,83.477h-4.51082l-3.37476,11.4274,1.47019,1.83774,3.2077,1.03582,2.53943-3.14087.70169,1.40338,1.20288-2.2387,2.43918-19.48008Zm-4.07644,18.77838-3.90938,3.40817V92.79939l3.30793-7.75193,1.4702,1.40338Z"/><path class="cls-2" d="M137.80736,85.04746l-4.34375.401s-1.63726,4.07644-1.57044,4.27692l4.34375,2.67308,2.907-.80192,1.43678-4.64448Zm-2.17188,6.21491-.5346-3.70889,1.63725-1.43678,1.03583.53461Z"/><polygon class="cls-2" points="146.361 81.004 150.371 80.169 150.371 77.864 146.194 77.195 142.519 77.596 142.519 79.634 144.356 86.117 138.041 85.716 139.177 86.518 144.624 87.286 145.726 93.601 144.624 96.909 143.254 94.437 142.185 96.341 142.318 97.778 144.123 99.315 145.593 98.446 146.829 97.511 146.194 87.353 153.211 87.153 146.06 86.117 146.194 78.331 147.364 78.766 148.533 79.902 146.361 81.004"/><polygon class="cls-2" points="157.956 94.938 159.159 95.706 158.891 82.976 161.197 82.441 161.698 80.704 158.824 81.272 159.192 76.661 157.421 77.529 157.421 81.639 155.917 81.973 155.917 83.544 157.555 83.176 157.956 94.938"/><path class="cls-2" d="M170.92014,117.45855,176.4,115.88811l-.93558-8.21971-5.012,1.33654-.93558,12.19592,4.14326,2.17188,1.90458-1.90457-1.80433.46779Zm.46778-4.41058,1.57044-3.54184h.80192v5.44641l-2.37236.568Z"/><polygon class="cls-2" points="176.935 122.638 178.739 117.96 179.073 120.833 183.183 118.628 177.336 109.54 179.407 107.668 182.047 107.668 183.183 105.797 184.987 105.396 183.116 114.117 181.78 109.54 180.677 109.105 179.708 110.575 184.987 119.463 182.348 124.041 176.935 122.638"/></g></g></svg>