<svg xmlns="http://www.w3.org/2000/svg" width="200" height="200" viewBox="0 0 200 200">
  <g id="Raggruppa_528" data-name="Raggruppa 528" transform="translate(1377 -2712)">
    <rect id="Rettangolo_596" data-name="Rettangolo 596" width="200" height="200" transform="translate(-1377 2712)" fill="#f3f3f3"/>
    <g id="Raggruppa_527" data-name="Raggruppa 527" transform="translate(-4776.265 1858.082)">
      <path id="Tracciato_4" data-name="Tracciato 4" d="M3527.763,896.46h-57c-21.652,0-36.6,13.088-36.6,35.34v44.29c0,22.195,14.944,35.286,36.6,35.286h56.993c21.707,0,36.6-13.092,36.6-35.286V931.8C3564.359,909.552,3549.469,896.46,3527.763,896.46Zm-14.4,77.172c0,7.853-5.29,14.67-13.528,14.67-8.29,0-13.58-6.82-13.58-14.67v-39.38c0-7.853,5.29-14.673,13.58-14.667,8.239,0,13.528,6.814,13.528,14.667Z" transform="translate(0 0)" fill="#d61a0c" fill-rule="evenodd"/>
    </g>
  </g>
</svg>
