<svg xmlns="http://www.w3.org/2000/svg" width="194.298" height="58.533" viewBox="0 0 194.298 58.533">
  <g id="Raggruppa_228" data-name="Raggruppa 228" transform="translate(-131.073 -339.239)">
    <g id="Raggruppa_226" data-name="Raggruppa 226" transform="translate(131.073 339.239)" style="isolation: isolate">
      <g id="LOGO">
        <path id="Tracciato_521" data-name="Tracciato 521" d="M166.083,58.273V87.54L142.45,63.907a19.176,19.176,0,0,1,13.6-5.634Z" transform="translate(-136.816 -58.273)" fill="#a9a9fc"/>
        <path id="Tracciato_522" data-name="Tracciato 522" d="M305.542,63.908a19.166,19.166,0,0,0-13.6-5.635H281.91V87.54h29.266V77.509A19.174,19.174,0,0,0,305.542,63.908Z" transform="translate(-252.643 -58.273)" fill="#eaebff"/>
        <path id="Tracciato_523" data-name="Tracciato 523" d="M311.176,230.979V241.01a19.17,19.17,0,0,1-5.634,13.6L281.91,230.979Z" transform="translate(-252.643 -201.712)" fill="#a9a9fc"/>
        <path id="Tracciato_524" data-name="Tracciato 524" d="M138.471,115.151h0L114.839,91.518a19.176,19.176,0,0,0-5.634,13.6v20.062a19.237,19.237,0,0,0,19.236,19.235H148.5a19.175,19.175,0,0,0,13.6-5.634Z" transform="translate(-109.205 -85.884)" fill="#6c63ff"/>
        <circle id="Ellisse_207" data-name="Ellisse 207" cx="17.305" cy="17.305" r="17.305" transform="translate(11.962 11.962)" fill="#fff"/>
        <circle id="Ellisse_208" data-name="Ellisse 208" cx="15.764" cy="15.764" r="15.764" transform="translate(13.502 13.503)" fill="#2d2d2d"/>
        <circle id="Ellisse_209" data-name="Ellisse 209" cx="7.052" cy="7.052" r="7.052" transform="translate(22.215 22.215)" fill="#1d1d1b"/>
        <path id="Tracciato_525" data-name="Tracciato 525" d="M286.2,202.03a3.549,3.549,0,0,1,2.028.5,4.7,4.7,0,0,1,2.29,3.449,3.519,3.519,0,0,1-.327,2.064C289.88,207.4,286.671,202.562,286.2,202.03Z" transform="translate(-256.203 -177.66)" fill="#eaebff"/>
      </g>
    </g>
    <g id="Raggruppa_227" data-name="Raggruppa 227" transform="translate(209.576 347.615)">
      <g id="Raggruppa_157" data-name="Raggruppa 157" transform="translate(0 0)">
        <path id="Tracciato_461" data-name="Tracciato 461" d="M127.672,430.754a.888.888,0,0,1,.219.226.468.468,0,0,1,.085.262.455.455,0,0,1-.1.293l-.646,1.073a.56.56,0,0,1-.427.293.5.5,0,0,1-.189-.043,1.186,1.186,0,0,1-.238-.14,7.158,7.158,0,0,0-1.848-.951,7.671,7.671,0,0,0-2.043-.39,7.327,7.327,0,0,0-5.2,2.092,7.026,7.026,0,0,0-1.519,2.22,6.617,6.617,0,0,0-.549,2.665,6.694,6.694,0,0,0,.561,2.75,6.921,6.921,0,0,0,7.33,4.044,5.7,5.7,0,0,0,1.018-.25,9.374,9.374,0,0,0,1.08-.451,12.665,12.665,0,0,0,1.2-.677.818.818,0,0,1,.378-.134q.22,0,.4.3l.7,1.146a.625.625,0,0,1,.085.293.519.519,0,0,1-.293.464,9.52,9.52,0,0,1-2.525,1.3,9.165,9.165,0,0,1-2.976.47,9.261,9.261,0,0,1-2.482-.329,9.1,9.1,0,0,1-2.22-.939,9.442,9.442,0,0,1-1.878-1.458,9.308,9.308,0,0,1-1.446-11.276,9.54,9.54,0,0,1,1.458-1.89,9.1,9.1,0,0,1,1.885-1.457,9.561,9.561,0,0,1,2.226-.939,9.418,9.418,0,0,1,5.372.116A9.725,9.725,0,0,1,127.672,430.754Z" transform="translate(-112.877 -428.985)" fill="#2d2d2d"/>
        <path id="Tracciato_462" data-name="Tracciato 462" d="M178.171,430.234a.537.537,0,0,1,.146-.378.506.506,0,0,1,.39-.158h1.232a.629.629,0,0,1,.4.146.475.475,0,0,1,.183.39v17.039q0,.537-.586.537h-1.232a.474.474,0,0,1-.537-.537v-7.83H167.889v7.83q0,.537-.585.537h-1.232a.474.474,0,0,1-.536-.537V430.234a.538.538,0,0,1,.146-.378.507.507,0,0,1,.39-.158h1.256a.559.559,0,0,1,.39.158.5.5,0,0,1,.171.378v6.842h10.282Z" transform="translate(-147.472 -429.453)" fill="#2d2d2d"/>
        <path id="Tracciato_463" data-name="Tracciato 463" d="M220.576,430.282q0-.585.537-.585h7.037a5.613,5.613,0,0,1,2.268.457,5.842,5.842,0,0,1,1.83,1.244,5.787,5.787,0,0,1,1.671,4.092,5.639,5.639,0,0,1-.238,1.64,5.846,5.846,0,0,1-.665,1.457,5.682,5.682,0,0,1-1.024,1.2,5.8,5.8,0,0,1-1.33.884l3.22,6.6v.158q0,.379-.451.378h-1.476a.645.645,0,0,1-.585-.451l-2.927-6.147a1.635,1.635,0,0,1-.213.013c-.077,0-.187,0-.329.006s-.332.006-.567.006h-4.391v6.037q0,.537-.561.537h-1.268a.474.474,0,0,1-.537-.537Zm11,5.184a3.293,3.293,0,0,0-.262-1.293,3.573,3.573,0,0,0-.719-1.1,3.519,3.519,0,0,0-1.086-.762,3.243,3.243,0,0,0-1.36-.286h-5.208v6.879H228.2a3.226,3.226,0,0,0,1.342-.281,3.379,3.379,0,0,0,1.073-.756,3.54,3.54,0,0,0,.707-1.1A3.39,3.39,0,0,0,231.577,435.466Z" transform="translate(-183.633 -429.453)" fill="#2d2d2d"/>
        <path id="Tracciato_464" data-name="Tracciato 464" d="M277.077,428.985a9.215,9.215,0,0,1,2.47.33,9.114,9.114,0,0,1,2.22.939,9.625,9.625,0,0,1,1.884,1.457,9.039,9.039,0,0,1,1.458,1.89,9.66,9.66,0,0,1,.939,2.238,9.261,9.261,0,0,1-.933,7.178,9.452,9.452,0,0,1-1.457,1.878,9.207,9.207,0,0,1-1.884,1.451,9.477,9.477,0,0,1-7.2.933,9.1,9.1,0,0,1-2.22-.939,9.436,9.436,0,0,1-1.878-1.458,9.31,9.31,0,0,1-1.446-11.276,9.53,9.53,0,0,1,1.458-1.89,9.087,9.087,0,0,1,1.885-1.457,9.554,9.554,0,0,1,2.226-.939A9.1,9.1,0,0,1,277.077,428.985Zm-6.976,9.282a6.76,6.76,0,0,0,.25,1.848,7.114,7.114,0,0,0,.7,1.659,6.918,6.918,0,0,0,2.494,2.495,7.121,7.121,0,0,0,1.659.7,6.928,6.928,0,0,0,3.689,0,6.924,6.924,0,0,0,3.061-1.787,6.881,6.881,0,0,0,1.086-1.409,7.141,7.141,0,0,0,.7-1.659,6.936,6.936,0,0,0-.3-4.549,7,7,0,0,0-3.69-3.69,6.7,6.7,0,0,0-2.7-.549,6.77,6.77,0,0,0-1.848.25,7.137,7.137,0,0,0-1.659.7,6.883,6.883,0,0,0-1.409,1.085,6.939,6.939,0,0,0-1.787,3.061A6.779,6.779,0,0,0,270.1,438.267Z" transform="translate(-214.631 -428.985)" fill="#2d2d2d"/>
        <path id="Tracciato_465" data-name="Tracciato 465" d="M339.073,447.028q-.269,0-.476-.451l-5.354-12.953-1.427,13.648a.474.474,0,0,1-.537.537h-1.268q-.561,0-.561-.537l1.927-17.039a.475.475,0,0,1,.183-.39.631.631,0,0,1,.4-.146h1.878a.55.55,0,0,1,.536.451l5.294,12.941,5.342-12.941a.665.665,0,0,1,.195-.335.456.456,0,0,1,.3-.116h1.94a.5.5,0,0,1,.4.158.55.55,0,0,1,.141.378l1.927,17.039a.474.474,0,0,1-.537.537h-1.269q-.561,0-.561-.537l-1.427-13.648-5.379,12.953q-.207.452-.488.451Z" transform="translate(-255.16 -429.453)" fill="#2d2d2d"/>
        <path id="Tracciato_466" data-name="Tracciato 466" d="M405.472,428.985a9.212,9.212,0,0,1,2.47.33,9.114,9.114,0,0,1,2.22.939,9.636,9.636,0,0,1,1.885,1.457,9.031,9.031,0,0,1,1.458,1.89,9.672,9.672,0,0,1,.939,2.238,9.262,9.262,0,0,1-.933,7.178,9.469,9.469,0,0,1-1.457,1.878,9.2,9.2,0,0,1-1.885,1.451,9.477,9.477,0,0,1-7.2.933,9.1,9.1,0,0,1-2.22-.939,9.445,9.445,0,0,1-1.878-1.458,9.31,9.31,0,0,1-1.445-11.276,9.54,9.54,0,0,1,1.457-1.89,9.1,9.1,0,0,1,1.885-1.457,9.568,9.568,0,0,1,2.226-.939A9.1,9.1,0,0,1,405.472,428.985Zm-6.976,9.282a6.745,6.745,0,0,0,.25,1.848,7.111,7.111,0,0,0,.7,1.659,6.919,6.919,0,0,0,2.494,2.495,7.127,7.127,0,0,0,1.659.7,6.93,6.93,0,0,0,3.69,0,6.926,6.926,0,0,0,3.061-1.787,6.869,6.869,0,0,0,1.086-1.409,7.126,7.126,0,0,0,.7-1.659,6.932,6.932,0,0,0-.3-4.549,7,7,0,0,0-3.69-3.69,6.7,6.7,0,0,0-2.7-.549,6.771,6.771,0,0,0-1.848.25,7.142,7.142,0,0,0-1.659.7,6.959,6.959,0,0,0-2.494,2.488,6.974,6.974,0,0,0-.7,1.659A6.765,6.765,0,0,0,398.5,438.267Z" transform="translate(-298.983 -428.985)" fill="#2d2d2d"/>
      </g>
      <g id="Raggruppa_158" data-name="Raggruppa 158" transform="translate(1.076 23.388)">
        <path id="Tracciato_467" data-name="Tracciato 467" d="M131.171,498.82a.793.793,0,0,1,.318.331.527.527,0,0,1-.038.483l-2.151,3.055a.5.5,0,0,1-.3.248.558.558,0,0,1-.388-.108,4.852,4.852,0,0,0-1.374-.726,4.931,4.931,0,0,0-1.591-.255,4.608,4.608,0,0,0-3.436,1.476,4.985,4.985,0,0,0-.993,1.6,5.357,5.357,0,0,0-.356,1.96,5.3,5.3,0,0,0,.356,1.953,4.932,4.932,0,0,0,.993,1.591,4.635,4.635,0,0,0,3.436,1.47,4.945,4.945,0,0,0,2.991-.992.585.585,0,0,1,.382-.115.52.52,0,0,1,.306.229l2.176,3.131a.5.5,0,0,1,.038.471.82.82,0,0,1-.318.318,10.126,10.126,0,0,1-2.578,1.241,9.553,9.553,0,0,1-2.908.439,9.628,9.628,0,0,1-4.912-1.324,9.858,9.858,0,0,1-3.487-3.481,9.485,9.485,0,0,1-.98-2.316,9.762,9.762,0,0,1,.98-7.509,9.851,9.851,0,0,1,1.521-1.979,9.472,9.472,0,0,1,1.966-1.521,9.967,9.967,0,0,1,2.323-.98,9.864,9.864,0,0,1,5.472.076A9.888,9.888,0,0,1,131.171,498.82Z" transform="translate(-116.013 -497.166)" fill="#2d2d2d"/>
        <path id="Tracciato_468" data-name="Tracciato 468" d="M172.9,498.478a.375.375,0,0,1,.083-.166.951.951,0,0,1,.388-.286.593.593,0,0,1,.216-.045h3.258a.541.541,0,0,1,.369.133,1.637,1.637,0,0,1,.229.236l.318.725,6.682,17.232a.376.376,0,0,1-.038.414.621.621,0,0,1-.484.159h-3.653a.8.8,0,0,1-.452-.108.7.7,0,0,1-.248-.363q-.255-.649-.5-1.292t-.483-1.292h-6.758q-.242.649-.49,1.292t-.49,1.292a.637.637,0,0,1-.649.471h-3.754a.622.622,0,0,1-.4-.127.3.3,0,0,1-.057-.382Zm2.316,5.447q-.241.649-.489,1.4t-.49,1.514q-.242.764-.49,1.508t-.49,1.394h3.907Z" transform="translate(-148.818 -497.702)" fill="#2d2d2d"/>
        <path id="Tracciato_469" data-name="Tracciato 469" d="M226.837,498.542a.674.674,0,0,1,.178-.394.559.559,0,0,1,.433-.166h4.4a.592.592,0,0,1,.611.484l3.461,11.556,3.487-11.556a.652.652,0,0,1,.649-.484h4.353a.618.618,0,0,1,.414.159.6.6,0,0,1,.21.4q.445,4.48.91,8.89t.91,8.89v.063q0,.5-.56.5h-3.6a.533.533,0,0,1-.611-.56l-1.107-9.838-2.863,9.9a.722.722,0,0,1-.185.305.437.437,0,0,1-.312.178h-3.347a.48.48,0,0,1-.324-.172.544.544,0,0,1-.185-.311l-2.864-9.876-1.107,9.813q-.026.56-.624.56h-3.6a.489.489,0,0,1-.547-.56Z" transform="translate(-187.626 -497.702)" fill="#2d2d2d"/>
        <path id="Tracciato_470" data-name="Tracciato 470" d="M298.515,498.567a.606.606,0,0,1,.146-.426.532.532,0,0,1,.413-.159H311.7a.562.562,0,0,1,.433.165.629.629,0,0,1,.153.444v3.147a.664.664,0,0,1-.153.412.53.53,0,0,1-.446.2H303.44V505.5H309.8a.669.669,0,0,1,.4.115.438.438,0,0,1,.159.382v2.749a.528.528,0,0,1-.14.344.5.5,0,0,1-.407.165H303.44v3.258h8.553a.511.511,0,0,1,.573.583v3.2a.314.314,0,0,1-.1.228q-.051.355-.522.355H299.073a.593.593,0,0,1-.406-.133.521.521,0,0,1-.152-.414Z" transform="translate(-235.913 -497.702)" fill="#2d2d2d"/>
        <path id="Tracciato_471" data-name="Tracciato 471" d="M348.675,498.567a.623.623,0,0,1,.14-.426.53.53,0,0,1,.42-.159h8.222a6.181,6.181,0,0,1,2.456.49,6.414,6.414,0,0,1,2,1.33,6.207,6.207,0,0,1,1.343,1.966,5.949,5.949,0,0,1,.49,2.4,5.687,5.687,0,0,1-.236,1.648,6.148,6.148,0,0,1-.655,1.464,6.232,6.232,0,0,1-1,1.235,6.541,6.541,0,0,1-1.266.948l3.271,6.16q.089.178.229.42a.877.877,0,0,1,.14.42.378.378,0,0,1-.134.312.56.56,0,0,1-.363.108h-4.365a.637.637,0,0,1-.388-.127.578.578,0,0,1-.223-.344l-3.093-5.816H353.6v5.74q0,.547-.586.547h-3.78a.6.6,0,0,1-.408-.133.523.523,0,0,1-.153-.414Zm9.965,5.651a2.2,2.2,0,0,0-.14-.764,2.5,2.5,0,0,0-.394-.7,2.323,2.323,0,0,0-.611-.535,2.1,2.1,0,0,0-.789-.28q-.356-.025-.668-.044t-.681-.019H353.6v4.671h2.342c.153,0,.288,0,.407-.013s.25-.021.394-.038a2.005,2.005,0,0,0,.8-.261,2.092,2.092,0,0,0,.6-.521,2.3,2.3,0,0,0,.369-.7A2.54,2.54,0,0,0,358.64,504.218Z" transform="translate(-268.866 -497.702)" fill="#2d2d2d"/>
        <path id="Tracciato_472" data-name="Tracciato 472" d="M403.259,498.478a.375.375,0,0,1,.083-.166.9.9,0,0,1,.172-.165.89.89,0,0,1,.217-.121.591.591,0,0,1,.216-.045H407.2a.542.542,0,0,1,.369.133,1.631,1.631,0,0,1,.229.236l.318.725,6.681,17.232a.377.377,0,0,1-.038.414.622.622,0,0,1-.484.159h-3.653a.8.8,0,0,1-.452-.108.7.7,0,0,1-.248-.363q-.255-.649-.5-1.292t-.484-1.292H402.19q-.242.649-.49,1.292t-.49,1.292a.637.637,0,0,1-.649.471h-3.754a.621.621,0,0,1-.4-.127.3.3,0,0,1-.058-.382Zm2.316,5.447q-.242.649-.49,1.4t-.49,1.514q-.242.764-.49,1.508t-.49,1.394h3.907Z" transform="translate(-300.16 -497.702)" fill="#2d2d2d"/>
      </g>
    </g>
  </g>
</svg>
