<svg xmlns="http://www.w3.org/2000/svg" width="120.115" height="147.63" viewBox="0 0 120.115 147.63">
  <g id="Raggruppa_250" data-name="Raggruppa 250" transform="translate(2379.913 496.792)">
    <g id="Raggruppa_247" data-name="Raggruppa 247" transform="translate(-2379.913 -393.607)">
      <path id="Tracciato_558" data-name="Tracciato 558" d="M-2364.566,156.965a.92.92,0,0,1,.228.234.486.486,0,0,1,.089.272.472.472,0,0,1-.1.3l-.671,1.113a.581.581,0,0,1-.443.3.514.514,0,0,1-.2-.044,1.224,1.224,0,0,1-.247-.145,7.429,7.429,0,0,0-1.917-.987,7.97,7.97,0,0,0-2.119-.4,7.6,7.6,0,0,0-3.011.588,7.6,7.6,0,0,0-2.385,1.582,7.283,7.283,0,0,0-1.575,2.3,6.858,6.858,0,0,0-.569,2.764,6.943,6.943,0,0,0,.582,2.853,7.136,7.136,0,0,0,1.563,2.259,7.13,7.13,0,0,0,2.277,1.48,7.125,7.125,0,0,0,2.727.531,7.128,7.128,0,0,0,1.037-.076,5.93,5.93,0,0,0,1.056-.259,9.714,9.714,0,0,0,1.12-.468,13.081,13.081,0,0,0,1.24-.7.846.846,0,0,1,.392-.139q.227,0,.417.316l.721,1.189a.651.651,0,0,1,.088.3.538.538,0,0,1-.3.481,9.88,9.88,0,0,1-2.619,1.347,9.516,9.516,0,0,1-3.087.487,9.6,9.6,0,0,1-2.575-.342,9.438,9.438,0,0,1-2.3-.974,9.794,9.794,0,0,1-1.948-1.512,9.615,9.615,0,0,1-1.505-1.948,9.612,9.612,0,0,1-.968-2.3,9.608,9.608,0,0,1-.342-2.575,9.563,9.563,0,0,1,.342-2.562,9.569,9.569,0,0,1,.974-2.309,9.89,9.89,0,0,1,1.512-1.961,9.426,9.426,0,0,1,1.955-1.512,9.913,9.913,0,0,1,2.309-.974,9.443,9.443,0,0,1,2.575-.348,9.5,9.5,0,0,1,3,.468A10.086,10.086,0,0,1-2364.566,156.965Z" transform="translate(2379.913 -155.13)" fill="#2d2d2d"/>
      <path id="Tracciato_559" data-name="Tracciato 559" d="M-2248.427,157.287a.557.557,0,0,1,.152-.392.525.525,0,0,1,.4-.164h1.278a.653.653,0,0,1,.417.151.493.493,0,0,1,.19.4v17.674q0,.557-.607.557h-1.278a.492.492,0,0,1-.557-.557v-8.122h-10.666v8.122q0,.557-.607.557h-1.278a.492.492,0,0,1-.557-.557V157.287a.557.557,0,0,1,.152-.392.525.525,0,0,1,.4-.164h1.3a.579.579,0,0,1,.405.164.517.517,0,0,1,.177.392v7.1h10.666Z" transform="translate(2280.271 -156.478)" fill="#2d2d2d"/>
      <path id="Tracciato_560" data-name="Tracciato 560" d="M-2137.8,157.338q0-.607.557-.607h7.3a5.824,5.824,0,0,1,2.353.474,6.057,6.057,0,0,1,1.9,1.291,5.989,5.989,0,0,1,1.271,1.91,5.943,5.943,0,0,1,.462,2.334,5.851,5.851,0,0,1-.247,1.7,6.082,6.082,0,0,1-.69,1.512,5.885,5.885,0,0,1-1.063,1.246,6,6,0,0,1-1.379.917l3.34,6.844v.164q0,.393-.468.392h-1.531a.669.669,0,0,1-.607-.468l-3.037-6.377a1.707,1.707,0,0,1-.221.013c-.081,0-.194,0-.342.006s-.344.006-.588.006h-4.555v6.262q0,.557-.582.557h-1.316a.492.492,0,0,1-.557-.557Zm11.412,5.377a3.423,3.423,0,0,0-.272-1.341,3.706,3.706,0,0,0-.746-1.139,3.644,3.644,0,0,0-1.126-.791,3.358,3.358,0,0,0-1.411-.3h-5.4v7.135h5.453a3.348,3.348,0,0,0,1.392-.291,3.506,3.506,0,0,0,1.113-.784,3.669,3.669,0,0,0,.734-1.139A3.516,3.516,0,0,0-2126.386,162.715Z" transform="translate(2176.12 -156.478)" fill="#2d2d2d"/>
      <path id="Tracciato_561" data-name="Tracciato 561" d="M-2022.06,155.13a9.555,9.555,0,0,1,2.562.342,9.46,9.46,0,0,1,2.3.974,9.988,9.988,0,0,1,1.955,1.512,9.367,9.367,0,0,1,1.512,1.961,10.021,10.021,0,0,1,.974,2.322,9.51,9.51,0,0,1,.348,2.581,9.558,9.558,0,0,1-.342,2.562,9.461,9.461,0,0,1-.974,2.3,9.812,9.812,0,0,1-1.512,1.948,9.561,9.561,0,0,1-1.955,1.505,9.693,9.693,0,0,1-2.315.968,9.673,9.673,0,0,1-2.581.342,9.6,9.6,0,0,1-2.574-.342,9.437,9.437,0,0,1-2.3-.974,9.79,9.79,0,0,1-1.948-1.512,9.607,9.607,0,0,1-1.505-1.948,9.6,9.6,0,0,1-.968-2.3,9.593,9.593,0,0,1-.342-2.575,9.548,9.548,0,0,1,.342-2.562,9.554,9.554,0,0,1,.974-2.309,9.881,9.881,0,0,1,1.512-1.961,9.422,9.422,0,0,1,1.955-1.512,9.913,9.913,0,0,1,2.309-.974A9.443,9.443,0,0,1-2022.06,155.13Zm-7.237,9.628a7.008,7.008,0,0,0,.259,1.917,7.387,7.387,0,0,0,.727,1.721,7.128,7.128,0,0,0,1.126,1.461,7.122,7.122,0,0,0,1.461,1.126,7.375,7.375,0,0,0,1.721.727,7,7,0,0,0,1.917.26,7.015,7.015,0,0,0,1.91-.26,7.229,7.229,0,0,0,1.721-.727,7.2,7.2,0,0,0,1.455-1.126,7.142,7.142,0,0,0,1.126-1.461,7.407,7.407,0,0,0,.727-1.721,7.013,7.013,0,0,0,.26-1.917,6.955,6.955,0,0,0-.569-2.8,7.326,7.326,0,0,0-1.544-2.283,7.329,7.329,0,0,0-2.284-1.544,6.949,6.949,0,0,0-2.8-.569,7.014,7.014,0,0,0-1.917.259,7.416,7.416,0,0,0-1.721.727,7.155,7.155,0,0,0-1.461,1.126,7.2,7.2,0,0,0-1.126,1.455,7.244,7.244,0,0,0-.727,1.721A7.027,7.027,0,0,0-2029.3,164.758Z" transform="translate(2086.836 -155.13)" fill="#2d2d2d"/>
      <path id="Tracciato_562" data-name="Tracciato 562" d="M-1883.06,174.709q-.279,0-.493-.468l-5.554-13.436-1.48,14.157a.492.492,0,0,1-.557.557h-1.316q-.582,0-.582-.557l2-17.674a.493.493,0,0,1,.19-.4.653.653,0,0,1,.417-.151h1.948a.57.57,0,0,1,.557.468l5.491,13.424,5.542-13.424a.69.69,0,0,1,.2-.348.472.472,0,0,1,.316-.12h2.012a.52.52,0,0,1,.411.164.571.571,0,0,1,.146.392l2,17.674a.492.492,0,0,1-.557.557h-1.316q-.582,0-.582-.557l-1.48-14.157-5.58,13.436q-.215.468-.506.468Z" transform="translate(1970.103 -156.478)" fill="#2d2d2d"/>
      <path id="Tracciato_563" data-name="Tracciato 563" d="M-1733.421,155.13a9.555,9.555,0,0,1,2.562.342,9.456,9.456,0,0,1,2.3.974,9.988,9.988,0,0,1,1.955,1.512,9.371,9.371,0,0,1,1.512,1.961,10.026,10.026,0,0,1,.974,2.322,9.51,9.51,0,0,1,.348,2.581,9.558,9.558,0,0,1-.342,2.562,9.451,9.451,0,0,1-.974,2.3,9.812,9.812,0,0,1-1.512,1.948,9.558,9.558,0,0,1-1.955,1.505,9.693,9.693,0,0,1-2.315.968,9.673,9.673,0,0,1-2.581.342,9.6,9.6,0,0,1-2.574-.342,9.437,9.437,0,0,1-2.3-.974,9.79,9.79,0,0,1-1.948-1.512,9.607,9.607,0,0,1-1.505-1.948,9.6,9.6,0,0,1-.968-2.3,9.593,9.593,0,0,1-.342-2.575,9.548,9.548,0,0,1,.342-2.562,9.559,9.559,0,0,1,.974-2.309,9.881,9.881,0,0,1,1.512-1.961,9.422,9.422,0,0,1,1.955-1.512,9.918,9.918,0,0,1,2.309-.974A9.444,9.444,0,0,1-1733.421,155.13Zm-7.237,9.628a7.008,7.008,0,0,0,.259,1.917,7.392,7.392,0,0,0,.727,1.721,7.128,7.128,0,0,0,1.126,1.461,7.119,7.119,0,0,0,1.461,1.126,7.374,7.374,0,0,0,1.72.727,7,7,0,0,0,1.917.26,7.017,7.017,0,0,0,1.911-.26,7.233,7.233,0,0,0,1.721-.727,7.2,7.2,0,0,0,1.455-1.126,7.137,7.137,0,0,0,1.126-1.461,7.407,7.407,0,0,0,.727-1.721,7.013,7.013,0,0,0,.26-1.917,6.955,6.955,0,0,0-.569-2.8,7.327,7.327,0,0,0-1.544-2.283,7.331,7.331,0,0,0-2.284-1.544,6.949,6.949,0,0,0-2.8-.569,7.015,7.015,0,0,0-1.917.259,7.415,7.415,0,0,0-1.72.727,7.153,7.153,0,0,0-1.461,1.126,7.2,7.2,0,0,0-1.126,1.455,7.249,7.249,0,0,0-.727,1.721A7.027,7.027,0,0,0-1740.658,164.758Z" transform="translate(1843.883 -155.13)" fill="#2d2d2d"/>
    </g>
    <g id="Raggruppa_248" data-name="Raggruppa 248" transform="translate(-2378.797 -369.347)">
      <path id="Tracciato_564" data-name="Tracciato 564" d="M-2357.138,310.121a.825.825,0,0,1,.33.343.545.545,0,0,1-.04.5l-2.231,3.168a.521.521,0,0,1-.31.258.582.582,0,0,1-.4-.112,5.026,5.026,0,0,0-1.426-.752,5.108,5.108,0,0,0-1.65-.264,4.813,4.813,0,0,0-1.994.409,4.8,4.8,0,0,0-1.571,1.122,5.178,5.178,0,0,0-1.03,1.664,5.562,5.562,0,0,0-.37,2.033,5.509,5.509,0,0,0,.37,2.026,5.117,5.117,0,0,0,1.03,1.65,4.832,4.832,0,0,0,1.571,1.116,4.808,4.808,0,0,0,1.994.409,5.111,5.111,0,0,0,1.663-.27,5.11,5.11,0,0,0,1.439-.759.608.608,0,0,1,.4-.119.54.54,0,0,1,.317.238l2.257,3.248a.52.52,0,0,1,.04.488.849.849,0,0,1-.33.33,10.493,10.493,0,0,1-2.673,1.287,9.9,9.9,0,0,1-3.017.455,10.015,10.015,0,0,1-2.687-.356,9.97,9.97,0,0,1-2.409-1.016,10.14,10.14,0,0,1-2.04-1.578,10.214,10.214,0,0,1-1.578-2.033,9.846,9.846,0,0,1-1.016-2.4,10.013,10.013,0,0,1-.356-2.686,10.013,10.013,0,0,1,.356-2.686,10.094,10.094,0,0,1,1.016-2.416,10.23,10.23,0,0,1,1.578-2.053,9.845,9.845,0,0,1,2.04-1.578,10.348,10.348,0,0,1,2.409-1.017,9.856,9.856,0,0,1,2.687-.363,9.9,9.9,0,0,1,2.99.442A10.275,10.275,0,0,1-2357.138,310.121Z" transform="translate(2372.861 -308.405)" fill="#2d2d2d"/>
      <path id="Tracciato_565" data-name="Tracciato 565" d="M-2253.4,310.754a.392.392,0,0,1,.086-.172.937.937,0,0,1,.178-.171.938.938,0,0,1,.224-.126.618.618,0,0,1,.224-.046h3.38a.561.561,0,0,1,.383.139,1.691,1.691,0,0,1,.238.244l.33.752,6.931,17.875a.389.389,0,0,1-.04.429.644.644,0,0,1-.5.165h-3.789a.828.828,0,0,1-.469-.112.723.723,0,0,1-.258-.376q-.264-.673-.515-1.34t-.5-1.34h-7.01q-.251.673-.508,1.34t-.509,1.34a.661.661,0,0,1-.673.488h-3.894a.643.643,0,0,1-.416-.132.311.311,0,0,1-.059-.4Zm2.4,5.65q-.251.673-.508,1.452t-.508,1.571q-.251.792-.508,1.565t-.508,1.445h4.053Z" transform="translate(2278.375 -309.949)" fill="#2d2d2d"/>
      <path id="Tracciato_566" data-name="Tracciato 566" d="M-2125.926,310.82a.7.7,0,0,1,.185-.409.581.581,0,0,1,.449-.172h4.568a.614.614,0,0,1,.634.5l3.591,11.987,3.617-11.987a.676.676,0,0,1,.673-.5h4.515a.642.642,0,0,1,.429.165.618.618,0,0,1,.218.416q.462,4.647.944,9.221t.944,9.221v.066q0,.515-.581.515h-3.736a.553.553,0,0,1-.634-.581l-1.149-10.2-2.97,10.271a.742.742,0,0,1-.192.317.453.453,0,0,1-.323.185h-3.472a.5.5,0,0,1-.337-.178.565.565,0,0,1-.191-.323l-2.97-10.244-1.148,10.178q-.027.581-.647.581h-3.736a.508.508,0,0,1-.568-.581Z" transform="translate(2166.6 -309.949)" fill="#2d2d2d"/>
      <path id="Tracciato_567" data-name="Tracciato 567" d="M-1962.586,310.846a.629.629,0,0,1,.151-.442.553.553,0,0,1,.428-.165h13.1a.582.582,0,0,1,.449.171.651.651,0,0,1,.158.461v3.264a.688.688,0,0,1-.158.428.55.55,0,0,1-.462.2h-8.554v3.274h6.6a.7.7,0,0,1,.416.119.456.456,0,0,1,.165.4v2.852a.547.547,0,0,1-.145.356.522.522,0,0,1-.422.171h-6.614v3.38h8.871a.53.53,0,0,1,.594.605v3.317a.327.327,0,0,1-.105.237q-.053.368-.541.369h-13.348a.616.616,0,0,1-.422-.139.541.541,0,0,1-.158-.429Z" transform="translate(2027.524 -309.949)" fill="#2d2d2d"/>
      <path id="Tracciato_568" data-name="Tracciato 568" d="M-1849.822,310.846a.645.645,0,0,1,.145-.442.55.55,0,0,1,.436-.165h8.528a6.408,6.408,0,0,1,2.548.508,6.649,6.649,0,0,1,2.073,1.379,6.44,6.44,0,0,1,1.393,2.04,6.171,6.171,0,0,1,.508,2.488,5.9,5.9,0,0,1-.244,1.71,6.383,6.383,0,0,1-.68,1.518,6.45,6.45,0,0,1-1.036,1.281,6.777,6.777,0,0,1-1.313.983l3.393,6.39q.092.185.237.436a.9.9,0,0,1,.145.435.392.392,0,0,1-.139.324.582.582,0,0,1-.376.112h-4.528a.658.658,0,0,1-.4-.132.6.6,0,0,1-.231-.356l-3.208-6.033h-2.139v5.954q0,.568-.607.568h-3.921a.619.619,0,0,1-.422-.139.541.541,0,0,1-.158-.429Zm10.337,5.862a2.289,2.289,0,0,0-.145-.792,2.578,2.578,0,0,0-.409-.726,2.413,2.413,0,0,0-.634-.554,2.171,2.171,0,0,0-.818-.29q-.37-.026-.693-.046t-.706-.02h-1.822v4.845h2.429q.237,0,.422-.013c.123-.009.259-.022.409-.04a2.082,2.082,0,0,0,.832-.27,2.175,2.175,0,0,0,.62-.541,2.393,2.393,0,0,0,.383-.726A2.641,2.641,0,0,0-1839.485,316.708Z" transform="translate(1932.608 -309.949)" fill="#2d2d2d"/>
      <path id="Tracciato_569" data-name="Tracciato 569" d="M-1735.53,310.754a.388.388,0,0,1,.086-.172.932.932,0,0,1,.178-.171.936.936,0,0,1,.224-.126.618.618,0,0,1,.224-.046h3.38a.561.561,0,0,1,.383.139,1.7,1.7,0,0,1,.238.244l.33.752,6.931,17.875a.389.389,0,0,1-.04.429.643.643,0,0,1-.5.165h-3.789a.829.829,0,0,1-.469-.112.724.724,0,0,1-.257-.376q-.264-.673-.515-1.34t-.5-1.34h-7.01q-.251.673-.508,1.34t-.508,1.34a.661.661,0,0,1-.673.488h-3.894a.643.643,0,0,1-.416-.132.312.312,0,0,1-.06-.4Zm2.4,5.65q-.251.673-.508,1.452t-.508,1.571q-.251.792-.508,1.565t-.508,1.445h4.053Z" transform="translate(1842.474 -309.949)" fill="#2d2d2d"/>
    </g>
    <g id="Raggruppa_249" data-name="Raggruppa 249" transform="translate(-2363.213 -496.792)">
      <path id="Tracciato_570" data-name="Tracciato 570" d="M-2186.657-496.792v43.358l-35.012-35.012a28.408,28.408,0,0,1,20.151-8.346Z" transform="translate(2230.015 496.792)" fill="#a8a8fb"/>
      <path id="Tracciato_571" data-name="Tracciato 571" d="M-1965.455-488.444a28.4,28.4,0,0,0-20.149-8.348h-14.861v43.358h43.356v-14.861A28.407,28.407,0,0,0-1965.455-488.444Z" transform="translate(2043.823 496.792)" fill="#e9eaff"/>
      <path id="Tracciato_572" data-name="Tracciato 572" d="M-1957.109-222.856V-208a28.4,28.4,0,0,1-8.346,20.149l-35.01-35.01Z" transform="translate(2043.823 266.214)" fill="#a8a8fb"/>
      <path id="Tracciato_573" data-name="Tracciato 573" d="M-2231.044-409.049h0l-35.011-35.011a28.408,28.408,0,0,0-8.346,20.151v29.721a28.4,28.4,0,0,0,8.348,20.149,28.407,28.407,0,0,0,20.149,8.346h29.72a28.409,28.409,0,0,0,20.151-8.346Z" transform="translate(2274.401 452.406)" fill="#6c63ff"/>
      <circle id="Ellisse_223" data-name="Ellisse 223" cx="25.637" cy="25.637" r="25.637" transform="translate(17.721 17.721)" fill="#fff"/>
      <circle id="Ellisse_224" data-name="Ellisse 224" cx="23.355" cy="23.355" r="23.355" transform="translate(20.004 20.004)" fill="#2d2d2d"/>
      <circle id="Ellisse_225" data-name="Ellisse 225" cx="10.448" cy="10.448" r="10.448" transform="translate(32.91 32.91)" fill="#1d1d1b"/>
      <path id="Tracciato_574" data-name="Tracciato 574" d="M-1993.668-268.775a5.259,5.259,0,0,1,3,.743,6.892,6.892,0,0,1,2.29,2.162,6.882,6.882,0,0,1,1.1,2.948,5.212,5.212,0,0,1-.484,3.058C-1988.21-260.819-1992.964-267.985-1993.668-268.775Z" transform="translate(2038.102 304.877)" fill="#e9eaff"/>
    </g>
  </g>
</svg>
