<svg id="Livello_2" data-name="Livello 2" xmlns="http://www.w3.org/2000/svg" viewBox="0 0 261.51 73.61"><defs><style>.cls-1{fill:#282828;}</style></defs><path class="cls-1" d="M68.88,30.28h-7.2V9.64A9.64,9.64,0,0,0,45.22,2.82l-9.56,9.56a3.86,3.86,0,0,1-2.74,1.13H19.17a1.53,1.53,0,0,0,0,3H32.92a6.84,6.84,0,0,0,4.89-2L47.37,5A6.53,6.53,0,0,1,52,3a6.61,6.61,0,0,1,6.6,6.6V65.92A4.65,4.65,0,0,1,54,70.57H35.16a1.52,1.52,0,1,0,0,3H54a7.71,7.71,0,0,0,7.7-7.69V33.33h7.2a1.53,1.53,0,0,0,0-3Z"/><path class="cls-1" d="M37.48,60.1H51.23a1.52,1.52,0,1,0,0-3H37.48a6.88,6.88,0,0,0-4.89,2L23,68.64A6.6,6.6,0,0,1,11.77,64V7.69A4.65,4.65,0,0,1,16.42,3H35.24a1.52,1.52,0,0,0,0-3H16.42a7.71,7.71,0,0,0-7.7,7.69V30.28H1.52a1.53,1.53,0,0,0,0,3h7.2V64a9.64,9.64,0,0,0,16.46,6.82l9.56-9.56A3.84,3.84,0,0,1,37.48,60.1Z"/><path class="cls-1" d="M19.83,37.72a1.76,1.76,0,0,0,2.5,0l3-3,3,3a1.76,1.76,0,0,0,2.5,0,1.77,1.77,0,0,0,0-2.49l-3-3,3-3a1.76,1.76,0,0,0-2.5-2.49l-3,3-3-3a1.76,1.76,0,0,0-2.5,2.49l3,3-3,3A1.77,1.77,0,0,0,19.83,37.72Z"/><path class="cls-1" d="M50.08,32.2A6.12,6.12,0,1,0,44,38.33,6.13,6.13,0,0,0,50.08,32.2Zm-9.2,0A3.08,3.08,0,1,1,44,35.28,3.09,3.09,0,0,1,40.88,32.2Z"/><path class="cls-1" d="M27.15,42.84a2.19,2.19,0,0,0-3.32,1.87h0a2.2,2.2,0,0,0,.9,1.77,16.69,16.69,0,0,0,10.09,3.13,16.53,16.53,0,0,0,10.09-3.14,2.19,2.19,0,0,0-.25-3.67,2.17,2.17,0,0,0-2.2,0,14.11,14.11,0,0,1-7.62,2A14.35,14.35,0,0,1,27.15,42.84Z"/><path class="cls-1" d="M87.67,16.41c0,4.65-5.3,4.65-5.3,4.65H79.73v5.31A1.33,1.33,0,0,1,78.4,27.7h0a1.32,1.32,0,0,1-1.33-1.33v-6.3a1.65,1.65,0,0,1,1.65-1.65h.87l-2.2-3.48a2.08,2.08,0,0,1-.32-1.11h0a2.06,2.06,0,0,1,2.06-2.06h3.24S87.67,11.77,87.67,16.41Zm-2.64,0c0-2-2.66-2-2.66-2H80.23l2.48,4C83.42,18.3,85,18,85,16.41Z"/><path class="cls-1" d="M98.69,27.7l-4.14-6.64H93v5.31a1.33,1.33,0,0,1-1.34,1.33h0a1.33,1.33,0,0,1-1.33-1.33V18.42h2.53l-2.21-3.48a2.08,2.08,0,0,1-.32-1.11h0a2.07,2.07,0,0,1,2.07-2.06h3.24s5.32,0,5.32,4.64a4.32,4.32,0,0,1-3.5,4.37l4.32,6.92ZM96,18.39c.7-.07,2.32-.41,2.32-2,0-2-2.66-2-2.66-2H93.53Z"/><path class="cls-1" d="M103.93,18.82a5.92,5.92,0,1,1,4.41,4.41A5.94,5.94,0,0,1,103.93,18.82Zm9.63,8.88h-7.87a1.33,1.33,0,0,1-1.33-1.32h0a1.33,1.33,0,0,1,1.33-1.32h7.87a1.32,1.32,0,0,1,1.32,1.32h0A1.32,1.32,0,0,1,113.56,27.7Zm-7.09-10.88a3.28,3.28,0,1,0,2.58-2.58A3.28,3.28,0,0,0,106.47,16.82Z"/><path class="cls-1" d="M132.94,20.64v5.92a1.22,1.22,0,0,1-1.22,1.21h0a1.21,1.21,0,0,1-1.2-1.1l0-.4A6,6,0,0,1,126,27.93c-4.28,0-7.63-3-7.63-8.19a8,8,0,0,1,8-8.2,7.83,7.83,0,0,1,4.39,1.32,1.34,1.34,0,0,1,.21,2.05l-.09.08a1.21,1.21,0,0,1-1.54.12,5.34,5.34,0,0,0-3-.91,5.16,5.16,0,0,0-5.3,5.54c0,3.89,2.36,5.53,5.3,5.53a5.22,5.22,0,0,0,4-1.8v-2.3h-1.4a1.27,1.27,0,0,1-1.26-1.26h0a1.27,1.27,0,0,1,1.26-1.27h2.07A2,2,0,0,1,132.94,20.64Z"/><path class="cls-1" d="M144.37,27.08l-3.76-6h-1.52v5.31a1.33,1.33,0,0,1-1.33,1.33h0a1.33,1.33,0,0,1-1.34-1.33V20.23a1.81,1.81,0,0,1,1.81-1.81H139l-2.21-3.48a2.08,2.08,0,0,1-.32-1.11h0a2.07,2.07,0,0,1,2.07-2.06h3.24s5.33,0,5.33,4.64a4.33,4.33,0,0,1-3.51,4.37l3.06,4.9a1.32,1.32,0,0,1-1.12,2h0A1.3,1.3,0,0,1,144.37,27.08Zm-2.3-8.69c.7-.07,2.32-.41,2.32-2,0-2-2.66-2-2.66-2h-2.14Z"/><path class="cls-1" d="M158.09,25.59h-6.41l-.41,1.12a1.52,1.52,0,0,1-1.43,1h0a1.52,1.52,0,0,1-1.42-2.07l5-12.84a1.61,1.61,0,0,1,3,0l5,12.83A1.53,1.53,0,0,1,160,27.7h0a1.52,1.52,0,0,1-1.42-1ZM152.67,23h4.43l-2.21-6.34Z"/><path class="cls-1" d="M179,27.7h0a1.32,1.32,0,0,1-1.33-1.33V17.92l-4,8.64a2,2,0,0,1-1.79,1.14h0A2,2,0,0,1,170,26.59l-4.33-8.88v8.66a1.32,1.32,0,0,1-1.33,1.33h0A1.33,1.33,0,0,1,163,26.37v-13a1.65,1.65,0,0,1,1.66-1.65h0a1.65,1.65,0,0,1,1.49.92l5.61,11.48,5.35-11.45a1.67,1.67,0,0,1,1.5-.95h0a1.65,1.65,0,0,1,1.66,1.65v13A1.33,1.33,0,0,1,179,27.7Z"/><path class="cls-1" d="M199.84,27.7h0a1.33,1.33,0,0,1-1.33-1.33V17.92l-4,8.64a2,2,0,0,1-1.8,1.14h0a2,2,0,0,1-1.78-1.11l-4.33-8.88v8.66a1.33,1.33,0,0,1-1.33,1.33h0a1.32,1.32,0,0,1-1.33-1.33v-13a1.65,1.65,0,0,1,1.65-1.65h0a1.67,1.67,0,0,1,1.49.92l5.6,11.48L198,12.7a1.66,1.66,0,0,1,1.5-.95h0a1.66,1.66,0,0,1,1.66,1.65v13A1.33,1.33,0,0,1,199.84,27.7Z"/><path class="cls-1" d="M212.54,25.59h-6.42l-.42,1.12a1.51,1.51,0,0,1-1.43,1h0a1.52,1.52,0,0,1-1.42-2.07l5-12.86a1.61,1.61,0,0,1,3,0l5,12.85a1.53,1.53,0,0,1-1.43,2.08h0a1.54,1.54,0,0,1-1.43-1ZM207.11,23h4.44l-2.22-6.34Z"/><path class="cls-1" d="M224.28,14.2h-2.13V26.38a1.32,1.32,0,0,1-1.32,1.32h0a1.32,1.32,0,0,1-1.32-1.32V14.2h-2.13A1.22,1.22,0,0,1,216.16,13h0a1.22,1.22,0,0,1,1.22-1.22h6.9A1.21,1.21,0,0,1,225.49,13h0A1.21,1.21,0,0,1,224.28,14.2Z"/><path class="cls-1" d="M227.36,18.82a5.92,5.92,0,1,1,4.41,4.41A5.94,5.94,0,0,1,227.36,18.82ZM237,27.7h-7.88a1.33,1.33,0,0,1-1.32-1.32h0a1.33,1.33,0,0,1,1.32-1.32H237a1.32,1.32,0,0,1,1.32,1.32h0A1.32,1.32,0,0,1,237,27.7ZM229.9,16.82a3.28,3.28,0,1,0,2.58-2.58A3.28,3.28,0,0,0,229.9,16.82Z"/><path class="cls-1" d="M250.2,27.08l-3.76-6h-1.52v5.31a1.33,1.33,0,0,1-1.34,1.33h0a1.33,1.33,0,0,1-1.33-1.33V20.06a1.64,1.64,0,0,1,1.64-1.64h.89l-2.21-3.48a2.08,2.08,0,0,1-.32-1.11h0a2.07,2.07,0,0,1,2.07-2.06h3.24s5.32,0,5.32,4.64a4.32,4.32,0,0,1-3.5,4.37l3.06,4.9a1.32,1.32,0,0,1-1.12,2h0A1.3,1.3,0,0,1,250.2,27.08Zm-2.3-8.69c.7-.07,2.32-.41,2.32-2,0-2-2.66-2-2.66-2h-2.14Z"/><path class="cls-1" d="M259.65,14.2V25.27h.65a1.21,1.21,0,0,1,1.21,1.22h0a1.21,1.21,0,0,1-1.21,1.21h-4a1.21,1.21,0,0,1-1.21-1.21h0a1.21,1.21,0,0,1,1.21-1.22H257V14.2h-.55A1.21,1.21,0,0,1,255.21,13h0a1.21,1.21,0,0,1,1.22-1.22h3.78A1.21,1.21,0,0,1,261.42,13h0a1.21,1.21,0,0,1-1.21,1.21Z"/><path class="cls-1" d="M96.34,45c0,8.51-9.73,8.51-9.73,8.51H81.77v9.75a2.44,2.44,0,0,1-2.44,2.44h0a2.45,2.45,0,0,1-2.45-2.44V52.06a3.45,3.45,0,0,1,3.45-3.44h1.19l-4-6.38a3.81,3.81,0,0,1-.59-2h0a3.79,3.79,0,0,1,3.79-3.78h5.94S96.34,36.43,96.34,45ZM91.5,45c0-3.64-4.89-3.64-4.89-3.64H82.69l4.55,7.27C88.53,48.41,91.5,47.78,91.5,45Z"/><path class="cls-1" d="M106.1,41.31v7.31h9.73A2.42,2.42,0,0,1,118.25,51h0a2.42,2.42,0,0,1-2.42,2.42H106.1v7.31h12.19a2.42,2.42,0,0,1,2.43,2.42v0a2.42,2.42,0,0,1-2.43,2.42H104.68a3.46,3.46,0,0,1-3.46-3.46V39.89a3.46,3.46,0,0,1,3.46-3.46h13.61a2.42,2.42,0,0,1,2.43,2.42v0a2.42,2.42,0,0,1-2.43,2.42Z"/><path class="cls-1" d="M140.37,64.51l-6.88-11.05h-2.8v9.75a2.44,2.44,0,0,1-2.44,2.44h0a2.44,2.44,0,0,1-2.44-2.44V51.55a2.93,2.93,0,0,1,2.93-2.93h1.7l-4-6.38a3.73,3.73,0,0,1-.59-2h0a3.78,3.78,0,0,1,3.78-3.78h5.94s9.77,0,9.77,8.52c0,5.17-3.59,7.22-6.43,8l5.62,9a2.42,2.42,0,0,1-2.06,3.71h0A2.43,2.43,0,0,1,140.37,64.51Zm-4.21-15.93c1.29-.13,4.26-.75,4.26-3.63,0-3.64-4.89-3.64-4.89-3.64h-3.92Z"/><path class="cls-1" d="M187.79,59.9h0a2.45,2.45,0,0,1-.43,3.78,14.57,14.57,0,0,1-8,2.38c-8.05,0-14.65-5.84-14.65-15,0-8.81,6.1-15,14.65-15a14.36,14.36,0,0,1,8,2.41,2.44,2.44,0,0,1,.41,3.77h0a2.42,2.42,0,0,1-3.07.3,9.76,9.76,0,0,0-5.36-1.59c-6,0-9.68,4.25-9.68,10.14,0,6.26,4.3,10.15,9.68,10.15a9.83,9.83,0,0,0,5.35-1.59A2.44,2.44,0,0,1,187.79,59.9Z"/><path class="cls-1" d="M208.9,61.79H197.16l-.76,2a2.79,2.79,0,0,1-2.62,1.82h0a2.79,2.79,0,0,1-2.6-3.8l9.35-24.13a2.68,2.68,0,0,1,5,0l9.39,24.13a2.79,2.79,0,0,1-2.6,3.8h0a2.8,2.8,0,0,1-2.61-1.79ZM199,57h8.12L203,45.36Z"/><path class="cls-1" d="M219.81,57.55h.07a2.45,2.45,0,0,1,2.28,1.39,4.12,4.12,0,0,0,4,2.25c2.26,0,4.26-1.47,4.26-3.76a4.3,4.3,0,0,0-4.26-4,11.19,11.19,0,0,1-4.38-1A7.82,7.82,0,0,1,217,45,8.85,8.85,0,0,1,226.11,36a8.76,8.76,0,0,1,8.35,5.12,2.38,2.38,0,0,1-2.23,3.27h0A2.39,2.39,0,0,1,230,43a3.93,3.93,0,0,0-3.89-2.13c-2.29,0-4.25,1.33-4.25,4.05,0,2.42,2.08,3.71,4.25,3.71a11.08,11.08,0,0,1,4.35,1,8.22,8.22,0,0,1,4.76,7.81c0,5.59-4.39,8.64-9.11,8.64-3.92-.1-7.22-1.89-8.53-5.25A2.4,2.4,0,0,1,219.81,57.55Z"/><path class="cls-1" d="M239.92,48.71a10.86,10.86,0,1,1,8.85,8.85A10.88,10.88,0,0,1,239.92,48.71Zm17.8,16.94H243.27a2.42,2.42,0,0,1-2.42-2.42h0a2.42,2.42,0,0,1,2.42-2.42h14.45a2.42,2.42,0,0,1,2.42,2.42h0A2.42,2.42,0,0,1,257.72,65.65ZM244.65,46.09a6,6,0,1,0,5.19-5.19A6,6,0,0,0,244.65,46.09Z"/></svg>