<?xml version="1.0" encoding="utf-8"?>
<!-- Generator: Adobe Illustrator 25.3.0, SVG Export Plug-In . SVG Version: 6.00 Build 0)  -->
<svg version="1.1" id="logo_1_" xmlns="http://www.w3.org/2000/svg" xmlns:xlink="http://www.w3.org/1999/xlink" x="0px" y="0px"
	 viewBox="0 0 508.7 168.5" style="enable-background:new 0 0 508.7 168.5;" xml:space="preserve">
<style type="text/css">
	.st0{fill:#FFFFFF;}
</style>
<polygon class="st0" points="244.4,92.1 253.3,80 248.2,162.3 242.9,145.7 "/>
<polygon class="st0" points="0,103.4 15,94.7 23.8,99 19.9,127.1 21.1,137.5 25.2,119.8 45.8,96.6 52.2,100.2 49.9,133.6 59,118 
	74.8,96.1 82.8,99.9 78.9,112.5 82.8,160.3 78,160.3 67.5,127.5 70.7,106 59.5,125.1 48.7,160.3 41.8,156.2 41.8,131.5 43.7,110.7 
	29.9,123.3 22,157.1 16.7,160.3 9.7,150.3 12,106 "/>
<path class="st0" d="M89.2,155.9c0-0.9,0-41.7,0-41.7h7.6l2.6,7.3L94.3,148l3.1,12.3L89.2,155.9z"/>
<polygon class="st0" points="89.2,97.2 89.2,94.7 99.4,93.1 102.5,95.2 99.4,101.6 "/>
<polygon class="st0" points="101,157.4 105,143 107.9,153.2 120,144.7 102.5,116.3 109.7,111.3 120,114.2 120,106.3 127,108.4 
	120,131 115.3,118.3 111.8,116.3 109.4,119.5 127,150.3 117,160.3 "/>
<path class="st0" d="M151.1,124.5l-1.8-10.3l-15.8,1.2l-2.4,37.5l10,7.3l10-7.3l-7.4,0.7l-7.3-8.5l14.7-9.8V124.5z M144.9,133.3
	l-8.5,4l4.7-19.2h3.8V133.3z"/>
<polygon class="st0" points="155.8,118 155.8,137.3 158.5,157.6 162.5,159.1 166.6,133.3 173.3,118 175.4,137.3 178.9,133.3 
	182.1,111.3 173.1,111.3 162.5,126.3 162.5,120.7 158.5,118 "/>
<path class="st0" d="M209.4,115.4l-3.5-2.6l-15.8,5.3l-11.4,34l8.3,5l7-3.8l2.8-5.3l1.8,5l7.9,9.7l-0.6-27.4L209.4,115.4z
	 M196.8,140.9l-4.7,6.5l-7.9,3.2l12.6-28.5L196.8,140.9L196.8,140.9z"/>
<path class="st0" d="M232.9,115.7l-16.5,3.8l4.8-36v-3.4l-9.6,3.4v71.2l10.5,4.4l12.6-16.1l3.5-15.3L232.9,115.7z M227.3,144.2
	l-8.5,6.5c0-0.6-3.5-15.4-3.5-15.4l12-13.1l2.6,8.2L227.3,144.2z"/>
<path class="st0" d="M277.8,124.8l-2.6-12l-15.3,2.6l-2.6,37.5l10.4,7.3l8.6-6.5l-5.6,1.8l-8.5-13.2l15.5-7.2v-10.3H277.8z
	 M270.4,135.2l-7.9,1.2l5.2-18.3l2.8-1.5v18.6H270.4z"/>
<path class="st0" d="M365.2,100.3l-22.9-11.5l-39.5-3.4v3.7c0,0-21.4,13-20.5,14.1l24.2,45.2l10.9,7.8l-1.7-59.3l24.8-2.9l22.2,10.9
	l-34.6,23l-4.6-4.3l-2.4,4.3l14.1,9.7l34.1-30.7L365.2,100.3z M297.2,104.9l8-6.3l3.1,34.6L297.2,104.9z"/>
<polygon class="st0" points="372.5,151 372.5,109.5 380.2,109.5 380.8,114.6 376.7,142.5 380.8,154.1 "/>
<polygon class="st0" points="371.3,92.2 372.5,89.4 383.2,89.4 380.8,97.3 "/>
<polygon class="st0" points="388.9,154.1 384.8,137.7 384.8,112.8 390.8,115.9 390.8,120.8 403.7,104.6 410.9,107.2 408.4,129.5 
	404.1,131.8 402.3,116.6 393.2,131.8 393.2,149.3 "/>
<path class="st0" d="M436.1,107.2l-15.8,5.6l-11.8,34l7.9,5.9l6-2.8l4.2-7.1l9.6,15.8l-1.7-26.9L436.1,107.2z M425.9,136.4l-5.8,7.6
	l-5.8,1.7l11.6-27.1L425.9,136.4L425.9,136.4z"/>
<polygon class="st0" points="449.3,166 451.9,168.5 451.9,112.8 457.5,112.8 462.4,107.2 452.2,107.2 453,91.1 444.3,89.4 
	444.3,107.2 439.7,107.2 440.9,111.5 444.8,112.8 "/>
<g>
	<polygon class="st0" points="52.9,27.2 56.1,60.8 69,80.2 62.5,27.5 104.3,21.7 61,16.5 59.5,5.2 51.2,5.2 52.4,17.6 22.3,20.7 
		32.2,29.6 	"/>
	<path class="st0" d="M84.4,75.3C84.3,72.9,83,6.2,83,6.2l7.8-2.9l2.3,2l-3.3,16.5l-0.1,28.9l4.5-6.7l17-18.4l2.7,2.6v66.5l-4.7-3.8
		L103,38.8l-5.7,7l-7,32.3L84.4,75.3z"/>
	<path class="st0" d="M130.3,73.5l-6-10.8l14.7-8.6l-2.4-22.5L121.4,34l-3.1,37.8l11.1,6.6l8.2-4.5l1.3-2.2L130.3,73.5z M125.1,45.9
		l4.5-9.7h2.1v16.6l-7.9,1.9L125.1,45.9z"/>
	<path class="st0" d="M444.1,68.4c-0.1-1.8-1-51.1-1-51.1l5.8-2.1l1.7,1.5l-2.4,12.2l-0.1,21.4l3.3-5L464,31.7l2,1.9v49.2l-3.5-2.8
		l-4.6-38.5l-4.2,5.2l-5.2,23.9L444.1,68.4z"/>
	<path class="st0" d="M479.9,67.1l-4.4-8l10.9-6.4l-1.8-16.6l-11.2,1.8l-2.4,28l8.2,4.9l6.1-3.3l1-1.6L479.9,67.1z M476.1,46.7
		l3.3-7.2h1.6v12.3l-5.8,1.4L476.1,46.7z"/>
	<path class="st0" d="M245.3,32.5l-15.4,6.3l-7.2,10.1L205,40.8l-17.4-1.1l-0.7-2l8.6-6.2l5.7-9.5l-1.8-4.3l-3.9-2.9l-16.8-6.6
		L144.9,13l11.9,10.2l5.6-3.2l1.7,57.5l9.8,6L217,63.8l1.1,8.5l7.7,5.2l5.7-3.4l4.5-6.8l9.1,14.7V56.5l3.2-21.7L245.3,32.5z
		 M166.7,16.6l25.1,1.2L186,28l-10.9,8.3l-3.4-1.2l0.5-14l-5.4-1.8v-2.7C166.8,16.6,166.7,16.6,166.7,16.6z M216.1,56.7l-9.1,5.4
		l-34.2,13.2l-3.3-2.3l2-24.1l8.3-4.7l24.1,1.2l14.7,6.8L216.1,56.7z M235.6,60.6l-5.5,7.2l-5.5,2.9l11.1-28.1v18H235.6z"/>
	<polygon class="st0" points="251.4,1.6 261.7,0 256.6,82.2 250.2,51.5 	"/>
	<polygon class="st0" points="264.6,1.6 274.8,0 269.7,82.2 261.7,62.8 	"/>
	<path class="st0" d="M303.4,35.2l-1.9-2.6l-15.9,5.8l-13.9,27.4l9.6,11.4l3.9-1.3l6.1-8.6l2.4,6.3l7.2,10l-1.4-26.9L303.4,35.2z
		 M290.3,62l-5,5.2l-5.7-0.5l5.1-15.5l6.1-8.6L290.3,62z"/>
	<path class="st0" d="M334.3,4.4l-5.2-0.6l-3.2,31h-13.5L302.3,69l4.4,5.5l9.6,3.1l7.6-9.4l2.1,4.2l3.6-6.7l7.3-58.3L334.3,4.4z
		 M322.1,60.6l-11.7,10.2v-8.1l9.9-23.2l4.4,4.2L322.1,60.6z"/>
	<path class="st0" d="M367.5,39.5l-13,1.2c0,0-4.9,12.2-4.7,12.8l13,8l8.7-2.4l4.3-13.9L367.5,39.5z M361,58.1L359.4,47l4.9-4.3
		l3.1,1.6L361,58.1z"/>
	<polygon class="st0" points="393.1,27.4 405.1,24.9 405.1,18 392.6,16 381.6,17.2 381.6,23.3 387.1,42.7 368.2,41.5 371.6,43.9 
		387.9,46.2 391.2,65.1 387.9,75 383.8,67.6 380.6,73.3 381,77.6 386.4,82.2 390.8,79.6 394.5,76.8 392.6,46.4 413.6,45.8 
		392.2,42.7 392.6,19.4 396.1,20.7 399.6,24.1 	"/>
	<polygon class="st0" points="427.8,69.1 431.4,71.4 430.6,33.3 437.5,31.7 439,26.5 430.4,28.2 431.5,14.4 426.2,17 426.2,29.3 
		421.7,30.3 421.7,35 426.6,33.9 	"/>
</g>
<path class="st0" d="M466.6,136.5l16.4-4.7l-2.8-24.6l-15,4l-2.8,36.5l12.4,6.5l5.7-5.7l-5.4,1.4L466.6,136.5z M468,123.3l4.7-10.6
	h2.4V129l-7.1,1.7V123.3z"/>
<polygon class="st0" points="484.6,152 490,138 491,146.6 503.3,140 485.8,112.8 492,107.2 499.9,107.2 503.3,101.6 508.7,100.4 
	503.1,126.5 499.1,112.8 495.8,111.5 492.9,115.9 508.7,142.5 500.8,156.2 "/>
</svg>
