<svg id="logo" xmlns="http://www.w3.org/2000/svg" viewBox="0 0 532 96.93945"><defs><style>.cls-1{fill:#00ffb2;}.cls-2{fill:#fff;}.cls-3,.cls-4{fill:none;stroke-miterlimit:10;stroke-width:4px;}.cls-3{stroke:#fff;}.cls-4{stroke:#00ffb2;}</style></defs><path class="cls-1" d="M139.63828,39.19189a1.124,1.124,0,0,1-1.27149-1.272V9.52783a1.12419,1.12419,0,0,1,1.27149-1.272H150.8707q4.103,0,6.2041,2.11182,2.09911,2.1123,2.09961,6.2163v1.43995q0,4.08032-2.09961,6.19189-2.10059,2.1123-6.2041,2.1123h-9.98438v11.5918A1.11375,1.11375,0,0,1,139.63828,39.19189Zm1.248-15.38378h9.98438a6.03057,6.03057,0,0,0,4.40429-1.38038,6.03325,6.03325,0,0,0,1.37989-4.4038V16.584a6.0739,6.0739,0,0,0-1.37989-4.42822,6.03266,6.03266,0,0,0-4.40429-1.37988h-9.98438Z"/><path class="cls-1" d="M186.19785,39.26367a1.39972,1.39972,0,0,1-.97168.19238,1.20054,1.20054,0,0,1-.75586-.60009l-7.87207-12.52784h-8.8086v11.5918a1.25982,1.25982,0,1,1-2.51953,0V9.52783a1.12419,1.12419,0,0,1,1.27149-1.272H177.774q4.103,0,6.2041,2.11182,2.09912,2.1123,2.09961,6.2163v1.43995a8.84907,8.84907,0,0,1-1.65625,5.688,7.27556,7.27556,0,0,1-4.89551,2.52l7.08008,11.27979A1.12061,1.12061,0,0,1,186.19785,39.26367ZM167.78964,23.80811H177.774a6.03057,6.03057,0,0,0,4.40429-1.38038,6.03325,6.03325,0,0,0,1.37989-4.4038V16.584a6.0739,6.0739,0,0,0-1.37989-4.42822,6.03266,6.03266,0,0,0-4.40429-1.37988h-9.98438Z"/><path class="cls-1" d="M203.09335,39.19189q-5.20752,0-7.60742-2.3999-2.40087-2.39941-2.40039-7.60791V18.23975q0-5.25587,2.40039-7.644,2.39942-2.38769,7.55957-2.33984h5.8086q5.20752,0,7.5957,2.3999,2.3877,2.40015,2.38769,7.60791V29.18408q0,5.20826-2.38769,7.60791-2.38915,2.40015-7.5957,2.3999Zm0-2.52h5.76075a11.05865,11.05865,0,0,0,4.3916-.72022,4.44765,4.44765,0,0,0,2.35156-2.35156,11.13121,11.13121,0,0,0,.7207-4.416V18.26367a11.05614,11.05614,0,0,0-.7207-4.3916,4.4993,4.4993,0,0,0-2.35156-2.36426,10.909,10.909,0,0,0-4.3916-.73193h-5.8086a10.91313,10.91313,0,0,0-4.37988.68408,4.4012,4.4012,0,0,0-2.33984,2.35205,11.22388,11.22388,0,0,0-.71973,4.42774V29.18408a11.133,11.133,0,0,0,.71973,4.416,4.44765,4.44765,0,0,0,2.35156,2.35156A11.1337,11.1337,0,0,0,203.09335,36.67188Z"/><path class="cls-1" d="M236.524,39.19189q-5.20752,0-7.60742-2.3999-2.40088-2.39941-2.4004-7.60791V18.26367q0-5.25585,2.3877-7.63183,2.38915-2.376,7.57227-2.376h5.80859q4.415,0,6.57519,1.83594,2.16064,1.83618,2.376,5.89209a1.16038,1.16038,0,0,1-.25195.98388,1.25436,1.25436,0,0,1-.94727.33594,1.21608,1.21608,0,0,1-1.32031-1.272q-.16845-2.9751-1.63184-4.11572-1.46484-1.13965-4.7998-1.14014h-5.80859a11.23807,11.23807,0,0,0-4.39161.708,4.34657,4.34657,0,0,0-2.33984,2.35205,11.392,11.392,0,0,0-.708,4.42773V29.18408a11.133,11.133,0,0,0,.71973,4.416,4.44765,4.44765,0,0,0,2.35156,2.35156,11.13376,11.13376,0,0,0,4.416.72022h5.76074a10.21876,10.21876,0,0,0,3.876-.6001,3.65939,3.65939,0,0,0,2.02734-2.01612,10.27668,10.27668,0,0,0,.60059-3.91162v-3l-5.25586-.04834a1.11318,1.11318,0,0,1-1.24805-1.272,1.10294,1.10294,0,0,1,1.24805-1.24805l6.52734.04834a1.10313,1.10313,0,0,1,1.24805,1.248v4.272q0,4.752-2.13575,6.89991-2.1372,2.14818-6.88769,2.14794Z"/><path class="cls-1" d="M280.08359,39.26367a1.39971,1.39971,0,0,1-.97168.19238,1.20054,1.20054,0,0,1-.75586-.60009L270.484,26.32812h-8.8086v11.5918a1.25982,1.25982,0,1,1-2.51953,0V9.52783a1.12419,1.12419,0,0,1,1.27149-1.272h11.23242q4.103,0,6.2041,2.11182,2.09913,2.1123,2.09961,6.2163v1.43995a8.84907,8.84907,0,0,1-1.65625,5.688,7.27556,7.27556,0,0,1-4.89551,2.52l7.08008,11.27979A1.12061,1.12061,0,0,1,280.08359,39.26367ZM261.67538,23.80811h9.98438a6.03062,6.03062,0,0,0,4.4043-1.38038,6.03329,6.03329,0,0,0,1.37988-4.4038V16.584a6.07394,6.07394,0,0,0-1.37988-4.42822,6.0327,6.0327,0,0,0-4.4043-1.37988h-9.98438Z"/><path class="cls-1" d="M285.19589,39.07178a1.16574,1.16574,0,0,1-.69629-1.67969L296.4039,9.23975a1.40826,1.40826,0,0,1,1.416-.98389h.14355a1.46067,1.46067,0,0,1,1.3916.98389l11.9043,28.15234a1.14792,1.14792,0,0,1-.67188,1.67969,1.096,1.096,0,0,1-1.63183-.67188l-3.19238-7.53613H290.04355l-3.19238,7.53613A1.12152,1.12152,0,0,1,285.19589,39.07178Zm5.87989-10.752h13.63183L297.8912,12.23975Z"/><path class="cls-1" d="M318.38632,39.19189a1.124,1.124,0,0,1-1.27148-1.272V9.52783a1.12419,1.12419,0,0,1,1.27148-1.272,1.6274,1.6274,0,0,1,1.44043.83984L331.7789,27.35986l-.57617.07227L343.15488,9.0957a1.65043,1.65043,0,0,1,1.51172-.83984q1.12792,0,1.12793,1.272V37.91992a1.25983,1.25983,0,1,1-2.51954,0V12.04785l.74317.26416L332.93027,29.18408A1.6948,1.6948,0,0,1,331.41855,30a1.5957,1.5957,0,0,1-1.3916-.81592L318.93808,12.312l.69629.26367V37.91992A1.11376,1.11376,0,0,1,318.38632,39.19189Z"/><path class="cls-1" d="M356.0416,39.19189a1.124,1.124,0,0,1-1.27149-1.272V9.52783a1.12419,1.12419,0,0,1,1.27149-1.272,1.62741,1.62741,0,0,1,1.44043.83984l11.95214,18.26416-.57617.07227L380.81015,9.0957a1.65044,1.65044,0,0,1,1.51172-.83984q1.12793,0,1.12793,1.272V37.91992a1.25982,1.25982,0,1,1-2.51953,0V12.04785l.74316.26416L370.58554,29.18408A1.69479,1.69479,0,0,1,369.07382,30a1.5957,1.5957,0,0,1-1.3916-.81592L356.59335,12.312l.69629.26367V37.91992A1.11375,1.11375,0,0,1,356.0416,39.19189Z"/><path class="cls-1" d="M390.00156,39.07178a1.16572,1.16572,0,0,1-.69629-1.67969L401.20956,9.23975a1.40827,1.40827,0,0,1,1.416-.98389h.14355a1.46069,1.46069,0,0,1,1.39161.98389L416.065,37.39209a1.14791,1.14791,0,0,1-.67187,1.67969,1.096,1.096,0,0,1-1.63184-.67188l-3.19238-7.53613H394.84921l-3.19238,7.53613A1.12151,1.12151,0,0,1,390.00156,39.07178Zm5.87988-10.752h13.63184l-6.81641-16.08007Z"/><path class="cls-1" d="M427.22519,39.21582a1.27253,1.27253,0,0,1-.92383-.33594,1.20608,1.20608,0,0,1-.34766-.91211V10.752H415.75351a1.27252,1.27252,0,0,1-.92383-.33593,1.20817,1.20817,0,0,1-.34863-.91211,1.19789,1.19789,0,0,1,1.27246-1.272h22.94336a1.20744,1.20744,0,0,1,.91211.34815,1.27126,1.27126,0,0,1,.33594.92383,1.1595,1.1595,0,0,1-1.24805,1.248H428.47324V37.96777a1.19245,1.19245,0,0,1-1.248,1.248Z"/><path class="cls-1" d="M452.76132,39.19189q-5.20752,0-7.60742-2.3999-2.40089-2.39941-2.40039-7.60791V18.23975q0-5.25587,2.40039-7.644,2.39941-2.38769,7.55957-2.33984h5.80859q5.20752,0,7.59571,2.3999,2.38768,2.40015,2.38769,7.60791V29.18408q0,5.20826-2.38769,7.60791-2.38917,2.40015-7.59571,2.3999Zm0-2.52h5.76074a11.05867,11.05867,0,0,0,4.39161-.72022,4.44765,4.44765,0,0,0,2.35156-2.35156,11.13121,11.13121,0,0,0,.7207-4.416V18.26367a11.05614,11.05614,0,0,0-.7207-4.3916,4.4993,4.4993,0,0,0-2.35156-2.36426,10.909,10.909,0,0,0-4.39161-.73193h-5.80859a10.91313,10.91313,0,0,0-4.37988.68408,4.40125,4.40125,0,0,0-2.33985,2.35205,11.22408,11.22408,0,0,0-.71972,4.42774V29.18408a11.13324,11.13324,0,0,0,.71972,4.416,4.4477,4.4477,0,0,0,2.35157,2.35156A11.1337,11.1337,0,0,0,452.76132,36.67188Z"/><path class="cls-1" d="M497.76035,39.26367a1.39972,1.39972,0,0,1-.97168.19238,1.20054,1.20054,0,0,1-.75586-.60009l-7.87207-12.52784h-8.8086v11.5918a1.25982,1.25982,0,1,1-2.51953,0V9.52783a1.12419,1.12419,0,0,1,1.27149-1.272h11.23242q4.103,0,6.2041,2.11182,2.09911,2.1123,2.09961,6.2163v1.43995a8.84907,8.84907,0,0,1-1.65625,5.688,7.27556,7.27556,0,0,1-4.89551,2.52l7.08008,11.27979A1.12061,1.12061,0,0,1,497.76035,39.26367ZM479.35214,23.80811h9.98438a6.03057,6.03057,0,0,0,4.40429-1.38038,6.03325,6.03325,0,0,0,1.37989-4.4038V16.584a6.0739,6.0739,0,0,0-1.37989-4.42822,6.03266,6.03266,0,0,0-4.40429-1.37988h-9.98438Z"/><path class="cls-1" d="M506.568,39.19189a1.16531,1.16531,0,0,1-1.27148-1.272V9.50391a1.16532,1.16532,0,0,1,1.27148-1.272,1.23532,1.23532,0,0,1,.91211.33594,1.26706,1.26706,0,0,1,.33594.936v28.416a1.26707,1.26707,0,0,1-.33594.936A1.23336,1.23336,0,0,1,506.568,39.19189Z"/><path class="cls-1" d="M143.3287,58.56348V87.58594h4.78809v4.32617H136.651V54.2373h11.46582v4.32618Z"/><path class="cls-2" d="M174.3248,57.53418a8.71613,8.71613,0,0,1,3.27539,3.40234,9.98987,9.98987,0,0,1,1.17578,4.85157V66.334a10.10825,10.10825,0,0,1-1.17578,4.87207,8.66654,8.66654,0,0,1-3.27539,3.42286,9.245,9.245,0,0,1-4.78809,1.23828h-6.93066v9.32422H153.3248V56.2959h16.21191A9.25427,9.25427,0,0,1,174.3248,57.53418ZM162.60605,69.10547h3.82226a2.94565,2.94565,0,0,0,2.20508-.75586,2.82836,2.82836,0,0,0,.73535-2.05762v-.33594a2.81465,2.81465,0,0,0-.73535-2.0791,2.99525,2.99525,0,0,0-2.20508-.73535h-3.82226Z"/><path class="cls-2" d="M183.648,56.2959H208.6373v6.92969h-15.708v3.99023h13.44043v6.63574H192.92929v4.41016h16.00195v6.92969H183.648Z"/><path class="cls-2" d="M239.96933,69.94531a8.25686,8.25686,0,0,1-4.1582,3.15039l6.42578,12.09571h-10.416l-5.124-10.542h-3.44434v10.542h-9.28125V56.2959h17.68164a10.993,10.993,0,0,1,5.3125,1.19629,8.0452,8.0452,0,0,1,3.31836,3.23437,9.10191,9.10191,0,0,1,1.11328,4.43067A8.44559,8.44559,0,0,1,239.96933,69.94531Zm-8.77832-6.2998a2.51383,2.51383,0,0,0-1.84766-.75586h-6.09082v5.334h6.09082a2.47772,2.47772,0,0,0,1.84766-.77734,2.63282,2.63282,0,0,0,.75586-1.91016A2.56447,2.56447,0,0,0,231.191,63.64551Z"/><path class="cls-2" d="M284.57285,59.00488q3.73827,3.2124,3.73828,9.17676h-8.86231a5.74171,5.74171,0,0,0-1.32324-3.99023,5.64157,5.64157,0,0,0-7.89551.29394,8.04285,8.04285,0,0,0-1.32324,4.91406v2.68848a8.055,8.055,0,0,0,1.32324,4.89258,4.71291,4.71291,0,0,0,4.05274,1.78515,5.52378,5.52378,0,0,0,4.07422-1.38574,5.28311,5.28311,0,0,0,1.38574-3.90625h8.56836q0,5.92238-3.63282,9.07227-3.63428,3.14941-10.26953,3.14941-7.39306,0-11.19238-3.77929-3.80274-3.78077-3.80176-11.17286,0-7.39159,3.80176-11.17187,3.7998-3.77929,11.19238-3.7793Q280.83505,55.792,284.57285,59.00488Z"/><path class="cls-2" d="M312.6705,85.19141l-1.21777-4.07422H301.33066l-1.21778,4.07422H290.6207l10.542-28.89551h10.79394l10.542,28.89551Zm-9.4082-10.542h6.25879l-3.02442-10.29h-.168Z"/><path class="cls-2" d="M347.23691,58.03906a7.54959,7.54959,0,0,1,3.65332,6.65625v.50391h-8.69336v-.168a2.72271,2.72271,0,0,0-.92383-2.09961,4.07852,4.07852,0,0,0-2.81445-.83984,5.95955,5.95955,0,0,0-2.835.5459,1.57426,1.57426,0,0,0-.98731,1.34375,1.80179,1.80179,0,0,0,1.34375,1.68066,25.93325,25.93325,0,0,0,4.32617,1.13379,46.63356,46.63356,0,0,1,5.7334,1.49121,9.75938,9.75938,0,0,1,3.92676,2.541,6.79543,6.79543,0,0,1,1.72168,4.78711q0,5.1255-3.46484,7.60254-3.46435,2.47852-9.26075,2.47754-6.76318,0-10.5205-2.26758-3.76026-2.26756-3.75977-8.02246h8.77832q0,2.18555,1.13379,2.91895a6.62594,6.62594,0,0,0,3.52832.73535,9.53781,9.53781,0,0,0,2.91895-.37793,1.51145,1.51145,0,0,0,1.15527-1.55371,1.71011,1.71011,0,0,0-1.28125-1.5752,25.60613,25.60613,0,0,0-4.17871-1.11328,47.69993,47.69993,0,0,1-5.83789-1.57519,9.82814,9.82814,0,0,1-4.03223-2.709,7.3146,7.3146,0,0,1-1.72266-5.124,7.61049,7.61049,0,0,1,3.67579-6.99219,17.56886,17.56886,0,0,1,9.30273-2.24707A16.84669,16.84669,0,0,1,347.23691,58.03906Z"/><path class="cls-2" d="M382.22226,59.61328q4.07226,3.82324,4.07324,11.12988,0,7.3081-4.07324,11.13086-4.0752,3.82179-11.55078,3.82129-7.47657,0-11.52832-3.80078-4.0547-3.7998-4.05371-11.15137,0-7.34912,4.05371-11.15039,4.05176-3.80127,11.52832-3.80078Q378.14658,55.792,382.22226,59.61328Zm-16.08691,4.91406a7.21815,7.21815,0,0,0-1.55372,4.87207v2.68848A7.21637,7.21637,0,0,0,366.13535,76.96a5.65559,5.65559,0,0,0,4.53613,1.80566A5.72246,5.72246,0,0,0,375.2291,76.96a7.155,7.155,0,0,0,1.57421-4.87207V69.39941a7.15672,7.15672,0,0,0-1.57421-4.87207,5.72565,5.72565,0,0,0-4.55762-1.80566A5.65871,5.65871,0,0,0,366.13535,64.52734Z"/><path class="cls-1" d="M390.95761,91.91211V87.58594h4.78711V58.56348h-4.78711V54.2373h11.46582V91.91211Z"/><path class="cls-2" d="M47.421,53.7168V68.22754h2.394v2.16308H44.08212V51.55322H49.815V53.7168Z"/><path class="cls-2" d="M51.72568,64.80469h2.22607v2.22558H51.72568Z"/><path class="cls-2" d="M55.67343,64.80469h2.22608v2.22558H55.67343Z"/><path class="cls-2" d="M59.62119,64.80469h2.22607v2.22558H59.62119Z"/><path class="cls-2" d="M64.09433,70.39062V68.22754h2.39355V53.7168H64.09433V51.55322h5.73291v18.8374Z"/><path class="cls-1" d="M77.15439,33.23291l5.02588,1.834v1.98829l-7.3501-2.82813v-2.002l7.3501-2.84229v2.00244Z"/><path class="cls-1" d="M89.34775,27.42285a2.86118,2.86118,0,0,1,1.26025,1.001,2.59336,2.59336,0,0,1,.44776,1.50537,1.962,1.962,0,0,1-.2378.97266,2.819,2.819,0,0,1-.56006.72119,8.895,8.895,0,0,1-.812.644,7.14726,7.14726,0,0,0-.59472.48975.52773.52773,0,0,0-.18946.37841v.294H86.26816V32.729a.97332.97332,0,0,1,.21-.60888,6.19276,6.19276,0,0,1,.65771-.69287,5.272,5.272,0,0,0,.707-.728,1.15357,1.15357,0,0,0,.24512-.71436,1.01437,1.01437,0,0,0-.252-.69287.85127.85127,0,0,0-.67188-.28711q-.9104,0-.91015,1.17627a3.59479,3.59479,0,0,0,.01416.37793H83.692c-.00928-.06543-.01905-.14013-.02784-.22412a2.74274,2.74274,0,0,1-.01416-.3081,2.5611,2.5611,0,0,1,.48975-1.561A3.1527,3.1527,0,0,1,85.505,27.437a5.07524,5.07524,0,0,1,1.9668-.36377A4.70974,4.70974,0,0,1,89.34775,27.42285Zm-3.24805,9.4502V34.2832h2.77246v2.58985Z"/><path class="cls-1" d="M99.98788,34.22705l-7.3496,2.82813V35.06689l5.02587-1.834-5.02587-1.84766V29.38281l7.3496,2.84229Z"/><path class="cls-3" d="M65.04538,32.07831c0-.59869.03058-1.18988.077-1.77667A31.47376,31.47376,0,0,0,28.97879,76.48322c.83923,1.4126-9.34662,10.443-8.30377,11.70178,1.43274,1.72944,14.17944-4.3861,15.946-2.99749A31.46913,31.46913,0,0,0,86.92014,54.33143,22.25874,22.25874,0,0,1,65.04538,32.07831Z"/><path class="cls-4" d="M86.92014,54.33143c.12963.00219.25793.00982.38812.00982a22.16745,22.16745,0,0,0,13.74658-4.74975c1.24988-.98242,10.26837,3.34442,11.282,2.12079.73786-.89057-6.46875-7.27973-5.875-8.27912A22.26221,22.26221,0,1,0,65.12235,30.30164"/><path class="cls-4" d="M86.92014,54.33143A22.25874,22.25874,0,0,1,65.04538,32.07831c0-.59869.03058-1.18988.077-1.77667"/></svg>