<svg id="Livello_1" data-name="Livello 1" xmlns="http://www.w3.org/2000/svg" viewBox="0 0 196.55 196.55"><defs><style>.cls-1{fill:#fff;}</style></defs><path class="cls-1" d="M156.5,0H40.05A40.1,40.1,0,0,0,0,40.05V156.5a40.1,40.1,0,0,0,40.05,40.05H156.5a40.1,40.1,0,0,0,40.05-40.05V40.05A40.1,40.1,0,0,0,156.5,0ZM75,103.41a11.4,11.4,0,1,1-22.79,0V93.13a11.4,11.4,0,1,1,22.79,0ZM98.28,139a11.58,11.58,0,1,1,11.58-11.58A11.59,11.59,0,0,1,98.28,139Zm46.07-35.61a11.4,11.4,0,1,1-22.79,0V93.13a11.4,11.4,0,1,1,22.79,0Z"/></svg>