<svg id="Livello_1" data-name="Livello 1" xmlns="http://www.w3.org/2000/svg" viewBox="0 0 196.55 196.55"><defs><style>.cls-1{fill:#fff;}</style></defs><path class="cls-1" d="M156.5,0H40A40.08,40.08,0,0,0,0,40V156.5a40.09,40.09,0,0,0,40,40.05H156.5a40.1,40.1,0,0,0,40.05-40.05V40A40.09,40.09,0,0,0,156.5,0ZM75,93.13v10.28a11.39,11.39,0,1,1-22.78,0V93.13a11.34,11.34,0,0,1,2.25-6.82,3,3,0,0,1,3.4-1.06l15.08,5.1a3,3,0,0,1,2,2.76ZM83,131a15.33,15.33,0,1,1,30.65,0Zm61.39-27.63a11.39,11.39,0,1,1-22.78,0V93.11a3,3,0,0,1,2-2.76l15.08-5.1a3,3,0,0,1,3.4,1.06,11.34,11.34,0,0,1,2.25,6.82Z"/></svg>