<?xml version="1.0" encoding="utf-8"?>
<!-- Generator: Adobe Illustrator 24.0.0, SVG Export Plug-In . SVG Version: 6.00 Build 0)  -->
<svg version="1.1" id="Livello_1" xmlns="http://www.w3.org/2000/svg" xmlns:xlink="http://www.w3.org/1999/xlink" x="0px" y="0px"
	 viewBox="0 0 443 443" style="enable-background:new 0 0 443 443;" xml:space="preserve">
<style type="text/css">
	.st0{fill:#1D1D1B;}
</style>
<title>LOGO MUSELLA</title>
<path class="st0" d="M237.1,237.9c-7.6,0-16,3.8-22.3,10.1c-11.1,11-13.6,26.3-5.5,34.2c3.6,3.6,9,5.1,15.2,4.4
	c7.4-1.1,14.2-4.5,19.4-9.9c11.1-10.9,13.6-26.3,5.6-34.2C246.1,239.4,241.7,237.7,237.1,237.9z"/>
<path class="st0" d="M245.4,294.9c-5.8,3.6-12.2,5.9-19,6.8c-1.6,0.2-3.2,0.3-4.9,0.3c-9.1,0-17.1-3.1-23.1-9
	c-6.9-6.8-10-16.4-8.9-27.1c1.1-10.4,6.2-20.6,14.4-28.7c9.8-9.6,22.9-14.9,35.1-14.4l0,0l-2.3-21.3c-0.2-1.5-1.5-2.5-3-2.4
	c0,0-0.1,0-0.1,0l-68.9,9.8c-1.2,0.2-2.2,1.1-2.3,2.3c-1.6,15.5-8.7,49.1-36.3,101.3c-0.2,0.3-0.3,0.6-0.6,0.9l-2.1,3.2
	c-0.7,0.7-0.9,1.7-0.5,2.6l0.7,2c0.2,0.6,0.7,1.1,1.2,1.4c9.1,4.9,32.8,17.3,57.5,28.8c34.9,16.3,51.7,21.3,59.5,22.8
	c1.4,0.3,2.8-0.6,3.1-2.1c0-0.2,0.1-0.5,0-0.7c-0.7-9.4-1.7-24.4-1.9-39.5C242.9,316.2,243.7,304,245.4,294.9L245.4,294.9z"/>
<path class="st0" d="M221.5,0C99.2,0,0,99.2,0,221.5S99.2,443,221.5,443S443,343.8,443,221.5S343.8,0,221.5,0z M414.1,272.9
	c-3.2,3.4-20.6,27.3-29.8,67.6v0l-8.8,27.4c-0.2,0.7-1,1.1-1.7,0.8c-0.5-0.2-0.8-0.6-0.9-1l-3.9-27.8c-6-43.5-12.1-56-14.5-59.4
	c-0.1-0.1-0.2-0.1-0.3-0.1c0,0,0,0-0.1,0.1c-4.1,5.3-13,27.3-19.2,60.7l0,0l-6.5,22.6c-0.2,1.1-1.3,1.8-2.4,1.6
	c-0.8-0.2-1.5-0.9-1.6-1.7l-6.3-30.1c-3.9-18.4-7.9-32.5-10.8-40.4c0-0.1-0.2-0.2-0.3-0.2c-0.1,0-0.2,0.1-0.2,0.2
	c-1.8,10.4-3.2,27-3.5,43.2l-0.5,28.5c0,0.9-0.8,1.5-1.6,1.5c-0.6,0-1.1-0.4-1.4-0.9l-11.3-26.3c-16.1-37.6-24.9-48.1-28.1-51
	c-0.1-0.1-0.2-0.1-0.3,0c0,0,0,0,0,0.1c-1.6,3.5-4.4,13.8-4.1,42.1c0.2,23.3,2.5,46.8,2.5,47l0.2,1.9l-0.8,1.8
	c-1.4,3.1-4,5.5-7.3,6.5c-1.9,0.6-4,0.9-6,0.9c-28.3,0-109-42.6-133.1-55.6l-2.5-1.3c0,0-0.1-0.1-0.1-0.1l-1.8-4.9
	c-1.8-4.8-4.2-13.1-0.7-16.9l4.2-5.9c35.2-66.8,34.3-101.8,34.3-102.1l-0.3-6.7c0-0.1,0.1-0.2,0.2-0.3l102.5-14.6
	c0.1,0,0.3,0.1,0.3,0.2l4.9,45.9l0,0c1.9,1.2,3.7,2.6,5.4,4.2c10.2,10.1,11.9,26.6,4.6,41.5c-0.1,0.1,0,0.3,0.1,0.3c0,0,0.1,0,0.1,0
	c6.5,1.6,14.7,9.1,26.5,31.8c0.1,0.1,0.3,0.2,0.4,0.1c0.1,0,0.1-0.1,0.1-0.2c3-29.1,9.3-33.9,15.2-34.5c8-0.7,13.8,4.9,22,35.2
	c0.1,0.2,0.2,0.2,0.4,0.2c0.1,0,0.1-0.1,0.2-0.2c7.9-27.1,16.7-40.4,27-40.4h0.2c7.7,0.2,15.8,5.3,23.2,38.2c0,0.2,0.2,0.2,0.4,0.2
	c0.1,0,0.2-0.1,0.2-0.2c8.5-28.3,24-39,29.3-47.4c4.9-7.8,6.5-9.1,12.8-26.2c2.4-6.5,0.8-21.2-0.8-27.9
	c-2.2-9.6-21.6-38.5-28.2-44.8c-22.4-21.3-48-38.9-75.8-52.3c-69.9-33.9-135.6-29.8-195.5,12.4c-5.2,3.7-26.6,16.8-33.6,21.5
	c-0.1,0.1-0.1,0.2,0,0.4c0.1,0.1,0.2,0.1,0.3,0.1l34.3-11.5c0.1,0,0.3,0,0.3,0.2c0,0.1,0,0.2-0.1,0.3l-40,21.2
	c0,0-22.6,13.2-25.3,8.8c-4.7-7.4,3.8-14.5,12-21.3c8.9-7.4,23.5-18.2,43.2-32c64-45.1,137.1-49.8,211.5-13.6
	c55.5,27,83.3,58.5,84.8,60.2c0.1,0.1,11.9,15.4,12.5,16.2c2.7,3.6,11.1,19,12.8,23.1c4.6,11,4.2,34.8,2.7,40.1
	C431.5,245,427.7,258.3,414.1,272.9z"/>
</svg>
